<?xml version="1.0" encoding="utf-8"?>
<!-- Generator: Adobe Illustrator 22.0.0, SVG Export Plug-In . SVG Version: 6.00 Build 0)  -->
<svg version="1.1" xmlns="http://www.w3.org/2000/svg" xmlns:xlink="http://www.w3.org/1999/xlink" x="0px" y="0px"
	 viewBox="0 0 16 16" style="enable-background:new 0 0 16 16;" xml:space="preserve">
<style type="text/css">
	.st0{fill:#FFFFFF;}
	.st1{opacity:0.42;fill:#77C3AC;}
	.st2{opacity:0.48;fill:#008892;}
	.st3{opacity:0.75;fill:#00848D;}
</style>
<g id="Layer_2">
	<rect class="st0" width="16" height="16"/>
</g>
<g id="Layer_1">
	<g>
		<path class="st1" d="M2.5,8.9c3.5,3.1,8.1,3.2,11-0.2c0,0-0.1,0.8-0.6,1.7c-0.5,0.9-1.2,1.7-1.2,1.7s-1.2,1.3-3.1,1.5
			C5.5,13.9,3.2,12,2.5,8.9L2.5,8.9z"/>
		<path class="st2" d="M9.6,2.6c-4.5,1.5-6.1,5.5-4.9,9.9c0,0-0.7-0.5-1.2-1.3c-0.5-0.8-0.8-1.7-0.8-1.7S2,7.7,2.8,5.9
			c1-2.1,3.1-3.6,5.3-3.5C9.1,2.5,9.6,2.6,9.6,2.6L9.6,2.6z"/>
		<path class="st3" d="M11.8,12.1c0.5-2,0.2-4.1-0.9-5.9C9.6,4.2,8.2,3.4,6,2.8c0,0,0.8-0.3,1.8-0.4c1,0,1.9,0.2,1.9,0.2
			s1.8,0.4,2.9,2C13.8,6.5,14,9,12.7,11C12.2,11.7,11.8,12.1,11.8,12.1L11.8,12.1z"/>
	</g>
	<g>
	</g>
	<g>
	</g>
	<g>
	</g>
	<g>
	</g>
	<g>
	</g>
	<g>
	</g>
</g>
</svg>
