<?xml version="1.0" encoding="utf-8"?>
<!-- Generator: Adobe Illustrator 22.0.0, SVG Export Plug-In . SVG Version: 6.00 Build 0)  -->
<svg version="1.1" xmlns="http://www.w3.org/2000/svg" xmlns:xlink="http://www.w3.org/1999/xlink" x="0px" y="0px"
	 viewBox="0 0 48 48" style="enable-background:new 0 0 48 48;" xml:space="preserve">
<style type="text/css">
	.st0{fill:#FFFFFF;}
	.st1{opacity:0.42;fill:#77C3AC;}
	.st2{opacity:0.48;fill:#008892;}
	.st3{opacity:0.75;fill:#00848D;}
</style>
<g id="Layer_2">
	<rect class="st0" width="48" height="48"/>
</g>
<g id="Layer_1">
	<g>
		<path class="st1" d="M7.5,26.8c10.4,9.4,24.3,9.5,33.1-0.6c0,0-0.3,2.5-1.7,5.2c-1.4,2.7-3.6,5-3.6,5s-3.5,3.9-9.2,4.4
			C16.5,41.6,9.7,36,7.5,26.8L7.5,26.8z"/>
		<path class="st2" d="M28.7,7.8c-13.4,4.6-18.3,16.5-14.8,29.7c0,0-2.1-1.5-3.7-3.9c-1.6-2.5-2.4-5.2-2.4-5.2S6.1,23,8.5,17.8
			c2.9-6.4,9.3-10.9,16-10.5C27.2,7.4,28.7,7.8,28.7,7.8L28.7,7.8z"/>
		<path class="st3" d="M35.4,36.3c1.4-6.1,0.6-12.3-2.7-17.6c-3.8-6.1-8.1-8.4-14.8-10.3c0,0,2.3-1,5.3-1.2c3-0.1,5.7,0.6,5.7,0.6
			s5.4,1.2,8.6,5.9c3.9,5.8,4.6,13.3,0.5,19.1C36.5,35,35.4,36.3,35.4,36.3L35.4,36.3z"/>
	</g>
	<g>
	</g>
	<g>
	</g>
	<g>
	</g>
	<g>
	</g>
	<g>
	</g>
	<g>
	</g>
</g>
</svg>
