<?xml version="1.0"?>
<svg xmlns="http://www.w3.org/2000/svg" xmlns:xlink="http://www.w3.org/1999/xlink" xmlns:svgjs="http://svgjs.com/svgjs" version="1.1" width="512" height="512" x="0" y="0" viewBox="0 0 483.463 483.463" style="enable-background:new 0 0 512 512" xml:space="preserve" class=""><g>
<g xmlns="http://www.w3.org/2000/svg">
	<g>
		<path d="M394.04,303.716c9.163-16.517,13.967-35.096,13.96-53.984v-12.8c13.677-0.789,26.59-6.564,36.296-16.232l22.64-22.64    c21.913-21.738,22.054-57.124,0.316-79.037C451.773,103.42,428.586,98.338,408,106.036v-8.304c0-29.688-128.592-32-168-32    s-168,2.312-168,32v152c-0.007,18.888,4.797,37.467,13.96,53.984C44.384,312.396,0,327.732,0,353.732c0,42.016,120.736,64,240,64    s240-21.984,240-64C480,327.732,435.624,312.396,394.04,303.716z M408,123.332c15.6-8.599,35.007-5.846,47.6,6.752    c15.638,15.603,15.667,40.93,0.063,56.569c-0.021,0.021-0.042,0.042-0.063,0.063l-22.64,22.64    c-6.689,6.689-15.533,10.79-24.96,11.576V123.332z M240,81.732c80.176,0,135.336,8.8,149.552,16    c-0.528,0.264-1.152,0.536-1.792,0.8c-0.384,0.168-0.696,0.328-1.12,0.488c-1.008,0.392-2.192,0.8-3.432,1.184    c-0.264,0.088-0.472,0.168-0.8,0.256c-1.6,0.488-3.304,0.968-5.2,1.456c-0.528,0.136-1.152,0.264-1.696,0.4    c-1.432,0.344-2.88,0.696-4.48,1.04c-0.8,0.184-1.792,0.36-2.68,0.544c-1.44,0.288-2.872,0.576-4.424,0.864    c-1.048,0.2-2.192,0.384-3.296,0.576c-1.536,0.272-3.08,0.536-4.728,0.8l-3.816,0.576c-1.656,0.248-3.328,0.496-5.072,0.736    l-4.296,0.56c-1.792,0.224-3.608,0.456-5.48,0.672l-4.704,0.528c-1.936,0.208-3.92,0.416-5.936,0.616    c-1.648,0.16-3.323,0.317-5.024,0.472c-2.104,0.2-4.272,0.384-6.464,0.56l-5.328,0.424c-2.248,0.168-4.56,0.32-6.888,0.472    c-1.88,0.128-3.752,0.248-5.68,0.36c-2.4,0.144-4.968,0.272-7.488,0.4c-1.912,0.096-3.8,0.2-5.752,0.28    c-2.736,0.12-5.6,0.216-8.392,0.32c-1.864,0.064-3.688,0.136-5.6,0.192c-3.2,0.088-6.4,0.152-9.696,0.216    c-1.68,0-3.312,0.08-5.016,0.104c-4.952,0.104-10.048,0.104-15.272,0.104s-10.32,0-15.328-0.112c-1.704,0-3.336-0.072-5.016-0.104    c-3.264-0.064-6.528-0.128-9.696-0.216c-1.896-0.056-3.72-0.128-5.6-0.192c-2.824-0.104-5.656-0.2-8.392-0.32l-5.752-0.28    c-2.528-0.128-5.048-0.256-7.488-0.4c-1.928-0.112-3.8-0.24-5.68-0.36c-2.328-0.152-4.64-0.304-6.888-0.472l-5.328-0.424    c-2.192-0.176-4.36-0.36-6.464-0.56c-1.701-0.155-3.376-0.312-5.024-0.472c-2.016-0.2-4-0.408-5.936-0.616l-4.704-0.528    c-1.872-0.216-3.688-0.448-5.48-0.672l-4.296-0.56c-1.744-0.24-3.416-0.488-5.072-0.736l-3.816-0.576    c-1.648-0.264-3.2-0.528-4.728-0.8c-1.104-0.192-2.248-0.376-3.296-0.576c-1.552-0.28-2.976-0.576-4.408-0.864    c-0.896-0.184-1.848-0.36-2.704-0.544c-1.6-0.344-3.032-0.696-4.456-1.04c-0.552-0.136-1.176-0.264-1.712-0.4    c-1.896-0.488-3.632-0.968-5.2-1.456c-0.288-0.088-0.496-0.168-0.8-0.256c-1.24-0.4-2.4-0.8-3.432-1.184    c-0.424-0.16-0.736-0.32-1.12-0.488c-0.64-0.272-1.264-0.544-1.792-0.8C104.664,90.532,159.824,81.732,240,81.732z M88,113.476    h0.08c1.976,0.8,4.152,1.6,6.4,2.328c0.544,0.176,1.08,0.352,1.64,0.52c2.288,0.712,4.664,1.392,7.2,2.032l0.952,0.224    c2.336,0.576,4.8,1.12,7.272,1.6l1.96,0.4c2.731,0.533,5.536,1.045,8.416,1.536l1.896,0.296c2.552,0.408,5.136,0.8,7.776,1.16    l1.944,0.272c3.019,0.4,6.077,0.773,9.176,1.12l2.496,0.272c2.776,0.296,5.6,0.584,8.36,0.8l1.504,0.144    c3.163,0.288,6.331,0.555,9.504,0.8l2.696,0.2c3.144,0.232,6.28,0.44,9.384,0.632l1.24,0.072c2.864,0.165,5.699,0.317,8.504,0.456    l2.48,0.12c3.008,0.144,5.976,0.272,8.88,0.384l1.848,0.064c2.52,0.088,4.992,0.176,7.4,0.24l1.976,0.064l7.944,0.192h1.84    c2.224,0,4.376,0.08,6.4,0.104h1.232c2.336,0,4.504,0.048,6.568,0.064h1.36l5.672,0.16h5.648h1.36c2.064,0,4.232,0,6.568-0.064    h1.232c2.048,0,4.2-0.064,6.4-0.104h1.84l7.944-0.192l1.976-0.064c2.4-0.064,4.88-0.152,7.4-0.24l1.848-0.064    c2.904-0.112,5.872-0.24,8.88-0.384l2.48-0.12c2.805-0.133,5.64-0.285,8.504-0.456l1.24-0.072c3.104-0.192,6.24-0.4,9.384-0.632    l2.696-0.2c3.2-0.24,6.368-0.507,9.504-0.8l1.504-0.144c2.8-0.256,5.6-0.544,8.36-0.8l2.496-0.272    c3.099-0.352,6.157-0.725,9.176-1.12l1.944-0.272c2.629-0.368,5.219-0.755,7.768-1.16l1.904-0.296    c2.891-0.48,5.696-0.992,8.416-1.536l1.96-0.4c2.504-0.52,4.936-1.064,7.272-1.6l0.952-0.224c2.528-0.64,4.904-1.32,7.2-2.032    c0.56-0.168,1.096-0.344,1.6-0.52c2.256-0.736,4.432-1.504,6.4-2.328h0.08v136.096c-0.026,52.983-42.953,95.938-95.936,96H184    c-31.335-0.01-60.693-15.311-78.648-40.992h0C94.026,288.636,87.964,269.42,88,249.732V113.476z M240,401.732    c-138.784,0-224-27.96-224-48c0-9.832,24.864-24.984,79.336-35.6c0.928,1.192,1.992,2.248,2.952,3.4    c1.304,1.552,2.592,3.104,4,4.576c1.64,1.752,3.36,3.392,5.096,5.024c1.456,1.368,2.888,2.744,4.408,4    c1.832,1.544,3.744,2.968,5.672,4.392c1.6,1.168,3.12,2.4,4.752,3.448c2.024,1.336,4.128,2.528,6.232,3.728    c1.664,0.952,3.288,1.96,5,2.824c2.216,1.128,4.504,2.072,6.792,3.048c1.712,0.728,3.384,1.528,5.128,2.168    c2.4,0.904,4.952,1.6,7.464,2.328c1.672,0.488,3.312,1.072,5.016,1.488c2.824,0.68,5.712,1.12,8.6,1.6    c1.448,0.232,2.864,0.584,4.328,0.76c4.388,0.532,8.804,0.805,13.224,0.816h112c4.431-0.005,8.857-0.272,13.256-0.8    c1.456-0.176,2.88-0.528,4.328-0.76c2.888-0.456,5.776-0.896,8.6-1.6c1.704-0.416,3.344-1,5.024-1.488    c2.504-0.728,5.016-1.424,7.456-2.32c1.752-0.648,3.432-1.456,5.144-2.192c2.28-0.968,4.568-1.904,6.768-3.024    c1.72-0.872,3.36-1.888,5.032-2.848c2.096-1.192,4.192-2.4,6.2-3.712c1.6-1.088,3.2-2.296,4.8-3.472    c1.912-1.416,3.816-2.824,5.64-4.36c1.528-1.296,2.976-2.68,4.432-4.064c1.728-1.6,3.44-3.248,5.064-4.984    c1.384-1.488,2.688-3.048,4-4.616c0.96-1.144,2.016-2.192,2.936-3.376C439.136,328.748,464,343.9,464,353.732    C464,373.772,378.784,401.732,240,401.732z" fill="#ffffff" data-original="#000000" style="" class=""/>
	</g>
</g>
<g xmlns="http://www.w3.org/2000/svg">
</g>
<g xmlns="http://www.w3.org/2000/svg">
</g>
<g xmlns="http://www.w3.org/2000/svg">
</g>
<g xmlns="http://www.w3.org/2000/svg">
</g>
<g xmlns="http://www.w3.org/2000/svg">
</g>
<g xmlns="http://www.w3.org/2000/svg">
</g>
<g xmlns="http://www.w3.org/2000/svg">
</g>
<g xmlns="http://www.w3.org/2000/svg">
</g>
<g xmlns="http://www.w3.org/2000/svg">
</g>
<g xmlns="http://www.w3.org/2000/svg">
</g>
<g xmlns="http://www.w3.org/2000/svg">
</g>
<g xmlns="http://www.w3.org/2000/svg">
</g>
<g xmlns="http://www.w3.org/2000/svg">
</g>
<g xmlns="http://www.w3.org/2000/svg">
</g>
<g xmlns="http://www.w3.org/2000/svg">
</g>
</g></svg>
