<?xml version="1.0"?>
<svg xmlns="http://www.w3.org/2000/svg" xmlns:xlink="http://www.w3.org/1999/xlink" xmlns:svgjs="http://svgjs.com/svgjs" version="1.1" width="512" height="512" x="0" y="0" viewBox="0 0 512 512" style="enable-background:new 0 0 512 512" xml:space="preserve" class=""><g><path xmlns="http://www.w3.org/2000/svg" d="m16 401.11426a49.21324 49.21324 0 0 0 8 26.845v68.04074h16v-48.3042l8.25977 9.91162a39.89291 39.89291 0 0 0 30.72851 14.39258h33.01172a24.0275 24.0275 0 0 0 24 24h144a8 8 0 0 0 7.51855-5.26562l32-88a8 8 0 0 0 -7.51855-10.73438h-64a8 8 0 0 0 -7.51855 5.26562l-9.72168 26.73438h-26.84668l-43.99024-56.55859a39.74231 39.74231 0 0 0 -31.57324-15.44141h-9.72583a23.88238 23.88238 0 0 0 1.37622-8v-12.68555l2.34375-2.34375a19.31423 19.31423 0 0 0 -13.65723-32.9707h-12.68652a24.0275 24.0275 0 0 0 -24 24v24a23.88238 23.88238 0 0 0 1.37622 8h-8.262a49.16945 49.16945 0 0 0 -49.11422 49.11426zm62.98828 54.88574a23.938 23.938 0 0 1 -18.4375-8.63477l-20.876-25.05078a33.1153 33.1153 0 0 1 25.43948-54.31445h6.8855l-12.79956 9.59961 9.5996 12.80078 6.8772-5.15771 3.94019 7.88037-3.95264 19.76269-13.26416-17.68554-12.80078 9.5996 24 32a8.00091 8.00091 0 0 0 6.40039 3.2002h48v16zm15.57031-56h2.88282l4.8 24h-12.48287zm4.49707-16h-6.11132l-4.25734-8.51489 7.313-5.48487 7.313 5.48487zm-3.05566-32a8.00917 8.00917 0 0 1 -8-8v-4.68652l3.31348-3.31348h12.68652v8a8.00917 8.00917 0 0 1 -8 8zm72 104h-24v-16h8a16.01833 16.01833 0 0 1 16 16zm-40 16h85.30518l-2.90894 8h-74.39624a8.00917 8.00917 0 0 1 -8-8zm125.60352-64h46.9746l-26.18164 72h-46.9746zm-106.30952-30.73535 46.3916 59.64648a7.998 7.998 0 0 0 6.3144 3.08887h24.94165l-5.81811 16h-35.12354a32.05777 32.05777 0 0 0 -22.52026-30.56616l-19.40552-22.63984a8.00007 8.00007 0 0 0 -14.07422 5.206v16h-9.44141l-6.17578-30.877 3.94019-7.88037 6.8772 5.15771 9.5996-12.80078-12.79956-9.59956h8.34937a23.84767 23.84767 0 0 1 18.94439 9.26465zm-51.294-65.26465h12.68652a3.31318 3.31318 0 0 1 2.34278 5.65625l-2.34375 2.34375h-20.68555a8.00917 8.00917 0 0 1 8-8z" fill="#4d9b94" data-original="#000000" style=""/><path xmlns="http://www.w3.org/2000/svg" d="m472 16h-288a24.0275 24.0275 0 0 0 -24 24v296a24.0275 24.0275 0 0 0 24 24h288a24.0275 24.0275 0 0 0 24-24v-296a24.0275 24.0275 0 0 0 -24-24zm-288 16h288a8.00917 8.00917 0 0 1 8 8v24h-304v-24a8.00917 8.00917 0 0 1 8-8zm288 312h-288a8.00917 8.00917 0 0 1 -8-8v-256h304v256a8.00917 8.00917 0 0 1 -8 8z" fill="#4d9b94" data-original="#000000" style=""/><circle xmlns="http://www.w3.org/2000/svg" cx="192" cy="48" r="8" fill="#4d9b94" data-original="#000000" style=""/><circle xmlns="http://www.w3.org/2000/svg" cx="216" cy="48" r="8" fill="#4d9b94" data-original="#000000" style=""/><circle xmlns="http://www.w3.org/2000/svg" cx="240" cy="48" r="8" fill="#4d9b94" data-original="#000000" style=""/><path xmlns="http://www.w3.org/2000/svg" d="m304 96h-104a8.00039 8.00039 0 0 0 -8 8v112a8.00039 8.00039 0 0 0 8 8h104a8.00039 8.00039 0 0 0 8-8v-112a8.00039 8.00039 0 0 0 -8-8zm-49.9353 77.24951 25.9353-25.93603 16 16.001v42.55127zm41.9353-61.24951v28.68555l-10.34277-10.34278a8.003 8.003 0 0 0 -11.31446 0l-33.00659 33.0066-12.425-9.66382a7.99988 7.99988 0 0 0 -10.56836.65722l-10.34282 10.34278v-52.68555zm-88 75.31445 16.66309-16.66406 48.02124 37.34961h-64.68433z" fill="#4d9b94" data-original="#000000" style=""/><path xmlns="http://www.w3.org/2000/svg" d="m456 240h-120a8.00039 8.00039 0 0 0 -8 8v72a8.00039 8.00039 0 0 0 8 8h120a8.00039 8.00039 0 0 0 8-8v-72a8.00039 8.00039 0 0 0 -8-8zm-8 72h-104v-56h104z" fill="#4d9b94" data-original="#000000" style=""/><path xmlns="http://www.w3.org/2000/svg" d="m328 104h24v16h-24z" fill="#4d9b94" data-original="#000000" style=""/><path xmlns="http://www.w3.org/2000/svg" d="m368 104h88v16h-88z" fill="#4d9b94" data-original="#000000" style=""/><path xmlns="http://www.w3.org/2000/svg" d="m328 136h80v16h-80z" fill="#4d9b94" data-original="#000000" style=""/><path xmlns="http://www.w3.org/2000/svg" d="m424 136h32v16h-32z" fill="#4d9b94" data-original="#000000" style=""/><path xmlns="http://www.w3.org/2000/svg" d="m328 168h48v16h-48z" fill="#4d9b94" data-original="#000000" style=""/><path xmlns="http://www.w3.org/2000/svg" d="m392 168h64v16h-64z" fill="#4d9b94" data-original="#000000" style=""/><path xmlns="http://www.w3.org/2000/svg" d="m328 200h80v16h-80z" fill="#4d9b94" data-original="#000000" style=""/><path xmlns="http://www.w3.org/2000/svg" d="m424 200h32v16h-32z" fill="#4d9b94" data-original="#000000" style=""/><path xmlns="http://www.w3.org/2000/svg" d="m200 240h24v16h-24z" fill="#4d9b94" data-original="#000000" style=""/><path xmlns="http://www.w3.org/2000/svg" d="m240 240h64v16h-64z" fill="#4d9b94" data-original="#000000" style=""/><path xmlns="http://www.w3.org/2000/svg" d="m200 272h56v16h-56z" fill="#4d9b94" data-original="#000000" style=""/><path xmlns="http://www.w3.org/2000/svg" d="m272 272h32v16h-32z" fill="#4d9b94" data-original="#000000" style=""/><path xmlns="http://www.w3.org/2000/svg" d="m200 304h32v16h-32z" fill="#4d9b94" data-original="#000000" style=""/><path xmlns="http://www.w3.org/2000/svg" d="m248 304h56v16h-56z" fill="#4d9b94" data-original="#000000" style=""/></g></svg>
