<?xml version="1.0"?>
<svg xmlns="http://www.w3.org/2000/svg" xmlns:xlink="http://www.w3.org/1999/xlink" xmlns:svgjs="http://svgjs.com/svgjs" version="1.1" width="512" height="512" x="0" y="0" viewBox="0 0 62 62" style="enable-background:new 0 0 512 512" xml:space="preserve" class=""><g><g xmlns="http://www.w3.org/2000/svg"><g><path d="m40 29v12h-4v9h18v-21z" fill="#ffffff" data-original="#f0bc5e" style="" class=""/></g><g><path d="m53 8h-1v-.781c0-1.775-1.444-3.219-3.219-3.219-.92 0-1.718.623-1.94 1.515l-.432 1.727c-.112.446-.511.758-.971.758h-3.438c-1.103 0-2 .897-2 2v6c0 1.103.897 2 2 2h2c.659 0 1.245-.321 1.609-.814.756.522 1.665.814 2.627.814h4.764c1.654 0 3-1.346 3-3v-4c0-1.654-1.346-3-3-3zm-9 8h-2v-6h2zm10-1c0 .551-.448 1-1 1h-4.764c-.925 0-1.763-.476-2.236-1.256v-4.797c1.133-.214 2.061-1.067 2.349-2.22l.432-1.727c.672 0 1.219.547 1.219 1.219v2.781h3c.552 0 1 .449 1 1z" fill="#4d9b94" data-original="#000000" style="" class=""/><path d="m16 14h2v2h-2z" fill="#4d9b94" data-original="#000000" style="" class=""/><path d="m20 14h2v2h-2z" fill="#4d9b94" data-original="#000000" style="" class=""/><path d="m12 14h2v2h-2z" fill="#4d9b94" data-original="#000000" style="" class=""/><path d="m57.234 0h-18.468c-2.628 0-4.766 2.138-4.766 4.766 0 .198.013.396.037.591l.581 4.643h-26.618v30h-4c-2.206 0-4 1.794-4 4v2c0 2.206 1.794 4 4 4h4v12h50v-40.621c1.281-.721 2.212-2.009 2.404-3.554l1.559-12.468c.024-.196.037-.393.037-.591 0-2.628-2.138-4.766-4.766-4.766zm-22.367 12 .728 5.826c.008.06.029.115.038.174h-25.633v-6zm-26.867 34h18v2h-18zm20-3.382 3.658 1.829c.211.106.342.317.342.553s-.131.447-.342.553l-3.658 1.829zm-2 1.382h-18v-2h18zm-24 2v-2c0-1.103.897-2 2-2h2v6h-2c-1.103 0-2-.897-2-2zm54 14h-46v-10h17.236l5.316-2.658c.893-.446 1.448-1.344 1.448-2.342s-.555-1.896-1.447-2.342l-5.317-2.658h-17.236v-20h26.463c.871 1.212 2.281 2 3.861 2h3.676v1.586c0 1.331 1.083 2.414 2.414 2.414.637 0 1.259-.258 1.707-.707l3.293-3.293h4.262c.11 0 .215-.023.324-.03zm3.979-54.892-1.559 12.47c-.173 1.38-1.353 2.422-2.744 2.422h-5.09l-3.88 3.879c-.235.238-.706.045-.706-.293v-3.586h-5.676c-1.392 0-2.571-1.042-2.744-2.422l-1.559-12.47c-.014-.114-.021-.228-.021-.342 0-1.525 1.24-2.766 2.766-2.766h18.469c1.525 0 2.765 1.241 2.765 2.766 0 .114-.007.228-.021.342z" fill="#4d9b94" data-original="#000000" style="" class=""/><path d="m16 58h6v-6h-6zm2-4h2v2h-2z" fill="#4d9b94" data-original="#000000" style="" class=""/><path d="m24 58h6v-6h-6zm2-4h2v2h-2z" fill="#4d9b94" data-original="#000000" style="" class=""/><path d="m32 58h6v-6h-6zm2-4h2v2h-2z" fill="#4d9b94" data-original="#000000" style="" class=""/><path d="m40 58h6v-6h-6zm2-4h2v2h-2z" fill="#4d9b94" data-original="#000000" style="" class=""/><path d="m48 58h6v-6h-6zm2-4h2v2h-2z" fill="#4d9b94" data-original="#000000" style="" class=""/><path d="m36 48h2v2h-2z" fill="#4d9b94" data-original="#000000" style="" class=""/><path d="m40 48h14v2h-14z" fill="#4d9b94" data-original="#000000" style="" class=""/><path d="m36 44h18v2h-18z" fill="#4d9b94" data-original="#000000" style="" class=""/><path d="m36 40h18v2h-18z" fill="#4d9b94" data-original="#000000" style="" class=""/><path d="m38 22h-26v16h26zm-2 14h-22v-12h22z" fill="#4d9b94" data-original="#000000" style="" class=""/><path d="m40 36h14v2h-14z" fill="#4d9b94" data-original="#000000" style="" class=""/><path d="m40 32h14v2h-14z" fill="#4d9b94" data-original="#000000" style="" class=""/><path d="m40 28h14v2h-14z" fill="#4d9b94" data-original="#000000" style="" class=""/></g></g></g></svg>
