<?xml version="1.0"?>
<svg xmlns="http://www.w3.org/2000/svg" xmlns:xlink="http://www.w3.org/1999/xlink" xmlns:svgjs="http://svgjs.com/svgjs" version="1.1" width="512" height="512" x="0" y="0" viewBox="0 0 64 64" style="enable-background:new 0 0 512 512" xml:space="preserve" class=""><g><g xmlns="http://www.w3.org/2000/svg" id="Outline"><path d="M41,55a1,1,0,0,0-1,1v5a1,1,0,0,0,2,0V56A1,1,0,0,0,41,55Z" fill="#4d9b94" data-original="#000000" style=""/><path d="M51,55a1,1,0,0,0-1,1v5a1,1,0,0,0,2,0V56A1,1,0,0,0,51,55Z" fill="#4d9b94" data-original="#000000" style=""/><path d="M13,52a1,1,0,0,0-1,1v8a1,1,0,0,0,2,0V53A1,1,0,0,0,13,52Z" fill="#4d9b94" data-original="#000000" style=""/><path d="M26,43h-.026A4.948,4.948,0,0,0,27,40V38.975A4.983,4.983,0,0,0,24,30H20a4.983,4.983,0,0,0-3,8.975V40a4.948,4.948,0,0,0,1.026,3H18a6.006,6.006,0,0,0-6,6,1,1,0,0,0,2,0,4,4,0,0,1,4-4h1v1a1,1,0,0,0,.317.73l2.139,2a1,1,0,0,0,.683.27h.035a1.01,1.01,0,0,0,.7-.319l1.861-2A1,1,0,0,0,25,46V45h1a4,4,0,0,1,4,4V61a1,1,0,0,0,2,0V49A6.006,6.006,0,0,0,26,43Zm-7-3V38a2,2,0,0,1,2-2h2a2,2,0,0,1,2,2v2a3,3,0,0,1-6,0Zm1-8h4a3,3,0,0,1,3,3,2.842,2.842,0,0,1-.353,1.374A4,4,0,0,0,23,34H21a4,4,0,0,0-3.649,2.377A2.867,2.867,0,0,1,17,35,3,3,0,0,1,20,32Zm2.09,14.585L21,45.566V44.9a5,5,0,0,0,2,0v.707Z" fill="#4d9b94" data-original="#000000" style=""/><path d="M17,52a1,1,0,0,0-1,1v8a1,1,0,0,0,2,0V53A1,1,0,0,0,17,52Z" fill="#4d9b94" data-original="#000000" style=""/><path d="M27,52a1,1,0,0,0-1,1v8a1,1,0,0,0,2,0V53A1,1,0,0,0,27,52Z" fill="#4d9b94" data-original="#000000" style=""/><circle cx="22" cy="51" r="1" fill="#4d9b94" data-original="#000000" style=""/><circle cx="22" cy="55" r="1" fill="#4d9b94" data-original="#000000" style=""/><path d="M23,10a4,4,0,0,0-4.709-3.938A4.033,4.033,0,0,0,15.062,9.3a3.965,3.965,0,0,0,.63,2.939,1.567,1.567,0,0,1,.294.769A1,1,0,0,0,16,15v.893a3.082,3.082,0,0,0,2.5,3.066A3,3,0,0,0,22,16V15a1,1,0,0,0,.036-1.993,2.145,2.145,0,0,1,.336-.869A3.951,3.951,0,0,0,23,10Zm-5.968-.36a2.029,2.029,0,0,1,1.6-1.608A2.217,2.217,0,0,1,19,8a1.97,1.97,0,0,1,1.284.469A1.994,1.994,0,0,1,21,10a1.951,1.951,0,0,1-.311,1.058A4.036,4.036,0,0,0,20.016,13H17.994a3.5,3.5,0,0,0-.65-1.894A1.951,1.951,0,0,1,17.032,9.64ZM20,16a1,1,0,0,1-.353.762,1.013,1.013,0,0,1-.822.224A1.085,1.085,0,0,1,18,15.893V15h2Z" fill="#4d9b94" data-original="#000000" style=""/><path d="M33,10a1,1,0,0,0,0-2H28a1,1,0,0,0,0,2Z" fill="#4d9b94" data-original="#000000" style=""/><path d="M25,13a1,1,0,0,0,1,1h4a1,1,0,0,0,0-2H26A1,1,0,0,0,25,13Z" fill="#4d9b94" data-original="#000000" style=""/><path d="M24,17a1,1,0,0,0,1,1h4a1,1,0,0,0,0-2H25A1,1,0,0,0,24,17Z" fill="#4d9b94" data-original="#000000" style=""/><path d="M59,23a1,1,0,0,0,1-1V16a5.006,5.006,0,0,0-5-5H38V7a5.006,5.006,0,0,0-5-5H15a5.006,5.006,0,0,0-5,5V18a5.006,5.006,0,0,0,5,5h1.434l2.709,4.515a1,1,0,0,0,1.714,0L23.566,23H29a1,1,0,0,0,0-2H23a1,1,0,0,0-.857.485L20,25.056l-2.143-3.571A1,1,0,0,0,17,21H15a3,3,0,0,1-3-3V7a3,3,0,0,1,3-3H33a3,3,0,0,1,3,3v4.1A5.009,5.009,0,0,0,32,16V26a5.006,5.006,0,0,0,5,5h7.181l.6,3H40a1,1,0,0,0,0,2h8a3,3,0,0,1,0,6H44a3,3,0,0,1-3-3,1,1,0,0,0-2,0,4.977,4.977,0,0,0,2,3.974V43a4.948,4.948,0,0,0,1.026,3H42a6.006,6.006,0,0,0-6,6v9a1,1,0,0,0,2,0V52a4,4,0,0,1,4-4h8a4,4,0,0,1,4,4v9a1,1,0,0,0,2,0V52a6.006,6.006,0,0,0-6-6h-.026A4.948,4.948,0,0,0,51,43v-.026a4.978,4.978,0,0,0-2.925-8.966L50.48,31H55a5.006,5.006,0,0,0,5-5,1,1,0,0,0-2,0,3,3,0,0,1-3,3H50a1,1,0,0,0-.781.375L46.56,32.7l-.58-2.9A1,1,0,0,0,45,29H37a3,3,0,0,1-3-3V16a3,3,0,0,1,3-3H55a3,3,0,0,1,3,3v6A1,1,0,0,0,59,23ZM46,46a2.993,2.993,0,0,1-2.842-2.085A4.975,4.975,0,0,0,44,44h4a4.975,4.975,0,0,0,.842-.085A2.993,2.993,0,0,1,46,46Z" fill="#4d9b94" data-original="#000000" style=""/><circle cx="44" cy="25" r="1" fill="#4d9b94" data-original="#000000" style=""/><path d="M45,20.829A3,3,0,1,0,41,18a1,1,0,0,0,2,0,1,1,0,1,1,1,1,1,1,0,0,0-1,1v2a1,1,0,0,0,2,0Z" fill="#4d9b94" data-original="#000000" style=""/><path d="M55,16H50a1,1,0,0,0,0,2h5a1,1,0,0,0,0-2Z" fill="#4d9b94" data-original="#000000" style=""/><path d="M55,20H49a1,1,0,0,0,0,2h6a1,1,0,0,0,0-2Z" fill="#4d9b94" data-original="#000000" style=""/><path d="M48,26h7a1,1,0,0,0,0-2H48a1,1,0,0,0,0,2Z" fill="#4d9b94" data-original="#000000" style=""/><path d="M37,26h3a1,1,0,0,0,0-2H37a1,1,0,0,0,0,2Z" fill="#4d9b94" data-original="#000000" style=""/><path d="M37,22h2a1,1,0,0,0,0-2H37a1,1,0,0,0,0,2Z" fill="#4d9b94" data-original="#000000" style=""/><path d="M37,18h1a1,1,0,0,0,0-2H37a1,1,0,0,0,0,2Z" fill="#4d9b94" data-original="#000000" style=""/></g></g></svg>
