<?xml version="1.0" encoding="UTF-8"?>
<svg xmlns="http://www.w3.org/2000/svg" xmlns:xlink="http://www.w3.org/1999/xlink" width="810pt" height="809.999993pt" viewBox="0 0 810 809.999993" version="1.2">
<defs>
<clipPath id="clip1">
  <path d="M 161 97.820312 L 649 97.820312 L 649 712 L 161 712 Z M 161 97.820312 "/>
</clipPath>
</defs>
<g id="surface1">
<g clip-path="url(#clip1)" clip-rule="nonzero">
<path style=" stroke:none;fill-rule:nonzero;fill:rgb(30.198669%,60.778809%,58.039856%);fill-opacity:1;" d="M 618.605469 711.984375 L 191.175781 711.984375 C 174.859375 711.984375 161.589844 698.707031 161.589844 682.398438 L 161.589844 127.503906 C 161.589844 111.1875 174.867188 97.917969 191.175781 97.917969 L 618.613281 97.917969 C 634.929688 97.917969 648.207031 111.1875 648.207031 127.503906 L 648.207031 682.390625 C 648.199219 698.703125 634.921875 711.984375 618.605469 711.984375 Z M 191.175781 120.964844 C 187.636719 120.964844 184.636719 123.964844 184.636719 127.503906 L 184.636719 682.390625 C 184.636719 685.929688 187.636719 688.925781 191.175781 688.925781 L 618.613281 688.925781 C 622.152344 688.925781 625.152344 685.929688 625.152344 682.390625 L 625.152344 127.503906 C 625.152344 123.964844 622.152344 120.964844 618.613281 120.964844 Z M 191.175781 120.964844 "/>
</g>
<path style=" stroke:none;fill-rule:nonzero;fill:rgb(30.198669%,60.778809%,58.039856%);fill-opacity:1;" d="M 325.9375 248.375 C 302.523438 248.375 283.480469 229.324219 283.480469 205.90625 C 283.480469 182.484375 302.523438 163.4375 325.9375 163.4375 C 349.328125 163.4375 368.355469 182.484375 368.355469 205.90625 C 368.363281 229.324219 349.335938 248.375 325.9375 248.375 Z M 325.9375 186.484375 C 315.238281 186.484375 306.527344 195.195312 306.527344 205.90625 C 306.527344 216.613281 315.238281 225.324219 325.9375 225.324219 C 336.613281 225.324219 345.308594 216.613281 345.308594 205.90625 C 345.308594 195.195312 336.621094 186.484375 325.9375 186.484375 Z M 325.9375 186.484375 "/>
<path style=" stroke:none;fill-rule:nonzero;fill:rgb(30.198669%,60.778809%,58.039856%);fill-opacity:1;" d="M 329.125 367.625 C 328.300781 367.625 327.496094 367.617188 326.671875 367.605469 C 325.863281 367.617188 325.039062 367.625 324.234375 367.625 C 298.476562 367.625 273.707031 363.679688 252.597656 356.246094 C 248.59375 354.832031 245.679688 351.308594 245.042969 347.09375 C 241.945312 326.605469 247.300781 282.207031 289.820312 260.757812 C 293.722656 258.796875 298.378906 259.203125 301.898438 261.800781 L 326.671875 280.234375 L 351.472656 261.800781 C 354.972656 259.203125 359.632812 258.796875 363.53125 260.757812 C 406.050781 282.207031 411.421875 326.605469 408.320312 347.09375 C 407.671875 351.308594 404.769531 354.832031 400.757812 356.246094 C 379.640625 363.679688 354.878906 367.625 329.125 367.625 Z M 326.671875 344.550781 C 326.707031 344.550781 326.75 344.550781 326.789062 344.550781 C 347.898438 344.765625 368.203125 342.09375 385.925781 336.824219 C 385.941406 324.867188 382.875 300.085938 359.183594 284.789062 L 333.550781 303.851562 C 329.476562 306.886719 323.878906 306.886719 319.8125 303.851562 L 294.175781 284.789062 C 270.5 300.078125 267.414062 324.847656 267.429688 336.824219 C 285.144531 342.09375 305.496094 344.75 326.558594 344.550781 C 326.597656 344.550781 326.632812 344.550781 326.671875 344.550781 Z M 326.671875 344.550781 "/>
<path style=" stroke:none;fill-rule:nonzero;fill:rgb(30.198669%,60.778809%,58.039856%);fill-opacity:1;" d="M 553.839844 421.609375 L 267.429688 421.609375 C 261.0625 421.609375 255.910156 416.449219 255.910156 410.074219 C 255.910156 403.710938 261.0625 398.550781 267.429688 398.550781 L 553.839844 398.550781 C 560.207031 398.550781 565.367188 403.703125 565.367188 410.074219 C 565.367188 416.449219 560.207031 421.609375 553.839844 421.609375 Z M 553.839844 421.609375 "/>
<path style=" stroke:none;fill-rule:nonzero;fill:rgb(30.198669%,60.778809%,58.039856%);fill-opacity:1;" d="M 553.839844 484.710938 L 267.429688 484.710938 C 261.0625 484.710938 255.910156 479.558594 255.910156 473.1875 C 255.910156 466.8125 261.0625 461.652344 267.429688 461.652344 L 553.839844 461.652344 C 560.207031 461.652344 565.367188 466.8125 565.367188 473.1875 C 565.367188 479.558594 560.207031 484.710938 553.839844 484.710938 Z M 553.839844 484.710938 "/>
<path style=" stroke:none;fill-rule:nonzero;fill:rgb(30.198669%,60.778809%,58.039856%);fill-opacity:1;" d="M 553.839844 552.277344 L 479.792969 552.277344 C 473.4375 552.277344 468.273438 547.117188 468.273438 540.753906 C 468.273438 534.394531 473.429688 529.226562 479.792969 529.226562 L 553.839844 529.226562 C 560.207031 529.226562 565.367188 534.386719 565.367188 540.753906 C 565.367188 547.117188 560.207031 552.277344 553.839844 552.277344 Z M 553.839844 552.277344 "/>
<path style=" stroke:none;fill-rule:nonzero;fill:rgb(30.198669%,60.778809%,58.039856%);fill-opacity:1;" d="M 410.648438 552.277344 L 267.429688 552.277344 C 261.0625 552.277344 255.910156 547.117188 255.910156 540.753906 C 255.910156 534.394531 261.0625 529.226562 267.429688 529.226562 L 410.648438 529.226562 C 417.015625 529.226562 422.171875 534.386719 422.171875 540.753906 C 422.171875 547.117188 417.015625 552.277344 410.648438 552.277344 Z M 410.648438 552.277344 "/>
<path style=" stroke:none;fill-rule:nonzero;fill:rgb(30.198669%,60.778809%,58.039856%);fill-opacity:1;" d="M 553.839844 617.640625 L 479.792969 617.640625 C 473.4375 617.640625 468.273438 612.488281 468.273438 606.109375 C 468.273438 599.75 473.429688 594.582031 479.792969 594.582031 L 553.839844 594.582031 C 560.207031 594.582031 565.367188 599.75 565.367188 606.109375 C 565.367188 612.488281 560.207031 617.640625 553.839844 617.640625 Z M 553.839844 617.640625 "/>
<path style=" stroke:none;fill-rule:nonzero;fill:rgb(30.198669%,60.778809%,58.039856%);fill-opacity:1;" d="M 410.648438 617.640625 L 267.429688 617.640625 C 261.0625 617.640625 255.910156 612.488281 255.910156 606.109375 C 255.910156 599.75 261.0625 594.582031 267.429688 594.582031 L 410.648438 594.582031 C 417.015625 594.582031 422.171875 599.75 422.171875 606.109375 C 422.171875 612.488281 417.015625 617.640625 410.648438 617.640625 Z M 410.648438 617.640625 "/>
<path style=" stroke:none;fill-rule:nonzero;fill:rgb(30.198669%,60.778809%,58.039856%);fill-opacity:1;" d="M 553.839844 290.835938 L 447.507812 290.835938 C 441.140625 290.835938 435.988281 285.683594 435.988281 279.3125 C 435.988281 272.945312 441.140625 267.785156 447.507812 267.785156 L 553.839844 267.785156 C 560.207031 267.785156 565.367188 272.945312 565.367188 279.3125 C 565.367188 285.683594 560.207031 290.835938 553.839844 290.835938 Z M 553.839844 290.835938 "/>
<path style=" stroke:none;fill-rule:nonzero;fill:rgb(30.198669%,60.778809%,58.039856%);fill-opacity:1;" d="M 553.839844 356.199219 L 447.507812 356.199219 C 441.140625 356.199219 435.988281 351.046875 435.988281 344.675781 C 435.988281 338.308594 441.140625 333.148438 447.507812 333.148438 L 553.839844 333.148438 C 560.207031 333.148438 565.367188 338.308594 565.367188 344.675781 C 565.367188 351.046875 560.207031 356.199219 553.839844 356.199219 Z M 553.839844 356.199219 "/>
<path style=" stroke:none;fill-rule:nonzero;fill:rgb(30.198669%,60.778809%,58.039856%);fill-opacity:1;" d="M 553.839844 225.476562 L 447.507812 225.476562 C 441.140625 225.476562 435.988281 220.320312 435.988281 213.960938 C 435.988281 207.589844 441.140625 202.421875 447.507812 202.421875 L 553.839844 202.421875 C 560.207031 202.421875 565.367188 207.582031 565.367188 213.960938 C 565.367188 220.320312 560.207031 225.476562 553.839844 225.476562 Z M 553.839844 225.476562 "/>
</g>
</svg>
