<?xml version="1.0" encoding="UTF-8"?>
<svg xmlns="http://www.w3.org/2000/svg" xmlns:xlink="http://www.w3.org/1999/xlink" width="810pt" height="809.999993pt" viewBox="0 0 810 809.999993" version="1.2">
<defs>
<clipPath id="clip1">
  <path d="M 96.027344 96.027344 L 714.027344 96.027344 L 714.027344 714.027344 L 96.027344 714.027344 Z M 96.027344 96.027344 "/>
</clipPath>
</defs>
<g id="surface1">
<g clip-path="url(#clip1)" clip-rule="nonzero">
<path style=" stroke:none;fill-rule:nonzero;fill:rgb(30.198669%,60.778809%,58.039856%);fill-opacity:1;" d="M 590.425781 446.226562 L 592.386719 446.226562 C 581.503906 464.929688 561.152344 477.128906 538.925781 477.128906 C 535.25 477.128906 531.613281 476.808594 528.089844 476.175781 C 525.851562 475.777344 523.632812 475.261719 521.476562 474.621094 C 506.40625 470.195312 493.382812 459.890625 485.464844 446.226562 L 487.425781 446.226562 C 498.785156 446.226562 508.027344 436.984375 508.027344 425.628906 L 508.027344 389.984375 C 517.785156 393.0625 528.164062 394.726562 538.925781 394.726562 C 549.691406 394.726562 560.070312 393.0625 569.828125 389.984375 L 569.828125 425.628906 C 569.828125 436.984375 579.070312 446.226562 590.425781 446.226562 Z M 641.925781 446.226562 C 664.644531 446.226562 683.128906 464.710938 683.128906 487.425781 L 683.128906 559.527344 L 659.746094 559.527344 C 655.144531 540.203125 643.980469 522.933594 627.664062 510.203125 L 614.988281 526.449219 C 629.496094 537.761719 638.71875 553.632812 640.972656 571.15625 C 643.449219 590.265625 637.238281 609.816406 623.933594 624.78125 C 622.789062 626.066406 622.011719 627.597656 621.617188 629.242188 L 602.613281 631.355469 L 576.816406 618.457031 L 595.804688 589.203125 C 600.339844 582.234375 601.8125 573.960938 599.953125 565.902344 C 598.066406 557.722656 592.992188 550.785156 585.664062 546.386719 C 570.953125 537.550781 551.460938 541.929688 542.210938 556.164062 L 468.488281 669.730469 C 466.949219 672.097656 466.449219 675 467.113281 677.746094 L 470.878906 693.425781 L 456.527344 693.425781 L 456.527344 631.628906 C 456.527344 629.101562 455.601562 626.667969 453.921875 624.78125 C 453.175781 623.941406 452.457031 623.09375 451.753906 622.226562 C 452.203125 621.855469 452.664062 621.511719 453.09375 621.125 C 459.890625 615.046875 464.527344 606.777344 466.136719 597.894531 C 466.597656 595.4375 466.828125 592.921875 466.828125 590.425781 L 466.828125 455.128906 C 477.277344 474.035156 495.035156 488.328125 515.648438 494.382812 C 518.527344 495.234375 521.503906 495.933594 524.476562 496.460938 C 529.179688 497.300781 534.039062 497.726562 538.925781 497.726562 C 572.46875 497.726562 602.828125 476.902344 615.285156 446.226562 Z M 662.074219 580.128906 L 683.128906 580.128906 L 683.128906 622.410156 L 648.457031 626.261719 C 657.226562 612.289062 661.953125 596.328125 662.074219 580.128906 Z M 518.328125 693.425781 L 518.328125 640.070312 L 558.082031 632.121094 L 596.121094 651.140625 C 597.894531 652.027344 599.890625 652.382812 601.863281 652.160156 L 683.128906 643.132812 L 683.128906 662.527344 C 683.128906 679.566406 669.265625 693.425781 652.226562 693.425781 Z M 497.726562 690.109375 L 491.597656 691.476562 L 488.175781 677.234375 L 497.726562 662.523438 Z M 556.871094 611.355469 L 527.074219 617.3125 L 559.488281 567.382812 C 562.757812 562.347656 569.742188 560.851562 575.050781 564.042969 C 577.546875 565.542969 579.261719 567.84375 579.878906 570.535156 C 580.46875 573.089844 579.992188 575.730469 578.53125 577.984375 Z M 374.128906 693.425781 L 374.128906 662.527344 C 374.128906 656.839844 369.515625 652.226562 363.828125 652.226562 L 345.539062 652.226562 L 350.464844 631.628906 L 405.191406 631.628906 L 387.023438 693.425781 Z M 313.695312 693.425781 L 316.269531 672.828125 L 353.527344 672.828125 L 353.527344 693.425781 Z M 212.21875 693.425781 L 248.269531 549.226562 L 310.960938 549.226562 L 292.933594 693.425781 Z M 318.84375 652.226562 L 321.421875 631.628906 L 329.285156 631.628906 L 324.363281 652.226562 Z M 426.671875 631.601562 C 428.667969 631.550781 430.640625 631.359375 432.582031 631.027344 C 433.652344 632.515625 434.765625 633.984375 435.925781 635.414062 L 435.925781 693.425781 L 408.492188 693.425781 Z M 137.226562 611.027344 C 125.867188 611.027344 116.628906 601.785156 116.628906 590.425781 L 116.628906 405.027344 C 116.628906 393.671875 125.867188 384.425781 137.226562 384.425781 L 425.628906 384.425781 C 436.984375 384.425781 446.226562 393.671875 446.226562 405.027344 L 446.226562 590.425781 C 446.226562 591.664062 446.113281 592.910156 445.878906 594.179688 C 445.074219 598.613281 442.757812 602.734375 439.34375 605.785156 C 437.550781 607.402344 435.507812 608.664062 433.207031 609.574219 C 430.816406 610.539062 428.265625 611.027344 425.628906 611.027344 L 323.996094 611.027344 L 332.847656 540.203125 C 333.214844 537.273438 332.304688 534.324219 330.347656 532.113281 C 328.394531 529.894531 325.578125 528.628906 322.628906 528.628906 L 240.226562 528.628906 C 235.5 528.628906 231.378906 531.847656 230.234375 536.425781 L 211.585938 611.027344 Z M 456.527344 291.726562 L 456.527344 247.507812 C 508.777344 238.515625 573.613281 211.761719 596.574219 201.824219 L 621.328125 243.078125 L 621.328125 291.726562 C 621.328125 337.160156 584.363281 374.128906 538.925781 374.128906 C 493.492188 374.128906 456.527344 337.160156 456.527344 291.726562 Z M 415.328125 271.128906 C 415.328125 259.769531 424.570312 250.527344 435.925781 250.527344 L 435.925781 291.726562 C 424.570312 291.726562 415.328125 282.484375 415.328125 271.128906 Z M 435.925781 209.328125 C 435.925781 158.214844 477.515625 116.628906 528.628906 116.628906 L 549.226562 116.628906 C 582.246094 116.628906 612.984375 134.386719 629.539062 162.996094 C 629.59375 163.097656 629.652344 163.199219 629.707031 163.292969 C 637.703125 177.246094 641.925781 193.164062 641.925781 209.328125 L 641.925781 229.925781 L 637.460938 229.925781 L 609.558594 183.425781 C 606.867188 178.941406 601.230469 177.183594 596.46875 179.351562 C 595.566406 179.753906 506.332031 220.078125 445.214844 228.433594 C 445.089844 228.445312 444.964844 228.457031 444.839844 228.472656 C 441.746094 228.894531 438.769531 229.226562 435.925781 229.464844 Z M 693.425781 229.925781 L 693.425781 383.566406 C 664.238281 378.652344 641.925781 353.195312 641.925781 322.628906 L 641.925781 312.328125 C 664.644531 312.328125 683.128906 293.84375 683.128906 271.128906 C 683.128906 255.914062 674.828125 242.605469 662.527344 235.46875 L 662.527344 209.328125 C 662.527344 197.089844 660.546875 184.976562 656.707031 173.464844 C 663.59375 176.527344 669.925781 180.832031 675.328125 186.222656 C 687 197.90625 693.425781 213.425781 693.425781 229.925781 Z M 662.527344 271.128906 C 662.527344 282.484375 653.285156 291.726562 641.925781 291.726562 L 641.925781 250.527344 C 653.285156 250.527344 662.527344 259.769531 662.527344 271.128906 Z M 625.269531 347.785156 C 635.933594 380.953125 667.0625 405.027344 703.726562 405.027344 C 709.414062 405.027344 714.027344 400.414062 714.027344 394.726562 L 714.027344 229.925781 C 714.027344 207.929688 705.457031 187.238281 689.890625 171.652344 C 677.65625 159.429688 661.832031 151.378906 644.882812 148.613281 C 624.164062 116.054688 587.984375 96.027344 549.226562 96.027344 L 528.628906 96.027344 C 466.152344 96.027344 415.328125 146.851562 415.328125 209.328125 L 415.328125 235.46875 C 403.027344 242.605469 394.726562 255.914062 394.726562 271.128906 C 394.726562 293.84375 413.210938 312.328125 435.925781 312.328125 L 438 312.328125 C 443.957031 341.582031 462.375 366.339844 487.425781 380.871094 L 487.425781 425.628906 L 466.828125 425.628906 L 466.828125 405.027344 C 466.828125 382.308594 448.34375 363.828125 425.628906 363.828125 L 137.226562 363.828125 C 114.511719 363.828125 96.027344 382.308594 96.027344 405.027344 L 96.027344 590.425781 C 96.027344 613.144531 114.511719 631.628906 137.226562 631.628906 L 206.433594 631.628906 L 190.984375 693.425781 L 96.027344 693.425781 L 96.027344 714.027344 L 714.027344 714.027344 L 714.027344 693.425781 L 693.398438 693.425781 C 699.878906 684.8125 703.726562 674.109375 703.726562 662.527344 L 703.726562 487.425781 C 703.726562 453.347656 676.003906 425.628906 641.925781 425.628906 L 590.425781 425.628906 L 590.425781 380.871094 C 604.472656 372.722656 616.421875 361.363281 625.269531 347.785156 "/>
</g>
<path style=" stroke:none;fill-rule:nonzero;fill:rgb(30.198669%,60.778809%,58.039856%);fill-opacity:1;" d="M 492.578125 240.226562 C 484.058594 240.226562 477.128906 247.15625 477.128906 255.675781 C 477.128906 264.195312 484.058594 271.128906 492.578125 271.128906 C 501.097656 271.128906 508.027344 264.195312 508.027344 255.675781 C 508.027344 247.15625 501.097656 240.226562 492.578125 240.226562 "/>
<path style=" stroke:none;fill-rule:nonzero;fill:rgb(30.198669%,60.778809%,58.039856%);fill-opacity:1;" d="M 585.277344 271.128906 C 593.796875 271.128906 600.726562 264.195312 600.726562 255.675781 C 600.726562 247.15625 593.796875 240.226562 585.277344 240.226562 C 576.757812 240.226562 569.828125 247.15625 569.828125 255.675781 C 569.828125 264.195312 576.757812 271.128906 585.277344 271.128906 "/>
<path style=" stroke:none;fill-rule:nonzero;fill:rgb(30.198669%,60.778809%,58.039856%);fill-opacity:1;" d="M 569.828125 302.027344 L 549.226562 302.027344 C 549.226562 307.707031 544.605469 312.328125 538.925781 312.328125 C 533.25 312.328125 528.628906 307.707031 528.628906 302.027344 L 508.027344 302.027344 C 508.027344 319.066406 521.886719 332.925781 538.925781 332.925781 C 555.964844 332.925781 569.828125 319.066406 569.828125 302.027344 "/>
<path style=" stroke:none;fill-rule:nonzero;fill:rgb(30.198669%,60.778809%,58.039856%);fill-opacity:1;" d="M 137.226562 425.628906 L 178.425781 425.628906 L 178.425781 405.027344 L 137.226562 405.027344 L 137.226562 425.628906 "/>
<path style=" stroke:none;fill-rule:nonzero;fill:rgb(30.198669%,60.778809%,58.039856%);fill-opacity:1;" d="M 240.226562 405.027344 L 199.027344 405.027344 L 199.027344 425.628906 L 240.226562 425.628906 L 240.226562 405.027344 "/>
<path style=" stroke:none;fill-rule:nonzero;fill:rgb(30.198669%,60.778809%,58.039856%);fill-opacity:1;" d="M 302.027344 405.027344 L 260.828125 405.027344 L 260.828125 425.628906 L 302.027344 425.628906 L 302.027344 405.027344 "/>
<path style=" stroke:none;fill-rule:nonzero;fill:rgb(30.198669%,60.778809%,58.039856%);fill-opacity:1;" d="M 363.828125 405.027344 L 322.628906 405.027344 L 322.628906 425.628906 L 363.828125 425.628906 L 363.828125 405.027344 "/>
<path style=" stroke:none;fill-rule:nonzero;fill:rgb(30.198669%,60.778809%,58.039856%);fill-opacity:1;" d="M 425.628906 405.027344 L 384.425781 405.027344 L 384.425781 425.628906 L 425.628906 425.628906 L 425.628906 405.027344 "/>
</g>
</svg>
