<?xml version="1.0" encoding="UTF-8"?>
<svg xmlns="http://www.w3.org/2000/svg" xmlns:xlink="http://www.w3.org/1999/xlink" width="810pt" height="809.999993pt" viewBox="0 0 810 809.999993" version="1.2">
<defs>
<clipPath id="clip1">
  <path d="M 74.574219 231 L 468 231 L 468 632 L 74.574219 632 Z M 74.574219 231 "/>
</clipPath>
</defs>
<g id="surface1">
<g clip-path="url(#clip1)" clip-rule="nonzero">
<path style=" stroke:none;fill-rule:nonzero;fill:rgb(30.198669%,60.778809%,58.039856%);fill-opacity:1;" d="M 267.863281 574.335938 C 267.75 574.21875 262.078125 573.757812 262.078125 573.757812 C 157.792969 569.589844 74.574219 494.683594 74.574219 402.644531 C 74.574219 307.710938 162.769531 231.53125 270.875 231.53125 C 378.976562 231.53125 467.171875 307.710938 467.171875 402.644531 C 467.171875 470.023438 422.265625 529.878906 353.628906 558.011719 L 351.429688 558.820312 L 360.691406 618.90625 C 362.308594 628.632812 351.199219 635.460938 343.210938 629.675781 Z M 96.796875 402.644531 C 96.796875 481.949219 169.832031 547.824219 262.773438 551.527344 L 266.476562 551.527344 C 271.335938 551.527344 277.238281 553.613281 281.058594 556.390625 L 334.53125 595.867188 L 328.746094 557.894531 C 327.585938 550.023438 331.984375 542.265625 339.507812 539.601562 L 345.527344 537.171875 C 405.945312 512.628906 444.949219 460.53125 444.949219 402.644531 C 444.949219 320.90625 367.402344 253.757812 270.875 253.757812 C 174.460938 253.757812 96.796875 320.90625 96.796875 402.644531 Z M 96.796875 402.644531 "/>
</g>
<path style=" stroke:none;fill-rule:nonzero;fill:rgb(30.198669%,60.778809%,58.039856%);fill-opacity:1;" d="M 359.648438 274.484375 C 366.359375 277.839844 372.726562 281.660156 378.859375 285.828125 C 406.175781 234.308594 466.710938 198.074219 537.542969 198.074219 C 634.074219 198.074219 711.621094 265.222656 711.621094 346.957031 C 711.621094 426.375 638.585938 492.25 545.644531 495.839844 L 541.941406 495.957031 C 537.082031 495.957031 531.179688 497.925781 527.359375 500.820312 L 473.886719 540.066406 L 479.671875 502.09375 C 480.832031 494.335938 476.546875 486.695312 468.910156 483.917969 L 462.890625 481.601562 C 450.851562 476.621094 439.742188 470.71875 429.554688 463.773438 C 426.199219 470.488281 422.148438 476.621094 417.75 482.757812 C 429.09375 490.167969 441.476562 496.882812 454.789062 502.324219 L 456.988281 503.25 L 447.726562 563.21875 C 446.222656 573.0625 457.21875 579.890625 465.203125 573.988281 L 540.554688 518.648438 C 540.667969 518.648438 546.339844 518.070312 546.339844 518.070312 C 650.738281 514.015625 733.84375 439.113281 733.84375 346.957031 C 733.84375 252.140625 645.648438 175.84375 537.542969 175.84375 C 459.070312 175.84375 391.015625 216.015625 359.648438 274.484375 Z M 359.648438 274.484375 "/>
<path style=" stroke:none;fill-rule:evenodd;fill:rgb(30.198669%,60.778809%,58.039856%);fill-opacity:1;" d="M 252.125 382.035156 C 249.808594 382.730469 247.492188 383.308594 245.179688 384.003906 C 245.292969 376.828125 245.875 369.300781 247.03125 361.542969 C 261.5 360.503906 276.660156 358.1875 291.9375 354.945312 C 299.113281 353.324219 305.945312 351.820312 312.078125 349.96875 C 315.78125 349.15625 318.558594 348.230469 320.0625 347.765625 C 325.851562 345.914062 329.09375 339.664062 327.355469 333.988281 C 325.503906 328.085938 319.253906 324.726562 313.351562 326.695312 C 312.195312 327.042969 309.761719 327.621094 306.289062 328.550781 C 300.503906 330.285156 294.136719 331.789062 287.308594 333.296875 C 275.039062 335.84375 263.003906 337.8125 251.429688 338.851562 C 252.355469 335.265625 253.28125 331.90625 254.4375 328.316406 C 256.175781 322.296875 252.816406 316.046875 246.914062 314.308594 C 241.128906 312.570312 234.878906 315.929688 233.140625 321.71875 C 231.289062 327.855469 229.667969 333.988281 228.394531 339.777344 C 217.632812 339.546875 208.257812 338.273438 200.617188 335.84375 C 194.714844 333.988281 188.464844 337.117188 186.613281 343.019531 C 184.761719 348.925781 188.003906 355.0625 193.789062 356.914062 C 202.933594 359.921875 213.234375 361.542969 224.460938 361.890625 C 223.1875 372.660156 222.726562 382.730469 223.070312 392.570312 C 216.128906 395.8125 209.644531 399.285156 204.089844 403.222656 C 181.867188 418.15625 172.609375 437.605469 184.53125 458.332031 C 197.378906 481.136719 223.652344 480.675781 248.535156 462.152344 C 266.242188 448.953125 282.332031 427.765625 294.023438 402.066406 C 309.878906 405.539062 320.875 415.609375 320.875 430.890625 C 320.875 442.46875 313.929688 451.035156 300.964844 457.402344 C 295.988281 460.066406 290.550781 461.804688 285.109375 463.191406 C 281.867188 464.117188 279.4375 464.464844 278.28125 464.582031 C 272.148438 465.507812 267.863281 470.949219 268.675781 477.085938 C 269.484375 483.105469 275.039062 487.503906 281.175781 486.578125 C 288.8125 485.652344 299.691406 482.875 310.804688 477.433594 C 330.597656 467.59375 343.097656 452.308594 343.097656 430.890625 C 343.097656 403.800781 325.734375 387.015625 302.125 380.992188 C 302.585938 379.375 303.050781 377.867188 303.511719 376.363281 C 305.363281 370.457031 302.007812 364.207031 296.105469 362.355469 C 290.203125 360.617188 284.066406 364.089844 282.332031 369.878906 C 281.40625 372.773438 280.480469 375.4375 279.554688 378.214844 C 272.839844 378.214844 265.898438 379.027344 258.953125 380.414062 C 256.753906 380.992188 254.4375 381.574219 252.125 382.035156 Z M 255.132812 404.265625 C 252.238281 405.074219 249.34375 406.117188 246.335938 407.042969 C 247.378906 414.914062 248.765625 422.210938 250.734375 429.15625 C 250.851562 429.269531 250.851562 429.269531 250.851562 429.617188 C 257.679688 421.515625 264.160156 411.90625 269.714844 401.253906 C 267.632812 401.371094 265.550781 401.71875 263.582031 402.296875 C 260.804688 402.757812 258.027344 403.570312 255.132812 404.265625 Z M 225.269531 416.1875 C 226.3125 422.671875 227.703125 429.15625 229.320312 435.058594 C 230.59375 439.460938 231.753906 443.046875 232.910156 445.941406 C 218.671875 455.898438 208.488281 455.667969 203.742188 447.332031 C 198.996094 438.878906 202.816406 430.890625 216.589844 421.398438 C 219.136719 419.777344 222.144531 418.042969 225.269531 416.1875 Z M 225.269531 416.1875 "/>
<path style=" stroke:none;fill-rule:nonzero;fill:rgb(30.198669%,60.778809%,58.039856%);fill-opacity:1;" d="M 544.257812 310.140625 L 578.054688 411.671875 C 580.019531 417.460938 586.269531 420.589844 592.058594 418.621094 C 597.960938 416.882812 601.085938 410.398438 599.117188 404.613281 L 554.671875 271.355469 C 551.316406 261.167969 536.964844 261.167969 533.609375 271.355469 L 489.164062 404.613281 C 487.195312 410.398438 490.320312 416.882812 496.222656 418.621094 C 502.011719 420.589844 508.261719 417.460938 510.230469 411.671875 Z M 544.257812 310.140625 "/>
<path style=" stroke:none;fill-rule:evenodd;fill:rgb(30.198669%,60.778809%,58.039856%);fill-opacity:1;" d="M 510.808594 352.628906 L 577.476562 352.628906 L 577.476562 374.859375 L 510.808594 374.859375 Z M 510.808594 352.628906 "/>
</g>
</svg>
