<?xml version="1.0" encoding="UTF-8"?>
<svg xmlns="http://www.w3.org/2000/svg" xmlns:xlink="http://www.w3.org/1999/xlink" width="810pt" height="809.999993pt" viewBox="0 0 810 809.999993" version="1.2">
<defs>
<clipPath id="clip1">
  <path d="M 65 66 L 745 66 L 745 745.183594 L 65 745.183594 Z M 65 66 "/>
</clipPath>
</defs>
<g id="surface1">
<g clip-path="url(#clip1)" clip-rule="nonzero">
<path style=" stroke:none;fill-rule:nonzero;fill:rgb(30.198669%,60.778809%,58.039856%);fill-opacity:1;" d="M 722.726562 372.746094 L 459.828125 372.746094 L 459.828125 350.835938 L 722.726562 350.835938 Z M 700.820312 569.917969 L 622.472656 569.917969 C 617.039062 546.554688 597.867188 528.371094 574.25 526.316406 C 558.84375 524.988281 543.65625 530.167969 532.359375 540.480469 C 523.800781 548.351562 518.066406 558.707031 515.753906 569.917969 L 481.738281 569.917969 L 481.738281 394.652344 L 700.820312 394.652344 Z M 602.234375 602.78125 C 602.234375 614.503906 596.070312 625.03125 585.757812 631.066406 L 580.324219 634.230469 L 580.324219 665.808594 L 633.171875 680.914062 C 647.203125 684.9375 657.003906 697.945312 657.003906 712.535156 L 657.003906 723.277344 L 481.738281 723.277344 L 481.738281 712.535156 C 481.738281 697.945312 491.535156 684.9375 505.570312 680.914062 L 558.417969 665.808594 L 558.417969 634.230469 L 552.984375 631.066406 C 542.671875 625.03125 536.507812 614.503906 536.507812 602.78125 L 536.507812 580.871094 C 536.507812 571.671875 540.402344 562.859375 547.164062 556.652344 C 554.050781 550.363281 562.996094 547.324219 572.367188 548.140625 C 589.097656 549.59375 602.234375 564.957031 602.234375 583.140625 Z M 459.828125 723.277344 L 284.5625 723.277344 L 284.5625 712.535156 C 284.5625 697.945312 294.363281 684.9375 308.398438 680.914062 L 361.242188 665.808594 L 361.242188 634.230469 L 355.808594 631.066406 C 345.496094 625.03125 339.335938 614.503906 339.335938 602.78125 L 339.335938 580.871094 C 339.335938 571.671875 343.230469 562.859375 349.988281 556.652344 C 356.878906 550.363281 365.820312 547.324219 375.191406 548.140625 C 391.921875 549.59375 405.058594 564.957031 405.058594 583.140625 L 405.058594 602.78125 C 405.058594 614.503906 398.898438 625.03125 388.585938 631.066406 L 383.152344 634.230469 L 383.152344 665.808594 L 435.996094 680.914062 C 450.03125 684.9375 459.828125 697.945312 459.828125 712.535156 Z M 262.65625 723.277344 L 87.390625 723.277344 L 87.390625 712.535156 C 87.390625 697.945312 97.1875 684.9375 111.222656 680.914062 L 164.070312 665.808594 L 164.070312 634.230469 L 158.636719 631.066406 C 148.324219 625.03125 142.160156 614.503906 142.160156 602.78125 L 142.160156 580.871094 C 142.160156 571.671875 146.054688 562.859375 152.816406 556.652344 C 159.703125 550.363281 168.691406 547.324219 178.019531 548.140625 C 194.75 549.59375 207.886719 564.957031 207.886719 583.140625 L 207.886719 602.78125 C 207.886719 614.503906 201.722656 625.03125 191.410156 631.066406 L 185.976562 634.230469 L 185.976562 665.808594 L 238.820312 680.914062 C 252.855469 684.9375 262.65625 697.945312 262.65625 712.535156 Z M 481.738281 297.394531 C 481.738281 282.289062 491.964844 269.195312 506.640625 265.558594 L 569.371094 249.855469 L 569.371094 215.152344 L 563.894531 211.984375 C 546.992188 202.1875 536.507812 184.042969 536.507812 164.617188 L 536.507812 142.707031 C 536.507812 127.773438 542.414062 113.78125 553.152344 103.386719 C 563.851562 92.988281 578.058594 87.597656 592.992188 87.980469 C 622.257812 88.835938 646.050781 114.640625 646.050781 145.445312 L 646.050781 164.617188 C 646.050781 184.085938 635.523438 202.230469 618.621094 212.027344 L 613.144531 215.195312 L 613.1875 249.855469 L 675.917969 265.558594 C 690.59375 269.195312 700.820312 282.289062 700.820312 297.394531 L 700.820312 328.929688 L 481.738281 328.929688 Z M 744.636719 328.929688 L 722.726562 328.929688 L 722.726562 297.394531 C 722.726562 272.234375 705.65625 250.367188 681.222656 244.289062 L 635.09375 232.738281 L 635.09375 227.476562 C 655.507812 213.226562 667.957031 189.691406 667.957031 164.617188 L 667.957031 145.445312 C 667.957031 102.914062 634.625 67.269531 593.632812 66.074219 C 572.410156 65.300781 552.898438 73.132812 537.878906 87.679688 C 522.859375 102.230469 514.601562 121.785156 514.601562 142.707031 L 514.601562 164.617188 C 514.601562 189.691406 527.050781 213.226562 547.460938 227.476562 L 547.460938 232.738281 L 501.335938 244.289062 C 476.902344 250.367188 459.828125 272.234375 459.828125 297.394531 L 459.828125 328.929688 L 437.921875 328.929688 L 437.921875 394.652344 L 459.828125 394.652344 L 459.828125 591.828125 L 514.601562 591.828125 L 514.601562 602.78125 C 514.601562 619.898438 522.859375 636.070312 536.507812 646.382812 L 536.507812 649.292969 L 499.539062 659.820312 C 487.769531 663.199219 477.800781 670.386719 470.785156 679.800781 C 463.765625 670.386719 453.796875 663.199219 441.988281 659.820312 L 405.058594 649.292969 L 405.058594 646.382812 C 418.710938 636.070312 426.96875 619.898438 426.96875 602.78125 L 426.96875 583.140625 C 426.96875 553.703125 405.058594 528.753906 377.074219 526.316406 C 361.671875 524.988281 346.480469 530.167969 335.183594 540.480469 C 323.886719 550.835938 317.425781 565.554688 317.425781 580.871094 L 317.425781 602.78125 C 317.425781 619.898438 325.683594 636.070312 339.335938 646.382812 L 339.335938 649.292969 L 302.363281 659.820312 C 290.597656 663.199219 280.628906 670.386719 273.609375 679.800781 C 266.59375 670.386719 256.621094 663.199219 244.8125 659.820312 L 207.886719 649.292969 L 207.886719 646.382812 C 221.535156 636.070312 229.792969 619.898438 229.792969 602.78125 L 229.792969 583.140625 C 229.792969 553.703125 207.886719 528.753906 179.902344 526.316406 C 164.496094 524.988281 149.308594 530.167969 138.011719 540.480469 C 126.714844 550.835938 120.253906 565.554688 120.253906 580.871094 L 120.253906 602.78125 C 120.253906 619.898438 128.511719 636.070312 142.160156 646.382812 L 142.160156 649.292969 L 105.191406 659.820312 C 81.828125 666.539062 65.480469 688.1875 65.480469 712.535156 L 65.480469 745.183594 L 678.910156 745.183594 L 678.910156 712.535156 C 678.910156 688.1875 662.566406 666.539062 639.160156 659.820312 L 602.234375 649.292969 L 602.234375 646.382812 C 615.882812 636.070312 624.140625 619.898438 624.140625 602.78125 L 624.140625 591.828125 L 722.726562 591.828125 L 722.726562 394.652344 L 744.636719 394.652344 L 744.636719 328.929688 "/>
</g>
<path style=" stroke:none;fill-rule:nonzero;fill:rgb(30.198669%,60.778809%,58.039856%);fill-opacity:1;" d="M 87.390625 87.9375 L 416.011719 87.9375 L 416.011719 109.847656 L 87.390625 109.847656 Z M 394.105469 328.929688 L 109.296875 328.929688 L 109.296875 131.753906 L 394.105469 131.753906 Z M 273.609375 460.378906 C 273.609375 472.445312 263.769531 482.285156 251.703125 482.285156 C 239.636719 482.285156 229.792969 472.445312 229.792969 460.378906 C 229.792969 448.3125 239.636719 438.46875 251.703125 438.46875 C 263.769531 438.46875 273.609375 448.3125 273.609375 460.378906 Z M 87.390625 350.835938 L 240.746094 350.835938 L 240.746094 418.101562 C 221.921875 423.023438 207.886719 440.011719 207.886719 460.378906 C 207.886719 484.554688 227.527344 504.195312 251.703125 504.195312 C 275.878906 504.195312 295.519531 484.554688 295.519531 460.378906 C 295.519531 440.011719 281.484375 423.023438 262.65625 418.101562 L 262.65625 350.835938 L 416.011719 350.835938 L 416.011719 131.753906 L 437.921875 131.753906 L 437.921875 66.03125 L 65.480469 66.03125 L 65.480469 131.753906 L 87.390625 131.753906 L 87.390625 350.835938 "/>
<path style=" stroke:none;fill-rule:nonzero;fill:rgb(30.198669%,60.778809%,58.039856%);fill-opacity:1;" d="M 350.289062 285.113281 L 328.378906 285.113281 L 328.378906 175.570312 L 350.289062 175.570312 Z M 372.195312 153.664062 L 306.472656 153.664062 L 306.472656 307.019531 L 372.195312 307.019531 L 372.195312 153.664062 "/>
<path style=" stroke:none;fill-rule:nonzero;fill:rgb(30.198669%,60.778809%,58.039856%);fill-opacity:1;" d="M 262.65625 285.113281 L 240.746094 285.113281 L 240.746094 197.480469 L 262.65625 197.480469 Z M 284.5625 175.570312 L 218.839844 175.570312 L 218.839844 307.019531 L 284.5625 307.019531 L 284.5625 175.570312 "/>
<path style=" stroke:none;fill-rule:nonzero;fill:rgb(30.198669%,60.778809%,58.039856%);fill-opacity:1;" d="M 175.023438 285.113281 L 153.113281 285.113281 L 153.113281 241.296875 L 175.023438 241.296875 Z M 196.929688 219.386719 L 131.207031 219.386719 L 131.207031 307.019531 L 196.929688 307.019531 L 196.929688 219.386719 "/>
</g>
</svg>
