<?xml version="1.0" encoding="UTF-8"?>
<svg xmlns="http://www.w3.org/2000/svg" xmlns:xlink="http://www.w3.org/1999/xlink" width="810pt" height="809.999993pt" viewBox="0 0 810 809.999993" version="1.2">
<defs>
<clipPath id="clip1">
  <path d="M 553 506 L 689 506 L 689 707.980469 L 553 707.980469 Z M 553 506 "/>
</clipPath>
</defs>
<g id="surface1">
<path style=" stroke:none;fill-rule:nonzero;fill:rgb(30.198669%,60.778809%,58.039856%);fill-opacity:1;" d="M 337.128906 382.34375 C 333.273438 382.34375 329.53125 381.351562 326.125 379.386719 C 318.152344 374.800781 313.183594 365.480469 313.183594 355.101562 C 313.183594 338.523438 320.707031 327.101562 338.359375 316.910156 L 502.605469 222.148438 C 504.144531 221.25 504.308594 219.785156 504.308594 219.21875 C 504.308594 218.601562 504.144531 217.136719 502.605469 216.261719 L 325.746094 114.21875 C 322.765625 112.492188 321.722656 108.6875 323.453125 105.707031 C 325.179688 102.726562 328.988281 101.6875 331.96875 103.4375 L 508.828125 205.476562 C 513.796875 208.339844 516.757812 213.472656 516.757812 219.21875 C 516.757812 224.941406 513.796875 230.074219 508.828125 232.933594 L 344.605469 327.691406 C 330.789062 335.660156 325.652344 343.085938 325.652344 355.101562 C 325.652344 360.941406 328.277344 366.261719 332.347656 368.605469 C 335.757812 370.566406 339.804688 370.28125 344.132812 367.800781 L 508.261719 273.089844 L 496.691406 265.542969 C 493.804688 263.675781 492.976562 259.796875 494.867188 256.9375 C 496.738281 254.050781 500.617188 253.222656 503.480469 255.117188 L 523.570312 268.191406 C 525.394531 269.375 526.457031 271.410156 526.410156 273.585938 C 526.339844 275.738281 525.15625 277.722656 523.289062 278.8125 L 350.355469 378.582031 C 346.027344 381.089844 341.507812 382.34375 337.128906 382.34375 "/>
<path style=" stroke:none;fill-rule:nonzero;fill:rgb(30.198669%,60.778809%,58.039856%);fill-opacity:1;" d="M 327.617188 379.152344 C 326.550781 379.152344 325.488281 378.890625 324.515625 378.324219 L 136.914062 270.15625 C 129.933594 266.113281 124.964844 259.84375 122.90625 252.515625 C 121.910156 248.871094 121.699219 246.320312 121.863281 244.519531 C 121.9375 228.039062 129.460938 216.664062 147.042969 206.519531 L 325.746094 103.4375 C 328.726562 101.710938 332.539062 102.726562 334.242188 105.707031 C 335.96875 108.6875 334.953125 112.492188 331.96875 114.21875 L 153.289062 217.324219 C 139.46875 225.296875 134.335938 232.722656 134.335938 244.710938 C 134.335938 244.921875 134.335938 245.113281 134.3125 245.324219 C 134.3125 245.773438 134.40625 247.265625 134.925781 249.179688 C 136.085938 253.296875 139.066406 257.007812 143.160156 259.347656 L 330.738281 367.539062 C 333.722656 369.242188 334.738281 373.074219 333.035156 376.054688 C 331.875 378.039062 329.769531 379.152344 327.617188 379.152344 "/>
<path style=" stroke:none;fill-rule:nonzero;fill:rgb(30.198669%,60.778809%,58.039856%);fill-opacity:1;" d="M 417.984375 443.261719 C 415.855469 443.261719 413.75 442.148438 412.589844 440.140625 C 410.863281 437.160156 411.882812 433.351562 414.863281 431.625 L 508.261719 377.753906 L 496.691406 370.210938 C 493.804688 368.34375 492.976562 364.464844 494.867188 361.582031 C 496.738281 358.695312 500.617188 357.890625 503.480469 359.757812 L 523.570312 372.859375 C 525.394531 374.042969 526.457031 376.078125 526.410156 378.226562 C 526.339844 380.402344 525.15625 382.390625 523.289062 383.453125 L 421.109375 442.433594 C 420.117188 442.976562 419.050781 443.261719 417.984375 443.261719 "/>
<path style=" stroke:none;fill-rule:nonzero;fill:rgb(30.198669%,60.778809%,58.039856%);fill-opacity:1;" d="M 285.636719 459.601562 C 284.574219 459.601562 283.507812 459.34375 282.515625 458.773438 L 136.914062 374.800781 C 129.933594 370.78125 124.964844 364.511719 122.90625 357.179688 C 121.910156 353.539062 121.699219 350.984375 121.863281 349.164062 C 121.9375 332.730469 129.4375 321.378906 146.898438 311.257812 L 155.015625 306.007812 C 157.902344 304.136719 161.761719 304.941406 163.628906 307.828125 C 165.523438 310.738281 164.695312 314.589844 161.808594 316.460938 L 153.574219 321.804688 C 153.480469 321.851562 153.382812 321.921875 153.289062 321.96875 C 139.46875 329.9375 134.335938 337.363281 134.335938 349.378906 C 134.335938 349.566406 134.335938 349.78125 134.3125 349.96875 C 134.3125 350.441406 134.40625 351.90625 134.925781 353.847656 C 136.085938 357.960938 139.066406 361.652344 143.160156 364.015625 L 288.761719 447.96875 C 291.742188 449.695312 292.761719 453.5 291.03125 456.503906 C 289.875 458.492188 287.792969 459.601562 285.636719 459.601562 "/>
<path style=" stroke:none;fill-rule:nonzero;fill:rgb(30.198669%,60.778809%,58.039856%);fill-opacity:1;" d="M 384.976562 499.664062 C 383.910156 499.664062 382.847656 499.378906 381.898438 498.835938 C 379.9375 497.746094 378.730469 495.664062 378.730469 493.417969 L 378.730469 467.074219 L 350.332031 483.25 C 347.328125 484.953125 343.519531 483.914062 341.8125 480.933594 C 340.109375 477.953125 341.152344 474.144531 344.15625 472.441406 L 381.875 450.945312 C 383.816406 449.835938 386.183594 449.859375 388.097656 450.96875 C 390.015625 452.082031 391.199219 454.140625 391.199219 456.363281 L 391.199219 482.421875 L 411.761719 470.125 L 411.761719 437.019531 C 411.761719 430.820312 408.402344 425.050781 403.007812 421.976562 C 400.027344 420.273438 398.960938 416.46875 400.6875 413.464844 C 402.390625 410.484375 406.179688 409.445312 409.183594 411.148438 C 418.460938 416.445312 424.234375 426.351562 424.234375 437.019531 L 424.234375 473.671875 C 424.234375 475.847656 423.074219 477.882812 421.203125 479.015625 L 388.171875 498.761719 C 387.175781 499.355469 386.066406 499.664062 384.976562 499.664062 "/>
<path style=" stroke:none;fill-rule:nonzero;fill:rgb(30.198669%,60.778809%,58.039856%);fill-opacity:1;" d="M 319.40625 465.988281 C 315.972656 465.988281 313.183594 463.195312 313.183594 459.769531 C 313.183594 443.191406 320.707031 431.746094 338.359375 421.574219 L 502.605469 326.792969 C 504.144531 325.917969 504.308594 324.453125 504.308594 323.859375 C 504.308594 323.269531 504.144531 321.804688 502.605469 320.929688 C 499.625 319.203125 498.582031 315.394531 500.308594 312.414062 C 502.039062 309.4375 505.847656 308.394531 508.828125 310.121094 C 513.796875 313.007812 516.757812 318.136719 516.757812 323.859375 C 516.757812 329.609375 513.796875 334.738281 508.828125 337.601562 L 344.605469 432.359375 C 330.789062 440.328125 325.652344 447.753906 325.652344 459.769531 C 325.652344 463.195312 322.859375 465.988281 319.40625 465.988281 "/>
<path style=" stroke:none;fill-rule:nonzero;fill:rgb(30.198669%,60.778809%,58.039856%);fill-opacity:1;" d="M 298.652344 300.472656 C 297.613281 300.472656 296.59375 300.214844 295.625 299.667969 L 147.136719 217.375 C 144.132812 215.695312 143.042969 211.910156 144.722656 208.882812 C 146.378906 205.878906 150.191406 204.792969 153.195312 206.472656 L 301.679688 288.789062 C 304.6875 290.445312 305.773438 294.253906 304.09375 297.257812 C 302.960938 299.3125 300.828125 300.472656 298.652344 300.472656 "/>
<g clip-path="url(#clip1)" clip-rule="nonzero">
<path style=" stroke:none;fill-rule:nonzero;fill:rgb(30.198669%,60.778809%,58.039856%);fill-opacity:1;" d="M 641.390625 707.980469 L 600.714844 707.980469 C 574.730469 707.980469 553.601562 686.863281 553.601562 660.894531 L 553.601562 553.058594 C 553.601562 527.117188 574.730469 506 600.714844 506 C 604.167969 506 606.960938 508.789062 606.960938 512.21875 C 606.960938 515.671875 604.167969 518.460938 600.714844 518.460938 C 581.617188 518.460938 566.070312 533.976562 566.070312 553.058594 L 566.070312 660.894531 C 566.070312 679.980469 581.617188 695.515625 600.714844 695.515625 L 641.390625 695.515625 C 660.511719 695.515625 676.035156 679.980469 676.035156 660.894531 L 676.035156 553.058594 C 676.035156 533.976562 660.511719 518.460938 641.390625 518.460938 C 637.960938 518.460938 635.167969 515.671875 635.167969 512.21875 C 635.167969 508.789062 637.960938 506 641.390625 506 C 667.371094 506 688.503906 527.117188 688.503906 553.058594 L 688.503906 660.894531 C 688.503906 686.863281 667.371094 707.980469 641.390625 707.980469 "/>
</g>
<path style=" stroke:none;fill-rule:nonzero;fill:rgb(30.198669%,60.778809%,58.039856%);fill-opacity:1;" d="M 621.0625 567.957031 C 610.675781 567.957031 602.25 576.402344 602.25 586.757812 C 602.25 597.117188 610.675781 605.558594 621.0625 605.558594 C 631.429688 605.558594 639.851562 597.117188 639.851562 586.757812 C 639.851562 576.402344 631.429688 567.957031 621.0625 567.957031 Z M 621.0625 618.023438 C 603.8125 618.023438 589.78125 604 589.78125 586.757812 C 589.78125 569.519531 603.8125 555.496094 621.0625 555.496094 C 638.289062 555.496094 652.347656 569.519531 652.347656 586.757812 C 652.347656 604 638.289062 618.023438 621.0625 618.023438 "/>
<path style=" stroke:none;fill-rule:nonzero;fill:rgb(30.198669%,60.778809%,58.039856%);fill-opacity:1;" d="M 621.0625 567.957031 C 617.609375 567.957031 614.816406 565.167969 614.816406 561.738281 L 614.816406 512.21875 C 614.816406 508.789062 617.609375 506 621.0625 506 C 624.496094 506 627.289062 508.789062 627.289062 512.21875 L 627.289062 561.738281 C 627.289062 565.167969 624.496094 567.957031 621.0625 567.957031 "/>
<path style=" stroke:none;fill-rule:nonzero;fill:rgb(30.198669%,60.778809%,58.039856%);fill-opacity:1;" d="M 389.304688 635.070312 C 374.539062 635.070312 353.503906 629.796875 336.914062 614.425781 C 321.226562 599.882812 312.921875 579.425781 312.921875 555.257812 L 312.921875 459.769531 C 312.921875 456.316406 315.714844 453.523438 319.144531 453.523438 C 322.601562 453.523438 325.390625 456.316406 325.390625 459.769531 L 325.390625 555.257812 C 325.390625 576.164062 332.113281 593 345.386719 605.296875 C 360.699219 619.488281 380.410156 623.4375 392.621094 622.492188 C 422.578125 620.222656 440.796875 594.585938 454.664062 569.777344 C 462 556.679688 468.4375 542.679688 474.660156 529.152344 C 481.546875 514.183594 488.667969 498.714844 497.117188 484.101562 C 513.136719 456.433594 535.898438 423.75 570.070312 416.847656 C 584.457031 413.9375 600.5 417.933594 611.929688 427.273438 C 621.84375 435.363281 627.289062 446.644531 627.289062 458.988281 L 627.289062 512.21875 C 627.289062 515.671875 624.496094 518.460938 621.0625 518.460938 C 617.609375 518.460938 614.816406 515.671875 614.816406 512.21875 L 614.816406 458.988281 C 614.816406 448.039062 608.972656 440.945312 604.050781 436.921875 C 595.554688 429.996094 583.203125 426.898438 572.554688 429.046875 C 543.257812 434.984375 522.625 464.921875 507.929688 490.320312 C 499.765625 504.4375 492.761719 519.644531 485.996094 534.355469 C 479.652344 548.117188 473.121094 562.328125 465.550781 575.878906 C 450.972656 601.917969 429.605469 632.1875 393.566406 634.929688 C 392.21875 635.023438 390.796875 635.070312 389.304688 635.070312 "/>
</g>
</svg>
