<?xml version="1.0" encoding="UTF-8"?>
<svg xmlns="http://www.w3.org/2000/svg" xmlns:xlink="http://www.w3.org/1999/xlink" width="810pt" height="809.999993pt" viewBox="0 0 810 809.999993" version="1.2">
<defs>
<clipPath id="clip1">
  <path d="M 182 126.632812 L 331 126.632812 L 331 276 L 182 276 Z M 182 126.632812 "/>
</clipPath>
<clipPath id="clip2">
  <path d="M 479 126.632812 L 628 126.632812 L 628 276 L 479 276 Z M 479 126.632812 "/>
</clipPath>
<clipPath id="clip3">
  <path d="M 126.632812 275 L 371 275 L 371 498 L 126.632812 498 Z M 126.632812 275 "/>
</clipPath>
<clipPath id="clip4">
  <path d="M 275 460 L 535 460 L 535 683.132812 L 275 683.132812 Z M 275 460 "/>
</clipPath>
<clipPath id="clip5">
  <path d="M 434 275 L 683.132812 275 L 683.132812 498 L 434 498 Z M 434 275 "/>
</clipPath>
</defs>
<g id="surface1">
<path style=" stroke:none;fill-rule:nonzero;fill:rgb(30.198669%,60.778809%,58.039856%);fill-opacity:1;" d="M 404.882812 460.53125 C 393.851562 460.578125 382.953125 458.101562 373.023438 453.300781 C 347.148438 441.019531 330.664062 414.933594 330.675781 386.292969 C 330.695312 357.652344 347.210938 331.582031 373.101562 319.328125 C 393.234375 309.769531 416.601562 309.769531 436.742188 319.328125 C 462.613281 331.609375 479.101562 357.695312 479.085938 386.339844 C 479.070312 414.976562 462.558594 441.046875 436.667969 453.300781 C 426.757812 458.09375 415.886719 460.570312 404.882812 460.53125 Z M 404.882812 330.683594 C 396.640625 330.644531 388.507812 332.488281 381.089844 336.070312 C 357.570312 347.21875 344.910156 373.175781 350.625 398.574219 C 356.335938 423.96875 378.890625 442.015625 404.914062 442.015625 C 430.949219 442.015625 453.5 423.96875 459.214844 398.574219 C 464.921875 373.175781 452.269531 347.214844 428.746094 336.070312 C 421.300781 332.484375 413.140625 330.640625 404.882812 330.683594 "/>
<g clip-path="url(#clip1)" clip-rule="nonzero">
<path style=" stroke:none;fill-rule:nonzero;fill:rgb(30.198669%,60.778809%,58.039856%);fill-opacity:1;" d="M 256.484375 275.035156 C 215.5 275.035156 182.28125 241.8125 182.28125 200.832031 C 182.28125 159.851562 215.5 126.632812 256.484375 126.632812 C 297.464844 126.632812 330.683594 159.851562 330.683594 200.832031 C 330.636719 241.792969 297.441406 274.988281 256.484375 275.035156 Z M 256.484375 145.183594 C 225.75 145.183594 200.832031 170.097656 200.832031 200.832031 C 200.832031 231.566406 225.75 256.484375 256.484375 256.484375 C 287.210938 256.484375 312.132812 231.566406 312.132812 200.832031 C 312.097656 170.109375 287.203125 145.214844 256.484375 145.183594 "/>
</g>
<g clip-path="url(#clip2)" clip-rule="nonzero">
<path style=" stroke:none;fill-rule:nonzero;fill:rgb(30.198669%,60.778809%,58.039856%);fill-opacity:1;" d="M 553.28125 275.035156 C 512.296875 275.035156 479.078125 241.8125 479.078125 200.832031 C 479.078125 159.851562 512.296875 126.632812 553.28125 126.632812 C 594.261719 126.632812 627.480469 159.851562 627.480469 200.832031 C 627.4375 241.792969 594.238281 274.988281 553.28125 275.035156 Z M 553.28125 145.183594 C 522.550781 145.183594 497.628906 170.097656 497.628906 200.832031 C 497.628906 231.566406 522.550781 256.484375 553.28125 256.484375 C 584.011719 256.484375 608.929688 231.566406 608.929688 200.832031 C 608.898438 170.109375 584.003906 145.214844 553.28125 145.183594 "/>
</g>
<g clip-path="url(#clip3)" clip-rule="nonzero">
<path style=" stroke:none;fill-rule:nonzero;fill:rgb(30.198669%,60.778809%,58.039856%);fill-opacity:1;" d="M 365.921875 282.953125 C 358.261719 277.769531 349.214844 275.007812 339.953125 275.035156 L 302.855469 275.035156 C 299.925781 275.035156 299.007812 274.4375 295.734375 278.371094 L 256.476562 325.472656 L 217.226562 278.371094 C 215.5 276.210938 212.867188 274.976562 210.105469 275.035156 L 173.007812 275.035156 C 147.40625 275.066406 126.660156 295.808594 126.632812 321.40625 L 126.632812 488.355469 C 126.632812 493.476562 130.785156 497.632812 135.90625 497.632812 L 252.214844 497.632812 C 257.335938 497.632812 261.488281 493.476562 261.488281 488.355469 C 261.488281 483.234375 257.335938 479.082031 252.214844 479.082031 L 200.832031 479.082031 L 200.832031 377.054688 C 200.832031 371.933594 196.679688 367.78125 191.558594 367.78125 C 186.433594 367.78125 182.28125 371.933594 182.28125 377.054688 L 182.28125 479.082031 L 145.183594 479.082031 L 145.183594 321.40625 C 145.183594 306.042969 157.640625 293.582031 173.007812 293.582031 L 205.765625 293.582031 L 249.355469 345.898438 C 251.117188 348.003906 253.726562 349.226562 256.484375 349.226562 C 259.234375 349.226562 261.84375 348.003906 263.605469 345.898438 L 307.195312 293.582031 L 339.953125 293.582031 C 345.496094 293.570312 350.917969 295.226562 355.507812 298.332031 C 359.757812 301.207031 365.53125 300.09375 368.40625 295.851562 C 371.28125 291.601562 370.175781 285.828125 365.921875 282.953125 "/>
</g>
<g clip-path="url(#clip4)" clip-rule="nonzero">
<path style=" stroke:none;fill-rule:nonzero;fill:rgb(30.198669%,60.778809%,58.039856%);fill-opacity:1;" d="M 528.488281 483.722656 C 520.210938 469.382812 504.910156 460.539062 488.355469 460.53125 L 451.257812 460.53125 C 448.320312 460.53125 447.425781 459.941406 444.132812 463.863281 L 404.882812 510.960938 L 365.628906 463.863281 C 363.894531 461.710938 361.269531 460.484375 358.503906 460.53125 L 321.40625 460.53125 C 295.816406 460.574219 275.078125 481.3125 275.03125 506.90625 L 275.03125 673.859375 C 275.03125 678.980469 279.183594 683.132812 284.304688 683.132812 L 525.453125 683.132812 C 530.578125 683.132812 534.726562 678.980469 534.726562 673.859375 L 534.726562 506.90625 C 534.710938 498.765625 532.5625 490.773438 528.488281 483.722656 Z M 516.179688 664.585938 L 479.082031 664.585938 L 479.082031 553.285156 C 479.082031 548.160156 474.929688 544.007812 469.808594 544.007812 C 464.683594 544.007812 460.53125 548.160156 460.53125 553.285156 L 460.53125 664.585938 L 349.230469 664.585938 L 349.230469 562.558594 C 349.230469 557.4375 345.078125 553.285156 339.957031 553.285156 C 334.835938 553.285156 330.683594 557.4375 330.683594 562.558594 L 330.683594 664.585938 L 293.582031 664.585938 L 293.582031 506.90625 C 293.636719 491.566406 306.0625 479.140625 321.40625 479.082031 L 354.152344 479.082031 L 397.746094 531.394531 C 399.511719 533.515625 402.125 534.742188 404.882812 534.742188 C 407.636719 534.742188 410.25 533.515625 412.015625 531.394531 L 455.609375 479.082031 L 488.355469 479.082031 C 503.699219 479.140625 516.125 491.566406 516.179688 506.90625 L 516.179688 664.585938 "/>
</g>
<g clip-path="url(#clip5)" clip-rule="nonzero">
<path style=" stroke:none;fill-rule:nonzero;fill:rgb(30.198669%,60.778809%,58.039856%);fill-opacity:1;" d="M 636.753906 275.035156 L 599.65625 275.035156 C 596.726562 275.035156 595.816406 274.4375 592.53125 278.371094 L 553.28125 325.472656 L 514.027344 278.371094 C 510.753906 274.429688 509.839844 275.035156 506.902344 275.035156 L 469.804688 275.035156 C 457.5 274.996094 445.6875 279.886719 437.007812 288.609375 C 433.390625 292.238281 433.390625 298.109375 437.011719 301.730469 C 440.640625 305.351562 446.515625 305.347656 450.132812 301.726562 C 455.339844 296.496094 462.421875 293.558594 469.804688 293.582031 L 502.570312 293.582031 L 546.160156 345.898438 C 547.917969 348.003906 550.527344 349.226562 553.28125 349.226562 C 556.035156 349.226562 558.644531 348.003906 560.40625 345.898438 L 603.996094 293.582031 L 636.753906 293.582031 C 652.125 293.582031 664.578125 306.042969 664.578125 321.40625 L 664.578125 479.082031 L 627.480469 479.082031 L 627.480469 367.78125 C 627.480469 362.660156 623.328125 358.507812 618.207031 358.507812 C 613.085938 358.507812 608.933594 362.660156 608.933594 367.78125 L 608.933594 479.082031 L 557.550781 479.082031 C 552.425781 479.082031 548.277344 483.234375 548.277344 488.355469 C 548.277344 493.476562 552.425781 497.632812 557.550781 497.632812 L 673.859375 497.632812 C 678.980469 497.632812 683.132812 493.476562 683.132812 488.355469 L 683.132812 321.40625 C 683.101562 295.808594 662.359375 275.066406 636.753906 275.035156 "/>
</g>
</g>
</svg>
