<?xml version="1.0" encoding="UTF-8"?>
<svg xmlns="http://www.w3.org/2000/svg" xmlns:xlink="http://www.w3.org/1999/xlink" width="810pt" height="809.999993pt" viewBox="0 0 810 809.999993" version="1.2">
<defs>
<clipPath id="clip1">
  <path d="M 90.285156 90.285156 L 719.535156 90.285156 L 719.535156 719.535156 L 90.285156 719.535156 Z M 90.285156 90.285156 "/>
</clipPath>
</defs>
<g id="surface1">
<g clip-path="url(#clip1)" clip-rule="nonzero">
<path style=" stroke:none;fill-rule:nonzero;fill:rgb(30.198669%,60.778809%,58.039856%);fill-opacity:1;" d="M 678.777344 446.382812 C 694.507812 433.511719 705.234375 412.777344 705.234375 390.609375 C 705.234375 351.28125 673.054688 319.101562 633.726562 319.101562 C 623.71875 319.101562 613.707031 321.25 605.125 324.824219 L 605.125 261.898438 L 633.726562 261.898438 C 649.460938 261.898438 662.332031 249.027344 662.332031 233.296875 L 662.332031 118.886719 C 662.332031 103.15625 649.460938 90.285156 633.726562 90.285156 L 176.09375 90.285156 C 160.359375 90.285156 147.488281 103.15625 147.488281 118.886719 L 147.488281 233.296875 C 147.488281 249.027344 160.359375 261.898438 176.09375 261.898438 L 204.695312 261.898438 L 204.695312 324.824219 C 196.113281 321.25 186.101562 319.101562 176.09375 319.101562 C 136.765625 319.101562 104.585938 351.28125 104.585938 390.609375 C 104.585938 412.777344 115.3125 433.511719 131.042969 446.382812 C 106.730469 461.398438 90.285156 488.570312 90.285156 519.320312 L 90.285156 676.632812 C 90.285156 700.226562 109.589844 719.535156 133.1875 719.535156 L 676.632812 719.535156 C 700.230469 719.535156 719.535156 700.226562 719.535156 676.632812 L 719.535156 519.320312 C 719.535156 488.570312 703.089844 461.398438 678.777344 446.382812 Z M 633.726562 347.707031 C 657.324219 347.707031 676.632812 367.011719 676.632812 390.609375 C 676.632812 414.207031 657.324219 433.511719 633.726562 433.511719 C 610.132812 433.511719 590.824219 414.207031 590.824219 390.609375 C 590.824219 367.011719 610.132812 347.707031 633.726562 347.707031 Z M 176.09375 233.296875 L 176.09375 118.886719 L 633.726562 118.886719 L 633.726562 233.296875 L 590.824219 233.296875 C 582.960938 233.296875 576.523438 239.730469 576.523438 247.597656 L 576.523438 297.652344 L 532.191406 239.015625 C 529.328125 235.441406 525.039062 233.296875 520.75 233.296875 L 289.070312 233.296875 C 284.78125 233.296875 280.488281 235.441406 277.628906 239.015625 L 233.296875 297.652344 L 233.296875 247.597656 C 233.296875 239.730469 226.859375 233.296875 218.996094 233.296875 Z M 449.957031 446.382812 C 465.691406 433.511719 476.414062 412.777344 476.414062 390.609375 C 476.414062 351.28125 444.238281 319.101562 404.910156 319.101562 C 365.582031 319.101562 333.40625 351.28125 333.40625 390.609375 C 333.40625 412.777344 344.128906 433.511719 359.863281 446.382812 C 335.550781 461.398438 319.101562 488.570312 319.101562 519.320312 L 319.101562 619.425781 L 261.898438 619.425781 L 261.898438 519.320312 C 261.898438 488.570312 245.453125 461.398438 221.140625 446.382812 C 236.871094 433.511719 247.597656 412.777344 247.597656 390.609375 C 247.597656 374.164062 241.878906 358.429688 232.582031 346.273438 L 296.222656 261.898438 L 514.3125 261.898438 L 577.953125 346.273438 C 567.941406 358.429688 562.222656 374.164062 562.222656 390.609375 C 562.222656 412.777344 572.949219 433.511719 588.679688 446.382812 C 564.367188 461.398438 547.921875 488.570312 547.921875 519.320312 L 547.921875 619.425781 L 490.71875 619.425781 L 490.71875 519.320312 C 490.71875 488.570312 474.269531 461.398438 449.957031 446.382812 Z M 404.910156 462.113281 C 436.371094 462.113281 462.113281 487.855469 462.113281 519.320312 L 462.113281 619.425781 L 347.707031 619.425781 L 347.707031 519.320312 C 347.707031 487.855469 373.449219 462.113281 404.910156 462.113281 Z M 362.007812 390.609375 C 362.007812 367.011719 381.3125 347.707031 404.910156 347.707031 C 428.507812 347.707031 447.8125 367.011719 447.8125 390.609375 C 447.8125 414.207031 428.507812 433.511719 404.910156 433.511719 C 381.3125 433.511719 362.007812 414.207031 362.007812 390.609375 Z M 176.09375 347.707031 C 199.6875 347.707031 218.996094 367.011719 218.996094 390.609375 C 218.996094 414.207031 199.6875 433.511719 176.09375 433.511719 C 152.496094 433.511719 133.1875 414.207031 133.1875 390.609375 C 133.1875 367.011719 152.496094 347.707031 176.09375 347.707031 Z M 118.886719 519.320312 C 118.886719 487.855469 144.628906 462.113281 176.09375 462.113281 C 207.554688 462.113281 233.296875 487.855469 233.296875 519.320312 L 233.296875 619.425781 L 118.886719 619.425781 Z M 690.933594 676.632812 C 690.933594 684.496094 684.496094 690.933594 676.632812 690.933594 L 133.1875 690.933594 C 125.324219 690.933594 118.886719 684.496094 118.886719 676.632812 L 118.886719 648.03125 L 690.933594 648.03125 Z M 690.933594 619.425781 L 576.523438 619.425781 L 576.523438 519.320312 C 576.523438 487.855469 602.265625 462.113281 633.726562 462.113281 C 665.191406 462.113281 690.933594 487.855469 690.933594 519.320312 Z M 218.996094 176.09375 C 218.996094 168.226562 225.429688 161.789062 233.296875 161.789062 L 576.523438 161.789062 C 584.390625 161.789062 590.824219 168.226562 590.824219 176.09375 C 590.824219 183.957031 584.390625 190.394531 576.523438 190.394531 L 233.296875 190.394531 C 225.429688 190.394531 218.996094 183.957031 218.996094 176.09375 Z M 218.996094 176.09375 "/>
</g>
</g>
</svg>
