<?xml version="1.0" encoding="UTF-8"?>
<svg xmlns="http://www.w3.org/2000/svg" xmlns:xlink="http://www.w3.org/1999/xlink" width="810pt" height="809.999993pt" viewBox="0 0 810 809.999993" version="1.2">
<defs>
<clipPath id="clip1">
  <path d="M 95.007812 120 L 715 120 L 715 631 L 95.007812 631 Z M 95.007812 120 "/>
</clipPath>
<clipPath id="clip2">
  <path d="M 95.007812 252 L 715 252 L 715 268 L 95.007812 268 Z M 95.007812 252 "/>
</clipPath>
</defs>
<g id="surface1">
<g clip-path="url(#clip1)" clip-rule="nonzero">
<path style=" stroke:none;fill-rule:nonzero;fill:rgb(30.198669%,60.778809%,58.039856%);fill-opacity:1;" d="M 527.539062 630.1875 L 135.453125 630.1875 C 113.136719 630.1875 95.007812 612.03125 95.007812 589.734375 L 95.007812 161.296875 C 95.007812 139 113.136719 120.839844 135.453125 120.839844 L 674.195312 120.839844 C 696.511719 120.839844 714.640625 139 714.640625 161.296875 L 714.640625 510.421875 C 714.640625 514.417969 711.394531 517.636719 707.425781 517.636719 C 703.433594 517.636719 700.191406 514.417969 700.191406 510.421875 L 700.191406 161.296875 C 700.191406 146.964844 688.523438 135.292969 674.195312 135.292969 L 135.453125 135.292969 C 121.101562 135.292969 109.460938 146.964844 109.460938 161.296875 L 109.460938 589.734375 C 109.460938 604.066406 121.101562 615.734375 135.453125 615.734375 L 527.539062 615.734375 C 531.535156 615.734375 534.777344 618.980469 534.777344 622.976562 C 534.777344 626.945312 531.535156 630.1875 527.539062 630.1875 "/>
</g>
<path style=" stroke:none;fill-rule:nonzero;fill:rgb(30.198669%,60.778809%,58.039856%);fill-opacity:1;" d="M 177.886719 180.542969 C 170.746094 180.542969 164.960938 186.328125 164.960938 193.445312 C 164.960938 200.5625 170.746094 206.351562 177.886719 206.351562 C 185 206.351562 190.785156 200.5625 190.785156 193.445312 C 190.785156 186.328125 185 180.542969 177.886719 180.542969 "/>
<path style=" stroke:none;fill-rule:nonzero;fill:rgb(30.198669%,60.778809%,58.039856%);fill-opacity:1;" d="M 242.777344 180.542969 C 235.660156 180.542969 229.875 186.328125 229.875 193.445312 C 229.875 200.5625 235.660156 206.351562 242.777344 206.351562 C 249.917969 206.351562 255.703125 200.5625 255.703125 193.445312 C 255.703125 186.328125 249.917969 180.542969 242.777344 180.542969 "/>
<path style=" stroke:none;fill-rule:nonzero;fill:rgb(30.198669%,60.778809%,58.039856%);fill-opacity:1;" d="M 307.691406 180.542969 C 300.578125 180.542969 294.792969 186.328125 294.792969 193.445312 C 294.792969 200.5625 300.578125 206.351562 307.691406 206.351562 C 314.808594 206.351562 320.617188 200.5625 320.617188 193.445312 C 320.617188 186.328125 314.808594 180.542969 307.691406 180.542969 "/>
<g clip-path="url(#clip2)" clip-rule="nonzero">
<path style=" stroke:none;fill-rule:nonzero;fill:rgb(30.198669%,60.778809%,58.039856%);fill-opacity:1;" d="M 707.425781 267.359375 L 102.222656 267.359375 C 98.230469 267.359375 95.007812 264.113281 95.007812 260.121094 C 95.007812 256.148438 98.230469 252.90625 102.222656 252.90625 L 707.425781 252.90625 C 711.394531 252.90625 714.640625 256.148438 714.640625 260.121094 C 714.640625 264.113281 711.394531 267.359375 707.425781 267.359375 "/>
</g>
<path style=" stroke:none;fill-rule:nonzero;fill:rgb(30.198669%,60.778809%,58.039856%);fill-opacity:1;" d="M 160.359375 589.394531 C 156.390625 589.394531 153.148438 586.152344 153.148438 582.179688 L 153.148438 557.246094 C 153.148438 553.25 156.390625 550.03125 160.359375 550.03125 C 164.355469 550.03125 167.597656 553.25 167.597656 557.246094 L 167.597656 582.179688 C 167.597656 586.152344 164.355469 589.394531 160.359375 589.394531 "/>
<path style=" stroke:none;fill-rule:nonzero;fill:rgb(30.198669%,60.778809%,58.039856%);fill-opacity:1;" d="M 190.664062 589.394531 C 186.695312 589.394531 183.453125 586.152344 183.453125 582.179688 L 183.453125 557.246094 C 183.453125 553.25 186.695312 550.03125 190.664062 550.03125 C 194.660156 550.03125 197.902344 553.25 197.902344 557.246094 L 197.902344 582.179688 C 197.902344 586.152344 194.660156 589.394531 190.664062 589.394531 "/>
<path style=" stroke:none;fill-rule:nonzero;fill:rgb(30.198669%,60.778809%,58.039856%);fill-opacity:1;" d="M 510.886719 576.929688 L 233.09375 576.929688 C 229.101562 576.929688 225.882812 573.707031 225.882812 569.714844 C 225.882812 565.71875 229.101562 562.5 233.09375 562.5 L 510.886719 562.5 C 514.859375 562.5 518.101562 565.71875 518.101562 569.714844 C 518.101562 573.707031 514.859375 576.929688 510.886719 576.929688 "/>
<path style=" stroke:none;fill-rule:nonzero;fill:rgb(30.198669%,60.778809%,58.039856%);fill-opacity:1;" d="M 581.636719 689.527344 C 581.007812 689.527344 580.378906 689.429688 579.75 689.285156 C 577.257812 688.605469 575.320312 686.671875 574.640625 684.175781 L 528.605469 512.289062 C 527.929688 509.792969 528.652344 507.15625 530.46875 505.316406 C 532.308594 503.5 534.972656 502.773438 537.441406 503.453125 L 709.289062 549.5 C 711.785156 550.175781 713.71875 552.113281 714.398438 554.605469 C 715.050781 557.101562 714.347656 559.761719 712.535156 561.578125 L 672.28125 601.839844 C 669.472656 604.648438 664.898438 604.648438 662.09375 601.839844 C 659.261719 599.007812 659.261719 594.429688 662.066406 591.625 L 693.484375 560.222656 L 545.789062 520.640625 L 585.363281 668.34375 L 616.757812 636.945312 C 619.589844 634.136719 624.140625 634.136719 626.972656 636.945312 C 629.78125 639.777344 629.78125 644.351562 626.972656 647.160156 L 586.71875 687.421875 C 585.363281 688.777344 583.523438 689.527344 581.636719 689.527344 "/>
<path style=" stroke:none;fill-rule:nonzero;fill:rgb(30.198669%,60.778809%,58.039856%);fill-opacity:1;" d="M 705.417969 687.519531 C 703.578125 687.519531 701.714844 686.816406 700.3125 685.410156 L 650.039062 635.128906 C 647.230469 632.320312 647.230469 627.742188 650.039062 624.910156 C 652.871094 622.101562 657.445312 622.101562 660.253906 624.910156 L 710.523438 675.195312 C 713.332031 678.003906 713.332031 682.578125 710.523438 685.410156 C 709.121094 686.816406 707.257812 687.519531 705.417969 687.519531 "/>
<path style=" stroke:none;fill-rule:nonzero;fill:rgb(30.198669%,60.778809%,58.039856%);fill-opacity:1;" d="M 499.464844 529.816406 C 495.46875 529.816406 492.226562 526.570312 492.226562 522.601562 L 492.226562 498.898438 C 492.226562 485.511719 486.394531 472.824219 476.226562 464.109375 L 435.273438 429.054688 C 432.25 426.464844 431.886719 421.914062 434.476562 418.886719 C 437.089844 415.859375 441.640625 415.496094 444.664062 418.089844 L 485.617188 453.144531 C 499.003906 464.59375 506.675781 481.273438 506.675781 498.898438 L 506.675781 522.601562 C 506.675781 526.570312 503.433594 529.816406 499.464844 529.816406 "/>
<path style=" stroke:none;fill-rule:nonzero;fill:rgb(30.198669%,60.778809%,58.039856%);fill-opacity:1;" d="M 310.1875 529.816406 C 306.214844 529.816406 302.972656 526.570312 302.972656 522.601562 L 302.972656 499.191406 C 302.972656 481.347656 310.816406 464.546875 324.464844 453.070312 L 366.144531 418.0625 C 369.21875 415.472656 373.769531 415.886719 376.335938 418.933594 C 378.902344 421.984375 378.492188 426.539062 375.441406 429.101562 L 333.761719 464.136719 C 323.378906 472.851562 317.421875 485.632812 317.421875 499.191406 L 317.421875 522.601562 C 317.421875 526.570312 314.179688 529.816406 310.1875 529.816406 "/>
<path style=" stroke:none;fill-rule:nonzero;fill:rgb(30.198669%,60.778809%,58.039856%);fill-opacity:1;" d="M 405.40625 311.808594 C 378.5625 311.808594 356.730469 338.460938 356.730469 371.242188 C 356.730469 403.996094 378.5625 430.675781 405.40625 430.675781 C 432.222656 430.675781 454.054688 403.996094 454.054688 371.242188 C 454.054688 338.460938 432.222656 311.808594 405.40625 311.808594 Z M 405.40625 445.105469 C 370.601562 445.105469 342.28125 411.964844 342.28125 371.242188 C 342.28125 330.523438 370.601562 297.378906 405.40625 297.378906 C 440.1875 297.378906 468.507812 330.523438 468.507812 371.242188 C 468.507812 411.964844 440.1875 445.105469 405.40625 445.105469 "/>
</g>
</svg>
