<?xml version="1.0" encoding="UTF-8"?>
<svg xmlns="http://www.w3.org/2000/svg" xmlns:xlink="http://www.w3.org/1999/xlink" width="810pt" height="809.999993pt" viewBox="0 0 810 809.999993" version="1.2">
<defs>
<clipPath id="clip1">
  <path d="M 104.945312 104.945312 L 704.945312 104.945312 L 704.945312 704.945312 L 104.945312 704.945312 Z M 104.945312 104.945312 "/>
</clipPath>
</defs>
<g id="surface1">
<g clip-path="url(#clip1)" clip-rule="nonzero">
<path style=" stroke:none;fill-rule:nonzero;fill:rgb(30.198669%,60.778809%,58.039856%);fill-opacity:1;" d="M 453.332031 269.460938 C 453.332031 221.453125 492.382812 182.367188 540.429688 182.367188 C 588.476562 182.367188 627.527344 221.453125 627.527344 269.460938 C 627.527344 317.472656 588.476562 356.558594 540.429688 356.558594 C 492.382812 356.558594 453.332031 317.472656 453.332031 269.460938 Z M 662.796875 298.757812 L 661.359375 303.75 C 658.675781 313.3125 654.933594 322.421875 650.207031 330.816406 L 647.675781 335.3125 L 658.636719 356.558594 L 639.28125 375.914062 L 453.332031 375.914062 L 453.332031 330.476562 C 472.613281 357.917969 504.441406 375.914062 540.429688 375.914062 C 599.136719 375.914062 646.882812 328.167969 646.882812 269.460938 C 646.882812 210.753906 599.136719 163.011719 540.429688 163.011719 C 481.722656 163.011719 433.976562 210.753906 433.976562 269.460938 C 433.976562 269.539062 433.976562 269.652344 433.976562 269.726562 C 425.886719 263.566406 415.910156 259.785156 404.945312 259.785156 L 395.269531 259.785156 L 395.269531 247.5 L 418.0625 240.164062 L 419.5 235.175781 C 422.183594 225.613281 425.925781 216.5 430.652344 208.109375 L 433.183594 203.609375 L 422.222656 182.367188 L 453.332031 151.292969 L 474.578125 162.214844 L 479.078125 159.683594 C 487.507812 154.957031 496.617188 151.214844 506.179688 148.53125 L 511.171875 147.097656 L 518.464844 124.300781 L 562.394531 124.300781 L 569.6875 147.097656 L 574.679688 148.53125 C 584.242188 151.214844 593.351562 154.957031 601.78125 159.683594 L 606.28125 162.214844 L 627.527344 151.292969 L 658.636719 182.367188 L 647.675781 203.609375 L 650.207031 208.109375 C 654.933594 216.5 658.675781 225.613281 661.359375 235.175781 L 662.796875 240.164062 L 685.589844 247.5 L 685.589844 291.425781 Z M 666.234375 424.300781 C 666.234375 429.632812 661.890625 433.976562 656.558594 433.976562 L 453.332031 433.976562 L 453.332031 395.269531 L 472.6875 395.269531 L 472.6875 414.625 L 492.042969 414.625 L 492.042969 395.269531 L 511.398438 395.269531 L 511.398438 414.625 L 530.753906 414.625 L 530.753906 395.269531 L 550.105469 395.269531 L 550.105469 414.625 L 569.460938 414.625 L 569.460938 395.269531 L 588.816406 395.269531 L 588.816406 414.625 L 608.171875 414.625 L 608.171875 395.269531 L 627.527344 395.269531 L 627.527344 414.625 L 646.882812 414.625 L 646.882812 395.269531 L 656.558594 395.269531 C 661.890625 395.269531 666.234375 399.617188 666.234375 404.945312 Z M 627.527344 463.011719 L 627.527344 482.367188 C 627.527344 487.695312 623.179688 492.042969 617.847656 492.042969 L 453.332031 492.042969 L 453.332031 453.332031 L 472.6875 453.332031 L 472.6875 472.6875 L 492.042969 472.6875 L 492.042969 453.332031 L 511.398438 453.332031 L 511.398438 472.6875 L 530.753906 472.6875 L 530.753906 453.332031 L 550.105469 453.332031 L 550.105469 472.6875 L 569.460938 472.6875 L 569.460938 453.332031 L 588.816406 453.332031 L 588.816406 472.6875 L 608.171875 472.6875 L 608.171875 453.332031 L 617.847656 453.332031 C 623.179688 453.332031 627.527344 457.679688 627.527344 463.011719 Z M 666.234375 521.074219 L 666.234375 540.429688 C 666.234375 545.761719 661.890625 550.105469 656.558594 550.105469 L 453.332031 550.105469 L 453.332031 511.398438 L 472.6875 511.398438 L 472.6875 530.753906 L 492.042969 530.753906 L 492.042969 511.398438 L 511.398438 511.398438 L 511.398438 530.753906 L 530.753906 530.753906 L 530.753906 511.398438 L 550.105469 511.398438 L 550.105469 530.753906 L 569.460938 530.753906 L 569.460938 511.398438 L 588.816406 511.398438 L 588.816406 530.753906 L 608.171875 530.753906 L 608.171875 511.398438 L 627.527344 511.398438 L 627.527344 530.753906 L 646.882812 530.753906 L 646.882812 511.398438 L 656.558594 511.398438 C 661.890625 511.398438 666.234375 515.746094 666.234375 521.074219 Z M 627.527344 579.140625 L 627.527344 598.496094 C 627.527344 603.824219 623.179688 608.171875 617.847656 608.171875 L 453.332031 608.171875 L 453.332031 569.460938 L 472.6875 569.460938 L 472.6875 588.816406 L 492.042969 588.816406 L 492.042969 569.460938 L 511.398438 569.460938 L 511.398438 588.816406 L 530.753906 588.816406 L 530.753906 569.460938 L 550.105469 569.460938 L 550.105469 588.816406 L 569.460938 588.816406 L 569.460938 569.460938 L 588.816406 569.460938 L 588.816406 588.816406 L 608.171875 588.816406 L 608.171875 569.460938 L 617.847656 569.460938 C 623.179688 569.460938 627.527344 573.808594 627.527344 579.140625 Z M 433.976562 656.558594 C 433.976562 672.585938 420.972656 685.589844 404.945312 685.589844 L 153.332031 685.589844 C 137.304688 685.589844 124.300781 672.585938 124.300781 656.558594 L 124.300781 308.171875 C 124.300781 292.144531 137.304688 279.140625 153.332031 279.140625 L 404.945312 279.140625 C 420.972656 279.140625 433.976562 292.144531 433.976562 308.171875 Z M 704.945312 305.5625 L 704.945312 233.359375 L 678.484375 224.894531 C 676.066406 217.410156 673.117188 210.1875 669.601562 203.308594 L 682.265625 178.660156 L 631.230469 127.628906 L 606.582031 140.292969 C 599.703125 136.777344 592.484375 133.789062 585 131.40625 L 576.53125 104.945312 L 504.328125 104.945312 L 495.859375 131.40625 C 488.375 133.789062 481.15625 136.777344 474.273438 140.292969 L 449.628906 127.628906 L 398.59375 178.660156 L 411.257812 203.308594 C 407.742188 210.1875 404.792969 217.410156 402.375 224.894531 L 375.914062 233.359375 L 375.914062 259.785156 L 153.332031 259.785156 C 126.644531 259.785156 104.945312 281.484375 104.945312 308.171875 L 104.945312 656.558594 C 104.945312 683.246094 126.644531 704.945312 153.332031 704.945312 L 404.945312 704.945312 C 431.632812 704.945312 453.332031 683.246094 453.332031 656.558594 L 453.332031 627.527344 L 617.847656 627.527344 C 633.878906 627.527344 646.882812 614.523438 646.882812 598.496094 L 646.882812 579.140625 C 646.882812 575.738281 646.164062 572.523438 645.105469 569.460938 L 656.558594 569.460938 C 672.585938 569.460938 685.589844 556.457031 685.589844 540.429688 L 685.589844 521.074219 C 685.589844 505.046875 672.585938 492.042969 656.558594 492.042969 L 645.105469 492.042969 C 646.164062 488.980469 646.882812 485.769531 646.882812 482.367188 L 646.882812 463.011719 C 646.882812 459.609375 646.164062 456.394531 645.105469 453.332031 L 656.558594 453.332031 C 672.585938 453.332031 685.589844 440.328125 685.589844 424.300781 L 685.589844 404.945312 C 685.589844 391.941406 676.972656 381.054688 665.175781 377.386719 L 682.265625 360.261719 L 669.601562 335.617188 C 673.117188 328.738281 676.066406 321.515625 678.484375 314.03125 L 704.945312 305.5625 "/>
</g>
<path style=" stroke:none;fill-rule:nonzero;fill:rgb(30.198669%,60.778809%,58.039856%);fill-opacity:1;" d="M 540.429688 298.496094 C 535.097656 298.496094 530.753906 294.148438 530.753906 288.816406 L 511.398438 288.816406 C 511.398438 301.40625 519.523438 312.066406 530.753906 316.074219 L 530.753906 337.203125 L 550.105469 337.203125 L 550.105469 316.074219 C 561.335938 312.066406 569.460938 301.40625 569.460938 288.816406 C 569.460938 272.789062 556.457031 259.785156 540.429688 259.785156 C 535.097656 259.785156 530.753906 255.4375 530.753906 250.105469 C 530.753906 244.777344 535.097656 240.429688 540.429688 240.429688 C 545.757812 240.429688 550.105469 244.777344 550.105469 250.105469 L 569.460938 250.105469 C 569.460938 237.519531 561.335938 226.859375 550.105469 222.851562 L 550.105469 201.71875 L 530.753906 201.71875 L 530.753906 222.851562 C 519.523438 226.859375 511.398438 237.519531 511.398438 250.105469 C 511.398438 266.136719 524.402344 279.140625 540.429688 279.140625 C 545.757812 279.140625 550.105469 283.488281 550.105469 288.816406 C 550.105469 294.148438 545.757812 298.496094 540.429688 298.496094 "/>
<path style=" stroke:none;fill-rule:nonzero;fill:rgb(30.198669%,60.778809%,58.039856%);fill-opacity:1;" d="M 163.011719 414.625 L 163.011719 317.847656 L 395.269531 317.847656 L 395.269531 414.625 Z M 395.269531 298.496094 L 163.011719 298.496094 C 152.351562 298.496094 143.65625 307.1875 143.65625 317.847656 L 143.65625 414.625 C 143.65625 425.285156 152.351562 433.976562 163.011719 433.976562 L 395.269531 433.976562 C 405.929688 433.976562 414.625 425.285156 414.625 414.625 L 414.625 317.847656 C 414.625 307.1875 405.929688 298.496094 395.269531 298.496094 "/>
<path style=" stroke:none;fill-rule:nonzero;fill:rgb(30.198669%,60.778809%,58.039856%);fill-opacity:1;" d="M 163.011719 492.042969 L 163.011719 472.6875 L 201.71875 472.6875 L 201.71875 492.042969 Z M 201.71875 453.332031 L 163.011719 453.332031 C 152.351562 453.332031 143.65625 462.027344 143.65625 472.6875 L 143.65625 492.042969 C 143.65625 502.703125 152.351562 511.398438 163.011719 511.398438 L 201.71875 511.398438 C 212.378906 511.398438 221.074219 502.703125 221.074219 492.042969 L 221.074219 472.6875 C 221.074219 462.027344 212.378906 453.332031 201.71875 453.332031 "/>
<path style=" stroke:none;fill-rule:nonzero;fill:rgb(30.198669%,60.778809%,58.039856%);fill-opacity:1;" d="M 259.785156 492.042969 L 259.785156 472.6875 L 298.492188 472.6875 L 298.492188 492.042969 Z M 298.492188 453.332031 L 259.785156 453.332031 C 249.125 453.332031 240.429688 462.027344 240.429688 472.6875 L 240.429688 492.042969 C 240.429688 502.703125 249.125 511.398438 259.785156 511.398438 L 298.492188 511.398438 C 309.15625 511.398438 317.847656 502.703125 317.847656 492.042969 L 317.847656 472.6875 C 317.847656 462.027344 309.15625 453.332031 298.492188 453.332031 "/>
<path style=" stroke:none;fill-rule:nonzero;fill:rgb(30.198669%,60.778809%,58.039856%);fill-opacity:1;" d="M 356.558594 492.042969 L 356.558594 472.6875 L 395.269531 472.6875 L 395.269531 492.042969 Z M 395.269531 453.332031 L 356.558594 453.332031 C 345.898438 453.332031 337.203125 462.027344 337.203125 472.6875 L 337.203125 492.042969 C 337.203125 502.703125 345.898438 511.398438 356.558594 511.398438 L 395.269531 511.398438 C 405.929688 511.398438 414.625 502.703125 414.625 492.042969 L 414.625 472.6875 C 414.625 462.027344 405.929688 453.332031 395.269531 453.332031 "/>
<path style=" stroke:none;fill-rule:nonzero;fill:rgb(30.198669%,60.778809%,58.039856%);fill-opacity:1;" d="M 163.011719 569.460938 L 163.011719 550.105469 L 201.71875 550.105469 L 201.71875 569.460938 Z M 201.71875 530.753906 L 163.011719 530.753906 C 152.351562 530.753906 143.65625 539.445312 143.65625 550.105469 L 143.65625 569.460938 C 143.65625 580.121094 152.351562 588.816406 163.011719 588.816406 L 201.71875 588.816406 C 212.378906 588.816406 221.074219 580.121094 221.074219 569.460938 L 221.074219 550.105469 C 221.074219 539.445312 212.378906 530.753906 201.71875 530.753906 "/>
<path style=" stroke:none;fill-rule:nonzero;fill:rgb(30.198669%,60.778809%,58.039856%);fill-opacity:1;" d="M 259.785156 569.460938 L 259.785156 550.105469 L 298.492188 550.105469 L 298.492188 569.460938 Z M 298.492188 530.753906 L 259.785156 530.753906 C 249.125 530.753906 240.429688 539.445312 240.429688 550.105469 L 240.429688 569.460938 C 240.429688 580.121094 249.125 588.816406 259.785156 588.816406 L 298.492188 588.816406 C 309.15625 588.816406 317.847656 580.121094 317.847656 569.460938 L 317.847656 550.105469 C 317.847656 539.445312 309.15625 530.753906 298.492188 530.753906 "/>
<path style=" stroke:none;fill-rule:nonzero;fill:rgb(30.198669%,60.778809%,58.039856%);fill-opacity:1;" d="M 163.011719 646.882812 L 163.011719 627.527344 L 201.71875 627.527344 L 201.71875 646.882812 Z M 201.71875 608.171875 L 163.011719 608.171875 C 152.351562 608.171875 143.65625 616.867188 143.65625 627.527344 L 143.65625 646.882812 C 143.65625 657.542969 152.351562 666.238281 163.011719 666.238281 L 201.71875 666.238281 C 212.378906 666.238281 221.074219 657.542969 221.074219 646.882812 L 221.074219 627.527344 C 221.074219 616.867188 212.378906 608.171875 201.71875 608.171875 "/>
<path style=" stroke:none;fill-rule:nonzero;fill:rgb(30.198669%,60.778809%,58.039856%);fill-opacity:1;" d="M 259.785156 646.882812 L 259.785156 627.527344 L 298.492188 627.527344 L 298.492188 646.882812 Z M 298.492188 608.171875 L 259.785156 608.171875 C 249.125 608.171875 240.429688 616.867188 240.429688 627.527344 L 240.429688 646.882812 C 240.429688 657.542969 249.125 666.238281 259.785156 666.238281 L 298.492188 666.238281 C 309.15625 666.238281 317.847656 657.542969 317.847656 646.882812 L 317.847656 627.527344 C 317.847656 616.867188 309.15625 608.171875 298.492188 608.171875 "/>
<path style=" stroke:none;fill-rule:nonzero;fill:rgb(30.198669%,60.778809%,58.039856%);fill-opacity:1;" d="M 356.558594 646.882812 L 356.558594 550.105469 L 395.269531 550.105469 L 395.269531 646.882812 Z M 395.269531 530.753906 L 356.558594 530.753906 C 345.898438 530.753906 337.203125 539.445312 337.203125 550.105469 L 337.203125 646.882812 C 337.203125 657.542969 345.898438 666.238281 356.558594 666.238281 L 395.269531 666.238281 C 405.929688 666.238281 414.625 657.542969 414.625 646.882812 L 414.625 550.105469 C 414.625 539.445312 405.929688 530.753906 395.269531 530.753906 "/>
<path style=" stroke:none;fill-rule:nonzero;fill:rgb(30.198669%,60.778809%,58.039856%);fill-opacity:1;" d="M 279.140625 395.269531 L 298.492188 395.269531 L 298.492188 375.914062 L 279.140625 375.914062 L 279.140625 395.269531 "/>
<path style=" stroke:none;fill-rule:nonzero;fill:rgb(30.198669%,60.778809%,58.039856%);fill-opacity:1;" d="M 356.558594 395.269531 L 375.914062 395.269531 L 375.914062 375.914062 L 356.558594 375.914062 L 356.558594 395.269531 "/>
<path style=" stroke:none;fill-rule:nonzero;fill:rgb(30.198669%,60.778809%,58.039856%);fill-opacity:1;" d="M 317.847656 395.269531 L 337.203125 395.269531 L 337.203125 375.914062 L 317.847656 375.914062 L 317.847656 395.269531 "/>
</g>
</svg>
