<?xml version="1.0" encoding="UTF-8"?>
<svg xmlns="http://www.w3.org/2000/svg" xmlns:xlink="http://www.w3.org/1999/xlink" width="810pt" height="809.999993pt" viewBox="0 0 810 809.999993" version="1.2">
<defs>
<clipPath id="clip1">
  <path d="M 127.523438 250.652344 L 682.523438 250.652344 L 682.523438 559.652344 L 127.523438 559.652344 Z M 127.523438 250.652344 "/>
</clipPath>
</defs>
<g id="surface1">
<g clip-path="url(#clip1)" clip-rule="nonzero">
<path style=" stroke:none;fill-rule:nonzero;fill:rgb(30.198669%,60.778809%,58.039856%);fill-opacity:1;" d="M 521.027344 382.058594 L 412.335938 416.683594 L 288.761719 379.441406 C 288.761719 379.441406 288.757812 379.441406 288.753906 379.441406 L 167.21875 342.808594 L 404.960938 269.050781 L 643.46875 343.046875 Z M 514.800781 445.984375 C 500.34375 460.414062 459.785156 472.90625 404.960938 472.90625 C 350.132812 472.90625 309.578125 460.414062 295.121094 445.984375 L 295.121094 400.039062 L 409.835938 434.609375 C 410.261719 434.738281 410.691406 434.832031 411.132812 434.898438 C 411.246094 434.914062 411.363281 434.910156 411.476562 434.921875 C 411.789062 434.953125 412.097656 434.988281 412.410156 434.988281 C 412.421875 434.988281 412.4375 434.988281 412.449219 434.984375 C 412.699219 434.984375 412.945312 434.949219 413.195312 434.929688 C 413.398438 434.910156 413.601562 434.910156 413.800781 434.875 C 414.246094 434.808594 414.6875 434.703125 415.117188 434.566406 L 514.800781 402.808594 Z M 486.320312 491.976562 C 464.714844 498.636719 435.820312 502.304688 404.960938 502.304688 C 374.101562 502.304688 345.207031 498.636719 323.601562 491.976562 C 302.703125 485.539062 295.121094 478.078125 295.121094 474.632812 L 295.121094 473.035156 C 301.078125 477.554688 308.65625 481.59375 317.734375 485.011719 C 335.410156 491.671875 357.808594 495.753906 382.503906 496.816406 C 382.574219 496.820312 382.640625 496.824219 382.710938 496.824219 C 385.230469 496.824219 387.324219 494.832031 387.433594 492.289062 C 387.546875 489.675781 385.523438 487.46875 382.914062 487.359375 C 341.714844 485.582031 308.316406 475.0625 295.121094 460.371094 L 295.121094 454.335938 C 301.230469 458.992188 309.566406 463.226562 319.933594 466.859375 C 342.691406 474.832031 372.890625 479.21875 404.960938 479.21875 C 437.03125 479.21875 467.230469 474.832031 489.988281 466.859375 C 500.355469 463.226562 508.691406 458.992188 514.800781 454.335938 L 514.800781 474.632812 C 514.800781 478.078125 507.214844 485.539062 486.320312 491.976562 Z M 207.171875 550.148438 C 201.144531 550.148438 195.253906 548.316406 190.292969 544.945312 L 201.226562 503.3125 C 201.292969 503.34375 201.359375 503.367188 201.425781 503.398438 C 201.539062 503.460938 201.664062 503.515625 201.78125 503.574219 L 196.871094 533.492188 C 196.585938 535.214844 197.75 536.839844 199.46875 537.121094 C 199.640625 537.148438 199.816406 537.164062 199.984375 537.164062 C 201.503906 537.164062 202.835938 536.066406 203.089844 534.515625 L 207.976562 504.757812 C 208.195312 504.746094 208.417969 504.734375 208.628906 504.710938 C 208.78125 504.691406 208.929688 504.664062 209.082031 504.640625 C 209.410156 504.589844 209.734375 504.53125 210.054688 504.453125 C 210.21875 504.417969 210.378906 504.371094 210.542969 504.328125 C 210.851562 504.246094 211.152344 504.144531 211.445312 504.039062 C 211.59375 503.984375 211.742188 503.9375 211.890625 503.875 C 212.246094 503.730469 212.59375 503.570312 212.933594 503.394531 C 212.996094 503.367188 213.058594 503.339844 213.117188 503.3125 L 224.050781 544.945312 C 219.097656 548.316406 213.203125 550.148438 207.171875 550.148438 Z M 207.171875 495.332031 C 205.421875 495.332031 204 493.90625 204 492.148438 C 204 490.398438 205.421875 488.972656 207.171875 488.972656 C 208.925781 488.972656 210.351562 490.398438 210.351562 492.148438 C 210.351562 493.90625 208.925781 495.332031 207.171875 495.332031 Z M 675.925781 334.394531 L 407.605469 251.144531 C 405.882812 250.613281 404.035156 250.613281 402.316406 251.144531 L 133.996094 334.394531 C 130.246094 335.554688 127.691406 339.042969 127.707031 342.96875 C 127.722656 346.902344 130.300781 350.363281 134.066406 351.5 L 202.441406 372.105469 L 202.441406 480.433594 C 198.035156 482.222656 194.875 486.425781 194.574219 491.394531 L 180.339844 545.605469 C 179.871094 547.378906 180.476562 549.265625 181.882812 550.441406 C 188.96875 556.355469 197.949219 559.617188 207.171875 559.617188 C 216.398438 559.617188 225.378906 556.355469 232.464844 550.441406 C 233.871094 549.265625 234.472656 547.378906 234.007812 545.605469 L 219.769531 491.394531 C 219.472656 486.425781 216.308594 482.222656 211.902344 480.433594 L 211.902344 374.957031 L 277.25 394.652344 L 277.25 474.632812 C 277.25 484.566406 284.378906 498.601562 318.34375 509.070312 C 341.605469 516.242188 372.367188 520.191406 404.960938 520.191406 C 437.554688 520.191406 468.316406 516.242188 491.574219 509.070312 C 525.542969 498.601562 532.671875 484.566406 532.671875 474.632812 L 532.671875 397.117188 L 675.988281 351.457031 C 679.707031 350.273438 682.226562 346.808594 682.214844 342.902344 C 682.199219 338.996094 679.652344 335.546875 675.925781 334.394531 "/>
</g>
<path style=" stroke:none;fill-rule:nonzero;fill:rgb(30.198669%,60.778809%,58.039856%);fill-opacity:1;" d="M 296.265625 363.921875 L 208.5 338.324219 C 205.988281 337.589844 203.363281 339.035156 202.632812 341.542969 C 201.902344 344.054688 203.339844 346.679688 205.851562 347.414062 L 293.617188 373.011719 C 294.0625 373.140625 294.503906 373.203125 294.945312 373.203125 C 296.992188 373.203125 298.882812 371.859375 299.480469 369.789062 C 300.210938 367.28125 298.769531 364.652344 296.265625 363.921875 "/>
<path style=" stroke:none;fill-rule:nonzero;fill:rgb(30.198669%,60.778809%,58.039856%);fill-opacity:1;" d="M 350.835938 379.679688 L 314.046875 369.683594 C 311.53125 368.996094 308.929688 370.488281 308.246094 373.011719 C 307.5625 375.535156 309.050781 378.136719 311.574219 378.820312 L 348.359375 388.816406 C 348.777344 388.929688 349.191406 388.984375 349.601562 388.984375 C 351.683594 388.984375 353.59375 387.59375 354.164062 385.484375 C 354.847656 382.960938 353.359375 380.359375 350.835938 379.679688 "/>
<path style=" stroke:none;fill-rule:nonzero;fill:rgb(30.198669%,60.778809%,58.039856%);fill-opacity:1;" d="M 290.070312 356.738281 L 326.332031 366.207031 C 326.730469 366.3125 327.132812 366.363281 327.527344 366.363281 C 329.628906 366.363281 331.546875 364.953125 332.101562 362.820312 C 332.761719 360.292969 331.246094 357.707031 328.71875 357.046875 L 292.457031 347.578125 C 289.929688 346.917969 287.34375 348.433594 286.6875 350.964844 C 286.027344 353.492188 287.539062 356.082031 290.070312 356.738281 "/>
<path style=" stroke:none;fill-rule:nonzero;fill:rgb(30.198669%,60.778809%,58.039856%);fill-opacity:1;" d="M 498.511719 314.597656 L 554.746094 331.957031 C 555.210938 332.101562 555.679688 332.171875 556.144531 332.171875 C 558.164062 332.171875 560.035156 330.863281 560.660156 328.828125 C 561.433594 326.332031 560.03125 323.679688 557.535156 322.910156 L 501.300781 305.550781 C 498.808594 304.78125 496.15625 306.179688 495.390625 308.679688 C 494.617188 311.175781 496.015625 313.828125 498.511719 314.597656 "/>
<path style=" stroke:none;fill-rule:nonzero;fill:rgb(30.198669%,60.778809%,58.039856%);fill-opacity:1;" d="M 576.269531 337.738281 L 594.664062 343.523438 C 595.136719 343.671875 595.613281 343.742188 596.085938 343.742188 C 598.09375 343.742188 599.960938 342.449219 600.59375 340.425781 C 601.378906 337.933594 599.996094 335.273438 597.503906 334.492188 L 579.109375 328.707031 C 576.609375 327.921875 573.957031 329.308594 573.175781 331.800781 C 572.394531 334.292969 573.777344 336.953125 576.269531 337.738281 "/>
<path style=" stroke:none;fill-rule:nonzero;fill:rgb(30.198669%,60.778809%,58.039856%);fill-opacity:1;" d="M 210.316406 513.800781 C 210.300781 513.800781 210.28125 513.800781 210.265625 513.800781 C 208.523438 513.828125 207.136719 515.265625 207.164062 517.003906 L 207.511719 538.265625 C 207.542969 539.992188 208.949219 541.371094 210.667969 541.371094 C 210.683594 541.371094 210.699219 541.371094 210.71875 541.371094 C 212.460938 541.34375 213.847656 539.90625 213.820312 538.164062 L 213.472656 516.902344 C 213.441406 515.175781 212.035156 513.800781 210.316406 513.800781 "/>
</g>
</svg>
