<?xml version="1.0" encoding="UTF-8"?>
<svg xmlns="http://www.w3.org/2000/svg" xmlns:xlink="http://www.w3.org/1999/xlink" width="810pt" height="809.999993pt" viewBox="0 0 810 809.999993" version="1.2">
<g id="surface1">
<path style=" stroke:none;fill-rule:nonzero;fill:rgb(30.198669%,60.778809%,58.039856%);fill-opacity:1;" d="M 405.183594 476.65625 C 401.371094 476.65625 398.257812 473.570312 398.257812 469.734375 L 398.257812 424.953125 C 398.257812 421.144531 401.371094 418.035156 405.183594 418.035156 C 408.996094 418.035156 412.082031 421.144531 412.082031 424.953125 L 412.082031 469.734375 C 412.082031 473.570312 408.996094 476.65625 405.183594 476.65625 "/>
<path style=" stroke:none;fill-rule:nonzero;fill:rgb(30.198669%,60.778809%,58.039856%);fill-opacity:1;" d="M 347.894531 490.960938 C 345.195312 490.960938 342.628906 489.378906 341.511719 486.738281 L 320.921875 437.964844 C 319.441406 434.464844 321.101562 430.398438 324.601562 428.921875 C 328.128906 427.441406 332.175781 429.101562 333.65625 432.601562 L 354.246094 481.371094 C 355.75 484.898438 354.089844 488.9375 350.5625 490.417969 C 349.707031 490.804688 348.773438 490.960938 347.894531 490.960938 "/>
<path style=" stroke:none;fill-rule:nonzero;fill:rgb(30.198669%,60.778809%,58.039856%);fill-opacity:1;" d="M 466.570312 490.960938 C 465.792969 490.960938 464.988281 490.832031 464.210938 490.546875 C 460.605469 489.25 458.765625 485.285156 460.0625 481.710938 L 476.476562 436.695312 C 477.773438 433.09375 481.742188 431.253906 485.320312 432.546875 C 488.925781 433.871094 490.769531 437.835938 489.472656 441.410156 L 473.054688 486.425781 C 472.042969 489.222656 469.398438 490.960938 466.570312 490.960938 "/>
<path style=" stroke:none;fill-rule:nonzero;fill:rgb(30.198669%,60.778809%,58.039856%);fill-opacity:1;" d="M 597.335938 487.175781 C 593.910156 487.175781 590.929688 484.636719 590.488281 481.140625 L 589.425781 472.792969 C 586.105469 456.570312 577.261719 441.878906 564.5 431.304688 C 556.359375 424.617188 548.316406 420.367188 540.613281 418.683594 L 471.058594 398.523438 C 468.851562 397.875 466.777344 396.914062 464.910156 395.644531 C 459.59375 392.070312 456.117188 386.367188 455.367188 379.992188 L 452.175781 352.652344 C 451.890625 350.242188 452.902344 347.882812 454.796875 346.40625 C 472.925781 332.359375 486.4375 311.058594 492.894531 286.4375 C 493.648438 283.613281 496.058594 281.566406 498.988281 281.308594 C 507.679688 280.53125 514.5 269.464844 514.5 256.09375 C 514.5 243.601562 508.6875 233.105469 500.675781 231.085938 C 496.964844 230.175781 494.710938 226.417969 495.644531 222.714844 C 496.578125 219.007812 500.339844 216.777344 504.046875 217.6875 C 518.335938 221.289062 528.320312 237.070312 528.320312 256.09375 C 528.320312 274.699219 518.621094 290.09375 505.109375 294.136719 C 497.898438 318.523438 484.285156 339.824219 466.363281 354.828125 L 469.113281 378.386719 C 469.371094 380.742188 470.667969 382.867188 472.640625 384.191406 C 473.339844 384.65625 474.117188 385.019531 474.921875 385.253906 L 544.039062 405.3125 C 553.453125 407.359375 563.4375 412.566406 573.292969 420.652344 C 588.59375 433.273438 599.125 450.921875 603.015625 470.304688 C 603.066406 470.488281 603.09375 470.644531 603.09375 470.796875 L 604.207031 479.402344 C 604.675781 483.1875 602.003906 486.632812 598.214844 487.125 C 597.929688 487.152344 597.621094 487.175781 597.335938 487.175781 "/>
<path style=" stroke:none;fill-rule:nonzero;fill:rgb(30.198669%,60.778809%,58.039856%);fill-opacity:1;" d="M 212.925781 487.175781 C 212.640625 487.175781 212.355469 487.152344 212.046875 487.125 C 208.257812 486.632812 205.585938 483.1875 206.054688 479.402344 L 207.167969 470.796875 C 207.167969 470.644531 207.195312 470.488281 207.246094 470.332031 C 211.085938 450.949219 221.640625 433.324219 236.96875 420.679688 C 246.796875 412.566406 256.886719 407.332031 266.898438 405.128906 L 335.339844 385.253906 C 336.144531 385.019531 336.921875 384.65625 337.621094 384.191406 C 339.59375 382.867188 340.890625 380.742188 341.148438 378.386719 L 343.871094 354.828125 C 325.953125 339.824219 312.363281 318.523438 305.101562 294.109375 C 291.613281 290.042969 281.964844 274.671875 281.964844 256.09375 C 281.964844 237.5625 291.613281 221.859375 305.410156 217.917969 C 309.09375 216.882812 312.90625 219.007812 313.96875 222.660156 C 315.007812 226.34375 312.878906 230.152344 309.222656 231.214844 C 301.441406 233.441406 295.789062 243.886719 295.789062 256.09375 C 295.789062 269.4375 302.585938 280.53125 311.246094 281.308594 C 314.152344 281.566406 316.5625 283.613281 317.316406 286.4375 C 323.800781 311.03125 337.335938 332.335938 355.414062 346.40625 C 357.332031 347.882812 358.320312 350.242188 358.03125 352.652344 L 354.894531 379.964844 C 354.144531 386.339844 350.667969 392.070312 345.351562 395.644531 C 343.457031 396.914062 341.382812 397.875 339.203125 398.523438 L 270.320312 418.503906 C 262.023438 420.34375 253.90625 424.617188 245.785156 431.332031 C 232.949219 441.902344 224.105469 456.625 220.835938 472.792969 L 219.773438 481.140625 C 219.332031 484.636719 216.351562 487.175781 212.925781 487.175781 "/>
<path style=" stroke:none;fill-rule:nonzero;fill:rgb(30.198669%,60.778809%,58.039856%);fill-opacity:1;" d="M 307.332031 231.472656 C 303.726562 231.472656 300.691406 228.699219 300.433594 225.046875 C 300.300781 223.386719 297.761719 184.253906 313.503906 161.21875 C 315.65625 158.054688 319.960938 157.253906 323.125 159.402344 C 326.261719 161.554688 327.066406 165.855469 324.914062 168.992188 C 311.867188 188.117188 314.203125 223.722656 314.230469 224.085938 C 314.488281 227.898438 311.609375 231.1875 307.796875 231.445312 C 307.640625 231.472656 307.484375 231.472656 307.332031 231.472656 "/>
<path style=" stroke:none;fill-rule:nonzero;fill:rgb(30.198669%,60.778809%,58.039856%);fill-opacity:1;" d="M 502.359375 231.292969 C 502.257812 231.292969 502.128906 231.292969 502.023438 231.292969 C 498.210938 231.109375 495.28125 227.871094 495.460938 224.0625 C 495.460938 223.855469 496.371094 203.042969 489.496094 180.003906 C 488.382812 176.351562 490.484375 172.492188 494.140625 171.402344 C 497.824219 170.339844 501.660156 172.414062 502.75 176.066406 C 510.324219 201.464844 509.3125 223.800781 509.261719 224.734375 C 509.078125 228.441406 506.019531 231.292969 502.359375 231.292969 "/>
<path style=" stroke:none;fill-rule:nonzero;fill:rgb(30.198669%,60.778809%,58.039856%);fill-opacity:1;" d="M 458.503906 172.957031 C 454.175781 172.957031 450.078125 172.542969 446.496094 172.050781 C 436.355469 170.726562 426.398438 168.371094 416.75 166.089844 C 410.707031 164.636719 404.457031 163.160156 398.335938 161.996094 C 379.742188 158.417969 365.449219 158.46875 353.339844 162.203125 C 349.683594 163.316406 345.816406 161.269531 344.703125 157.613281 C 343.5625 153.960938 345.609375 150.101562 349.265625 148.984375 C 363.636719 144.578125 380.050781 144.398438 400.957031 148.414062 C 407.363281 149.660156 413.765625 151.164062 419.941406 152.640625 C 429.664062 154.945312 438.871094 157.121094 448.3125 158.367188 C 454.460938 159.171875 462.394531 159.84375 469.449219 157.691406 C 478.628906 154.894531 486.902344 146.886719 491.597656 136.261719 C 494.996094 128.539062 495.59375 111.640625 495.59375 99.589844 C 478.5 105.058594 462.679688 105.394531 445.40625 100.757812 C 443.515625 100.238281 441.90625 98.917969 441.023438 97.128906 C 440.144531 95.367188 440.066406 93.292969 440.816406 91.453125 C 441.078125 90.804688 441.257812 90.132812 441.335938 89.457031 C 423.390625 95.316406 401.683594 98.113281 392.863281 99.253906 L 391.152344 99.488281 C 360.082031 103.582031 326.46875 125.867188 326.132812 165.15625 C 326.082031 168.964844 322.996094 172.023438 319.207031 172.023438 C 319.183594 172.023438 319.183594 172.023438 319.15625 172.023438 C 315.316406 171.972656 312.257812 168.863281 312.308594 165.050781 C 312.726562 117.5 352.535156 90.625 389.335938 85.777344 L 391.101562 85.546875 C 400.644531 84.328125 426.058594 81.035156 443.28125 74.066406 C 446.394531 72.796875 449.945312 73.933594 451.734375 76.761719 C 454.097656 80.519531 455.238281 84.691406 455.210938 88.835938 C 470.175781 91.714844 483.84375 89.976562 499.742188 83.316406 C 501.84375 82.433594 504.28125 82.644531 506.199219 83.914062 C 508.117188 85.15625 509.285156 87.28125 509.335938 89.5625 C 509.648438 108.972656 509.285156 130.351562 504.253906 141.832031 C 497.875 156.292969 486.671875 166.894531 473.46875 170.910156 C 468.4375 172.4375 463.328125 172.957031 458.503906 172.957031 "/>
<path style=" stroke:none;fill-rule:nonzero;fill:rgb(30.198669%,60.778809%,58.039856%);fill-opacity:1;" d="M 199.882812 723.160156 L 610.378906 723.160156 C 607.242188 709.476562 594.976562 699.265625 580.347656 699.265625 L 229.914062 699.265625 C 215.289062 699.265625 203.019531 709.476562 199.882812 723.160156 Z M 618.082031 736.972656 L 192.179688 736.972656 C 188.367188 736.972656 185.253906 733.886719 185.253906 730.054688 C 185.253906 705.460938 205.300781 685.453125 229.914062 685.453125 L 580.347656 685.453125 C 604.960938 685.453125 625.007812 705.460938 625.007812 730.054688 C 625.007812 733.886719 621.894531 736.972656 618.082031 736.972656 "/>
<path style=" stroke:none;fill-rule:nonzero;fill:rgb(30.198669%,60.778809%,58.039856%);fill-opacity:1;" d="M 216.585938 699.265625 C 213.601562 699.265625 210.851562 697.324219 209.945312 694.316406 L 164.949219 543.074219 C 161.992188 533.074219 163.859375 522.523438 170.109375 514.15625 C 176.359375 505.808594 185.929688 500.988281 196.378906 500.988281 L 613.882812 500.988281 C 624.332031 500.988281 633.902344 505.808594 640.152344 514.15625 C 646.402344 522.523438 648.269531 533.074219 645.316406 543.074219 L 600.316406 694.316406 C 599.226562 697.996094 595.390625 700.070312 591.707031 698.980469 C 588.050781 697.894531 585.976562 694.058594 587.066406 690.378906 L 632.035156 539.136719 C 633.773438 533.359375 632.683594 527.269531 629.078125 522.421875 C 625.449219 517.574219 619.925781 514.800781 613.882812 514.800781 L 196.378906 514.800781 C 190.335938 514.800781 184.8125 517.574219 181.183594 522.421875 C 177.578125 527.269531 176.488281 533.359375 178.226562 539.136719 L 223.199219 690.402344 C 224.285156 694.058594 222.210938 697.894531 218.554688 698.980469 C 217.878906 699.164062 217.230469 699.265625 216.585938 699.265625 "/>
<path style=" stroke:none;fill-rule:nonzero;fill:rgb(30.198669%,60.778809%,58.039856%);fill-opacity:1;" d="M 405.15625 382.066406 C 396.78125 382.066406 388.429688 379.992188 380.804688 375.847656 L 347.867188 357.914062 C 344.519531 356.097656 343.277344 351.898438 345.117188 348.558594 C 346.933594 345.214844 351.132812 343.96875 354.480469 345.785156 L 387.417969 363.71875 C 398.542969 369.78125 411.820312 369.757812 422.921875 363.691406 L 455.730469 345.785156 C 459.101562 343.96875 463.277344 345.1875 465.117188 348.53125 C 466.933594 351.898438 465.714844 356.097656 462.371094 357.914062 L 429.5625 375.820312 C 421.910156 379.992188 413.535156 382.066406 405.15625 382.066406 "/>
</g>
</svg>
