<?xml version="1.0" encoding="UTF-8"?>
<svg xmlns="http://www.w3.org/2000/svg" xmlns:xlink="http://www.w3.org/1999/xlink" width="810pt" height="809.999993pt" viewBox="0 0 810 809.999993" version="1.2">
<defs>
<clipPath id="clip1">
  <path d="M 99.527344 444 L 708 444 L 708 702 L 99.527344 702 Z M 99.527344 444 "/>
</clipPath>
</defs>
<g id="surface1">
<path style=" stroke:none;fill-rule:evenodd;fill:rgb(30.198669%,60.778809%,58.039856%);fill-opacity:1;" d="M 510.816406 345.867188 C 510.511719 346.660156 510.308594 347.484375 510.1875 348.320312 C 508.910156 353.582031 508.160156 359.050781 508.160156 364.699219 C 508.160156 403.117188 539.4375 434.378906 577.898438 434.378906 C 616.367188 434.378906 647.679688 403.113281 647.679688 364.699219 C 647.679688 359.449219 647.042969 354.355469 645.941406 349.4375 C 645.847656 348.886719 645.703125 348.367188 645.535156 347.863281 C 637.957031 317.566406 610.542969 295.023438 577.898438 295.023438 C 545.976562 295.015625 519.066406 316.582031 510.816406 345.867188 Z M 577.898438 411.78125 C 551.914062 411.78125 530.792969 390.660156 530.792969 364.703125 C 530.792969 361.980469 531.074219 359.328125 531.519531 356.726562 C 551.292969 343.816406 561.652344 347.199219 579.609375 353.109375 C 591.328125 356.96875 605.527344 361.601562 624.941406 362.535156 C 624.972656 363.257812 625.046875 363.976562 625.046875 364.703125 C 625.042969 390.652344 603.890625 411.78125 577.898438 411.78125 Z M 617.460938 339.195312 C 605.277344 337.6875 595.539062 334.546875 586.6875 331.628906 C 575.492188 327.9375 564.605469 324.40625 552.035156 325.40625 C 559.46875 320.507812 568.351562 317.636719 577.90625 317.636719 C 594.480469 317.636719 609.050781 326.234375 617.460938 339.195312 Z M 617.460938 339.195312 "/>
<g clip-path="url(#clip1)" clip-rule="nonzero">
<path style=" stroke:none;fill-rule:evenodd;fill:rgb(30.198669%,60.778809%,58.039856%);fill-opacity:1;" d="M 703.339844 530.476562 C 694.03125 492.738281 670.660156 463.496094 635.757812 445.929688 C 634.183594 445.140625 632.4375 444.730469 630.667969 444.730469 L 523.96875 444.730469 C 522.203125 444.730469 520.453125 445.148438 518.878906 445.9375 C 453.179688 479.003906 446.472656 541.597656 446.945312 569.179688 L 384.890625 569.179688 C 383.71875 569.179688 382.542969 569.363281 381.425781 569.722656 L 346.476562 580.96875 C 333.960938 560.925781 316.125 544.804688 293.554688 533.460938 C 291.972656 532.664062 290.226562 532.257812 288.476562 532.257812 L 178.816406 532.257812 C 177.050781 532.257812 175.300781 532.664062 173.730469 533.460938 C 137.921875 551.46875 113.9375 581.449219 104.390625 620.167969 C 99.238281 641.066406 99.601562 659.128906 100.265625 667.945312 C 100.246094 668.664062 100.109375 669.367188 100.230469 670.101562 C 100.277344 670.398438 100.453125 670.644531 100.523438 670.933594 C 100.683594 672.535156 100.828125 673.492188 100.855469 673.675781 C 101.476562 677.796875 104.335938 681.25 108.269531 682.640625 C 144.890625 695.566406 188.390625 702.207031 233.617188 701.855469 C 234.847656 701.863281 236.066406 701.863281 237.28125 701.863281 C 237.289062 701.863281 237.289062 701.863281 237.304688 701.863281 C 281.292969 701.863281 323.386719 695.214844 359.011719 682.640625 C 360.789062 682.019531 362.292969 680.933594 363.523438 679.59375 L 460.214844 679.59375 C 461.574219 679.59375 462.9375 679.34375 464.230469 678.859375 L 673.65625 599.3125 C 682.367188 597.125 691.015625 594.535156 699.371094 591.585938 C 703.300781 590.1875 706.152344 586.738281 706.777344 582.613281 C 706.925781 581.660156 710.285156 558.664062 703.339844 530.476562 Z M 681.167969 535.117188 C 684.609375 548.71875 685.199219 561.035156 685.042969 569.179688 L 581.050781 569.179688 L 601.726562 542.359375 L 593.335938 478.589844 L 596.066406 467.335938 L 627.902344 467.335938 C 655.554688 481.980469 673.46875 504.769531 681.167969 535.117188 Z M 526.71875 467.335938 L 566.761719 467.335938 L 569.597656 478.582031 L 560.683594 541.476562 L 580.230469 569.1875 L 469.539062 569.1875 C 469.015625 546.980469 473.917969 495.332031 526.71875 467.335938 Z M 233.710938 679.238281 C 233.6875 679.238281 233.644531 679.238281 233.613281 679.238281 C 233.589844 679.238281 233.550781 679.238281 233.523438 679.238281 C 193.671875 679.546875 155.398438 674.183594 122.671875 663.636719 C 122.28125 655.582031 122.421875 641.085938 126.546875 624.808594 C 134.492188 593.484375 152.992188 569.957031 181.554688 554.859375 L 285.722656 554.859375 C 306.699219 565.953125 322.203125 581.625 332.121094 601.5625 C 332.5 602.3125 332.863281 603.054688 333.222656 603.804688 C 334.582031 606.703125 335.847656 609.683594 336.976562 612.765625 C 337.117188 613.15625 337.265625 613.546875 337.410156 613.933594 C 338.660156 617.453125 339.78125 621.066406 340.730469 624.808594 C 344.828125 641.019531 344.988281 655.449219 344.609375 663.515625 C 344.609375 663.554688 344.609375 663.597656 344.601562 663.636719 C 312.859375 673.867188 275.9375 679.25 237.304688 679.25 C 236.101562 679.242188 234.910156 679.242188 233.710938 679.238281 Z M 458.128906 656.988281 L 367.382812 656.988281 C 367.371094 651.910156 367.078125 645.875 366.300781 639.21875 C 366.273438 638.949219 366.234375 638.6875 366.199219 638.417969 C 365.976562 636.566406 365.707031 634.660156 365.394531 632.722656 C 365.335938 632.34375 365.285156 631.976562 365.226562 631.601562 C 364.867188 629.457031 364.460938 627.28125 363.988281 625.058594 C 363.878906 624.554688 363.753906 624.03125 363.644531 623.527344 C 363.394531 622.410156 363.15625 621.304688 362.878906 620.175781 C 362.8125 619.910156 362.71875 619.675781 362.648438 619.410156 C 361.628906 615.339844 360.378906 611.175781 358.890625 606.945312 C 358.667969 606.3125 358.429688 605.691406 358.199219 605.0625 C 357.753906 603.832031 357.355469 602.617188 356.855469 601.386719 L 386.667969 591.808594 L 629.742188 591.808594 Z M 458.128906 656.988281 "/>
</g>
<path style=" stroke:none;fill-rule:evenodd;fill:rgb(30.198669%,60.778809%,58.039856%);fill-opacity:1;" d="M 231.117188 520.503906 C 271.105469 520.503906 303.632812 488.023438 303.632812 448.101562 C 303.632812 408.136719 271.105469 375.640625 231.117188 375.640625 C 191.140625 375.640625 158.617188 408.136719 158.617188 448.101562 C 158.625 488.027344 191.148438 520.503906 231.117188 520.503906 Z M 231.117188 398.261719 C 258.628906 398.261719 281.011719 420.625 281.011719 448.101562 C 281.011719 475.550781 258.628906 497.886719 231.117188 497.886719 C 203.628906 497.886719 181.25 475.550781 181.25 448.101562 C 181.25 420.625 203.628906 398.261719 231.117188 398.261719 Z M 231.117188 398.261719 "/>
<path style=" stroke:none;fill-rule:evenodd;fill:rgb(30.198669%,60.778809%,58.039856%);fill-opacity:1;" d="M 232.15625 307.136719 L 229 342.941406 C 228.675781 346.78125 230.3125 350.535156 233.367188 352.894531 C 235.375 354.441406 237.808594 355.246094 240.273438 355.246094 C 241.5625 355.246094 242.867188 355.023438 244.097656 354.578125 L 300.726562 334.199219 C 310.59375 335.742188 320.726562 336.523438 330.910156 336.523438 C 377.132812 336.523438 419.617188 320.488281 444.242188 294.253906 L 493.007812 311.796875 C 494.246094 312.242188 495.542969 312.472656 496.828125 312.472656 C 499.289062 312.472656 501.730469 311.664062 503.738281 310.121094 C 506.792969 307.757812 508.4375 304.015625 508.105469 300.171875 L 504.949219 264.359375 C 528.261719 247.191406 541.007812 224.847656 541.007812 200.851562 C 541.007812 175.132812 526.355469 151.289062 499.75 133.71875 C 474.601562 117.097656 441.367188 107.9375 406.195312 107.9375 C 371.007812 107.9375 337.761719 117.089844 312.605469 133.710938 C 302.777344 140.195312 294.609375 147.546875 288.175781 155.523438 C 232.941406 168.085938 196.097656 203.046875 196.097656 243.625 C 196.105469 267.613281 208.84375 289.957031 232.15625 307.136719 Z M 325.089844 152.578125 C 346.578125 138.378906 375.390625 130.546875 406.195312 130.546875 C 436.988281 130.546875 465.769531 138.378906 487.28125 152.574219 C 507.335938 165.835938 518.390625 182.96875 518.390625 200.84375 C 518.390625 218.828125 507.214844 236.0625 486.914062 249.359375 C 483.433594 251.644531 481.472656 255.65625 481.84375 259.804688 L 484.027344 284.523438 L 441.707031 269.296875 L 441.308594 269.15625 C 441.308594 269.15625 441.300781 269.15625 441.300781 269.15625 C 441.300781 269.15625 441.292969 269.15625 441.292969 269.15625 C 440.183594 268.761719 439.042969 268.601562 437.878906 268.558594 C 437.738281 268.554688 437.601562 268.484375 437.46875 268.484375 C 436.824219 268.484375 436.175781 268.539062 435.546875 268.648438 C 425.992188 270.296875 416.121094 271.132812 406.207031 271.132812 C 375.402344 271.132812 346.589844 263.308594 325.101562 249.101562 C 305.035156 235.859375 293.980469 218.722656 293.980469 200.851562 C 293.980469 198.492188 294.195312 196.15625 294.574219 193.824219 C 294.695312 193.074219 294.933594 192.34375 295.09375 191.59375 C 295.441406 190.007812 295.796875 188.414062 296.324219 186.847656 C 296.574219 186.082031 296.921875 185.332031 297.210938 184.574219 C 297.828125 183 298.480469 181.429688 299.273438 179.875 C 299.605469 179.226562 299.988281 178.582031 300.355469 177.941406 C 301.296875 176.285156 302.308594 174.644531 303.453125 173.015625 C 308.660156 165.589844 315.875 158.660156 325.089844 152.578125 Z M 273.722656 183.339844 C 273.519531 184.074219 273.4375 184.839844 273.261719 185.582031 C 272.773438 187.65625 272.273438 189.71875 271.984375 191.824219 C 271.5625 194.816406 271.339844 197.832031 271.339844 200.84375 C 271.339844 226.558594 285.988281 250.386719 312.613281 267.964844 C 337.765625 284.585938 371.015625 293.734375 406.203125 293.734375 C 407.160156 293.734375 408.113281 293.726562 409.082031 293.710938 C 388.316406 306.386719 360.277344 313.898438 330.925781 313.898438 C 321 313.898438 311.140625 313.0625 301.597656 311.414062 C 299.664062 311.089844 297.664062 311.257812 295.824219 311.917969 L 253.097656 327.296875 L 255.289062 302.582031 C 255.652344 298.433594 253.707031 294.421875 250.21875 292.132812 C 229.914062 278.835938 218.734375 261.609375 218.734375 243.617188 C 218.734375 218.910156 240.449219 195.925781 273.722656 183.339844 Z M 273.722656 183.339844 "/>
<path style=" stroke:none;fill-rule:evenodd;fill:rgb(30.198669%,60.778809%,58.039856%);fill-opacity:1;" d="M 455.515625 212.667969 C 463.65625 212.667969 470.316406 206.011719 470.316406 197.871094 C 470.316406 189.695312 463.65625 183.042969 455.515625 183.042969 C 447.332031 183.042969 440.664062 189.695312 440.664062 197.871094 C 440.664062 206.011719 447.332031 212.667969 455.515625 212.667969 Z M 455.515625 212.667969 "/>
<path style=" stroke:none;fill-rule:evenodd;fill:rgb(30.198669%,60.778809%,58.039856%);fill-opacity:1;" d="M 407.210938 212.667969 C 415.34375 212.667969 422.011719 206.011719 422.011719 197.871094 C 422.011719 189.695312 415.34375 183.042969 407.210938 183.042969 C 399.007812 183.042969 392.355469 189.695312 392.355469 197.871094 C 392.355469 206.011719 399.007812 212.667969 407.210938 212.667969 Z M 407.210938 212.667969 "/>
<path style=" stroke:none;fill-rule:evenodd;fill:rgb(30.198669%,60.778809%,58.039856%);fill-opacity:1;" d="M 355.914062 212.667969 C 364.097656 212.667969 370.769531 206.011719 370.769531 197.871094 C 370.769531 189.695312 364.097656 183.042969 355.914062 183.042969 C 347.773438 183.042969 341.113281 189.695312 341.113281 197.871094 C 341.113281 206.011719 347.773438 212.667969 355.914062 212.667969 Z M 355.914062 212.667969 "/>
</g>
</svg>
