<?xml version="1.0" encoding="UTF-8"?>
<svg xmlns="http://www.w3.org/2000/svg" xmlns:xlink="http://www.w3.org/1999/xlink" width="810pt" height="809.999993pt" viewBox="0 0 810 809.999993" version="1.2">
<defs>
<clipPath id="clip1">
  <path d="M 109.832031 109.832031 L 700.082031 109.832031 L 700.082031 700.082031 L 109.832031 700.082031 Z M 109.832031 109.832031 "/>
</clipPath>
</defs>
<g id="surface1">
<g clip-path="url(#clip1)" clip-rule="nonzero">
<path style=" stroke:none;fill-rule:nonzero;fill:rgb(30.198669%,60.778809%,58.039856%);fill-opacity:1;" d="M 196.269531 196.269531 C 142.863281 249.699219 109.832031 323.480469 109.832031 404.957031 C 109.832031 567.9375 241.976562 700.082031 404.957031 700.082031 C 567.9375 700.082031 700.082031 567.9375 700.082031 404.957031 C 700.082031 245.96875 574.242188 116.679688 416.761719 110.421875 L 416.761719 109.832031 L 393.152344 109.832031 L 393.152344 275.101562 L 416.761719 275.101562 L 416.761719 134.03125 C 560.972656 140.289062 676.472656 259.238281 676.472656 404.957031 C 676.472656 554.667969 554.667969 676.472656 404.957031 676.472656 C 255.246094 676.472656 133.441406 554.667969 133.441406 404.957031 C 133.441406 330.113281 163.898438 262.234375 213.054688 213.054688 Z M 196.269531 196.269531 "/>
</g>
<path style=" stroke:none;fill-rule:nonzero;fill:rgb(30.198669%,60.778809%,58.039856%);fill-opacity:1;" d="M 429.984375 430.007812 C 443.820312 416.171875 443.820312 393.765625 429.984375 379.929688 C 416.148438 366.09375 263.0625 263.0625 263.0625 263.0625 C 263.0625 263.0625 366.070312 416.171875 379.90625 430.007812 C 393.742188 443.820312 416.171875 443.820312 429.984375 430.007812 Z M 429.984375 430.007812 "/>
</g>
</svg>
