<?xml version="1.0" encoding="UTF-8"?>
<svg xmlns="http://www.w3.org/2000/svg" xmlns:xlink="http://www.w3.org/1999/xlink" width="810pt" height="809.999993pt" viewBox="0 0 810 809.999993" version="1.2">
<defs>
<clipPath id="clip1">
  <path d="M 88 85.460938 L 722.355469 85.460938 L 722.355469 724.460938 L 88 724.460938 Z M 88 85.460938 "/>
</clipPath>
</defs>
<g id="surface1">
<g clip-path="url(#clip1)" clip-rule="nonzero">
<path style=" stroke:none;fill-rule:nonzero;fill:rgb(30.198669%,60.778809%,58.039856%);fill-opacity:1;" d="M 673.71875 268.03125 L 653.867188 268.03125 C 669.097656 257.335938 679.089844 239.679688 679.089844 219.703125 C 679.089844 187.136719 652.578125 160.636719 619.996094 160.636719 C 587.414062 160.636719 560.898438 187.136719 560.898438 219.703125 C 560.898438 239.679688 570.898438 257.335938 586.121094 268.03125 L 514.773438 268.03125 L 507.179688 260.4375 L 507.179688 138.613281 C 519.421875 136.117188 528.667969 125.277344 528.667969 112.308594 C 528.667969 97.503906 516.617188 85.460938 501.804688 85.460938 L 115.003906 85.460938 C 100.195312 85.460938 88.144531 97.503906 88.144531 112.308594 C 88.144531 125.269531 97.390625 136.117188 109.632812 138.613281 L 109.632812 429.664062 C 97.390625 432.164062 88.144531 443.007812 88.144531 455.972656 C 88.144531 470.777344 100.195312 482.820312 115.003906 482.820312 L 501.804688 482.820312 C 516.617188 482.820312 528.667969 470.777344 528.667969 455.972656 C 528.667969 443.007812 519.421875 432.164062 507.179688 429.664062 L 507.179688 321.726562 L 560.898438 321.726562 L 560.898438 528.066406 C 544.148438 532.824219 530.433594 544.777344 523.292969 560.382812 C 513.96875 540.003906 493.417969 525.777344 469.574219 525.777344 C 445.726562 525.777344 425.175781 540.003906 415.851562 560.382812 C 406.523438 540.003906 385.976562 525.777344 362.128906 525.777344 C 338.28125 525.777344 317.730469 540.003906 308.40625 560.382812 C 299.078125 540.003906 278.53125 525.777344 254.683594 525.777344 C 230.835938 525.777344 210.289062 540.003906 200.960938 560.382812 C 191.636719 540.003906 171.085938 525.777344 147.238281 525.777344 C 114.65625 525.777344 88.144531 552.277344 88.144531 584.847656 C 88.144531 608.683594 102.375 629.222656 122.761719 638.542969 C 102.375 647.863281 88.144531 668.40625 88.144531 692.242188 L 88.144531 724.460938 L 98.890625 724.460938 L 98.890625 692.242188 C 98.890625 665.589844 120.578125 643.914062 147.238281 643.914062 C 173.902344 643.914062 195.589844 665.589844 195.589844 692.242188 L 195.589844 724.460938 L 206.332031 724.460938 L 206.332031 692.242188 C 206.332031 665.589844 228.019531 643.914062 254.683594 643.914062 C 281.347656 643.914062 303.035156 665.589844 303.035156 692.242188 L 303.035156 724.460938 L 313.777344 724.460938 L 313.777344 692.242188 C 313.777344 665.589844 335.464844 643.914062 362.128906 643.914062 C 388.789062 643.914062 410.476562 665.589844 410.476562 692.242188 L 410.476562 724.460938 L 421.222656 724.460938 L 421.222656 692.242188 C 421.222656 665.589844 442.910156 643.914062 469.574219 643.914062 C 496.234375 643.914062 517.921875 665.589844 517.921875 692.242188 L 517.921875 724.460938 L 528.667969 724.460938 L 528.667969 692.242188 C 528.667969 665.589844 550.355469 643.914062 577.015625 643.914062 C 603.679688 643.914062 625.367188 665.589844 625.367188 692.242188 L 625.367188 724.460938 L 636.113281 724.460938 L 636.113281 692.242188 C 636.113281 668.40625 621.878906 647.863281 601.492188 638.542969 C 621.886719 629.222656 636.113281 608.683594 636.113281 584.847656 C 636.113281 564.871094 626.113281 547.214844 610.890625 536.519531 L 673.71875 536.519531 C 676.6875 536.519531 679.089844 534.113281 679.089844 531.148438 L 679.089844 396.90625 L 716.695312 396.90625 C 719.664062 396.90625 722.066406 394.5 722.066406 391.535156 L 722.066406 316.359375 C 722.066406 289.714844 700.378906 268.03125 673.71875 268.03125 Z M 571.644531 219.703125 C 571.644531 193.058594 593.332031 171.375 619.996094 171.375 C 646.65625 171.375 668.34375 193.058594 668.34375 219.703125 C 668.34375 246.347656 646.65625 268.03125 619.996094 268.03125 C 593.332031 268.03125 571.644531 246.347656 571.644531 219.703125 Z M 98.890625 112.308594 C 98.890625 103.425781 106.121094 96.199219 115.003906 96.199219 L 501.804688 96.199219 C 510.691406 96.199219 517.921875 103.425781 517.921875 112.308594 C 517.921875 121.191406 510.691406 128.417969 501.804688 128.417969 L 115.003906 128.417969 C 106.121094 128.417969 98.890625 121.191406 98.890625 112.308594 Z M 517.921875 455.972656 C 517.921875 464.851562 510.691406 472.082031 501.804688 472.082031 L 115.003906 472.082031 C 106.121094 472.082031 98.890625 464.851562 98.890625 455.972656 C 98.890625 447.089844 106.121094 439.863281 115.003906 439.863281 L 501.804688 439.863281 C 510.691406 439.863281 517.921875 447.089844 517.921875 455.972656 Z M 496.433594 429.125 L 120.378906 429.125 L 120.378906 139.15625 L 496.433594 139.15625 L 496.433594 249.699219 L 451.882812 205.167969 C 449.78125 203.066406 446.386719 203.066406 444.285156 205.167969 L 412.050781 237.386719 C 409.953125 239.484375 409.953125 242.878906 412.050781 244.976562 L 487.261719 320.15625 C 488.269531 321.164062 489.632812 321.726562 491.0625 321.726562 L 496.433594 321.726562 Z M 469.574219 536.519531 C 496.234375 536.519531 517.921875 558.199219 517.921875 584.847656 C 517.921875 611.496094 496.234375 633.171875 469.574219 633.171875 C 442.910156 633.171875 421.222656 611.496094 421.222656 584.847656 C 421.222656 558.199219 442.910156 536.519531 469.574219 536.519531 Z M 362.128906 536.519531 C 388.789062 536.519531 410.476562 558.199219 410.476562 584.847656 C 410.476562 611.496094 388.789062 633.171875 362.128906 633.171875 C 335.464844 633.171875 313.777344 611.496094 313.777344 584.847656 C 313.777344 558.199219 335.464844 536.519531 362.128906 536.519531 Z M 254.683594 536.519531 C 281.347656 536.519531 303.035156 558.199219 303.035156 584.847656 C 303.035156 611.496094 281.347656 633.171875 254.683594 633.171875 C 228.019531 633.171875 206.332031 611.496094 206.332031 584.847656 C 206.332031 558.199219 228.019531 536.519531 254.683594 536.519531 Z M 98.890625 584.847656 C 98.890625 558.199219 120.578125 536.519531 147.238281 536.519531 C 173.902344 536.519531 195.589844 558.199219 195.589844 584.847656 C 195.589844 611.496094 173.902344 633.171875 147.238281 633.171875 C 120.578125 633.171875 98.890625 611.496094 98.890625 584.847656 Z M 200.960938 667.777344 C 195.050781 654.863281 184.636719 644.449219 171.714844 638.542969 C 184.636719 632.636719 195.050781 622.222656 200.960938 609.308594 C 206.871094 622.222656 217.289062 632.636719 230.207031 638.542969 C 217.289062 644.449219 206.871094 654.863281 200.960938 667.777344 Z M 308.40625 667.777344 C 302.496094 654.863281 292.078125 644.449219 279.160156 638.542969 C 292.078125 632.636719 302.496094 622.222656 308.40625 609.308594 C 314.316406 622.222656 324.730469 632.636719 337.652344 638.542969 C 324.730469 644.449219 314.316406 654.863281 308.40625 667.777344 Z M 415.851562 667.777344 C 409.941406 654.863281 399.523438 644.449219 386.605469 638.542969 C 399.523438 632.636719 409.941406 622.222656 415.851562 609.308594 C 421.757812 622.222656 432.175781 632.636719 445.097656 638.542969 C 432.175781 644.449219 421.757812 654.863281 415.851562 667.777344 Z M 523.292969 667.777344 C 517.386719 654.863281 506.96875 644.449219 494.046875 638.542969 C 506.96875 632.636719 517.386719 622.222656 523.292969 609.308594 C 529.203125 622.222656 539.621094 632.636719 552.542969 638.542969 C 539.621094 644.449219 529.203125 654.863281 523.292969 667.777344 Z M 625.367188 584.847656 C 625.367188 611.496094 603.679688 633.171875 577.015625 633.171875 C 550.355469 633.171875 528.667969 611.496094 528.667969 584.847656 C 528.667969 558.199219 550.355469 536.519531 577.015625 536.519531 C 603.679688 536.519531 625.367188 558.199219 625.367188 584.847656 Z M 711.324219 386.164062 L 679.089844 386.164062 L 679.089844 316.359375 L 668.34375 316.359375 L 668.34375 525.777344 L 625.367188 525.777344 L 625.367188 402.273438 L 614.621094 402.273438 L 614.621094 525.777344 L 571.644531 525.777344 L 571.644531 316.359375 C 571.644531 313.394531 569.242188 310.988281 566.273438 310.988281 L 493.285156 310.988281 L 423.445312 241.183594 L 448.082031 216.554688 L 508.753906 277.195312 C 509.757812 278.207031 511.121094 278.769531 512.550781 278.769531 L 673.71875 278.769531 C 694.449219 278.769531 711.324219 295.632812 711.324219 316.359375 Z M 711.324219 386.164062 "/>
</g>
<path style=" stroke:none;fill-rule:nonzero;fill:rgb(30.198669%,60.778809%,58.039856%);fill-opacity:1;" d="M 458.828125 332.46875 L 329.894531 332.46875 C 326.921875 332.46875 324.523438 334.875 324.523438 337.835938 L 324.523438 364.6875 L 227.824219 364.6875 L 227.824219 332.46875 L 286.917969 332.46875 C 289.886719 332.46875 292.289062 330.0625 292.289062 327.097656 L 292.289062 273.402344 C 292.289062 270.4375 289.886719 268.03125 286.917969 268.03125 L 227.824219 268.03125 L 227.824219 235.8125 L 286.917969 235.8125 C 289.886719 235.8125 292.289062 233.40625 292.289062 230.441406 L 292.289062 176.746094 C 292.289062 173.78125 289.886719 171.375 286.917969 171.375 L 157.984375 171.375 C 155.011719 171.375 152.609375 173.78125 152.609375 176.746094 L 152.609375 230.441406 C 152.609375 233.40625 155.011719 235.8125 157.984375 235.8125 L 217.078125 235.8125 L 217.078125 268.03125 L 157.984375 268.03125 C 155.011719 268.03125 152.609375 270.4375 152.609375 273.402344 L 152.609375 327.097656 C 152.609375 330.0625 155.011719 332.46875 157.984375 332.46875 L 217.078125 332.46875 L 217.078125 370.054688 C 217.078125 373.019531 219.480469 375.425781 222.449219 375.425781 L 324.523438 375.425781 L 324.523438 391.535156 C 324.523438 394.5 326.921875 396.90625 329.894531 396.90625 L 458.828125 396.90625 C 461.800781 396.90625 464.199219 394.5 464.199219 391.535156 L 464.199219 337.835938 C 464.199219 334.875 461.800781 332.46875 458.828125 332.46875 Z M 163.355469 182.113281 L 281.542969 182.113281 L 281.542969 225.074219 L 163.355469 225.074219 Z M 163.355469 278.769531 L 281.542969 278.769531 L 281.542969 321.726562 L 163.355469 321.726562 Z M 453.457031 386.164062 L 335.265625 386.164062 L 335.265625 343.207031 L 453.457031 343.207031 Z M 453.457031 386.164062 "/>
<path style=" stroke:none;fill-rule:nonzero;fill:rgb(30.198669%,60.778809%,58.039856%);fill-opacity:1;" d="M 319.148438 171.375 L 329.894531 171.375 L 329.894531 182.113281 L 319.148438 182.113281 Z M 319.148438 171.375 "/>
<path style=" stroke:none;fill-rule:nonzero;fill:rgb(30.198669%,60.778809%,58.039856%);fill-opacity:1;" d="M 319.148438 214.332031 L 329.894531 214.332031 L 329.894531 225.074219 L 319.148438 225.074219 Z M 319.148438 214.332031 "/>
<path style=" stroke:none;fill-rule:nonzero;fill:rgb(30.198669%,60.778809%,58.039856%);fill-opacity:1;" d="M 362.128906 214.332031 L 372.871094 214.332031 L 372.871094 225.074219 L 362.128906 225.074219 Z M 362.128906 214.332031 "/>
<path style=" stroke:none;fill-rule:nonzero;fill:rgb(30.198669%,60.778809%,58.039856%);fill-opacity:1;" d="M 319.148438 257.292969 L 329.894531 257.292969 L 329.894531 268.03125 L 319.148438 268.03125 Z M 319.148438 257.292969 "/>
<path style=" stroke:none;fill-rule:nonzero;fill:rgb(30.198669%,60.778809%,58.039856%);fill-opacity:1;" d="M 362.128906 171.375 L 372.871094 171.375 L 372.871094 182.113281 L 362.128906 182.113281 Z M 362.128906 171.375 "/>
<path style=" stroke:none;fill-rule:nonzero;fill:rgb(30.198669%,60.778809%,58.039856%);fill-opacity:1;" d="M 405.105469 171.375 L 415.851562 171.375 L 415.851562 182.113281 L 405.105469 182.113281 Z M 405.105469 171.375 "/>
</g>
</svg>
