<?xml version="1.0" encoding="UTF-8"?>
<svg xmlns="http://www.w3.org/2000/svg" xmlns:xlink="http://www.w3.org/1999/xlink" width="810pt" height="809.999993pt" viewBox="0 0 810 809.999993" version="1.2">
<g id="surface1">
<path style=" stroke:none;fill-rule:nonzero;fill:rgb(30.198669%,60.778809%,58.039856%);fill-opacity:1;" d="M 413.761719 524.359375 C 343.839844 524.359375 286.867188 448.359375 281.539062 381.140625 C 265.8125 376.703125 251.636719 363.675781 251.636719 347.339844 L 251.636719 300.136719 C 251.636719 285.386719 265.90625 274.742188 275.21875 269.359375 L 275.21875 229.328125 C 275.21875 184.578125 310.945312 148.042969 355.324219 146.769531 C 364.804688 142.96875 402.15625 129.019531 440.289062 129.019531 C 501.128906 129.019531 534.613281 164.660156 534.613281 229.328125 L 534.613281 265.773438 C 558.195312 270.375 558.195312 289.328125 558.195312 300.136719 L 558.195312 347.339844 C 558.195312 363.769531 550.742188 376.019531 538.71875 380.667969 C 534.191406 450.414062 482.238281 524.359375 413.761719 524.359375 Z M 440.289062 152.621094 C 402.039062 152.621094 362.777344 169.191406 362.398438 169.378906 C 360.9375 169.992188 359.359375 170.324219 357.753906 170.324219 C 325.257812 170.324219 298.800781 196.78125 298.800781 229.328125 L 298.800781 276.535156 C 298.800781 281.160156 296.066406 285.386719 291.84375 287.296875 C 283.449219 291.097656 275.667969 297.609375 275.195312 300.230469 L 275.21875 347.339844 C 275.21875 352.535156 285.125 359.144531 292.90625 359.144531 C 299.414062 359.144531 304.695312 364.429688 304.695312 370.945312 C 304.695312 429.382812 355.019531 500.757812 413.761719 500.757812 C 471.0625 500.757812 515.464844 430.964844 515.464844 370.945312 C 515.464844 364.429688 520.773438 359.144531 527.257812 359.144531 C 532.183594 359.144531 534.636719 355.179688 534.636719 347.339844 L 534.636719 300.136719 C 534.636719 288.335938 534.636719 288.335938 522.847656 288.335938 C 516.339844 288.335938 511.054688 283.046875 511.054688 276.535156 L 511.054688 229.328125 C 511.03125 177.710938 487.921875 152.621094 440.289062 152.621094 Z M 440.289062 152.621094 "/>
<path style=" stroke:none;fill-rule:nonzero;fill:rgb(30.198669%,60.778809%,58.039856%);fill-opacity:1;" d="M 169.105469 689.578125 C 162.59375 689.578125 157.3125 684.289062 157.3125 677.777344 L 157.3125 654.175781 C 157.3125 585.820312 211.855469 536.160156 287.011719 536.160156 L 316.085938 536.160156 L 347.472656 489.285156 C 351.128906 483.882812 358.414062 482.417969 363.839844 486.054688 C 369.238281 489.664062 370.699219 497.003906 367.070312 502.410156 L 332.191406 554.523438 C 330 557.804688 326.320312 559.765625 322.382812 559.765625 L 287.011719 559.765625 C 224.542969 559.765625 180.894531 598.589844 180.894531 654.175781 L 180.894531 677.777344 C 180.894531 684.289062 175.613281 689.578125 169.105469 689.578125 Z M 169.105469 689.578125 "/>
<path style=" stroke:none;fill-rule:nonzero;fill:rgb(30.198669%,60.778809%,58.039856%);fill-opacity:1;" d="M 664.3125 689.578125 C 657.828125 689.578125 652.519531 684.289062 652.519531 677.777344 L 652.519531 654.175781 C 652.519531 598.589844 609.695312 559.765625 548.339844 559.765625 L 512.964844 559.765625 C 509.074219 559.765625 505.46875 557.851562 503.25 554.640625 L 464.980469 498.941406 C 461.300781 493.558594 462.644531 486.21875 468.019531 482.558594 C 473.421875 478.902344 480.753906 480.222656 484.410156 485.628906 L 519.191406 536.234375 L 548.339844 536.234375 C 623.539062 536.234375 676.101562 584.78125 676.101562 654.246094 L 676.101562 677.847656 C 676.101562 684.289062 670.796875 689.578125 664.3125 689.578125 Z M 664.3125 689.578125 "/>
<path style=" stroke:none;fill-rule:nonzero;fill:rgb(30.198669%,60.778809%,58.039856%);fill-opacity:1;" d="M 416.707031 618.769531 C 414.539062 618.769531 412.367188 618.179688 410.457031 616.976562 L 316.132812 557.96875 C 310.617188 554.523438 308.941406 547.230469 312.382812 541.730469 C 315.828125 536.183594 323.089844 534.4375 328.632812 537.980469 L 416.753906 593.113281 L 506.789062 537.90625 C 512.351562 534.460938 519.617188 536.257812 523.011719 541.828125 C 526.429688 547.324219 524.664062 554.640625 519.121094 558.066406 L 422.863281 617.070312 C 420.976562 618.203125 418.828125 618.769531 416.707031 618.769531 Z M 416.707031 618.769531 "/>
</g>
</svg>
