<?xml version="1.0" encoding="UTF-8"?>
<svg xmlns="http://www.w3.org/2000/svg" xmlns:xlink="http://www.w3.org/1999/xlink" width="810pt" height="809.999993pt" viewBox="0 0 810 809.999993" version="1.2">
<defs>
<clipPath id="clip1">
  <path d="M 111.96875 113 L 697.71875 113 L 697.71875 696 L 111.96875 696 Z M 111.96875 113 "/>
</clipPath>
</defs>
<g id="surface1">
<g clip-path="url(#clip1)" clip-rule="nonzero">
<path style=" stroke:none;fill-rule:nonzero;fill:rgb(30.198669%,60.778809%,58.039856%);fill-opacity:1;" d="M 331.625 113.800781 C 311.558594 113.800781 295.015625 130.34375 295.015625 150.410156 L 295.015625 174.816406 L 147.578125 174.816406 C 127.941406 174.816406 111.96875 190.644531 111.96875 210.089844 L 111.96875 578.855469 C 111.96875 598.304688 127.941406 614.128906 147.578125 614.128906 L 438.5 614.128906 L 449.605469 603.070312 C 447.078125 598.730469 444.980469 594.25 442.886719 589.722656 L 147.578125 589.722656 C 141.382812 589.722656 136.375 584.859375 136.375 578.855469 L 136.375 429.03125 C 139.90625 430.273438 143.671875 431.082031 147.578125 431.082031 L 466.816406 431.082031 C 475.15625 421.835938 484.546875 413.589844 494.890625 406.675781 L 147.578125 406.675781 C 141.382812 406.675781 136.375 401.195312 136.375 394.472656 L 136.375 210.089844 C 136.375 204.085938 141.382812 199.222656 147.578125 199.222656 L 305.171875 199.222656 C 306.503906 199.460938 307.839844 199.460938 309.128906 199.222656 L 476.015625 199.222656 C 477.347656 199.460938 478.683594 199.460938 479.972656 199.222656 L 637.707031 199.222656 C 643.902344 199.222656 648.90625 204.085938 648.90625 210.089844 L 648.90625 402.148438 C 657.632812 407.25 665.832031 413.160156 673.3125 419.878906 L 673.3125 210.089844 C 673.3125 190.644531 657.34375 174.816406 637.707031 174.816406 L 490.265625 174.816406 L 490.265625 150.410156 C 490.265625 130.34375 473.726562 113.800781 453.65625 113.800781 Z M 331.625 138.207031 L 453.65625 138.207031 C 460.523438 138.207031 465.859375 143.546875 465.859375 150.410156 L 465.859375 174.816406 L 319.421875 174.816406 L 319.421875 150.410156 C 319.421875 143.546875 324.761719 138.207031 331.625 138.207031 Z M 392.640625 333.457031 C 379.152344 333.457031 368.234375 344.375 368.234375 357.863281 C 368.234375 371.355469 379.152344 382.269531 392.640625 382.269531 C 406.132812 382.269531 417.046875 371.355469 417.046875 357.863281 C 417.046875 344.375 406.132812 333.457031 392.640625 333.457031 Z M 575.6875 406.675781 C 508.429688 406.675781 453.65625 461.445312 453.65625 528.707031 C 453.65625 557.976562 464.050781 584.8125 481.304688 605.882812 L 408.421875 678.71875 L 425.675781 695.976562 L 498.515625 623.089844 C 519.582031 640.347656 546.421875 650.738281 575.6875 650.738281 C 642.949219 650.738281 697.71875 595.96875 697.71875 528.707031 C 697.71875 461.445312 642.949219 406.675781 575.6875 406.675781 Z M 575.6875 431.082031 C 629.746094 431.082031 673.3125 474.652344 673.3125 528.707031 C 673.3125 582.761719 629.746094 626.332031 575.6875 626.332031 C 521.632812 626.332031 478.0625 582.761719 478.0625 528.707031 C 478.0625 474.652344 521.632812 431.082031 575.6875 431.082031 Z M 575.6875 431.082031 "/>
</g>
</g>
</svg>
