<?xml version="1.0" encoding="UTF-8"?>
<svg xmlns="http://www.w3.org/2000/svg" xmlns:xlink="http://www.w3.org/1999/xlink" width="810pt" height="809.999993pt" viewBox="0 0 810 809.999993" version="1.2">
<defs>
<clipPath id="clip1">
  <path d="M 129 113.507812 L 681 113.507812 L 681 414 L 129 414 Z M 129 113.507812 "/>
</clipPath>
<clipPath id="clip2">
  <path d="M 53.273438 263.546875 L 756.773438 263.546875 L 756.773438 696.1875 L 53.273438 696.1875 Z M 53.273438 263.546875 "/>
</clipPath>
</defs>
<g id="surface1">
<g clip-path="url(#clip1)" clip-rule="nonzero">
<path style=" stroke:none;fill-rule:nonzero;fill:rgb(30.198669%,60.778809%,58.039856%);fill-opacity:1;" d="M 140.6875 136.480469 L 221.179688 136.480469 L 280.695312 192.441406 C 282.824219 194.441406 285.636719 195.558594 288.5625 195.558594 L 367.320312 195.558594 L 426.753906 288.734375 C 428.859375 292.042969 432.519531 294.046875 436.433594 294.046875 L 515.429688 294.046875 L 574.824219 380.960938 C 576.96875 384.089844 580.515625 385.964844 584.308594 385.964844 L 636.105469 385.964844 L 627.707031 392.546875 C 622.726562 396.445312 621.839844 403.660156 625.761719 408.648438 C 628.019531 411.535156 631.398438 413.046875 634.796875 413.046875 C 637.277344 413.046875 639.769531 412.25 641.875 410.601562 L 676.445312 383.519531 C 676.789062 383.25 677.105469 382.96875 677.40625 382.667969 C 677.417969 382.65625 677.429688 382.644531 677.441406 382.632812 C 677.832031 382.25 678.179688 381.832031 678.503906 381.40625 C 678.542969 381.355469 678.578125 381.316406 678.621094 381.265625 C 678.949219 380.808594 679.25 380.332031 679.511719 379.835938 C 679.53125 379.808594 679.542969 379.769531 679.5625 379.738281 C 680.085938 378.714844 680.453125 377.628906 680.648438 376.511719 C 680.667969 376.40625 680.683594 376.304688 680.703125 376.207031 C 680.78125 375.6875 680.832031 375.175781 680.835938 374.648438 C 680.835938 374.558594 680.832031 374.464844 680.832031 374.375 C 680.824219 373.917969 680.789062 373.453125 680.734375 372.988281 C 680.722656 372.898438 680.714844 372.804688 680.695312 372.714844 C 680.617188 372.214844 680.507812 371.71875 680.355469 371.226562 C 680.324219 371.113281 680.289062 371.003906 680.25 370.890625 C 680.105469 370.449219 679.933594 370.015625 679.730469 369.589844 C 679.703125 369.527344 679.683594 369.464844 679.644531 369.398438 C 679.433594 368.964844 679.175781 368.539062 678.894531 368.125 C 678.796875 367.984375 678.699219 367.84375 678.597656 367.703125 C 678.527344 367.609375 678.46875 367.507812 678.386719 367.414062 C 678.1875 367.148438 677.96875 366.902344 677.742188 366.664062 C 677.675781 366.59375 677.613281 366.523438 677.550781 366.457031 C 677.199219 366.097656 676.820312 365.769531 676.421875 365.460938 C 676.367188 365.417969 676.324219 365.363281 676.261719 365.320312 L 639.238281 337.46875 C 634.167969 333.667969 626.980469 334.675781 623.160156 339.746094 C 619.355469 344.808594 620.367188 351.996094 625.429688 355.8125 L 635.011719 363.015625 L 590.371094 363.015625 L 530.964844 276.101562 C 528.820312 272.96875 525.28125 271.097656 521.488281 271.097656 L 442.726562 271.097656 L 383.289062 177.917969 C 381.183594 174.609375 377.53125 172.613281 373.617188 172.613281 L 293.117188 172.613281 L 233.601562 116.648438 C 231.476562 114.644531 228.65625 113.527344 225.734375 113.527344 L 140.6875 113.527344 C 134.347656 113.527344 129.210938 118.664062 129.210938 125.003906 C 129.210938 131.339844 134.347656 136.480469 140.6875 136.480469 "/>
</g>
<g clip-path="url(#clip2)" clip-rule="nonzero">
<path style=" stroke:none;fill-rule:nonzero;fill:rgb(30.198669%,60.778809%,58.039856%);fill-opacity:1;" d="M 118.160156 673.234375 C 110.691406 673.234375 104.621094 667.167969 104.621094 659.707031 C 104.621094 652.25 110.691406 646.171875 118.160156 646.171875 L 691.890625 646.171875 C 699.347656 646.171875 705.417969 652.25 705.417969 659.707031 C 705.417969 667.167969 699.347656 673.234375 691.890625 673.234375 Z M 300.039062 358.113281 L 362.136719 358.113281 L 362.136719 623.226562 L 300.039062 623.226562 Z M 595.78125 500.910156 L 657.882812 500.910156 L 657.882812 623.226562 L 595.78125 623.226562 Z M 745.292969 673.234375 L 725.765625 673.234375 C 727.445312 669.054688 728.378906 664.488281 728.378906 659.707031 C 728.378906 639.597656 712.011719 623.226562 691.890625 623.226562 L 680.84375 623.226562 L 680.84375 489.441406 C 680.84375 483.105469 675.703125 477.964844 669.363281 477.964844 L 584.308594 477.964844 C 577.96875 477.964844 572.828125 483.105469 572.828125 489.441406 L 572.828125 623.226562 L 532.96875 623.226562 L 532.96875 418.042969 C 532.96875 411.707031 527.832031 406.566406 521.488281 406.566406 L 436.433594 406.566406 C 430.09375 406.566406 424.957031 411.707031 424.957031 418.042969 L 424.957031 489.441406 C 424.957031 495.773438 430.09375 500.910156 436.433594 500.910156 C 442.769531 500.910156 447.914062 495.773438 447.914062 489.441406 L 447.914062 429.515625 L 510.007812 429.515625 L 510.007812 623.226562 L 447.914062 623.226562 L 447.914062 575.78125 C 447.914062 569.4375 442.769531 564.304688 436.433594 564.304688 C 430.09375 564.304688 424.957031 569.4375 424.957031 575.78125 L 424.957031 623.226562 L 385.09375 623.226562 L 385.09375 346.644531 C 385.09375 340.300781 379.957031 335.167969 373.617188 335.167969 L 288.5625 335.167969 C 282.21875 335.167969 277.082031 340.300781 277.082031 346.644531 L 277.082031 623.226562 L 237.210938 623.226562 L 237.210938 275.242188 C 237.210938 268.90625 232.074219 263.765625 225.734375 263.765625 L 140.6875 263.765625 C 134.347656 263.765625 129.210938 268.90625 129.210938 275.242188 L 129.210938 408.300781 C 129.210938 414.640625 134.347656 419.773438 140.6875 419.773438 C 147.027344 419.773438 152.167969 414.640625 152.167969 408.300781 L 152.167969 286.714844 L 214.253906 286.714844 L 214.253906 623.226562 L 152.167969 623.226562 L 152.167969 515.816406 C 152.167969 509.480469 147.027344 504.34375 140.6875 504.34375 C 134.347656 504.34375 129.210938 509.480469 129.210938 515.816406 L 129.210938 623.226562 L 118.160156 623.226562 C 98.039062 623.226562 81.664062 639.597656 81.664062 659.707031 C 81.664062 664.488281 82.601562 669.054688 84.277344 673.234375 L 64.753906 673.234375 C 58.410156 673.234375 53.273438 678.375 53.273438 684.710938 C 53.273438 691.050781 58.410156 696.1875 64.753906 696.1875 L 745.292969 696.1875 C 751.640625 696.1875 756.773438 691.050781 756.773438 684.710938 C 756.773438 678.375 751.640625 673.234375 745.292969 673.234375 "/>
</g>
</g>
</svg>
