<?xml version="1.0" encoding="UTF-8"?>
<svg xmlns="http://www.w3.org/2000/svg" xmlns:xlink="http://www.w3.org/1999/xlink" width="810pt" height="809.999993pt" viewBox="0 0 810 809.999993" version="1.2">
<defs>
<clipPath id="clip1">
  <path d="M 97 32.828125 L 629 32.828125 L 629 776.828125 L 97 776.828125 Z M 97 32.828125 "/>
</clipPath>
<clipPath id="clip2">
  <path d="M 385 32.828125 L 413 32.828125 L 413 68 L 385 68 Z M 385 32.828125 "/>
</clipPath>
<clipPath id="clip3">
  <path d="M 607 187.042969 L 716.179688 187.042969 L 716.179688 297 L 607 297 Z M 607 187.042969 "/>
</clipPath>
<clipPath id="clip4">
  <path d="M 452 32.828125 L 562 32.828125 L 562 142 L 452 142 Z M 452 32.828125 "/>
</clipPath>
</defs>
<g id="surface1">
<g clip-path="url(#clip1)" clip-rule="nonzero">
<path style=" stroke:none;fill-rule:nonzero;fill:rgb(30.198669%,60.778809%,58.039856%);fill-opacity:1;" d="M 580.074219 467.914062 L 490.53125 467.914062 L 490.53125 334.074219 C 490.53125 326.652344 484.503906 320.632812 477.078125 320.632812 C 469.648438 320.632812 463.628906 326.652344 463.628906 334.074219 L 463.628906 477.898438 C 463.628906 487.21875 471.214844 494.800781 480.546875 494.800781 L 580.074219 494.800781 C 588.917969 494.800781 596.238281 499.667969 599.65625 507.824219 C 603.074219 515.976562 601.40625 524.601562 595.207031 530.902344 L 391.28125 738.011719 C 383.75 745.664062 373.675781 749.878906 362.929688 749.878906 C 352.183594 749.878906 342.117188 745.664062 334.578125 738.011719 L 130.652344 530.902344 C 124.453125 524.601562 122.792969 515.976562 126.203125 507.824219 C 129.625 499.667969 136.945312 494.800781 145.785156 494.800781 L 245.320312 494.800781 C 254.644531 494.800781 262.230469 487.21875 262.230469 477.898438 L 262.230469 46.332031 C 262.230469 38.910156 256.214844 32.890625 248.78125 32.890625 C 241.355469 32.890625 235.332031 38.910156 235.332031 46.332031 L 235.332031 467.914062 L 145.785156 467.914062 C 126.035156 467.914062 109.027344 479.230469 101.390625 497.433594 C 93.761719 515.640625 97.628906 535.695312 111.480469 549.765625 L 315.40625 756.867188 C 328.042969 769.703125 344.917969 776.765625 362.929688 776.765625 C 380.941406 776.765625 397.824219 769.703125 410.457031 756.867188 L 614.382812 549.765625 C 628.230469 535.695312 632.097656 515.640625 624.46875 497.433594 C 616.839844 479.230469 599.824219 467.914062 580.074219 467.914062 "/>
</g>
<path style=" stroke:none;fill-rule:nonzero;fill:rgb(30.198669%,60.778809%,58.039856%);fill-opacity:1;" d="M 398.8125 388.101562 C 406.246094 388.101562 412.265625 382.085938 412.265625 374.65625 L 412.265625 366.453125 C 412.265625 359.03125 406.246094 353.007812 398.8125 353.007812 C 391.386719 353.007812 385.363281 359.03125 385.363281 366.453125 L 385.363281 374.65625 C 385.363281 382.085938 391.386719 388.101562 398.8125 388.101562 "/>
<path style=" stroke:none;fill-rule:nonzero;fill:rgb(30.198669%,60.778809%,58.039856%);fill-opacity:1;" d="M 398.8125 174.691406 C 406.246094 174.691406 412.265625 168.675781 412.265625 161.246094 L 412.265625 153.042969 C 412.265625 145.621094 406.246094 139.597656 398.8125 139.597656 C 391.386719 139.597656 385.363281 145.621094 385.363281 153.042969 L 385.363281 161.246094 C 385.363281 168.675781 391.386719 174.691406 398.8125 174.691406 "/>
<g clip-path="url(#clip2)" clip-rule="nonzero">
<path style=" stroke:none;fill-rule:nonzero;fill:rgb(30.198669%,60.778809%,58.039856%);fill-opacity:1;" d="M 398.8125 67.988281 C 406.246094 67.988281 412.265625 61.96875 412.265625 54.546875 L 412.265625 46.339844 C 412.265625 38.910156 406.246094 32.898438 398.8125 32.898438 C 391.386719 32.898438 385.363281 38.910156 385.363281 46.339844 L 385.363281 54.546875 C 385.363281 61.96875 391.386719 67.988281 398.8125 67.988281 "/>
</g>
<path style=" stroke:none;fill-rule:nonzero;fill:rgb(30.198669%,60.778809%,58.039856%);fill-opacity:1;" d="M 398.8125 281.398438 C 406.246094 281.398438 412.265625 275.378906 412.265625 267.957031 L 412.265625 259.75 C 412.265625 252.320312 406.246094 246.304688 398.8125 246.304688 C 391.386719 246.304688 385.363281 252.320312 385.363281 259.75 L 385.363281 267.957031 C 385.363281 275.378906 391.386719 281.398438 398.8125 281.398438 "/>
<path style=" stroke:none;fill-rule:nonzero;fill:rgb(30.198669%,60.778809%,58.039856%);fill-opacity:1;" d="M 330.332031 456.542969 C 337.765625 456.542969 343.785156 450.53125 343.785156 443.101562 L 343.785156 434.894531 C 343.785156 427.472656 337.765625 421.449219 330.332031 421.449219 C 322.90625 421.449219 316.882812 427.472656 316.882812 434.894531 L 316.882812 443.101562 C 316.882812 450.53125 322.90625 456.542969 330.332031 456.542969 "/>
<path style=" stroke:none;fill-rule:nonzero;fill:rgb(30.198669%,60.778809%,58.039856%);fill-opacity:1;" d="M 330.332031 136.433594 C 337.765625 136.433594 343.785156 130.410156 343.785156 122.988281 L 343.785156 114.785156 C 343.785156 107.355469 337.765625 101.339844 330.332031 101.339844 C 322.90625 101.339844 316.882812 107.355469 316.882812 114.785156 L 316.882812 122.988281 C 316.882812 130.410156 322.90625 136.433594 330.332031 136.433594 "/>
<path style=" stroke:none;fill-rule:nonzero;fill:rgb(30.198669%,60.778809%,58.039856%);fill-opacity:1;" d="M 330.332031 243.132812 C 337.765625 243.132812 343.785156 237.121094 343.785156 229.691406 L 343.785156 221.484375 C 343.785156 214.0625 337.765625 208.042969 330.332031 208.042969 C 322.90625 208.042969 316.882812 214.0625 316.882812 221.484375 L 316.882812 229.691406 C 316.882812 237.121094 322.90625 243.132812 330.332031 243.132812 "/>
<path style=" stroke:none;fill-rule:nonzero;fill:rgb(30.198669%,60.778809%,58.039856%);fill-opacity:1;" d="M 330.332031 349.84375 C 337.765625 349.84375 343.785156 343.820312 343.785156 336.398438 L 343.785156 328.191406 C 343.785156 320.765625 337.765625 314.75 330.332031 314.75 C 322.90625 314.75 316.882812 320.765625 316.882812 328.191406 L 316.882812 336.398438 C 316.882812 343.820312 322.90625 349.84375 330.332031 349.84375 "/>
<path style=" stroke:none;fill-rule:nonzero;fill:rgb(30.198669%,60.778809%,58.039856%);fill-opacity:1;" d="M 469.023438 279.839844 C 471.648438 282.464844 475.097656 283.78125 478.535156 283.78125 C 481.976562 283.78125 485.421875 282.464844 488.050781 279.839844 L 699.148438 68.851562 C 704.402344 63.601562 704.402344 55.09375 699.148438 49.839844 C 693.894531 44.589844 685.375 44.589844 680.121094 49.839844 L 469.023438 260.828125 C 463.777344 266.078125 463.777344 274.59375 469.023438 279.839844 "/>
<g clip-path="url(#clip3)" clip-rule="nonzero">
<path style=" stroke:none;fill-rule:nonzero;fill:rgb(30.198669%,60.778809%,58.039856%);fill-opacity:1;" d="M 661.605469 269.902344 C 646.339844 269.902344 633.921875 257.496094 633.921875 242.238281 C 633.921875 226.980469 646.339844 214.574219 661.605469 214.574219 C 676.863281 214.574219 689.277344 226.980469 689.277344 242.238281 C 689.277344 257.496094 676.863281 269.902344 661.605469 269.902344 Z M 661.605469 187.6875 C 631.503906 187.6875 607.019531 212.160156 607.019531 242.238281 C 607.019531 272.316406 631.503906 296.789062 661.605469 296.789062 C 691.703125 296.789062 716.179688 272.316406 716.179688 242.238281 C 716.179688 212.160156 691.703125 187.6875 661.605469 187.6875 "/>
</g>
<g clip-path="url(#clip4)" clip-rule="nonzero">
<path style=" stroke:none;fill-rule:nonzero;fill:rgb(30.198669%,60.778809%,58.039856%);fill-opacity:1;" d="M 506.613281 59.777344 C 521.875 59.777344 534.289062 72.183594 534.289062 87.441406 C 534.289062 102.699219 521.875 115.105469 506.613281 115.105469 C 491.351562 115.105469 478.929688 102.699219 478.929688 87.441406 C 478.929688 72.183594 491.351562 59.777344 506.613281 59.777344 Z M 506.613281 141.992188 C 536.710938 141.992188 561.1875 117.519531 561.1875 87.441406 C 561.1875 57.359375 536.710938 32.890625 506.613281 32.890625 C 476.511719 32.890625 452.027344 57.359375 452.027344 87.441406 C 452.027344 117.519531 476.511719 141.992188 506.613281 141.992188 "/>
</g>
</g>
</svg>
