<?xml version="1.0" encoding="UTF-8"?>
<svg xmlns="http://www.w3.org/2000/svg" xmlns:xlink="http://www.w3.org/1999/xlink" width="810pt" height="809.999993pt" viewBox="0 0 810 809.999993" version="1.2">
<defs>
<clipPath id="clip1">
  <path d="M 115.371094 142.523438 L 694.371094 142.523438 L 694.371094 559 L 115.371094 559 Z M 115.371094 142.523438 "/>
</clipPath>
<clipPath id="clip2">
  <path d="M 269 613 L 541 613 L 541 667.523438 L 269 667.523438 Z M 269 613 "/>
</clipPath>
<clipPath id="clip3">
  <path d="M 567 187 L 694.371094 187 L 694.371094 315 L 567 315 Z M 567 187 "/>
</clipPath>
</defs>
<g id="surface1">
<g clip-path="url(#clip1)" clip-rule="nonzero">
<path style=" stroke:none;fill-rule:nonzero;fill:rgb(30.198669%,60.778809%,58.039856%);fill-opacity:1;" d="M 685.324219 558.902344 L 124.417969 558.902344 C 123.824219 558.902344 123.234375 558.84375 122.652344 558.726562 C 122.070312 558.613281 121.503906 558.441406 120.953125 558.210938 C 120.40625 557.984375 119.882812 557.707031 119.390625 557.375 C 118.898438 557.046875 118.441406 556.671875 118.019531 556.25 C 117.601562 555.832031 117.226562 555.371094 116.894531 554.878906 C 116.566406 554.382812 116.285156 553.863281 116.058594 553.3125 C 115.832031 552.765625 115.660156 552.199219 115.542969 551.617188 C 115.429688 551.03125 115.371094 550.445312 115.371094 549.851562 L 115.371094 151.574219 C 115.371094 150.980469 115.429688 150.390625 115.542969 149.808594 C 115.660156 149.226562 115.832031 148.660156 116.058594 148.109375 C 116.285156 147.5625 116.566406 147.039062 116.894531 146.546875 C 117.226562 146.050781 117.601562 145.59375 118.019531 145.175781 C 118.441406 144.753906 118.898438 144.378906 119.390625 144.046875 C 119.882812 143.71875 120.40625 143.4375 120.953125 143.210938 C 121.503906 142.984375 122.070312 142.8125 122.652344 142.695312 C 123.234375 142.582031 123.824219 142.523438 124.417969 142.523438 L 685.324219 142.523438 C 685.917969 142.523438 686.503906 142.582031 687.089844 142.695312 C 687.671875 142.8125 688.234375 142.984375 688.785156 143.210938 C 689.332031 143.4375 689.855469 143.71875 690.347656 144.046875 C 690.84375 144.378906 691.300781 144.753906 691.71875 145.175781 C 692.140625 145.59375 692.515625 146.050781 692.84375 146.546875 C 693.175781 147.039062 693.453125 147.5625 693.679688 148.109375 C 693.910156 148.660156 694.082031 149.226562 694.195312 149.808594 C 694.3125 150.390625 694.371094 150.980469 694.371094 151.574219 L 694.371094 196.832031 L 676.277344 196.832031 L 676.277344 160.625 L 133.464844 160.625 L 133.464844 540.796875 L 676.277344 540.796875 L 676.277344 305.453125 L 694.371094 305.453125 L 694.371094 549.851562 C 694.371094 550.445312 694.3125 551.03125 694.195312 551.617188 C 694.082031 552.199219 693.910156 552.765625 693.679688 553.3125 C 693.453125 553.863281 693.175781 554.382812 692.84375 554.878906 C 692.515625 555.371094 692.140625 555.832031 691.71875 556.25 C 691.300781 556.671875 690.84375 557.046875 690.347656 557.375 C 689.855469 557.707031 689.332031 557.984375 688.785156 558.210938 C 688.234375 558.441406 687.671875 558.613281 687.089844 558.726562 C 686.503906 558.84375 685.917969 558.902344 685.324219 558.902344 Z M 685.324219 558.902344 "/>
</g>
<path style=" stroke:none;fill-rule:nonzero;fill:rgb(30.198669%,60.778809%,58.039856%);fill-opacity:1;" d="M 124.417969 486.488281 L 685.324219 486.488281 L 685.324219 504.589844 L 124.417969 504.589844 Z M 124.417969 486.488281 "/>
<path style=" stroke:none;fill-rule:nonzero;fill:rgb(30.198669%,60.778809%,58.039856%);fill-opacity:1;" d="M 495.339844 631.316406 L 314.402344 631.316406 C 314.058594 631.316406 313.71875 631.296875 313.378906 631.257812 C 313.035156 631.21875 312.699219 631.160156 312.367188 631.082031 C 312.03125 631.003906 311.703125 630.910156 311.382812 630.796875 C 311.058594 630.679688 310.742188 630.546875 310.4375 630.398438 C 310.128906 630.25 309.828125 630.082031 309.542969 629.898438 C 309.253906 629.710938 308.976562 629.511719 308.707031 629.296875 C 308.441406 629.082031 308.191406 628.851562 307.949219 628.605469 C 307.710938 628.363281 307.484375 628.105469 307.273438 627.835938 C 307.0625 627.566406 306.867188 627.285156 306.6875 626.992188 C 306.511719 626.699219 306.347656 626.398438 306.203125 626.085938 C 306.058594 625.777344 305.933594 625.460938 305.824219 625.132812 C 305.714844 624.808594 305.625 624.480469 305.554688 624.144531 C 305.484375 623.808594 305.429688 623.472656 305.398438 623.128906 C 305.367188 622.789062 305.351562 622.445312 305.359375 622.105469 C 305.363281 621.761719 305.390625 621.421875 305.433594 621.082031 C 305.480469 620.742188 305.542969 620.40625 305.625 620.074219 L 323.71875 547.660156 C 323.839844 547.171875 324 546.699219 324.199219 546.242188 C 324.402344 545.78125 324.636719 545.339844 324.910156 544.921875 C 325.183594 544.5 325.488281 544.105469 325.828125 543.734375 C 326.164062 543.367188 326.53125 543.027344 326.925781 542.71875 C 327.320312 542.410156 327.738281 542.136719 328.179688 541.894531 C 328.621094 541.65625 329.078125 541.457031 329.550781 541.292969 C 330.023438 541.128906 330.507812 541.003906 331.003906 540.921875 C 331.496094 540.839844 331.992188 540.796875 332.496094 540.796875 L 477.246094 540.796875 C 477.746094 540.796875 478.242188 540.839844 478.738281 540.921875 C 479.230469 541.003906 479.714844 541.128906 480.191406 541.292969 C 480.664062 541.457031 481.121094 541.65625 481.558594 541.894531 C 482 542.136719 482.417969 542.410156 482.8125 542.71875 C 483.207031 543.027344 483.574219 543.367188 483.914062 543.734375 C 484.25 544.105469 484.558594 544.5 484.828125 544.921875 C 485.101562 545.339844 485.339844 545.78125 485.539062 546.242188 C 485.738281 546.699219 485.898438 547.171875 486.019531 547.660156 L 504.113281 620.074219 C 504.195312 620.40625 504.261719 620.742188 504.304688 621.082031 C 504.351562 621.421875 504.375 621.761719 504.382812 622.105469 C 504.386719 622.449219 504.375 622.789062 504.339844 623.128906 C 504.308594 623.472656 504.257812 623.808594 504.1875 624.144531 C 504.113281 624.480469 504.023438 624.808594 503.917969 625.132812 C 503.808594 625.460938 503.679688 625.777344 503.535156 626.085938 C 503.390625 626.398438 503.230469 626.699219 503.050781 626.992188 C 502.871094 627.285156 502.675781 627.566406 502.464844 627.835938 C 502.253906 628.105469 502.03125 628.363281 501.789062 628.605469 C 501.550781 628.851562 501.296875 629.082031 501.03125 629.296875 C 500.765625 629.511719 500.488281 629.710938 500.199219 629.898438 C 499.910156 630.082031 499.613281 630.25 499.304688 630.398438 C 498.996094 630.546875 498.679688 630.679688 498.359375 630.796875 C 498.035156 630.910156 497.707031 631.003906 497.375 631.082031 C 497.039062 631.160156 496.703125 631.21875 496.363281 631.257812 C 496.023438 631.296875 495.679688 631.316406 495.339844 631.316406 Z M 325.992188 613.210938 L 483.75 613.210938 L 470.179688 558.902344 L 339.5625 558.902344 Z M 325.992188 613.210938 "/>
<g clip-path="url(#clip2)" clip-rule="nonzero">
<path style=" stroke:none;fill-rule:nonzero;fill:rgb(30.198669%,60.778809%,58.039856%);fill-opacity:1;" d="M 522.480469 667.523438 L 287.261719 667.523438 C 286.667969 667.523438 286.078125 667.492188 285.488281 667.433594 C 284.898438 667.375 284.3125 667.289062 283.730469 667.175781 C 283.148438 667.058594 282.574219 666.914062 282.007812 666.742188 C 281.441406 666.570312 280.882812 666.371094 280.335938 666.144531 C 279.789062 665.917969 279.253906 665.664062 278.730469 665.382812 C 278.207031 665.105469 277.699219 664.800781 277.207031 664.472656 C 276.714844 664.140625 276.238281 663.789062 275.78125 663.414062 C 275.324219 663.035156 274.886719 662.640625 274.464844 662.21875 C 274.046875 661.800781 273.648438 661.363281 273.273438 660.902344 C 272.898438 660.445312 272.546875 659.96875 272.214844 659.476562 C 271.886719 658.984375 271.582031 658.476562 271.304688 657.953125 C 271.023438 657.429688 270.769531 656.894531 270.542969 656.347656 C 270.316406 655.796875 270.117188 655.242188 269.945312 654.675781 C 269.773438 654.105469 269.628906 653.53125 269.515625 652.949219 C 269.398438 652.367188 269.3125 651.785156 269.253906 651.191406 C 269.195312 650.601562 269.167969 650.011719 269.167969 649.417969 L 269.167969 631.316406 C 269.167969 630.722656 269.195312 630.132812 269.253906 629.539062 C 269.3125 628.949219 269.398438 628.363281 269.515625 627.785156 C 269.628906 627.203125 269.773438 626.628906 269.945312 626.058594 C 270.117188 625.492188 270.316406 624.933594 270.542969 624.386719 C 270.769531 623.839844 271.023438 623.304688 271.304688 622.78125 C 271.582031 622.257812 271.886719 621.75 272.214844 621.257812 C 272.546875 620.765625 272.898438 620.289062 273.273438 619.832031 C 273.648438 619.371094 274.046875 618.933594 274.464844 618.515625 C 274.886719 618.09375 275.324219 617.699219 275.78125 617.320312 C 276.238281 616.945312 276.714844 616.59375 277.207031 616.261719 C 277.699219 615.933594 278.207031 615.628906 278.730469 615.347656 C 279.253906 615.070312 279.789062 614.816406 280.335938 614.589844 C 280.882812 614.363281 281.441406 614.164062 282.007812 613.992188 C 282.574219 613.820312 283.148438 613.675781 283.730469 613.558594 C 284.3125 613.445312 284.898438 613.355469 285.488281 613.300781 C 286.078125 613.242188 286.667969 613.210938 287.261719 613.210938 L 522.480469 613.210938 C 523.070312 613.210938 523.664062 613.242188 524.253906 613.300781 C 524.84375 613.355469 525.429688 613.445312 526.007812 613.558594 C 526.589844 613.675781 527.164062 613.820312 527.730469 613.992188 C 528.296875 614.164062 528.855469 614.363281 529.402344 614.589844 C 529.949219 614.816406 530.484375 615.070312 531.007812 615.347656 C 531.53125 615.628906 532.039062 615.933594 532.53125 616.261719 C 533.023438 616.59375 533.5 616.945312 533.957031 617.320312 C 534.414062 617.699219 534.855469 618.09375 535.273438 618.515625 C 535.691406 618.933594 536.089844 619.371094 536.464844 619.832031 C 536.84375 620.289062 537.195312 620.765625 537.523438 621.257812 C 537.851562 621.75 538.15625 622.257812 538.4375 622.78125 C 538.714844 623.304688 538.96875 623.839844 539.195312 624.386719 C 539.421875 624.933594 539.621094 625.492188 539.792969 626.058594 C 539.964844 626.628906 540.109375 627.203125 540.226562 627.785156 C 540.339844 628.363281 540.429688 628.949219 540.484375 629.539062 C 540.542969 630.132812 540.574219 630.722656 540.574219 631.316406 L 540.574219 649.417969 C 540.574219 650.011719 540.542969 650.601562 540.484375 651.191406 C 540.429688 651.785156 540.339844 652.367188 540.226562 652.949219 C 540.109375 653.53125 539.964844 654.105469 539.792969 654.675781 C 539.621094 655.242188 539.421875 655.796875 539.195312 656.347656 C 538.96875 656.894531 538.714844 657.429688 538.4375 657.953125 C 538.15625 658.476562 537.851562 658.984375 537.523438 659.476562 C 537.195312 659.96875 536.84375 660.445312 536.464844 660.902344 C 536.089844 661.363281 535.691406 661.800781 535.273438 662.21875 C 534.855469 662.640625 534.414062 663.035156 533.957031 663.414062 C 533.5 663.789062 533.023438 664.140625 532.53125 664.472656 C 532.039062 664.800781 531.53125 665.105469 531.007812 665.382812 C 530.484375 665.664062 529.949219 665.917969 529.402344 666.144531 C 528.855469 666.371094 528.296875 666.570312 527.730469 666.742188 C 527.164062 666.914062 526.589844 667.058594 526.007812 667.175781 C 525.429688 667.289062 524.84375 667.375 524.253906 667.433594 C 523.664062 667.492188 523.070312 667.523438 522.480469 667.523438 Z M 278.214844 649.417969 Z M 287.261719 649.417969 L 522.480469 649.417969 L 522.480469 631.316406 L 287.261719 631.316406 Z M 287.261719 649.417969 "/>
</g>
<path style=" stroke:none;fill-rule:nonzero;fill:rgb(30.198669%,60.778809%,58.039856%);fill-opacity:1;" d="M 359.636719 441.230469 L 178.699219 441.230469 C 178.105469 441.230469 177.515625 441.171875 176.933594 441.054688 C 176.351562 440.9375 175.785156 440.769531 175.234375 440.539062 C 174.6875 440.3125 174.164062 440.035156 173.671875 439.703125 C 173.179688 439.375 172.722656 439 172.300781 438.578125 C 171.882812 438.15625 171.507812 437.699219 171.175781 437.207031 C 170.847656 436.710938 170.566406 436.191406 170.339844 435.640625 C 170.113281 435.09375 169.941406 434.527344 169.824219 433.945312 C 169.710938 433.359375 169.652344 432.773438 169.652344 432.175781 L 169.652344 251.144531 C 169.652344 250.550781 169.710938 249.960938 169.824219 249.378906 C 169.941406 248.792969 170.113281 248.230469 170.339844 247.679688 C 170.566406 247.128906 170.847656 246.609375 171.175781 246.113281 C 171.507812 245.621094 171.882812 245.164062 172.300781 244.742188 C 172.722656 244.324219 173.179688 243.949219 173.671875 243.617188 C 174.164062 243.285156 174.6875 243.007812 175.234375 242.78125 C 175.785156 242.554688 176.351562 242.382812 176.933594 242.265625 C 177.515625 242.148438 178.105469 242.089844 178.699219 242.089844 L 287.261719 242.089844 L 287.261719 260.195312 L 187.746094 260.195312 L 187.746094 423.125 L 350.589844 423.125 L 350.589844 323.558594 L 368.683594 323.558594 L 368.683594 432.175781 C 368.683594 432.773438 368.625 433.359375 368.507812 433.945312 C 368.394531 434.527344 368.222656 435.09375 367.992188 435.640625 C 367.765625 436.191406 367.488281 436.710938 367.15625 437.207031 C 366.828125 437.699219 366.453125 438.15625 366.03125 438.578125 C 365.613281 439 365.15625 439.375 364.660156 439.703125 C 364.167969 440.035156 363.644531 440.3125 363.097656 440.539062 C 362.546875 440.769531 361.984375 440.9375 361.402344 441.054688 C 360.816406 441.171875 360.230469 441.230469 359.636719 441.230469 Z M 359.636719 441.230469 "/>
<path style=" stroke:none;fill-rule:nonzero;fill:rgb(30.198669%,60.778809%,58.039856%);fill-opacity:1;" d="M 269.167969 377.867188 C 267.390625 377.867188 265.617188 377.78125 263.847656 377.605469 C 262.078125 377.429688 260.320312 377.171875 258.578125 376.824219 C 256.832031 376.476562 255.109375 376.046875 253.410156 375.527344 C 251.707031 375.011719 250.035156 374.414062 248.394531 373.734375 C 246.75 373.050781 245.148438 372.292969 243.578125 371.453125 C 242.011719 370.617188 240.488281 369.703125 239.007812 368.714844 C 237.53125 367.726562 236.105469 366.667969 234.730469 365.539062 C 233.355469 364.410156 232.042969 363.21875 230.785156 361.960938 C 229.527344 360.703125 228.335938 359.386719 227.207031 358.011719 C 226.078125 356.636719 225.019531 355.210938 224.035156 353.730469 C 223.046875 352.25 222.132812 350.726562 221.296875 349.160156 C 220.457031 347.589844 219.699219 345.984375 219.015625 344.339844 C 218.335938 342.699219 217.738281 341.023438 217.222656 339.324219 C 216.707031 337.621094 216.277344 335.898438 215.929688 334.152344 C 215.582031 332.40625 215.320312 330.652344 215.148438 328.878906 C 214.972656 327.109375 214.886719 325.335938 214.886719 323.558594 C 214.886719 321.777344 214.972656 320.003906 215.148438 318.234375 C 215.320312 316.464844 215.582031 314.707031 215.929688 312.960938 C 216.277344 311.21875 216.707031 309.492188 217.222656 307.792969 C 217.738281 306.089844 218.335938 304.417969 219.015625 302.773438 C 219.699219 301.128906 220.457031 299.523438 221.296875 297.957031 C 222.132812 296.386719 223.046875 294.863281 224.035156 293.382812 C 225.019531 291.90625 226.078125 290.476562 227.207031 289.101562 C 228.335938 287.726562 229.527344 286.410156 230.785156 285.152344 C 232.042969 283.894531 233.355469 282.703125 234.730469 281.574219 C 236.105469 280.445312 237.53125 279.386719 239.007812 278.398438 C 240.488281 277.410156 242.011719 276.5 243.578125 275.660156 C 245.148438 274.820312 246.75 274.0625 248.394531 273.382812 C 250.035156 272.699219 251.707031 272.101562 253.410156 271.585938 C 255.109375 271.070312 256.832031 270.636719 258.578125 270.289062 C 260.320312 269.945312 262.078125 269.683594 263.847656 269.507812 C 265.617188 269.335938 267.390625 269.246094 269.167969 269.246094 C 270.945312 269.246094 272.71875 269.335938 274.488281 269.507812 C 276.257812 269.683594 278.011719 269.945312 279.757812 270.289062 C 281.5 270.636719 283.222656 271.070312 284.925781 271.585938 C 286.625 272.101562 288.296875 272.699219 289.9375 273.382812 C 291.582031 274.0625 293.1875 274.820312 294.753906 275.660156 C 296.324219 276.5 297.847656 277.410156 299.324219 278.398438 C 300.800781 279.386719 302.226562 280.445312 303.601562 281.574219 C 304.976562 282.703125 306.292969 283.894531 307.550781 285.152344 C 308.804688 286.410156 310 287.726562 311.125 289.101562 C 312.253906 290.476562 313.3125 291.90625 314.300781 293.382812 C 315.289062 294.863281 316.199219 296.386719 317.039062 297.957031 C 317.875 299.523438 318.636719 301.128906 319.316406 302.773438 C 319.996094 304.417969 320.59375 306.089844 321.109375 307.792969 C 321.625 309.492188 322.058594 311.21875 322.40625 312.960938 C 322.75 314.707031 323.011719 316.464844 323.1875 318.234375 C 323.359375 320.003906 323.449219 321.777344 323.449219 323.558594 C 323.445312 325.335938 323.359375 327.109375 323.183594 328.878906 C 323.007812 330.648438 322.746094 332.40625 322.394531 334.148438 C 322.046875 335.894531 321.617188 337.613281 321.097656 339.316406 C 320.582031 341.019531 319.984375 342.691406 319.300781 344.332031 C 318.621094 345.976562 317.859375 347.582031 317.023438 349.148438 C 316.183594 350.714844 315.269531 352.238281 314.285156 353.71875 C 313.296875 355.195312 312.238281 356.621094 311.109375 357.996094 C 309.984375 359.371094 308.789062 360.6875 307.535156 361.945312 C 306.277344 363.203125 304.960938 364.394531 303.589844 365.523438 C 302.214844 366.652344 300.789062 367.710938 299.3125 368.699219 C 297.832031 369.6875 296.3125 370.601562 294.742188 371.4375 C 293.175781 372.277344 291.574219 373.039062 289.929688 373.71875 C 288.289062 374.398438 286.617188 375 284.917969 375.515625 C 283.21875 376.035156 281.496094 376.464844 279.753906 376.816406 C 278.011719 377.164062 276.253906 377.425781 274.484375 377.601562 C 272.71875 377.777344 270.945312 377.867188 269.167969 377.867188 Z M 269.167969 287.351562 C 267.980469 287.351562 266.800781 287.410156 265.621094 287.523438 C 264.441406 287.640625 263.269531 287.816406 262.105469 288.046875 C 260.945312 288.277344 259.796875 288.566406 258.664062 288.910156 C 257.527344 289.253906 256.414062 289.652344 255.320312 290.105469 C 254.222656 290.558594 253.152344 291.066406 252.109375 291.625 C 251.0625 292.183594 250.046875 292.792969 249.0625 293.453125 C 248.078125 294.109375 247.125 294.816406 246.210938 295.570312 C 245.292969 296.320312 244.417969 297.117188 243.578125 297.953125 C 242.742188 298.792969 241.945312 299.671875 241.195312 300.585938 C 240.441406 301.503906 239.738281 302.457031 239.078125 303.441406 C 238.417969 304.425781 237.8125 305.445312 237.253906 306.488281 C 236.695312 307.535156 236.1875 308.605469 235.734375 309.703125 C 235.28125 310.796875 234.882812 311.910156 234.539062 313.046875 C 234.195312 314.179688 233.90625 315.332031 233.675781 316.492188 C 233.445312 317.65625 233.269531 318.828125 233.152344 320.007812 C 233.039062 321.1875 232.980469 322.371094 232.980469 323.558594 C 232.980469 324.742188 233.039062 325.925781 233.152344 327.105469 C 233.269531 328.285156 233.445312 329.457031 233.675781 330.621094 C 233.90625 331.785156 234.195312 332.933594 234.539062 334.066406 C 234.882812 335.203125 235.28125 336.316406 235.734375 337.414062 C 236.1875 338.507812 236.695312 339.578125 237.253906 340.625 C 237.8125 341.671875 238.417969 342.6875 239.078125 343.671875 C 239.738281 344.660156 240.441406 345.609375 241.195312 346.527344 C 241.945312 347.441406 242.742188 348.320312 243.578125 349.160156 C 244.417969 349.996094 245.292969 350.792969 246.210938 351.546875 C 247.125 352.296875 248.078125 353.003906 249.0625 353.660156 C 250.046875 354.320312 251.0625 354.929688 252.109375 355.488281 C 253.152344 356.046875 254.222656 356.554688 255.320312 357.007812 C 256.414062 357.460938 257.527344 357.859375 258.664062 358.203125 C 259.796875 358.550781 260.945312 358.835938 262.105469 359.066406 C 263.269531 359.300781 264.441406 359.472656 265.621094 359.589844 C 266.800781 359.707031 267.980469 359.765625 269.167969 359.765625 C 270.351562 359.765625 271.535156 359.707031 272.714844 359.589844 C 273.894531 359.472656 275.0625 359.300781 276.226562 359.066406 C 277.390625 358.835938 278.539062 358.550781 279.671875 358.203125 C 280.804688 357.859375 281.921875 357.460938 283.015625 357.007812 C 284.109375 356.554688 285.179688 356.046875 286.226562 355.488281 C 287.269531 354.929688 288.285156 354.320312 289.273438 353.660156 C 290.257812 353.003906 291.207031 352.296875 292.125 351.546875 C 293.039062 350.792969 293.917969 349.996094 294.753906 349.160156 C 295.59375 348.320312 296.386719 347.441406 297.140625 346.527344 C 297.890625 345.609375 298.597656 344.660156 299.253906 343.671875 C 299.914062 342.6875 300.523438 341.671875 301.082031 340.625 C 301.640625 339.578125 302.144531 338.507812 302.601562 337.414062 C 303.054688 336.316406 303.453125 335.203125 303.796875 334.066406 C 304.140625 332.933594 304.429688 331.785156 304.660156 330.621094 C 304.890625 329.457031 305.0625 328.285156 305.179688 327.105469 C 305.296875 325.925781 305.355469 324.742188 305.355469 323.558594 C 305.355469 322.371094 305.296875 321.1875 305.179688 320.007812 C 305.0625 318.828125 304.890625 317.65625 304.660156 316.492188 C 304.429688 315.332031 304.140625 314.179688 303.796875 313.046875 C 303.453125 311.910156 303.054688 310.796875 302.601562 309.703125 C 302.144531 308.605469 301.640625 307.535156 301.082031 306.488281 C 300.523438 305.445312 299.914062 304.425781 299.253906 303.441406 C 298.597656 302.457031 297.890625 301.503906 297.140625 300.585938 C 296.386719 299.671875 295.59375 298.792969 294.753906 297.953125 C 293.917969 297.117188 293.039062 296.320312 292.125 295.570312 C 291.207031 294.816406 290.257812 294.109375 289.273438 293.453125 C 288.285156 292.792969 287.269531 292.183594 286.226562 291.625 C 285.179688 291.066406 284.109375 290.558594 283.015625 290.105469 C 281.921875 289.652344 280.804688 289.253906 279.671875 288.910156 C 278.539062 288.566406 277.390625 288.277344 276.226562 288.046875 C 275.0625 287.816406 273.894531 287.640625 272.714844 287.523438 C 271.535156 287.410156 270.351562 287.351562 269.167969 287.351562 Z M 269.167969 287.351562 "/>
<path style=" stroke:none;fill-rule:nonzero;fill:rgb(30.198669%,60.778809%,58.039856%);fill-opacity:1;" d="M 341.542969 432.175781 L 323.449219 432.175781 C 323.449219 430.398438 323.359375 428.625 323.1875 426.855469 C 323.011719 425.085938 322.75 423.328125 322.40625 421.582031 C 322.058594 419.835938 321.625 418.113281 321.109375 416.414062 C 320.59375 414.710938 319.996094 413.039062 319.316406 411.394531 C 318.636719 409.75 317.875 408.144531 317.039062 406.574219 C 316.199219 405.007812 315.289062 403.484375 314.300781 402.003906 C 313.3125 400.527344 312.253906 399.097656 311.125 397.722656 C 310 396.347656 308.804688 395.03125 307.550781 393.773438 C 306.292969 392.515625 304.976562 391.324219 303.601562 390.195312 C 302.226562 389.066406 300.800781 388.007812 299.324219 387.019531 C 297.847656 386.03125 296.324219 385.117188 294.753906 384.28125 C 293.1875 383.441406 291.582031 382.683594 289.9375 382 C 288.296875 381.320312 286.625 380.722656 284.925781 380.207031 C 283.222656 379.691406 281.5 379.257812 279.757812 378.910156 C 278.011719 378.5625 276.257812 378.304688 274.488281 378.128906 C 272.71875 377.953125 270.945312 377.867188 269.167969 377.867188 C 267.390625 377.867188 265.617188 377.953125 263.847656 378.128906 C 262.078125 378.304688 260.320312 378.5625 258.578125 378.910156 C 256.832031 379.257812 255.109375 379.691406 253.410156 380.207031 C 251.707031 380.722656 250.035156 381.320312 248.394531 382 C 246.75 382.683594 245.148438 383.441406 243.578125 384.28125 C 242.011719 385.117188 240.488281 386.03125 239.007812 387.019531 C 237.53125 388.007812 236.105469 389.066406 234.730469 390.195312 C 233.355469 391.324219 232.042969 392.515625 230.785156 393.773438 C 229.527344 395.03125 228.335938 396.347656 227.207031 397.722656 C 226.078125 399.097656 225.019531 400.527344 224.035156 402.003906 C 223.046875 403.484375 222.132812 405.007812 221.296875 406.574219 C 220.457031 408.144531 219.699219 409.75 219.015625 411.394531 C 218.335938 413.039062 217.738281 414.710938 217.222656 416.414062 C 216.707031 418.113281 216.277344 419.835938 215.929688 421.582031 C 215.582031 423.328125 215.320312 425.085938 215.148438 426.855469 C 214.972656 428.625 214.886719 430.398438 214.886719 432.175781 L 196.792969 432.175781 C 196.792969 430.992188 196.820312 429.808594 196.878906 428.625 C 196.9375 427.441406 197.023438 426.257812 197.140625 425.078125 C 197.257812 423.902344 197.402344 422.726562 197.574219 421.550781 C 197.75 420.378906 197.953125 419.210938 198.183594 418.050781 C 198.414062 416.886719 198.671875 415.730469 198.960938 414.582031 C 199.25 413.433594 199.5625 412.292969 199.910156 411.15625 C 200.253906 410.023438 200.625 408.898438 201.023438 407.78125 C 201.421875 406.667969 201.847656 405.5625 202.300781 404.464844 C 202.753906 403.371094 203.234375 402.289062 203.742188 401.214844 C 204.246094 400.144531 204.78125 399.085938 205.335938 398.042969 C 205.894531 396.996094 206.480469 395.964844 207.089844 394.949219 C 207.699219 393.933594 208.332031 392.933594 208.988281 391.945312 C 209.648438 390.960938 210.328125 389.992188 211.035156 389.039062 C 211.742188 388.089844 212.46875 387.15625 213.21875 386.238281 C 213.972656 385.324219 214.746094 384.425781 215.539062 383.546875 C 216.335938 382.667969 217.152344 381.8125 217.988281 380.972656 C 218.828125 380.136719 219.683594 379.320312 220.5625 378.523438 C 221.441406 377.726562 222.335938 376.953125 223.253906 376.199219 C 224.167969 375.449219 225.101562 374.71875 226.054688 374.015625 C 227.003906 373.308594 227.972656 372.625 228.957031 371.96875 C 229.941406 371.308594 230.941406 370.675781 231.957031 370.066406 C 232.972656 369.457031 234.003906 368.875 235.050781 368.3125 C 236.09375 367.753906 237.152344 367.222656 238.222656 366.714844 C 239.292969 366.210938 240.375 365.730469 241.46875 365.277344 C 242.5625 364.824219 243.667969 364.394531 244.785156 363.996094 C 245.898438 363.597656 247.023438 363.226562 248.15625 362.882812 C 249.289062 362.539062 250.433594 362.222656 251.582031 361.933594 C 252.730469 361.644531 253.886719 361.386719 255.046875 361.15625 C 256.207031 360.925781 257.375 360.722656 258.546875 360.546875 C 259.71875 360.375 260.894531 360.230469 262.074219 360.113281 C 263.25 359.996094 264.433594 359.910156 265.617188 359.851562 C 266.796875 359.792969 267.980469 359.765625 269.167969 359.765625 C 270.351562 359.765625 271.535156 359.792969 272.71875 359.851562 C 273.902344 359.910156 275.082031 359.996094 276.261719 360.113281 C 277.441406 360.230469 278.613281 360.375 279.785156 360.546875 C 280.957031 360.722656 282.125 360.925781 283.285156 361.15625 C 284.449219 361.386719 285.601562 361.644531 286.753906 361.933594 C 287.902344 362.222656 289.042969 362.539062 290.175781 362.882812 C 291.308594 363.226562 292.433594 363.597656 293.550781 363.996094 C 294.664062 364.394531 295.769531 364.824219 296.863281 365.277344 C 297.957031 365.730469 299.039062 366.210938 300.109375 366.714844 C 301.183594 367.222656 302.238281 367.753906 303.285156 368.3125 C 304.328125 368.875 305.359375 369.457031 306.375 370.066406 C 307.390625 370.675781 308.390625 371.308594 309.375 371.96875 C 310.359375 372.625 311.328125 373.308594 312.28125 374.015625 C 313.230469 374.71875 314.164062 375.449219 315.082031 376.199219 C 315.996094 376.953125 316.894531 377.726562 317.769531 378.523438 C 318.648438 379.320312 319.507812 380.136719 320.34375 380.972656 C 321.179688 381.8125 321.996094 382.667969 322.792969 383.546875 C 323.589844 384.425781 324.363281 385.324219 325.113281 386.238281 C 325.863281 387.15625 326.59375 388.089844 327.300781 389.039062 C 328.003906 389.992188 328.6875 390.960938 329.34375 391.945312 C 330.003906 392.933594 330.636719 393.933594 331.246094 394.949219 C 331.855469 395.964844 332.4375 396.996094 332.996094 398.042969 C 333.554688 399.085938 334.085938 400.144531 334.59375 401.214844 C 335.097656 402.289062 335.578125 403.371094 336.03125 404.464844 C 336.484375 405.5625 336.910156 406.667969 337.3125 407.78125 C 337.710938 408.898438 338.082031 410.023438 338.425781 411.15625 C 338.769531 412.292969 339.085938 413.433594 339.371094 414.582031 C 339.660156 415.730469 339.921875 416.886719 340.152344 418.050781 C 340.382812 419.210938 340.585938 420.378906 340.757812 421.550781 C 340.933594 422.726562 341.078125 423.902344 341.191406 425.078125 C 341.308594 426.257812 341.398438 427.441406 341.453125 428.625 C 341.511719 429.808594 341.542969 430.992188 341.542969 432.175781 Z M 341.542969 432.175781 "/>
<path style=" stroke:none;fill-rule:nonzero;fill:rgb(30.198669%,60.778809%,58.039856%);fill-opacity:1;" d="M 631.042969 441.230469 L 450.105469 441.230469 C 449.511719 441.230469 448.921875 441.171875 448.339844 441.054688 C 447.757812 440.9375 447.191406 440.769531 446.640625 440.539062 C 446.09375 440.3125 445.570312 440.035156 445.078125 439.703125 C 444.585938 439.375 444.128906 439 443.707031 438.578125 C 443.289062 438.15625 442.910156 437.699219 442.582031 437.207031 C 442.253906 436.710938 441.972656 436.191406 441.746094 435.640625 C 441.519531 435.09375 441.347656 434.527344 441.230469 433.945312 C 441.117188 433.359375 441.058594 432.773438 441.058594 432.175781 L 441.058594 251.144531 C 441.058594 250.550781 441.117188 249.960938 441.230469 249.378906 C 441.347656 248.792969 441.519531 248.230469 441.746094 247.679688 C 441.972656 247.128906 442.253906 246.609375 442.582031 246.113281 C 442.910156 245.621094 443.289062 245.164062 443.707031 244.742188 C 444.128906 244.324219 444.585938 243.949219 445.078125 243.617188 C 445.570312 243.285156 446.09375 243.007812 446.640625 242.78125 C 447.191406 242.554688 447.757812 242.382812 448.339844 242.265625 C 448.921875 242.148438 449.511719 242.089844 450.105469 242.089844 L 558.667969 242.089844 L 558.667969 260.195312 L 459.152344 260.195312 L 459.152344 423.125 L 621.996094 423.125 L 621.996094 323.558594 L 640.089844 323.558594 L 640.089844 432.175781 C 640.089844 432.773438 640.03125 433.359375 639.914062 433.945312 C 639.800781 434.527344 639.628906 435.09375 639.398438 435.640625 C 639.171875 436.191406 638.894531 436.710938 638.5625 437.207031 C 638.234375 437.699219 637.859375 438.15625 637.4375 438.578125 C 637.019531 439 636.5625 439.375 636.066406 439.703125 C 635.574219 440.035156 635.050781 440.3125 634.503906 440.539062 C 633.953125 440.769531 633.390625 440.9375 632.808594 441.054688 C 632.222656 441.171875 631.636719 441.230469 631.042969 441.230469 Z M 631.042969 441.230469 "/>
<path style=" stroke:none;fill-rule:nonzero;fill:rgb(30.198669%,60.778809%,58.039856%);fill-opacity:1;" d="M 540.574219 377.867188 C 538.796875 377.867188 537.023438 377.78125 535.253906 377.605469 C 533.484375 377.429688 531.726562 377.171875 529.984375 376.824219 C 528.238281 376.476562 526.515625 376.046875 524.816406 375.527344 C 523.113281 375.011719 521.441406 374.414062 519.800781 373.734375 C 518.15625 373.050781 516.554688 372.292969 514.984375 371.453125 C 513.417969 370.617188 511.894531 369.703125 510.414062 368.714844 C 508.9375 367.726562 507.511719 366.667969 506.136719 365.539062 C 504.761719 364.410156 503.449219 363.21875 502.191406 361.960938 C 500.933594 360.703125 499.742188 359.386719 498.613281 358.011719 C 497.484375 356.636719 496.425781 355.210938 495.441406 353.730469 C 494.453125 352.25 493.539062 350.726562 492.703125 349.160156 C 491.863281 347.589844 491.105469 345.984375 490.421875 344.339844 C 489.742188 342.699219 489.144531 341.023438 488.628906 339.324219 C 488.113281 337.621094 487.679688 335.898438 487.335938 334.152344 C 486.988281 332.40625 486.726562 330.652344 486.554688 328.878906 C 486.378906 327.109375 486.292969 325.335938 486.292969 323.558594 C 486.292969 321.777344 486.378906 320.003906 486.554688 318.234375 C 486.726562 316.464844 486.988281 314.707031 487.335938 312.960938 C 487.679688 311.21875 488.113281 309.492188 488.628906 307.792969 C 489.144531 306.089844 489.742188 304.417969 490.421875 302.773438 C 491.105469 301.128906 491.863281 299.523438 492.703125 297.957031 C 493.539062 296.386719 494.453125 294.863281 495.441406 293.382812 C 496.425781 291.90625 497.484375 290.476562 498.613281 289.101562 C 499.742188 287.726562 500.933594 286.410156 502.191406 285.152344 C 503.449219 283.894531 504.761719 282.703125 506.136719 281.574219 C 507.511719 280.445312 508.9375 279.386719 510.414062 278.398438 C 511.894531 277.410156 513.417969 276.5 514.984375 275.660156 C 516.554688 274.820312 518.15625 274.0625 519.800781 273.382812 C 521.441406 272.699219 523.113281 272.101562 524.816406 271.585938 C 526.515625 271.070312 528.238281 270.636719 529.984375 270.289062 C 531.726562 269.945312 533.484375 269.683594 535.253906 269.507812 C 537.023438 269.335938 538.796875 269.246094 540.574219 269.246094 C 542.351562 269.246094 544.125 269.335938 545.894531 269.507812 C 547.664062 269.683594 549.417969 269.945312 551.164062 270.289062 C 552.90625 270.636719 554.628906 271.070312 556.328125 271.585938 C 558.03125 272.101562 559.703125 272.699219 561.34375 273.382812 C 562.988281 274.0625 564.59375 274.820312 566.160156 275.660156 C 567.730469 276.5 569.25 277.410156 570.730469 278.398438 C 572.207031 279.386719 573.632812 280.445312 575.007812 281.574219 C 576.382812 282.703125 577.699219 283.894531 578.957031 285.152344 C 580.210938 286.410156 581.40625 287.726562 582.53125 289.101562 C 583.660156 290.476562 584.71875 291.90625 585.707031 293.382812 C 586.695312 294.863281 587.605469 296.386719 588.445312 297.957031 C 589.28125 299.523438 590.042969 301.128906 590.722656 302.773438 C 591.402344 304.417969 592 306.089844 592.515625 307.792969 C 593.03125 309.492188 593.464844 311.21875 593.8125 312.960938 C 594.15625 314.707031 594.417969 316.464844 594.59375 318.234375 C 594.765625 320.003906 594.855469 321.777344 594.855469 323.558594 C 594.851562 325.335938 594.765625 327.109375 594.589844 328.878906 C 594.414062 330.648438 594.148438 332.40625 593.800781 334.148438 C 593.453125 335.894531 593.023438 337.613281 592.503906 339.316406 C 591.988281 341.019531 591.390625 342.691406 590.707031 344.332031 C 590.027344 345.976562 589.265625 347.582031 588.429688 349.148438 C 587.589844 350.714844 586.675781 352.238281 585.691406 353.71875 C 584.703125 355.195312 583.644531 356.621094 582.515625 357.996094 C 581.390625 359.371094 580.195312 360.6875 578.941406 361.945312 C 577.683594 363.203125 576.367188 364.394531 574.996094 365.523438 C 573.621094 366.652344 572.195312 367.710938 570.71875 368.699219 C 569.238281 369.6875 567.71875 370.601562 566.148438 371.4375 C 564.582031 372.277344 562.980469 373.039062 561.335938 373.71875 C 559.695312 374.398438 558.023438 375 556.324219 375.515625 C 554.625 376.035156 552.902344 376.464844 551.160156 376.816406 C 549.417969 377.164062 547.660156 377.425781 545.890625 377.601562 C 544.125 377.777344 542.351562 377.867188 540.574219 377.867188 Z M 540.574219 287.351562 C 539.386719 287.351562 538.207031 287.410156 537.027344 287.523438 C 535.847656 287.640625 534.675781 287.816406 533.511719 288.046875 C 532.351562 288.277344 531.203125 288.566406 530.070312 288.910156 C 528.933594 289.253906 527.820312 289.652344 526.726562 290.105469 C 525.628906 290.558594 524.558594 291.066406 523.515625 291.625 C 522.46875 292.183594 521.453125 292.792969 520.46875 293.453125 C 519.484375 294.109375 518.53125 294.816406 517.617188 295.570312 C 516.699219 296.320312 515.824219 297.117188 514.984375 297.953125 C 514.148438 298.792969 513.351562 299.671875 512.601562 300.585938 C 511.847656 301.503906 511.144531 302.457031 510.484375 303.441406 C 509.824219 304.425781 509.21875 305.445312 508.660156 306.488281 C 508.101562 307.535156 507.59375 308.605469 507.140625 309.703125 C 506.6875 310.796875 506.289062 311.910156 505.945312 313.046875 C 505.601562 314.179688 505.3125 315.332031 505.082031 316.492188 C 504.851562 317.65625 504.675781 318.828125 504.558594 320.007812 C 504.445312 321.1875 504.386719 322.371094 504.386719 323.558594 C 504.386719 324.742188 504.445312 325.925781 504.558594 327.105469 C 504.675781 328.285156 504.851562 329.457031 505.082031 330.621094 C 505.3125 331.785156 505.601562 332.933594 505.945312 334.066406 C 506.289062 335.203125 506.6875 336.316406 507.140625 337.414062 C 507.59375 338.507812 508.101562 339.578125 508.660156 340.625 C 509.21875 341.671875 509.824219 342.6875 510.484375 343.671875 C 511.144531 344.660156 511.847656 345.609375 512.601562 346.527344 C 513.351562 347.441406 514.148438 348.320312 514.984375 349.160156 C 515.824219 349.996094 516.699219 350.792969 517.617188 351.546875 C 518.53125 352.296875 519.484375 353.003906 520.46875 353.660156 C 521.453125 354.320312 522.46875 354.929688 523.515625 355.488281 C 524.558594 356.046875 525.628906 356.554688 526.726562 357.007812 C 527.820312 357.460938 528.933594 357.859375 530.070312 358.203125 C 531.203125 358.550781 532.351562 358.835938 533.511719 359.066406 C 534.675781 359.300781 535.847656 359.472656 537.027344 359.589844 C 538.207031 359.707031 539.386719 359.765625 540.574219 359.765625 C 541.757812 359.765625 542.941406 359.707031 544.121094 359.589844 C 545.300781 359.472656 546.46875 359.300781 547.632812 359.066406 C 548.796875 358.835938 549.945312 358.550781 551.078125 358.203125 C 552.210938 357.859375 553.328125 357.460938 554.421875 357.007812 C 555.515625 356.554688 556.585938 356.046875 557.632812 355.488281 C 558.675781 354.929688 559.691406 354.320312 560.679688 353.660156 C 561.664062 353.003906 562.613281 352.296875 563.53125 351.546875 C 564.445312 350.792969 565.324219 349.996094 566.160156 349.160156 C 567 348.320312 567.792969 347.441406 568.546875 346.527344 C 569.296875 345.609375 570.003906 344.660156 570.660156 343.671875 C 571.320312 342.6875 571.929688 341.671875 572.488281 340.625 C 573.046875 339.578125 573.550781 338.507812 574.007812 337.414062 C 574.460938 336.316406 574.859375 335.203125 575.203125 334.066406 C 575.546875 332.933594 575.832031 331.785156 576.066406 330.621094 C 576.296875 329.457031 576.46875 328.285156 576.585938 327.105469 C 576.703125 325.925781 576.761719 324.742188 576.761719 323.558594 C 576.761719 322.371094 576.703125 321.1875 576.585938 320.007812 C 576.46875 318.828125 576.296875 317.65625 576.066406 316.492188 C 575.835938 315.332031 575.546875 314.179688 575.203125 313.046875 C 574.859375 311.910156 574.460938 310.796875 574.007812 309.703125 C 573.550781 308.605469 573.046875 307.535156 572.488281 306.488281 C 571.929688 305.445312 571.320312 304.425781 570.660156 303.441406 C 570.003906 302.457031 569.296875 301.503906 568.546875 300.585938 C 567.792969 299.671875 567 298.792969 566.160156 297.953125 C 565.324219 297.117188 564.445312 296.320312 563.53125 295.570312 C 562.613281 294.816406 561.664062 294.109375 560.679688 293.453125 C 559.691406 292.792969 558.675781 292.183594 557.632812 291.625 C 556.585938 291.066406 555.515625 290.558594 554.421875 290.105469 C 553.328125 289.652344 552.210938 289.253906 551.078125 288.910156 C 549.945312 288.566406 548.796875 288.277344 547.632812 288.046875 C 546.46875 287.816406 545.300781 287.640625 544.121094 287.523438 C 542.941406 287.410156 541.757812 287.351562 540.574219 287.351562 Z M 540.574219 287.351562 "/>
<path style=" stroke:none;fill-rule:nonzero;fill:rgb(30.198669%,60.778809%,58.039856%);fill-opacity:1;" d="M 612.949219 432.175781 L 594.855469 432.175781 C 594.855469 430.398438 594.765625 428.625 594.59375 426.855469 C 594.417969 425.085938 594.15625 423.328125 593.8125 421.582031 C 593.464844 419.835938 593.03125 418.113281 592.515625 416.414062 C 592 414.710938 591.402344 413.039062 590.722656 411.394531 C 590.042969 409.75 589.28125 408.144531 588.445312 406.574219 C 587.605469 405.007812 586.695312 403.484375 585.707031 402.003906 C 584.71875 400.527344 583.660156 399.097656 582.53125 397.722656 C 581.40625 396.347656 580.210938 395.03125 578.957031 393.773438 C 577.699219 392.515625 576.382812 391.324219 575.007812 390.195312 C 573.632812 389.066406 572.207031 388.007812 570.730469 387.019531 C 569.25 386.03125 567.730469 385.117188 566.160156 384.28125 C 564.59375 383.441406 562.988281 382.683594 561.34375 382 C 559.703125 381.320312 558.03125 380.722656 556.328125 380.207031 C 554.628906 379.691406 552.90625 379.257812 551.164062 378.910156 C 549.417969 378.5625 547.664062 378.304688 545.894531 378.128906 C 544.125 377.953125 542.351562 377.867188 540.574219 377.867188 C 538.796875 377.867188 537.023438 377.953125 535.253906 378.128906 C 533.484375 378.304688 531.726562 378.5625 529.984375 378.910156 C 528.238281 379.257812 526.515625 379.691406 524.816406 380.207031 C 523.113281 380.722656 521.441406 381.320312 519.800781 382 C 518.15625 382.683594 516.554688 383.441406 514.984375 384.28125 C 513.417969 385.117188 511.894531 386.03125 510.414062 387.019531 C 508.9375 388.007812 507.511719 389.066406 506.136719 390.195312 C 504.761719 391.324219 503.449219 392.515625 502.191406 393.773438 C 500.933594 395.03125 499.742188 396.347656 498.613281 397.722656 C 497.484375 399.097656 496.425781 400.527344 495.441406 402.003906 C 494.453125 403.484375 493.539062 405.007812 492.703125 406.574219 C 491.863281 408.144531 491.105469 409.75 490.421875 411.394531 C 489.742188 413.039062 489.144531 414.710938 488.628906 416.414062 C 488.113281 418.113281 487.679688 419.835938 487.335938 421.582031 C 486.988281 423.328125 486.726562 425.085938 486.554688 426.855469 C 486.378906 428.625 486.292969 430.398438 486.292969 432.175781 L 468.199219 432.175781 C 468.199219 430.992188 468.226562 429.808594 468.285156 428.625 C 468.34375 427.441406 468.429688 426.257812 468.546875 425.078125 C 468.664062 423.902344 468.808594 422.726562 468.980469 421.550781 C 469.15625 420.378906 469.359375 419.210938 469.589844 418.050781 C 469.820312 416.886719 470.078125 415.730469 470.367188 414.582031 C 470.65625 413.433594 470.96875 412.292969 471.316406 411.15625 C 471.660156 410.023438 472.03125 408.898438 472.429688 407.78125 C 472.828125 406.667969 473.253906 405.5625 473.707031 404.464844 C 474.160156 403.371094 474.640625 402.289062 475.148438 401.214844 C 475.652344 400.144531 476.1875 399.085938 476.742188 398.042969 C 477.300781 396.996094 477.886719 395.964844 478.496094 394.949219 C 479.105469 393.933594 479.738281 392.933594 480.394531 391.945312 C 481.054688 390.960938 481.734375 389.992188 482.441406 389.039062 C 483.144531 388.089844 483.875 387.15625 484.625 386.238281 C 485.378906 385.324219 486.152344 384.425781 486.945312 383.546875 C 487.742188 382.667969 488.558594 381.8125 489.394531 380.972656 C 490.234375 380.136719 491.089844 379.320312 491.96875 378.523438 C 492.847656 377.726562 493.742188 376.953125 494.660156 376.199219 C 495.574219 375.449219 496.507812 374.71875 497.460938 374.015625 C 498.410156 373.308594 499.378906 372.625 500.363281 371.96875 C 501.347656 371.308594 502.347656 370.675781 503.363281 370.066406 C 504.378906 369.457031 505.410156 368.875 506.457031 368.3125 C 507.5 367.753906 508.558594 367.222656 509.628906 366.714844 C 510.699219 366.210938 511.78125 365.730469 512.875 365.277344 C 513.96875 364.824219 515.074219 364.394531 516.191406 363.996094 C 517.304688 363.597656 518.429688 363.226562 519.5625 362.882812 C 520.695312 362.539062 521.839844 362.222656 522.988281 361.933594 C 524.136719 361.644531 525.292969 361.386719 526.453125 361.15625 C 527.613281 360.925781 528.78125 360.722656 529.953125 360.546875 C 531.125 360.375 532.300781 360.230469 533.480469 360.113281 C 534.65625 359.996094 535.839844 359.910156 537.023438 359.851562 C 538.203125 359.792969 539.386719 359.765625 540.574219 359.765625 C 541.757812 359.765625 542.941406 359.792969 544.125 359.851562 C 545.308594 359.910156 546.488281 359.996094 547.667969 360.113281 C 548.847656 360.230469 550.019531 360.375 551.191406 360.546875 C 552.363281 360.722656 553.53125 360.925781 554.691406 361.15625 C 555.855469 361.386719 557.007812 361.644531 558.160156 361.933594 C 559.308594 362.222656 560.449219 362.539062 561.582031 362.882812 C 562.714844 363.226562 563.839844 363.597656 564.957031 363.996094 C 566.070312 364.394531 567.175781 364.824219 568.269531 365.277344 C 569.363281 365.730469 570.445312 366.210938 571.515625 366.714844 C 572.589844 367.222656 573.644531 367.753906 574.691406 368.3125 C 575.734375 368.875 576.765625 369.457031 577.78125 370.066406 C 578.796875 370.675781 579.796875 371.308594 580.78125 371.96875 C 581.765625 372.625 582.734375 373.308594 583.6875 374.015625 C 584.636719 374.71875 585.570312 375.449219 586.488281 376.199219 C 587.402344 376.953125 588.300781 377.726562 589.175781 378.523438 C 590.054688 379.320312 590.914062 380.136719 591.75 380.972656 C 592.585938 381.8125 593.402344 382.667969 594.199219 383.546875 C 594.996094 384.425781 595.769531 385.324219 596.519531 386.238281 C 597.269531 387.15625 598 388.089844 598.707031 389.039062 C 599.410156 389.992188 600.09375 390.960938 600.75 391.945312 C 601.410156 392.933594 602.042969 393.933594 602.652344 394.949219 C 603.261719 395.964844 603.84375 396.996094 604.402344 398.042969 C 604.960938 399.085938 605.492188 400.144531 606 401.214844 C 606.503906 402.289062 606.984375 403.371094 607.4375 404.464844 C 607.890625 405.5625 608.316406 406.667969 608.71875 407.78125 C 609.117188 408.898438 609.488281 410.023438 609.832031 411.15625 C 610.175781 412.292969 610.492188 413.433594 610.777344 414.582031 C 611.066406 415.730469 611.328125 416.886719 611.558594 418.050781 C 611.789062 419.210938 611.992188 420.378906 612.164062 421.550781 C 612.339844 422.726562 612.484375 423.902344 612.597656 425.078125 C 612.714844 426.257812 612.804688 427.441406 612.859375 428.625 C 612.917969 429.808594 612.949219 430.992188 612.949219 432.175781 Z M 612.949219 432.175781 "/>
<path style=" stroke:none;fill-rule:nonzero;fill:rgb(30.198669%,60.778809%,58.039856%);fill-opacity:1;" d="M 359.636719 314.503906 C 358.597656 314.503906 357.5625 314.480469 356.527344 314.429688 C 355.492188 314.378906 354.460938 314.300781 353.429688 314.199219 C 352.398438 314.097656 351.367188 313.972656 350.34375 313.820312 C 349.316406 313.667969 348.296875 313.488281 347.28125 313.289062 C 346.265625 313.085938 345.253906 312.859375 344.25 312.605469 C 343.242188 312.355469 342.242188 312.078125 341.253906 311.777344 C 340.261719 311.476562 339.277344 311.152344 338.300781 310.800781 C 337.324219 310.453125 336.359375 310.078125 335.402344 309.683594 C 334.445312 309.285156 333.496094 308.867188 332.558594 308.421875 C 331.621094 307.980469 330.695312 307.511719 329.78125 307.023438 C 328.867188 306.535156 327.96875 306.023438 327.078125 305.492188 C 326.1875 304.957031 325.3125 304.402344 324.453125 303.828125 C 323.589844 303.25 322.742188 302.652344 321.910156 302.035156 C 321.078125 301.417969 320.261719 300.78125 319.460938 300.121094 C 318.660156 299.464844 317.875 298.789062 317.105469 298.089844 C 316.339844 297.394531 315.589844 296.679688 314.855469 295.945312 C 314.121094 295.214844 313.410156 294.464844 312.710938 293.695312 C 312.015625 292.925781 311.339844 292.140625 310.683594 291.339844 C 310.023438 290.539062 309.386719 289.722656 308.769531 288.886719 C 308.152344 288.054688 307.554688 287.207031 306.980469 286.34375 C 306.40625 285.484375 305.851562 284.605469 305.316406 283.71875 C 304.785156 282.828125 304.273438 281.925781 303.785156 281.011719 C 303.296875 280.097656 302.832031 279.171875 302.386719 278.234375 C 301.945312 277.296875 301.523438 276.347656 301.128906 275.390625 C 300.730469 274.433594 300.359375 273.464844 300.007812 272.488281 C 299.660156 271.511719 299.335938 270.527344 299.035156 269.535156 C 298.734375 268.542969 298.457031 267.546875 298.207031 266.539062 C 297.953125 265.535156 297.726562 264.523438 297.523438 263.503906 C 297.320312 262.488281 297.144531 261.464844 296.992188 260.441406 C 296.839844 259.414062 296.714844 258.386719 296.613281 257.355469 C 296.511719 256.320312 296.433594 255.289062 296.382812 254.253906 C 296.332031 253.214844 296.308594 252.179688 296.308594 251.144531 C 296.308594 250.105469 296.332031 249.070312 296.382812 248.035156 C 296.433594 247 296.511719 245.964844 296.613281 244.933594 C 296.714844 243.902344 296.839844 242.871094 296.992188 241.847656 C 297.144531 240.820312 297.320312 239.800781 297.523438 238.78125 C 297.726562 237.765625 297.953125 236.753906 298.207031 235.746094 C 298.457031 234.742188 298.734375 233.742188 299.035156 232.75 C 299.335938 231.757812 299.660156 230.773438 300.007812 229.796875 C 300.359375 228.820312 300.730469 227.855469 301.128906 226.894531 C 301.523438 225.9375 301.945312 224.988281 302.386719 224.050781 C 302.832031 223.117188 303.296875 222.1875 303.785156 221.273438 C 304.273438 220.359375 304.785156 219.457031 305.316406 218.570312 C 305.851562 217.679688 306.40625 216.804688 306.980469 215.941406 C 307.554688 215.078125 308.152344 214.230469 308.769531 213.398438 C 309.386719 212.566406 310.023438 211.75 310.683594 210.945312 C 311.339844 210.144531 312.015625 209.359375 312.710938 208.59375 C 313.410156 207.824219 314.121094 207.074219 314.855469 206.339844 C 315.589844 205.605469 316.339844 204.890625 317.105469 204.195312 C 317.875 203.5 318.660156 202.820312 319.460938 202.164062 C 320.261719 201.507812 321.078125 200.867188 321.910156 200.25 C 322.742188 199.632812 323.589844 199.035156 324.453125 198.460938 C 325.3125 197.882812 326.1875 197.328125 327.078125 196.796875 C 327.96875 196.261719 328.867188 195.753906 329.78125 195.261719 C 330.695312 194.773438 331.621094 194.308594 332.558594 193.863281 C 333.496094 193.421875 334.445312 193 335.402344 192.605469 C 336.359375 192.207031 337.324219 191.835938 338.300781 191.484375 C 339.277344 191.136719 340.261719 190.8125 341.253906 190.511719 C 342.246094 190.207031 343.242188 189.933594 344.25 189.679688 C 345.253906 189.429688 346.265625 189.203125 347.28125 189 C 348.296875 188.796875 349.316406 188.621094 350.34375 188.46875 C 351.367188 188.316406 352.398438 188.1875 353.429688 188.085938 C 354.460938 187.984375 355.492188 187.910156 356.527344 187.859375 C 357.5625 187.808594 358.597656 187.78125 359.636719 187.78125 C 360.671875 187.78125 361.707031 187.808594 362.742188 187.859375 C 363.777344 187.910156 364.8125 187.984375 365.84375 188.085938 C 366.875 188.1875 367.902344 188.316406 368.925781 188.46875 C 369.953125 188.621094 370.972656 188.796875 371.992188 189 C 373.007812 189.203125 374.019531 189.429688 375.023438 189.679688 C 376.027344 189.933594 377.027344 190.207031 378.019531 190.511719 C 379.011719 190.8125 379.996094 191.136719 380.96875 191.484375 C 381.945312 191.835938 382.914062 192.207031 383.871094 192.605469 C 384.828125 193 385.773438 193.421875 386.710938 193.863281 C 387.648438 194.308594 388.574219 194.773438 389.488281 195.261719 C 390.402344 195.753906 391.304688 196.261719 392.191406 196.796875 C 393.082031 197.328125 393.957031 197.882812 394.820312 198.460938 C 395.679688 199.035156 396.527344 199.632812 397.359375 200.25 C 398.191406 200.867188 399.007812 201.507812 399.808594 202.164062 C 400.613281 202.820312 401.394531 203.5 402.164062 204.195312 C 402.933594 204.890625 403.683594 205.605469 404.414062 206.339844 C 405.148438 207.074219 405.863281 207.824219 406.558594 208.59375 C 407.253906 209.359375 407.929688 210.144531 408.589844 210.945312 C 409.246094 211.75 409.882812 212.566406 410.5 213.398438 C 411.117188 214.230469 411.714844 215.078125 412.289062 215.941406 C 412.867188 216.804688 413.421875 217.679688 413.953125 218.570312 C 414.488281 219.457031 414.996094 220.359375 415.484375 221.273438 C 415.972656 222.1875 416.441406 223.117188 416.882812 224.050781 C 417.328125 224.988281 417.746094 225.9375 418.144531 226.894531 C 418.539062 227.855469 418.914062 228.820312 419.261719 229.796875 C 419.609375 230.773438 419.9375 231.757812 420.238281 232.75 C 420.539062 233.742188 420.8125 234.742188 421.066406 235.746094 C 421.316406 236.753906 421.542969 237.765625 421.746094 238.78125 C 421.949219 239.800781 422.125 240.820312 422.277344 241.847656 C 422.429688 242.871094 422.558594 243.902344 422.660156 244.933594 C 422.761719 245.964844 422.835938 247 422.886719 248.035156 C 422.9375 249.070312 422.964844 250.105469 422.964844 251.144531 C 422.960938 253.21875 422.859375 255.289062 422.652344 257.351562 C 422.445312 259.417969 422.140625 261.464844 421.734375 263.5 C 421.328125 265.535156 420.824219 267.542969 420.21875 269.527344 C 419.617188 271.511719 418.917969 273.464844 418.125 275.378906 C 417.328125 277.296875 416.441406 279.167969 415.464844 280.996094 C 414.488281 282.828125 413.421875 284.605469 412.269531 286.328125 C 411.117188 288.054688 409.882812 289.71875 408.566406 291.320312 C 407.25 292.921875 405.859375 294.460938 404.394531 295.925781 C 402.929688 297.394531 401.394531 298.785156 399.792969 300.101562 C 398.1875 301.417969 396.523438 302.652344 394.800781 303.804688 C 393.078125 304.957031 391.300781 306.023438 389.472656 307.003906 C 387.644531 307.980469 385.773438 308.867188 383.859375 309.664062 C 381.945312 310.457031 379.996094 311.15625 378.011719 311.761719 C 376.027344 312.363281 374.019531 312.871094 371.984375 313.277344 C 369.953125 313.683594 367.902344 313.988281 365.839844 314.195312 C 363.777344 314.398438 361.707031 314.503906 359.636719 314.503906 Z M 359.636719 205.886719 C 358.152344 205.886719 356.675781 205.957031 355.203125 206.101562 C 353.726562 206.25 352.265625 206.464844 350.8125 206.753906 C 349.359375 207.042969 347.921875 207.402344 346.503906 207.832031 C 345.085938 208.265625 343.695312 208.761719 342.324219 209.328125 C 340.957031 209.898438 339.617188 210.53125 338.3125 211.230469 C 337.003906 211.925781 335.738281 212.6875 334.503906 213.511719 C 333.273438 214.335938 332.085938 215.21875 330.9375 216.15625 C 329.792969 217.097656 328.699219 218.09375 327.648438 219.140625 C 326.601562 220.1875 325.609375 221.285156 324.667969 222.433594 C 323.730469 223.578125 322.847656 224.765625 322.023438 226 C 321.203125 227.230469 320.441406 228.5 319.742188 229.808594 C 319.042969 231.117188 318.410156 232.453125 317.84375 233.824219 C 317.277344 235.191406 316.777344 236.585938 316.347656 238.003906 C 315.917969 239.425781 315.558594 240.859375 315.269531 242.3125 C 314.980469 243.769531 314.765625 245.230469 314.617188 246.707031 C 314.472656 248.183594 314.402344 249.660156 314.402344 251.144531 C 314.402344 252.625 314.472656 254.105469 314.617188 255.578125 C 314.765625 257.054688 314.980469 258.519531 315.269531 259.972656 C 315.558594 261.425781 315.917969 262.863281 316.347656 264.28125 C 316.777344 265.699219 317.277344 267.09375 317.84375 268.464844 C 318.410156 269.832031 319.042969 271.171875 319.742188 272.476562 C 320.441406 273.785156 321.203125 275.054688 322.023438 276.289062 C 322.847656 277.519531 323.730469 278.710938 324.667969 279.855469 C 325.609375 281 326.601562 282.097656 327.648438 283.144531 C 328.699219 284.195312 329.792969 285.1875 330.9375 286.128906 C 332.085938 287.070312 333.273438 287.949219 334.503906 288.773438 C 335.738281 289.597656 337.003906 290.359375 338.3125 291.058594 C 339.617188 291.757812 340.957031 292.390625 342.324219 292.957031 C 343.695312 293.523438 345.085938 294.023438 346.503906 294.453125 C 347.921875 294.882812 349.359375 295.242188 350.8125 295.53125 C 352.265625 295.820312 353.726562 296.039062 355.203125 296.183594 C 356.675781 296.328125 358.152344 296.402344 359.636719 296.402344 C 361.117188 296.402344 362.59375 296.328125 364.070312 296.183594 C 365.542969 296.039062 367.007812 295.820312 368.460938 295.53125 C 369.914062 295.242188 371.347656 294.882812 372.765625 294.453125 C 374.183594 294.023438 375.578125 293.523438 376.945312 292.957031 C 378.316406 292.390625 379.652344 291.757812 380.957031 291.058594 C 382.265625 290.359375 383.535156 289.597656 384.765625 288.773438 C 386 287.949219 387.1875 287.070312 388.332031 286.128906 C 389.476562 285.1875 390.574219 284.195312 391.621094 283.144531 C 392.667969 282.097656 393.664062 281 394.601562 279.855469 C 395.542969 278.710938 396.421875 277.519531 397.246094 276.289062 C 398.070312 275.054688 398.832031 273.785156 399.527344 272.476562 C 400.226562 271.171875 400.859375 269.832031 401.425781 268.464844 C 401.992188 267.09375 402.492188 265.699219 402.921875 264.28125 C 403.351562 262.863281 403.710938 261.425781 404 259.972656 C 404.289062 258.519531 404.507812 257.054688 404.652344 255.578125 C 404.796875 254.105469 404.871094 252.625 404.871094 251.144531 C 404.867188 249.660156 404.792969 248.183594 404.648438 246.710938 C 404.5 245.234375 404.28125 243.769531 403.992188 242.316406 C 403.703125 240.863281 403.339844 239.429688 402.910156 238.011719 C 402.480469 236.59375 401.980469 235.199219 401.414062 233.832031 C 400.84375 232.464844 400.210938 231.125 399.511719 229.820312 C 398.8125 228.511719 398.054688 227.242188 397.230469 226.011719 C 396.40625 224.78125 395.523438 223.589844 394.585938 222.445312 C 393.644531 221.300781 392.652344 220.203125 391.605469 219.15625 C 390.558594 218.109375 389.460938 217.113281 388.316406 216.175781 C 387.171875 215.234375 385.984375 214.351562 384.753906 213.527344 C 383.523438 212.707031 382.253906 211.945312 380.949219 211.246094 C 379.640625 210.546875 378.304688 209.914062 376.9375 209.34375 C 375.570312 208.777344 374.175781 208.277344 372.761719 207.847656 C 371.34375 207.414062 369.910156 207.054688 368.457031 206.761719 C 367.003906 206.472656 365.542969 206.253906 364.066406 206.109375 C 362.59375 205.960938 361.117188 205.886719 359.636719 205.886719 Z M 359.636719 205.886719 "/>
<path style=" stroke:none;fill-rule:nonzero;fill:rgb(30.198669%,60.778809%,58.039856%);fill-opacity:1;" d="M 350.589844 278.296875 C 349.390625 278.296875 348.234375 278.070312 347.128906 277.609375 C 346.019531 277.148438 345.039062 276.496094 344.191406 275.644531 L 326.097656 257.542969 L 338.890625 244.742188 L 350.589844 256.449219 L 380.378906 226.640625 L 393.171875 239.441406 L 356.984375 275.644531 C 356.136719 276.496094 355.15625 277.148438 354.050781 277.609375 C 352.941406 278.070312 351.789062 278.296875 350.589844 278.296875 Z M 350.589844 278.296875 "/>
<g clip-path="url(#clip3)" clip-rule="nonzero">
<path style=" stroke:none;fill-rule:nonzero;fill:rgb(30.198669%,60.778809%,58.039856%);fill-opacity:1;" d="M 631.042969 314.503906 C 630.003906 314.503906 628.96875 314.480469 627.933594 314.429688 C 626.898438 314.378906 625.867188 314.300781 624.835938 314.199219 C 623.804688 314.097656 622.773438 313.972656 621.75 313.820312 C 620.722656 313.667969 619.703125 313.488281 618.6875 313.289062 C 617.671875 313.085938 616.660156 312.859375 615.652344 312.605469 C 614.648438 312.355469 613.652344 312.078125 612.660156 311.777344 C 611.667969 311.476562 610.683594 311.152344 609.707031 310.800781 C 608.730469 310.453125 607.765625 310.078125 606.808594 309.683594 C 605.847656 309.285156 604.902344 308.867188 603.964844 308.421875 C 603.027344 307.980469 602.101562 307.511719 601.1875 307.023438 C 600.273438 306.535156 599.375 306.023438 598.484375 305.492188 C 597.59375 304.957031 596.71875 304.402344 595.859375 303.828125 C 594.996094 303.25 594.148438 302.652344 593.316406 302.035156 C 592.484375 301.417969 591.667969 300.78125 590.867188 300.121094 C 590.066406 299.464844 589.28125 298.789062 588.511719 298.089844 C 587.746094 297.394531 586.996094 296.679688 586.261719 295.945312 C 585.527344 295.214844 584.816406 294.464844 584.117188 293.695312 C 583.421875 292.925781 582.746094 292.140625 582.089844 291.339844 C 581.429688 290.539062 580.792969 289.722656 580.175781 288.886719 C 579.558594 288.054688 578.960938 287.207031 578.386719 286.34375 C 577.8125 285.484375 577.257812 284.605469 576.722656 283.71875 C 576.191406 282.828125 575.679688 281.925781 575.191406 281.011719 C 574.703125 280.097656 574.238281 279.171875 573.792969 278.234375 C 573.351562 277.296875 572.929688 276.347656 572.535156 275.390625 C 572.136719 274.433594 571.765625 273.464844 571.414062 272.488281 C 571.066406 271.511719 570.742188 270.527344 570.441406 269.535156 C 570.140625 268.542969 569.863281 267.546875 569.613281 266.539062 C 569.359375 265.535156 569.132812 264.523438 568.929688 263.503906 C 568.726562 262.488281 568.550781 261.464844 568.398438 260.441406 C 568.246094 259.414062 568.121094 258.386719 568.019531 257.355469 C 567.917969 256.320312 567.839844 255.289062 567.789062 254.253906 C 567.738281 253.214844 567.714844 252.179688 567.714844 251.144531 C 567.714844 250.105469 567.738281 249.070312 567.789062 248.035156 C 567.839844 247 567.917969 245.964844 568.019531 244.933594 C 568.121094 243.902344 568.246094 242.871094 568.398438 241.847656 C 568.550781 240.820312 568.726562 239.800781 568.929688 238.78125 C 569.132812 237.765625 569.359375 236.753906 569.613281 235.746094 C 569.863281 234.742188 570.140625 233.742188 570.441406 232.75 C 570.742188 231.757812 571.066406 230.773438 571.414062 229.796875 C 571.765625 228.820312 572.136719 227.855469 572.535156 226.894531 C 572.929688 225.9375 573.351562 224.988281 573.792969 224.050781 C 574.238281 223.117188 574.703125 222.1875 575.191406 221.273438 C 575.679688 220.359375 576.191406 219.457031 576.722656 218.570312 C 577.257812 217.679688 577.808594 216.804688 578.386719 215.941406 C 578.960938 215.078125 579.558594 214.230469 580.175781 213.398438 C 580.792969 212.566406 581.429688 211.75 582.089844 210.945312 C 582.746094 210.144531 583.421875 209.359375 584.117188 208.59375 C 584.816406 207.824219 585.527344 207.074219 586.261719 206.339844 C 586.996094 205.605469 587.746094 204.890625 588.511719 204.195312 C 589.28125 203.5 590.066406 202.820312 590.867188 202.164062 C 591.667969 201.507812 592.484375 200.867188 593.316406 200.25 C 594.148438 199.632812 594.996094 199.035156 595.859375 198.460938 C 596.71875 197.882812 597.59375 197.328125 598.484375 196.796875 C 599.375 196.261719 600.273438 195.753906 601.1875 195.261719 C 602.101562 194.773438 603.027344 194.308594 603.964844 193.863281 C 604.902344 193.421875 605.851562 193 606.808594 192.605469 C 607.765625 192.207031 608.730469 191.835938 609.707031 191.484375 C 610.683594 191.136719 611.667969 190.8125 612.660156 190.511719 C 613.652344 190.207031 614.648438 189.933594 615.65625 189.679688 C 616.660156 189.429688 617.671875 189.203125 618.6875 189 C 619.703125 188.796875 620.722656 188.621094 621.75 188.46875 C 622.773438 188.316406 623.804688 188.1875 624.835938 188.085938 C 625.867188 187.984375 626.898438 187.910156 627.933594 187.859375 C 628.96875 187.808594 630.003906 187.78125 631.042969 187.78125 C 632.078125 187.78125 633.113281 187.808594 634.148438 187.859375 C 635.183594 187.910156 636.21875 187.984375 637.25 188.085938 C 638.28125 188.1875 639.308594 188.316406 640.332031 188.46875 C 641.359375 188.621094 642.378906 188.796875 643.394531 189 C 644.414062 189.203125 645.425781 189.429688 646.429688 189.679688 C 647.433594 189.933594 648.433594 190.207031 649.425781 190.511719 C 650.417969 190.8125 651.402344 191.136719 652.375 191.484375 C 653.351562 191.835938 654.320312 192.207031 655.277344 192.605469 C 656.234375 193 657.179688 193.421875 658.117188 193.863281 C 659.054688 194.308594 659.980469 194.773438 660.894531 195.261719 C 661.808594 195.753906 662.710938 196.261719 663.597656 196.796875 C 664.488281 197.328125 665.363281 197.882812 666.226562 198.460938 C 667.085938 199.035156 667.933594 199.632812 668.765625 200.25 C 669.597656 200.867188 670.414062 201.507812 671.214844 202.164062 C 672.019531 202.820312 672.800781 203.5 673.570312 204.195312 C 674.339844 204.890625 675.089844 205.605469 675.820312 206.339844 C 676.554688 207.074219 677.269531 207.824219 677.964844 208.59375 C 678.660156 209.359375 679.335938 210.144531 679.996094 210.945312 C 680.652344 211.75 681.289062 212.566406 681.90625 213.398438 C 682.523438 214.230469 683.121094 215.078125 683.695312 215.941406 C 684.273438 216.804688 684.828125 217.679688 685.359375 218.570312 C 685.894531 219.457031 686.402344 220.359375 686.890625 221.273438 C 687.378906 222.1875 687.847656 223.117188 688.289062 224.050781 C 688.734375 224.988281 689.152344 225.9375 689.550781 226.894531 C 689.945312 227.855469 690.320312 228.820312 690.667969 229.796875 C 691.015625 230.773438 691.34375 231.757812 691.644531 232.75 C 691.945312 233.742188 692.21875 234.742188 692.472656 235.746094 C 692.722656 236.753906 692.949219 237.765625 693.152344 238.78125 C 693.355469 239.800781 693.53125 240.820312 693.683594 241.847656 C 693.835938 242.871094 693.964844 243.902344 694.066406 244.933594 C 694.167969 245.964844 694.242188 247 694.292969 248.035156 C 694.34375 249.070312 694.371094 250.105469 694.371094 251.144531 C 694.367188 253.21875 694.265625 255.289062 694.058594 257.351562 C 693.851562 259.417969 693.546875 261.464844 693.140625 263.5 C 692.734375 265.535156 692.230469 267.542969 691.625 269.527344 C 691.023438 271.511719 690.324219 273.464844 689.53125 275.378906 C 688.734375 277.296875 687.847656 279.167969 686.871094 280.996094 C 685.894531 282.828125 684.828125 284.605469 683.675781 286.328125 C 682.523438 288.054688 681.289062 289.71875 679.972656 291.320312 C 678.65625 292.925781 677.265625 294.460938 675.800781 295.925781 C 674.335938 297.394531 672.800781 298.785156 671.195312 300.101562 C 669.59375 301.417969 667.929688 302.652344 666.207031 303.804688 C 664.484375 304.957031 662.707031 306.023438 660.878906 307.003906 C 659.050781 307.980469 657.179688 308.867188 655.265625 309.664062 C 653.351562 310.457031 651.402344 311.15625 649.417969 311.761719 C 647.433594 312.363281 645.425781 312.871094 643.390625 313.277344 C 641.359375 313.683594 639.308594 313.988281 637.246094 314.195312 C 635.183594 314.398438 633.113281 314.503906 631.042969 314.503906 Z M 631.042969 205.886719 C 629.558594 205.886719 628.082031 205.957031 626.609375 206.101562 C 625.132812 206.25 623.671875 206.464844 622.21875 206.753906 C 620.765625 207.042969 619.328125 207.402344 617.910156 207.832031 C 616.492188 208.265625 615.101562 208.761719 613.730469 209.328125 C 612.363281 209.898438 611.023438 210.53125 609.71875 211.230469 C 608.410156 211.925781 607.144531 212.6875 605.910156 213.511719 C 604.679688 214.335938 603.492188 215.21875 602.34375 216.15625 C 601.199219 217.097656 600.105469 218.09375 599.054688 219.140625 C 598.007812 220.1875 597.015625 221.285156 596.074219 222.433594 C 595.136719 223.578125 594.253906 224.765625 593.429688 226 C 592.609375 227.230469 591.847656 228.5 591.148438 229.808594 C 590.449219 231.117188 589.816406 232.453125 589.25 233.824219 C 588.683594 235.191406 588.183594 236.585938 587.753906 238.003906 C 587.324219 239.425781 586.964844 240.859375 586.675781 242.3125 C 586.386719 243.769531 586.171875 245.230469 586.023438 246.707031 C 585.878906 248.183594 585.808594 249.660156 585.808594 251.144531 C 585.808594 252.625 585.878906 254.105469 586.023438 255.578125 C 586.171875 257.054688 586.386719 258.519531 586.675781 259.972656 C 586.964844 261.425781 587.324219 262.863281 587.753906 264.28125 C 588.183594 265.699219 588.683594 267.09375 589.25 268.464844 C 589.816406 269.832031 590.449219 271.171875 591.148438 272.476562 C 591.847656 273.785156 592.609375 275.054688 593.429688 276.289062 C 594.253906 277.519531 595.136719 278.710938 596.074219 279.855469 C 597.015625 281 598.007812 282.097656 599.054688 283.144531 C 600.105469 284.195312 601.199219 285.1875 602.34375 286.128906 C 603.492188 287.070312 604.679688 287.949219 605.910156 288.773438 C 607.144531 289.597656 608.410156 290.359375 609.71875 291.058594 C 611.023438 291.757812 612.363281 292.390625 613.730469 292.957031 C 615.101562 293.523438 616.492188 294.023438 617.910156 294.453125 C 619.328125 294.882812 620.765625 295.242188 622.21875 295.53125 C 623.671875 295.820312 625.132812 296.039062 626.609375 296.183594 C 628.082031 296.328125 629.558594 296.402344 631.042969 296.402344 C 632.523438 296.402344 634 296.328125 635.476562 296.183594 C 636.949219 296.039062 638.414062 295.820312 639.867188 295.53125 C 641.320312 295.242188 642.753906 294.882812 644.171875 294.453125 C 645.589844 294.023438 646.984375 293.523438 648.351562 292.957031 C 649.722656 292.390625 651.058594 291.757812 652.363281 291.058594 C 653.671875 290.359375 654.941406 289.597656 656.171875 288.773438 C 657.40625 287.949219 658.59375 287.070312 659.738281 286.128906 C 660.882812 285.1875 661.980469 284.195312 663.027344 283.144531 C 664.074219 282.097656 665.070312 281 666.007812 279.855469 C 666.949219 278.710938 667.828125 277.519531 668.652344 276.289062 C 669.476562 275.054688 670.238281 273.785156 670.933594 272.476562 C 671.632812 271.171875 672.265625 269.832031 672.832031 268.464844 C 673.398438 267.09375 673.898438 265.699219 674.328125 264.28125 C 674.757812 262.863281 675.117188 261.425781 675.40625 259.972656 C 675.695312 258.519531 675.914062 257.054688 676.058594 255.578125 C 676.203125 254.105469 676.277344 252.625 676.277344 251.144531 C 676.273438 249.660156 676.199219 248.183594 676.054688 246.710938 C 675.90625 245.234375 675.6875 243.769531 675.398438 242.316406 C 675.109375 240.863281 674.746094 239.429688 674.316406 238.011719 C 673.886719 236.59375 673.386719 235.199219 672.820312 233.832031 C 672.25 232.464844 671.617188 231.125 670.917969 229.820312 C 670.21875 228.511719 669.460938 227.242188 668.636719 226.011719 C 667.8125 224.78125 666.929688 223.589844 665.992188 222.445312 C 665.050781 221.300781 664.058594 220.203125 663.011719 219.15625 C 661.964844 218.109375 660.867188 217.113281 659.722656 216.175781 C 658.578125 215.234375 657.390625 214.351562 656.160156 213.527344 C 654.929688 212.707031 653.660156 211.945312 652.355469 211.246094 C 651.046875 210.546875 649.710938 209.914062 648.34375 209.34375 C 646.976562 208.777344 645.582031 208.277344 644.167969 207.847656 C 642.75 207.414062 641.316406 207.054688 639.863281 206.761719 C 638.410156 206.472656 636.949219 206.253906 635.472656 206.109375 C 634 205.960938 632.523438 205.886719 631.042969 205.886719 Z M 631.042969 205.886719 "/>
</g>
<path style=" stroke:none;fill-rule:nonzero;fill:rgb(30.198669%,60.778809%,58.039856%);fill-opacity:1;" d="M 606.554688 239.441406 L 619.347656 226.640625 L 655.535156 262.851562 L 642.742188 275.652344 Z M 606.554688 239.441406 "/>
<path style=" stroke:none;fill-rule:nonzero;fill:rgb(30.198669%,60.778809%,58.039856%);fill-opacity:1;" d="M 606.554688 262.84375 L 642.742188 226.636719 L 655.535156 239.4375 L 619.347656 275.644531 Z M 606.554688 262.84375 "/>
</g>
</svg>
