<?xml version="1.0" encoding="UTF-8"?>
<svg xmlns="http://www.w3.org/2000/svg" xmlns:xlink="http://www.w3.org/1999/xlink" width="810pt" height="809.999993pt" viewBox="0 0 810 809.999993" version="1.2">
<g id="surface1">
<path style=" stroke:none;fill-rule:nonzero;fill:rgb(30.198669%,60.778809%,58.039856%);fill-opacity:1;" d="M 634.972656 277.832031 C 632.3125 272.820312 626.125 270.886719 621.078125 273.539062 C 616.0625 276.191406 614.132812 282.40625 616.785156 287.417969 C 646.625 344.019531 652.640625 408.851562 633.710938 469.980469 C 614.769531 531.101562 573.160156 581.199219 516.542969 611.035156 C 459.917969 640.871094 395.0625 646.882812 333.9375 627.957031 C 272.800781 609.03125 222.703125 567.429688 192.859375 510.832031 C 163.015625 454.21875 157.003906 389.390625 175.933594 328.269531 C 193.371094 271.96875 230.214844 225.242188 280.148438 194.871094 L 272.484375 219.609375 L 289.296875 224.808594 L 306.765625 168.394531 L 250.335938 150.925781 L 245.136719 167.734375 L 271.761719 175.976562 C 216.382812 208.894531 175.511719 260.183594 156.304688 322.175781 C 135.75 388.539062 142.277344 458.9375 174.679688 520.386719 C 207.082031 581.855469 261.484375 627.019531 327.863281 647.578125 C 353.269531 655.449219 379.269531 659.34375 405.132812 659.34375 C 446.847656 659.34375 488.191406 649.203125 526.132812 629.199219 C 587.609375 596.804688 632.792969 542.414062 653.347656 476.054688 C 673.902344 409.683594 667.375 339.285156 634.972656 277.832031 Z M 634.972656 277.832031 "/>
<path style=" stroke:none;fill-rule:nonzero;fill:rgb(30.198669%,60.778809%,58.039856%);fill-opacity:1;" d="M 305.933594 506.238281 C 302.386719 510.675781 303.105469 517.140625 307.535156 520.683594 C 309.425781 522.195312 311.699219 522.933594 313.949219 522.933594 C 316.960938 522.933594 319.949219 521.609375 321.976562 519.082031 L 393.335938 429.910156 C 396.921875 431.257812 400.765625 432.089844 404.824219 432.089844 C 423.015625 432.089844 437.8125 417.296875 437.8125 399.109375 C 437.8125 384.53125 428.238281 372.273438 415.101562 367.917969 L 415.101562 217.421875 C 415.101562 211.75 410.5 207.148438 404.824219 207.148438 C 399.152344 207.148438 394.550781 211.75 394.550781 217.421875 L 394.550781 367.929688 C 381.40625 372.273438 371.835938 384.542969 371.835938 399.121094 C 371.835938 405.765625 373.851562 411.941406 377.253906 417.128906 Z M 404.824219 386.679688 C 411.679688 386.679688 417.261719 392.257812 417.261719 399.121094 C 417.261719 405.972656 411.679688 411.550781 404.824219 411.550781 C 397.972656 411.550781 392.390625 405.972656 392.390625 399.121094 C 392.390625 392.257812 397.972656 386.679688 404.824219 386.679688 Z M 404.824219 386.679688 "/>
</g>
</svg>
