<?xml version="1.0" encoding="UTF-8"?>
<svg xmlns="http://www.w3.org/2000/svg" xmlns:xlink="http://www.w3.org/1999/xlink" width="810pt" height="809.999993pt" viewBox="0 0 810 809.999993" version="1.2">
<defs>
<clipPath id="clip1">
  <path d="M 88 442 L 268 442 L 268 649.011719 L 88 649.011719 Z M 88 442 "/>
</clipPath>
</defs>
<g id="surface1">
<path style=" stroke:none;fill-rule:nonzero;fill:rgb(30.198669%,60.778809%,58.039856%);fill-opacity:1;" d="M 576.757812 509.511719 C 558.574219 516.386719 533.511719 507.546875 527.613281 491.828125 C 525.648438 486.914062 519.753906 484.460938 514.839844 486.425781 C 509.921875 488.390625 507.464844 494.285156 509.433594 499.195312 C 515.820312 515.40625 532.53125 527.195312 550.710938 530.632812 L 550.710938 541.4375 C 550.710938 546.839844 555.136719 551.261719 560.542969 551.261719 C 565.945312 551.261719 570.371094 546.839844 570.371094 541.4375 L 570.371094 531.125 C 574.792969 530.632812 579.214844 529.648438 583.636719 527.683594 C 603.296875 520.316406 613.125 503.125 606.734375 486.425781 C 599.855469 467.265625 580.691406 462.847656 563.980469 458.425781 C 552.1875 455.480469 540.882812 452.53125 535.96875 445.164062 C 532.53125 439.761719 532.039062 433.867188 535.476562 428.953125 C 541.867188 420.113281 557.101562 418.640625 569.878906 420.605469 C 580.691406 422.570312 591.007812 430.425781 593.46875 438.285156 C 594.941406 443.691406 600.839844 446.144531 605.753906 444.671875 C 611.160156 443.199219 613.617188 437.304688 612.140625 432.390625 C 607.226562 417.164062 591.007812 404.394531 573.316406 400.957031 C 572.335938 400.957031 571.351562 400.464844 570.859375 400.464844 L 570.859375 387.203125 C 570.859375 381.800781 566.4375 377.378906 561.03125 377.378906 C 555.625 377.378906 551.203125 381.800781 551.203125 387.203125 L 551.203125 400.464844 C 539.410156 401.9375 527.613281 406.851562 520.242188 417.164062 C 511.890625 428.464844 511.890625 443.691406 520.242188 455.96875 C 529.582031 469.230469 545.796875 473.652344 560.539062 477.089844 C 576.265625 481.019531 586.585938 483.96875 589.535156 492.808594 C 591.5 501.160156 582.164062 507.546875 576.757812 509.511719 Z M 576.757812 509.511719 "/>
<path style=" stroke:none;fill-rule:nonzero;fill:rgb(30.198669%,60.778809%,58.039856%);fill-opacity:1;" d="M 197.867188 517.859375 C 204.746094 518.84375 210.644531 524.246094 212.117188 528.175781 C 213.589844 533.578125 219.488281 536.035156 224.402344 534.5625 C 229.808594 533.089844 232.265625 527.195312 230.792969 522.28125 C 226.859375 510.492188 215.066406 501.160156 201.796875 498.703125 L 201.796875 491.828125 C 201.796875 486.425781 197.375 482.003906 191.96875 482.003906 C 186.5625 482.003906 182.140625 486.425781 182.140625 491.828125 L 182.140625 498.703125 C 173.785156 500.175781 166.414062 504.105469 161.007812 510.984375 C 154.128906 519.824219 154.128906 532.105469 161.007812 541.4375 C 167.886719 551.753906 180.175781 554.699219 190.984375 557.648438 C 201.304688 560.105469 207.695312 562.070312 209.167969 566.488281 C 210.644531 570.417969 204.746094 573.367188 202.78125 574.347656 C 191.476562 578.769531 175.75 573.367188 171.820312 563.542969 C 169.855469 558.628906 163.957031 556.175781 159.042969 558.140625 C 154.128906 560.105469 151.671875 566 153.636719 570.910156 C 158.058594 582.699219 169.363281 591.050781 182.632812 593.996094 L 182.632812 599.398438 C 182.632812 604.800781 187.054688 609.222656 192.460938 609.222656 C 197.867188 609.222656 202.289062 604.800781 202.289062 599.398438 L 202.289062 594.980469 C 204.746094 594.488281 207.203125 593.996094 209.660156 593.015625 C 224.894531 587.121094 232.265625 573.367188 227.84375 560.105469 C 222.4375 545.367188 207.695312 541.4375 195.898438 538.492188 C 188.035156 536.527344 180.664062 534.5625 177.71875 530.140625 C 168.871094 518.84375 191.476562 516.878906 197.867188 517.859375 Z M 197.867188 517.859375 "/>
<path style=" stroke:none;fill-rule:nonzero;fill:rgb(30.198669%,60.778809%,58.039856%);fill-opacity:1;" d="M 420.976562 516.386719 C 421.464844 516.386719 422.449219 516.878906 422.941406 516.878906 C 422.941406 516.386719 422.941406 516.386719 422.941406 515.894531 C 422.449219 515.894531 421.957031 516.386719 420.976562 516.386719 Z M 420.976562 516.386719 "/>
<path style=" stroke:none;fill-rule:nonzero;fill:rgb(30.198669%,60.778809%,58.039856%);fill-opacity:1;" d="M 661.285156 349.378906 C 653.421875 337.589844 645.066406 326.785156 636.710938 316.46875 C 627.375 304.191406 618.039062 292.890625 610.175781 279.628906 C 612.632812 264.402344 618.039062 231.984375 623.933594 218.230469 C 627.867188 209.878906 633.765625 203.003906 633.765625 193.179688 C 633.765625 182.863281 626.394531 174.515625 616.5625 172.058594 C 609.683594 170.585938 602.3125 172.550781 594.449219 177.460938 C 588.0625 181.390625 578.722656 190.722656 573.316406 180.898438 C 571.351562 177.460938 568.402344 172.550781 563.980469 170.09375 C 549.730469 160.761719 539.410156 175.988281 535.476562 181.390625 C 533.511719 183.847656 529.582031 190.230469 526.140625 188.265625 C 519.753906 184.828125 515.820312 178.933594 508.941406 176.480469 C 497.636719 172.058594 485.351562 179.917969 482.894531 191.214844 C 480.929688 201.039062 486.828125 209.878906 491.742188 217.738281 C 491.742188 217.738281 502.550781 235.421875 509.921875 279.140625 C 502.0625 291.417969 492.722656 303.699219 483.878906 315.980469 C 469.625 335.136719 455.867188 354.785156 444.070312 375.90625 C 450.460938 378.359375 456.359375 381.800781 461.761719 384.746094 C 473.558594 365.097656 486.335938 345.941406 500.09375 327.765625 C 508.449219 315.980469 517.296875 304.191406 525.15625 291.910156 L 595.433594 291.910156 C 610.175781 315.980469 629.832031 336.117188 645.558594 359.695312 C 675.042969 404.886719 702.074219 455.96875 698.632812 518.84375 C 694.703125 589.574219 637.203125 624.449219 582.65625 627.890625 C 551.695312 629.855469 519.753906 628.871094 491.25 615.609375 C 488.300781 621.503906 484.371094 626.90625 479.945312 631.820312 C 498.621094 641.152344 519.261719 646.0625 538.917969 647.535156 C 553.660156 648.519531 568.894531 648.519531 583.636719 647.535156 C 645.066406 643.605469 713.375 601.855469 718.289062 519.824219 C 721.238281 451.550781 692.734375 397.515625 661.285156 349.378906 Z M 605.753906 210.863281 C 599.363281 226.089844 593.46875 257.527344 591.007812 272.261719 L 527.613281 272.261719 C 523.683594 249.175781 518.769531 224.125 505.5 204.476562 C 503.535156 201.53125 501.078125 197.601562 501.078125 195.144531 C 502.550781 196.125 504.519531 197.601562 506.484375 199.074219 C 519.261719 210.371094 534.003906 211.84375 546.289062 198.089844 C 546.78125 197.601562 554.152344 188.757812 553.660156 188.265625 C 558.574219 196.125 563.980469 203.496094 573.316406 205.460938 C 583.148438 207.425781 591.5 203.003906 599.855469 197.109375 C 601.328125 196.125 613.617188 187.285156 613.617188 193.671875 C 614.105469 200.054688 608.210938 205.949219 605.753906 210.863281 Z M 605.753906 210.863281 "/>
<path style=" stroke:none;fill-rule:nonzero;fill:rgb(30.198669%,60.778809%,58.039856%);fill-opacity:1;" d="M 451.933594 603.328125 C 441.125 617.082031 414.09375 629.363281 378.710938 629.363281 C 343.328125 629.363281 316.300781 617.082031 305.488281 603.328125 C 296.152344 598.417969 287.796875 592.523438 280.917969 585.644531 C 280.917969 587.121094 280.425781 588.59375 280.425781 589.574219 C 280.425781 622.484375 323.671875 648.519531 378.710938 648.519531 C 433.753906 648.519531 476.996094 622.484375 476.996094 589.574219 C 476.996094 588.101562 476.996094 586.628906 476.507812 585.644531 C 470.117188 592.523438 461.761719 598.417969 451.933594 603.328125 Z M 451.933594 603.328125 "/>
<path style=" stroke:none;fill-rule:nonzero;fill:rgb(30.198669%,60.778809%,58.039856%);fill-opacity:1;" d="M 451.933594 554.210938 C 441.125 568.453125 414.09375 580.242188 378.710938 580.242188 C 343.328125 580.242188 316.300781 567.964844 305.488281 554.210938 C 296.152344 549.296875 287.796875 543.402344 280.917969 536.527344 C 280.917969 538 280.425781 539.472656 280.425781 540.457031 C 280.425781 573.367188 323.671875 599.398438 378.710938 599.398438 C 433.753906 599.398438 476.996094 573.367188 476.996094 540.457031 C 476.996094 538.980469 476.996094 537.507812 476.507812 536.527344 C 470.117188 543.402344 461.761719 549.296875 451.933594 554.210938 Z M 451.933594 554.210938 "/>
<g clip-path="url(#clip1)" clip-rule="nonzero">
<path style=" stroke:none;fill-rule:nonzero;fill:rgb(30.198669%,60.778809%,58.039856%);fill-opacity:1;" d="M 191.96875 629.363281 C 145.773438 629.363281 108.425781 592.03125 108.425781 545.859375 C 108.425781 499.6875 145.773438 462.355469 191.96875 462.355469 C 220.960938 462.355469 246.027344 477.089844 261.261719 499.195312 C 260.769531 496.738281 260.769531 494.285156 260.769531 491.828125 C 260.769531 484.949219 261.75 478.566406 264.207031 472.179688 C 245.535156 454.003906 219.980469 442.707031 191.96875 442.707031 C 134.960938 442.707031 88.769531 488.878906 88.769531 545.859375 C 88.769531 602.835938 134.960938 649.011719 191.96875 649.011719 C 221.453125 649.011719 247.992188 636.238281 267.15625 616.589844 C 263.71875 609.222656 261.261719 601.363281 260.769531 593.015625 C 246.027344 615.117188 220.472656 629.363281 191.96875 629.363281 Z M 191.96875 629.363281 "/>
</g>
<path style=" stroke:none;fill-rule:nonzero;fill:rgb(30.198669%,60.778809%,58.039856%);fill-opacity:1;" d="M 451.933594 505.089844 C 441.125 519.335938 414.09375 531.125 378.710938 531.125 C 343.328125 531.125 316.300781 518.84375 305.488281 505.089844 C 296.152344 500.175781 287.796875 494.285156 280.917969 487.40625 C 280.917969 488.878906 280.425781 490.355469 280.425781 491.335938 C 280.425781 524.246094 323.671875 550.28125 378.710938 550.28125 C 433.753906 550.28125 476.996094 524.246094 476.996094 491.335938 C 476.996094 489.863281 476.996094 488.390625 476.507812 487.40625 C 470.117188 494.285156 461.761719 500.175781 451.933594 505.089844 Z M 451.933594 505.089844 "/>
<path style=" stroke:none;fill-rule:nonzero;fill:rgb(30.198669%,60.778809%,58.039856%);fill-opacity:1;" d="M 378.710938 383.765625 C 323.671875 383.765625 280.425781 409.796875 280.425781 442.707031 C 280.425781 475.617188 323.671875 501.652344 378.710938 501.652344 C 433.753906 501.652344 476.996094 475.617188 476.996094 442.707031 C 476.996094 409.796875 433.753906 383.765625 378.710938 383.765625 Z M 378.710938 482.003906 C 332.515625 482.003906 300.082031 461.375 300.082031 442.707031 C 300.082031 424.042969 332.515625 403.410156 378.710938 403.410156 C 424.90625 403.410156 457.339844 424.042969 457.339844 442.707031 C 457.339844 461.375 424.90625 482.003906 378.710938 482.003906 Z M 378.710938 482.003906 "/>
</g>
</svg>
