<?xml version="1.0" encoding="UTF-8"?>
<svg xmlns="http://www.w3.org/2000/svg" xmlns:xlink="http://www.w3.org/1999/xlink" width="810pt" height="809.999993pt" viewBox="0 0 810 809.999993" version="1.2">
<defs>
<clipPath id="clip1">
  <path d="M 521 202 L 745.402344 202 L 745.402344 225 L 521 225 Z M 521 202 "/>
</clipPath>
<clipPath id="clip2">
  <path d="M 521 250 L 745.402344 250 L 745.402344 272 L 521 272 Z M 521 250 "/>
</clipPath>
<clipPath id="clip3">
  <path d="M 521 298 L 745.402344 298 L 745.402344 320 L 521 320 Z M 521 298 "/>
</clipPath>
<clipPath id="clip4">
  <path d="M 521 346 L 745.402344 346 L 745.402344 368 L 521 368 Z M 521 346 "/>
</clipPath>
<clipPath id="clip5">
  <path d="M 521 394 L 745.402344 394 L 745.402344 416 L 521 416 Z M 521 394 "/>
</clipPath>
<clipPath id="clip6">
  <path d="M 64.402344 170.839844 L 377 170.839844 L 377 638.839844 L 64.402344 638.839844 Z M 64.402344 170.839844 "/>
</clipPath>
<clipPath id="clip7">
  <path d="M 330 415 L 554 415 L 554 638.839844 L 330 638.839844 Z M 330 415 "/>
</clipPath>
</defs>
<g id="surface1">
<path style=" stroke:none;fill-rule:nonzero;fill:rgb(30.198669%,60.778809%,58.039856%);fill-opacity:1;" d="M 459.167969 230.933594 C 462.894531 235.1875 469.277344 235.722656 473.535156 232.53125 L 501.199219 211.257812 C 505.988281 207.535156 506.519531 201.152344 503.328125 196.367188 C 499.605469 191.578125 493.21875 191.046875 488.429688 194.238281 L 468.746094 209.660156 L 466.085938 206.472656 C 462.363281 202.214844 455.445312 201.683594 451.1875 205.40625 C 446.933594 209.128906 446.402344 216.042969 450.125 220.296875 C 450.125 220.296875 459.167969 230.933594 459.167969 230.933594 Z M 459.167969 230.933594 "/>
<path style=" stroke:none;fill-rule:nonzero;fill:rgb(30.198669%,60.778809%,58.039856%);fill-opacity:1;" d="M 459.167969 278.796875 C 462.894531 283.050781 469.277344 283.585938 473.535156 280.394531 L 501.199219 259.121094 C 505.988281 255.398438 506.519531 249.015625 503.328125 244.230469 C 499.605469 239.445312 493.21875 238.910156 488.429688 242.101562 L 468.746094 257.523438 L 466.085938 254.335938 C 462.363281 250.078125 455.445312 249.546875 451.1875 253.269531 C 446.933594 256.992188 446.402344 263.90625 450.125 268.160156 C 450.125 268.160156 459.167969 278.796875 459.167969 278.796875 Z M 459.167969 278.796875 "/>
<path style=" stroke:none;fill-rule:nonzero;fill:rgb(30.198669%,60.778809%,58.039856%);fill-opacity:1;" d="M 459.167969 326.660156 C 462.894531 330.382812 469.277344 331.449219 473.535156 328.257812 L 501.199219 306.984375 C 505.988281 303.261719 506.519531 296.878906 503.328125 292.09375 C 499.605469 287.308594 493.21875 286.773438 488.429688 289.964844 L 468.746094 305.390625 L 466.085938 302.199219 C 462.363281 297.945312 455.445312 297.410156 451.1875 301.132812 C 446.933594 304.855469 446.402344 311.769531 450.125 316.023438 C 450.125 316.023438 459.167969 326.660156 459.167969 326.660156 Z M 459.167969 326.660156 "/>
<path style=" stroke:none;fill-rule:nonzero;fill:rgb(30.198669%,60.778809%,58.039856%);fill-opacity:1;" d="M 459.167969 374.523438 C 462.894531 378.246094 469.277344 379.3125 473.535156 376.121094 L 501.199219 354.847656 C 505.988281 351.125 506.519531 344.742188 503.328125 339.957031 C 499.605469 335.171875 493.21875 334.640625 488.429688 337.828125 L 468.746094 353.253906 L 466.085938 350.0625 C 462.363281 345.808594 455.445312 345.273438 451.1875 348.996094 C 446.933594 352.722656 446.402344 359.632812 450.125 363.890625 C 450.125 363.890625 459.167969 374.523438 459.167969 374.523438 Z M 459.167969 374.523438 "/>
<g clip-path="url(#clip1)" clip-rule="nonzero">
<path style=" stroke:none;fill-rule:nonzero;fill:rgb(30.198669%,60.778809%,58.039856%);fill-opacity:1;" d="M 532.589844 224.019531 L 734.761719 224.019531 C 740.613281 224.019531 745.402344 219.234375 745.402344 213.382812 C 745.402344 207.535156 740.613281 202.75 734.761719 202.75 L 532.589844 202.75 C 526.738281 202.75 521.949219 207.535156 521.949219 213.382812 C 521.949219 219.234375 526.738281 224.019531 532.589844 224.019531 Z M 532.589844 224.019531 "/>
</g>
<g clip-path="url(#clip2)" clip-rule="nonzero">
<path style=" stroke:none;fill-rule:nonzero;fill:rgb(30.198669%,60.778809%,58.039856%);fill-opacity:1;" d="M 734.761719 250.613281 L 532.589844 250.613281 C 526.738281 250.613281 521.949219 255.398438 521.949219 261.25 C 521.949219 267.097656 526.738281 271.882812 532.589844 271.882812 L 734.761719 271.882812 C 740.613281 271.882812 745.402344 267.097656 745.402344 261.25 C 745.402344 255.398438 740.613281 250.613281 734.761719 250.613281 Z M 734.761719 250.613281 "/>
</g>
<g clip-path="url(#clip3)" clip-rule="nonzero">
<path style=" stroke:none;fill-rule:nonzero;fill:rgb(30.198669%,60.778809%,58.039856%);fill-opacity:1;" d="M 734.761719 298.476562 L 532.589844 298.476562 C 526.738281 298.476562 521.949219 303.261719 521.949219 309.113281 C 521.949219 314.960938 526.738281 319.746094 532.589844 319.746094 L 734.761719 319.746094 C 740.613281 319.746094 745.402344 314.960938 745.402344 309.113281 C 745.402344 303.261719 740.613281 298.476562 734.761719 298.476562 Z M 734.761719 298.476562 "/>
</g>
<g clip-path="url(#clip4)" clip-rule="nonzero">
<path style=" stroke:none;fill-rule:nonzero;fill:rgb(30.198669%,60.778809%,58.039856%);fill-opacity:1;" d="M 734.761719 346.339844 L 532.589844 346.339844 C 526.738281 346.339844 521.949219 351.125 521.949219 356.976562 C 521.949219 362.824219 526.738281 367.613281 532.589844 367.613281 L 734.761719 367.613281 C 740.613281 367.613281 745.402344 362.824219 745.402344 356.976562 C 745.402344 351.125 740.613281 346.339844 734.761719 346.339844 Z M 734.761719 346.339844 "/>
</g>
<g clip-path="url(#clip5)" clip-rule="nonzero">
<path style=" stroke:none;fill-rule:nonzero;fill:rgb(30.198669%,60.778809%,58.039856%);fill-opacity:1;" d="M 734.761719 394.203125 L 532.589844 394.203125 C 526.738281 394.203125 521.949219 398.988281 521.949219 404.839844 C 521.949219 410.6875 526.738281 415.476562 532.589844 415.476562 L 734.761719 415.476562 C 740.613281 415.476562 745.402344 410.6875 745.402344 404.839844 C 745.402344 398.988281 740.613281 394.203125 734.761719 394.203125 Z M 734.761719 394.203125 "/>
</g>
<path style=" stroke:none;fill-rule:nonzero;fill:rgb(30.198669%,60.778809%,58.039856%);fill-opacity:1;" d="M 488.964844 385.695312 L 470.875 399.519531 C 477.789062 402.710938 483.644531 407.496094 487.898438 413.347656 L 501.730469 402.710938 C 506.519531 398.988281 507.050781 392.605469 503.859375 387.820312 C 500.136719 383.035156 493.75 381.972656 488.964844 385.695312 Z M 488.964844 385.695312 "/>
<g clip-path="url(#clip6)" clip-rule="nonzero">
<path style=" stroke:none;fill-rule:nonzero;fill:rgb(30.198669%,60.778809%,58.039856%);fill-opacity:1;" d="M 344.78125 617.566406 C 344.78125 617.566406 344.25 617.566406 344.78125 617.566406 L 92.066406 617.566406 C 88.875 617.566406 86.214844 614.90625 86.214844 611.183594 L 86.214844 511.734375 C 85.683594 470.253906 119.203125 436.746094 159.636719 436.746094 L 182.511719 436.746094 L 242.101562 513.328125 C 246.355469 518.648438 254.871094 518.648438 259.125 513.328125 L 318.714844 436.746094 C 318.714844 436.746094 343.1875 436.746094 344.25 436.746094 L 351.167969 429.835938 C 355.421875 425.578125 360.742188 421.855469 366.0625 419.199219 C 358.082031 417.070312 349.570312 415.476562 340.527344 415.476562 L 313.925781 415.476562 C 312.859375 404.308594 314.457031 394.203125 317.117188 386.757812 C 321.90625 379.3125 325.097656 370.800781 327.226562 361.761719 C 328.289062 361.761719 342.65625 361.761719 342.65625 361.761719 C 359.148438 361.761719 371.917969 348.464844 371.917969 332.511719 L 371.917969 295.816406 C 371.917969 284.648438 365.53125 274.542969 355.957031 269.757812 L 355.957031 250.078125 C 357.019531 206.472656 317.117188 170.839844 268.703125 170.839844 L 232.523438 170.839844 C 184.109375 170.839844 144.207031 206.472656 144.207031 250.078125 L 144.207031 269.757812 C 134.628906 274.542969 128.246094 284.648438 128.246094 295.816406 L 128.246094 332.511719 C 128.246094 349 141.546875 361.761719 157.507812 361.761719 C 157.507812 361.761719 172.40625 361.761719 172.9375 361.761719 C 175.066406 370.800781 178.257812 379.3125 183.046875 386.757812 C 185.171875 394.203125 187.300781 403.773438 186.238281 415.476562 L 159.636719 415.476562 C 107.496094 415.476562 64.402344 458.550781 64.402344 511.734375 L 64.402344 611.183594 C 64.402344 626.074219 76.640625 638.839844 91.535156 638.839844 L 376.703125 638.839844 C 367.128906 636.710938 358.617188 631.925781 351.167969 624.480469 Z M 250.613281 489.398438 L 204.859375 430.898438 C 206.453125 424.515625 207.519531 418.667969 207.519531 412.816406 C 219.753906 421.324219 234.652344 426.113281 250.082031 426.113281 C 265.511719 426.113281 280.40625 421.324219 292.644531 412.816406 C 293.175781 418.667969 293.707031 424.515625 295.304688 430.898438 Z M 309.136719 342.085938 C 309.136719 376.652344 283.066406 404.839844 250.613281 404.839844 C 218.160156 404.839844 192.089844 376.652344 192.089844 342.085938 L 192.089844 275.605469 C 192.089844 259.121094 204.859375 245.292969 220.289062 245.292969 L 280.9375 245.292969 C 296.367188 245.292969 309.136719 258.589844 309.136719 275.605469 Z M 343.71875 287.839844 C 347.976562 287.839844 351.699219 291.5625 351.699219 295.816406 L 351.699219 332.511719 C 351.699219 336.765625 347.976562 340.488281 343.71875 340.488281 L 330.417969 340.488281 L 330.417969 287.839844 Z M 170.808594 341.019531 L 157.507812 341.019531 C 153.25 341.019531 149.527344 337.296875 149.527344 333.042969 L 149.527344 296.347656 C 149.527344 292.09375 153.25 288.371094 157.507812 288.371094 L 170.808594 288.371094 Z M 171.871094 266.566406 C 171.339844 266.566406 165.488281 266.566406 165.488281 266.566406 L 165.488281 250.078125 C 165.488281 218.171875 195.8125 192.113281 232.523438 192.113281 L 268.703125 192.113281 C 305.945312 192.113281 335.738281 218.171875 335.738281 250.078125 L 335.738281 266.566406 C 335.738281 266.566406 329.886719 266.566406 329.886719 266.566406 C 325.628906 242.632812 305.414062 224.019531 281.472656 224.019531 L 220.289062 224.019531 C 195.8125 224.019531 175.597656 242.632812 171.871094 266.566406 Z M 171.871094 266.566406 "/>
</g>
<g clip-path="url(#clip7)" clip-rule="nonzero">
<path style=" stroke:none;fill-rule:nonzero;fill:rgb(30.198669%,60.778809%,58.039856%);fill-opacity:1;" d="M 528.867188 491.523438 C 536.847656 479.824219 535.78125 462.808594 524.609375 452.171875 L 517.691406 445.257812 C 511.839844 439.40625 503.328125 435.683594 495.347656 435.683594 C 488.964844 435.683594 483.109375 437.28125 478.324219 441.003906 C 475.664062 426.113281 462.363281 415.476562 446.933594 415.476562 L 436.824219 415.476562 C 421.394531 415.476562 408.625 426.113281 405.964844 440.472656 C 401.179688 437.28125 395.324219 435.152344 388.941406 435.152344 C 380.429688 435.152344 372.449219 438.34375 366.597656 444.726562 L 359.679688 451.640625 C 348.507812 462.273438 347.441406 479.292969 355.421875 490.992188 C 341.058594 493.652344 330.417969 506.949219 330.417969 522.371094 L 330.417969 532.476562 C 330.417969 547.898438 341.058594 560.660156 355.421875 563.320312 C 346.910156 575.019531 348.507812 592.039062 359.679688 602.675781 L 366.597656 609.589844 C 372.449219 615.4375 380.960938 619.160156 388.941406 619.160156 C 395.324219 619.160156 401.179688 617.566406 405.964844 613.84375 C 408.625 628.203125 421.394531 638.839844 436.824219 638.839844 L 446.933594 638.839844 C 462.363281 638.839844 475.128906 628.203125 477.789062 613.84375 C 482.578125 617.035156 488.429688 619.160156 494.816406 619.160156 C 503.328125 619.160156 511.308594 615.972656 517.160156 609.589844 L 524.078125 602.675781 C 535.25 591.507812 536.3125 575.019531 528.332031 563.320312 C 542.699219 560.660156 553.339844 547.898438 553.339844 532.476562 L 553.339844 522.371094 C 553.871094 506.949219 543.230469 493.652344 528.867188 491.523438 Z M 532.589844 531.945312 C 532.589844 537.261719 528.332031 542.046875 523.546875 542.046875 L 515.03125 542.046875 C 512.371094 542.046875 510.777344 543.644531 509.710938 546.300781 C 508.117188 551.621094 505.988281 556.9375 503.328125 561.726562 C 502.265625 563.851562 502.265625 566.511719 504.390625 568.105469 L 510.246094 573.957031 C 513.96875 577.679688 513.4375 583.53125 509.710938 587.253906 L 502.796875 594.167969 C 499.070312 597.890625 493.21875 598.953125 489.496094 594.699219 C 489.496094 594.699219 483.644531 588.847656 483.644531 588.847656 C 482.046875 587.253906 479.386719 586.722656 477.257812 587.785156 C 472.46875 590.445312 467.683594 592.570312 461.828125 594.167969 C 459.703125 594.699219 457.574219 596.824219 457.574219 599.484375 L 457.574219 607.992188 C 457.574219 612.78125 453.316406 617.035156 447.464844 617.035156 L 437.355469 617.035156 C 432.035156 617.035156 427.246094 612.78125 427.246094 607.992188 L 427.246094 599.484375 C 427.246094 596.824219 425.652344 594.699219 422.992188 594.167969 C 417.671875 592.570312 412.351562 590.445312 407.5625 587.785156 C 405.433594 586.722656 402.773438 586.722656 401.179688 588.847656 C 401.179688 588.847656 395.324219 594.699219 395.324219 594.699219 C 391.601562 598.421875 385.21875 597.355469 382.023438 594.167969 L 375.109375 587.253906 C 371.382812 583.53125 370.851562 577.148438 374.042969 573.957031 L 379.898438 568.105469 C 381.492188 566.511719 382.023438 563.851562 380.960938 561.726562 C 378.300781 556.9375 376.171875 551.621094 374.578125 546.300781 C 374.042969 544.175781 371.917969 542.046875 369.257812 542.046875 L 360.742188 542.046875 C 355.957031 542.046875 351.699219 537.792969 351.699219 531.945312 L 351.699219 521.839844 C 351.699219 516.519531 355.957031 511.734375 360.742188 511.734375 L 369.257812 511.734375 C 371.917969 511.734375 374.042969 510.140625 374.578125 507.480469 C 376.171875 502.160156 378.300781 496.84375 380.960938 492.058594 C 382.023438 489.929688 382.023438 487.269531 379.898438 485.675781 L 374.042969 479.824219 C 370.320312 476.101562 370.851562 470.253906 375.109375 466.53125 C 375.109375 466.53125 382.023438 459.617188 382.023438 459.617188 C 385.21875 455.894531 391.601562 454.828125 395.324219 459.085938 C 395.324219 459.085938 401.179688 464.933594 401.179688 464.933594 C 402.773438 466.53125 405.433594 467.0625 407.5625 465.996094 C 412.351562 463.339844 417.671875 461.210938 422.992188 459.617188 C 425.121094 459.085938 427.246094 456.957031 427.246094 454.296875 L 427.246094 445.789062 C 427.246094 441.003906 431.503906 436.746094 437.355469 436.746094 L 447.464844 436.746094 C 452.785156 436.746094 457.574219 440.472656 457.574219 445.789062 L 457.574219 454.296875 C 457.574219 456.957031 459.167969 459.085938 461.828125 459.617188 C 467.148438 461.210938 472.46875 463.339844 477.257812 465.996094 C 479.386719 467.0625 482.046875 467.0625 483.644531 464.933594 C 483.644531 464.933594 489.496094 459.085938 489.496094 459.085938 C 493.21875 455.363281 499.605469 456.425781 502.796875 459.617188 L 509.710938 466.53125 C 513.4375 470.253906 513.96875 476.632812 510.246094 479.824219 L 504.390625 485.675781 C 502.796875 487.269531 502.265625 489.929688 503.328125 492.058594 C 505.988281 496.84375 508.117188 502.160156 509.710938 507.480469 C 510.246094 509.605469 512.371094 511.734375 515.03125 511.734375 L 523.546875 511.734375 C 528.332031 511.734375 532.589844 515.988281 532.589844 521.839844 Z M 532.589844 531.945312 "/>
</g>
<path style=" stroke:none;fill-rule:nonzero;fill:rgb(30.198669%,60.778809%,58.039856%);fill-opacity:1;" d="M 442.144531 484.613281 C 418.734375 484.613281 399.582031 503.757812 399.582031 527.15625 C 399.582031 550.558594 418.734375 569.703125 442.144531 569.703125 C 465.554688 569.703125 484.707031 550.558594 484.707031 527.15625 C 484.707031 503.757812 465.554688 484.613281 442.144531 484.613281 Z M 442.144531 548.429688 C 430.441406 548.429688 420.863281 538.855469 420.863281 527.15625 C 420.863281 515.457031 430.441406 505.882812 442.144531 505.882812 C 453.847656 505.882812 463.425781 515.457031 463.425781 527.15625 C 463.425781 538.855469 453.847656 548.429688 442.144531 548.429688 Z M 442.144531 548.429688 "/>
<path style=" stroke:none;fill-rule:nonzero;fill:rgb(30.198669%,60.778809%,58.039856%);fill-opacity:1;" d="M 261.253906 548.429688 C 261.253906 549.128906 261.183594 549.820312 261.050781 550.503906 C 260.914062 551.191406 260.710938 551.855469 260.445312 552.5 C 260.175781 553.144531 259.847656 553.757812 259.460938 554.339844 C 259.070312 554.917969 258.632812 555.457031 258.136719 555.949219 C 257.644531 556.445312 257.105469 556.886719 256.523438 557.273438 C 255.945312 557.660156 255.332031 557.988281 254.683594 558.257812 C 254.039062 558.523438 253.375 558.726562 252.6875 558.863281 C 252.003906 559 251.3125 559.066406 250.613281 559.066406 C 249.914062 559.066406 249.222656 559 248.539062 558.863281 C 247.851562 558.726562 247.1875 558.523438 246.542969 558.257812 C 245.894531 557.988281 245.28125 557.660156 244.703125 557.273438 C 244.121094 556.886719 243.582031 556.445312 243.089844 555.949219 C 242.59375 555.457031 242.152344 554.917969 241.765625 554.339844 C 241.378906 553.757812 241.050781 553.144531 240.78125 552.5 C 240.515625 551.855469 240.3125 551.191406 240.175781 550.503906 C 240.039062 549.820312 239.972656 549.128906 239.972656 548.429688 C 239.972656 547.730469 240.039062 547.039062 240.175781 546.355469 C 240.3125 545.667969 240.515625 545.003906 240.78125 544.359375 C 241.050781 543.714844 241.378906 543.101562 241.765625 542.519531 C 242.152344 541.941406 242.59375 541.402344 243.089844 540.910156 C 243.582031 540.414062 244.121094 539.972656 244.703125 539.585938 C 245.28125 539.199219 245.894531 538.871094 246.542969 538.601562 C 247.1875 538.335938 247.851562 538.132812 248.539062 537.996094 C 249.222656 537.863281 249.914062 537.792969 250.613281 537.792969 C 251.3125 537.792969 252.003906 537.863281 252.6875 537.996094 C 253.375 538.132812 254.039062 538.335938 254.683594 538.601562 C 255.332031 538.871094 255.945312 539.199219 256.523438 539.585938 C 257.105469 539.972656 257.644531 540.414062 258.136719 540.910156 C 258.632812 541.402344 259.070312 541.941406 259.460938 542.519531 C 259.847656 543.101562 260.175781 543.714844 260.445312 544.359375 C 260.710938 545.003906 260.914062 545.667969 261.050781 546.355469 C 261.183594 547.039062 261.253906 547.730469 261.253906 548.429688 Z M 261.253906 548.429688 "/>
<path style=" stroke:none;fill-rule:nonzero;fill:rgb(30.198669%,60.778809%,58.039856%);fill-opacity:1;" d="M 689.007812 443.128906 C 687.410156 439.40625 684.21875 437.28125 680.496094 436.746094 C 676.769531 436.214844 673.046875 437.8125 670.917969 441.003906 L 650.699219 467.59375 C 646.976562 472.378906 648.039062 478.761719 652.828125 482.484375 C 656.554688 485.144531 660.808594 485.144531 664.535156 483.015625 C 647.507812 567.574219 577.28125 575.019531 574.089844 575.019531 C 568.234375 575.550781 563.980469 580.871094 564.511719 586.722656 C 565.042969 592.039062 569.832031 596.292969 575.152344 596.292969 C 575.683594 596.292969 575.683594 596.292969 576.214844 596.292969 C 577.28125 596.292969 666.128906 587.785156 685.816406 486.207031 C 687.941406 487.800781 690.070312 488.867188 692.199219 488.867188 C 699.648438 488.867188 704.96875 480.890625 701.777344 473.976562 Z M 689.007812 443.128906 "/>
</g>
</svg>
