<?xml version="1.0"?>
<svg xmlns="http://www.w3.org/2000/svg" xmlns:xlink="http://www.w3.org/1999/xlink" xmlns:svgjs="http://svgjs.com/svgjs" version="1.1" width="512" height="512" x="0" y="0" viewBox="0 0 64 64" style="enable-background:new 0 0 512 512" xml:space="preserve" class=""><g><g xmlns="http://www.w3.org/2000/svg"><path d="m59 1h-20c-2.206 0-4 1.794-4 4v14c0 2.206 1.794 4 4 4h2.382l-2.276 4.553c-.192.385-.117.85.188 1.154.191.192.447.293.706.293.151 0 .305-.035.447-.105l11.789-5.895h6.764c2.206 0 4-1.794 4-4v-14c0-2.206-1.794-4-4-4zm2 18c0 1.103-.897 2-2 2h-7c-.155 0-.309.036-.447.105l-9.317 4.659 1.659-3.317c.155-.31.138-.678-.044-.973-.183-.294-.504-.474-.851-.474h-4c-1.103 0-2-.897-2-2v-14c0-1.103.897-2 2-2h20c1.103 0 2 .897 2 2z" fill="#4d9b94" data-original="#000000" style=""/><path d="m59.582 44.14-5.582-1.86v-.869c2.928-1.19 5-4.061 5-7.411 0-4.411-3.589-8-8-8s-8 3.589-8 8c0 3.35 2.072 6.221 5 7.411v.869l-5.582 1.86c-1.773.591-3.037 2.103-3.344 3.899l-12.074-3.774v-2.618c2.43-1.411 4.22-3.809 4.798-6.647h1.202c1.654 0 3-1.346 3-3s-1.346-3-3-3h-.918l.98-2.271c1.027-2.382.844-5.131-.491-7.355-.846-1.41-2.083-2.515-3.579-3.195l-2.791-1.271c-3.294-1.5-7.335-1.062-10.231 1.11l-1.577 1.182.002.003c-1.56.407-2.937 1.411-3.783 2.821-1.102 1.836-1.188 4.076-.23 5.99l1.493 2.986h-.875c-1.654 0-3 1.346-3 3s1.346 3 3 3h1.202c.579 2.838 2.368 5.236 4.798 6.647v2.618l-12.491 3.904c-2.099.655-3.509 2.572-3.509 4.771v9.06c0 .553.448 1 1 1h40 20c.552 0 1-.447 1-1v-13.117c0-2.155-1.374-4.062-3.418-4.743zm-8.582-16.14c2.382 0 4.438 1.398 5.406 3.414l-4.09-1.363c-.217-.071-.452-.067-.667.012l-6.447 2.417c.676-2.573 3.015-4.48 5.798-4.48zm-5.959 6.678 6.979-2.617 4.966 1.655c.004.095.014.188.014.284 0 3.309-2.691 6-6 6-3.079 0-5.621-2.332-5.959-5.322zm5.959 7.322c.339 0 .672-.028 1-.069v.655l-1 1-1-1v-.655c.328.041.661.069 1 .069zm-17-10c0 .551-.449 1-1 1h-1v-2h1c.551 0 1 .449 1 1zm-21.673-10.947c.76-1.267 2.15-2.053 3.626-2.053 1.568 0 3.023.779 3.894 2.083l.314.471 1.664-1.109-.314-.471c-.902-1.352-2.247-2.302-3.772-2.724 2.264-1.404 5.197-1.632 7.633-.523l2.791 1.271c1.125.512 2.056 1.343 2.693 2.404 1.004 1.673 1.142 3.742.369 5.534l-.296.686-1.035-2.07c-.133-.265-.376-.458-.665-.526-.288-.069-.592-.005-.83.173l-1.6 1.2c-1.375 1.033-3.08 1.601-4.799 1.601s-3.424-.568-4.8-1.6l-1.6-1.2c-.238-.179-.543-.243-.83-.173-.289.068-.532.261-.665.526l-1.109 2.218-.825-1.65c-.65-1.301-.591-2.821.156-4.068zm-1.327 11.947c-.551 0-1-.449-1-1s.449-1 1-1h1v2zm3 0v-3.764l1.358-2.717.642.481c1.72 1.29 3.851 2 6 2s4.28-.71 6-2l.642-.481 1.358 2.717v3.764c0 4.411-3.589 8-8 8s-8-3.589-8-8zm8 10c1.045 0 2.052-.163 3-.461v2.047l-3 3-3-3v-2.047c.948.298 1.955.461 3 .461zm1.219 18h-2.439l-.732-2.929 1.629-4.071h.646l1.629 4.071zm.677-11.147-1.431 2.147h-.93l-1.432-2.147.334-1.001.856.856c.195.194.451.292.707.292s.512-.098.707-.293l.856-.856zm-20.896 3.087c0-1.319.846-2.47 2.105-2.863l12.615-3.943 1.135 1.135-.805 2.414c-.098.293-.055.614.117.871l1.708 2.562-1.805 4.512c-.078.195-.092.41-.042.613l.691 2.759h-15.719zm38 8.06h-15.719l.689-2.758c.051-.203.036-.418-.042-.613l-1.805-4.512 1.708-2.562c.171-.257.214-.578.117-.871l-.805-2.414 1.135-1.135 12.616 3.943c1.26.393 2.106 1.543 2.106 2.862zm20 0h-18v-8.06c0-1.615-.765-3.073-2-3.995v-.062c0-1.293.824-2.437 2.051-2.847l5.679-1.893 1.563 1.563c.195.196.451.294.707.294s.512-.098.707-.293l1.563-1.563 5.678 1.892c1.228.41 2.052 1.554 2.052 2.847z" fill="#4d9b94" data-original="#000000" style=""/><path d="m41.5 14c-.827 0-1.5.673-1.5 1.5s.673 1.5 1.5 1.5 1.5-.673 1.5-1.5-.673-1.5-1.5-1.5z" fill="#4d9b94" data-original="#000000" style=""/><path d="m46.5 14c-.827 0-1.5.673-1.5 1.5s.673 1.5 1.5 1.5 1.5-.673 1.5-1.5-.673-1.5-1.5-1.5z" fill="#4d9b94" data-original="#000000" style=""/><path d="m51.5 14c-.827 0-1.5.673-1.5 1.5s.673 1.5 1.5 1.5 1.5-.673 1.5-1.5-.673-1.5-1.5-1.5z" fill="#4d9b94" data-original="#000000" style=""/><path d="m56.5 14c-.827 0-1.5.673-1.5 1.5s.673 1.5 1.5 1.5 1.5-.673 1.5-1.5-.673-1.5-1.5-1.5z" fill="#4d9b94" data-original="#000000" style=""/><path d="m58 49h-4c-.552 0-1 .447-1 1v2c0 1.654 1.346 3 3 3s3-1.346 3-3v-2c0-.553-.448-1-1-1zm-1 3c0 .552-.449 1-1 1s-1-.448-1-1v-1h2z" fill="#4d9b94" data-original="#000000" style=""/></g></g></svg>
