<?xml version="1.0"?>
<svg xmlns="http://www.w3.org/2000/svg" xmlns:xlink="http://www.w3.org/1999/xlink" xmlns:svgjs="http://svgjs.com/svgjs" version="1.1" width="512" height="512" x="0" y="0" viewBox="0 0 512 512" style="enable-background:new 0 0 512 512" xml:space="preserve" class=""><g><g xmlns="http://www.w3.org/2000/svg"><path d="m307.604 206.742c-4.143 0-7.5 3.357-7.5 7.5v16.471c0 4.143 3.357 7.5 7.5 7.5s7.5-3.357 7.5-7.5v-16.471c0-4.142-3.358-7.5-7.5-7.5z" fill="#4d9b94" data-original="#000000" style="" class=""/><path d="m394.923 206.742c-4.143 0-7.5 3.357-7.5 7.5v16.471c0 4.143 3.357 7.5 7.5 7.5s7.5-3.357 7.5-7.5v-16.471c0-4.142-3.358-7.5-7.5-7.5z" fill="#4d9b94" data-original="#000000" style="" class=""/><path d="m370.259 251.172c-4.143 0-7.5 3.357-7.5 7.5 0 6.339-5.156 11.496-11.495 11.496s-11.496-5.157-11.496-11.496c0-4.143-3.357-7.5-7.5-7.5s-7.5 3.357-7.5 7.5c0 14.61 11.886 26.496 26.496 26.496 14.609 0 26.495-11.886 26.495-26.496 0-4.143-3.358-7.5-7.5-7.5z" fill="#4d9b94" data-original="#000000" style="" class=""/><path d="m431.661 343.057h-10.106l-25.731-13.98v-11.529c25.947-13.426 43.623-37.328 49.851-64.016 18.546-2.438 32.907-18.348 32.907-37.548 0-10.116-3.929-19.3-10.373-26.091.833-1.208 1.323-2.671 1.323-4.25v-53.885c0-31.833-25.898-57.731-57.731-57.731h-2.343c-10.953-11.382-26.038-17.844-41.919-17.844h-92.17c-7.564-21.27-26.955-36.255-49.595-38.118-8.289-10.964-21.432-18.065-36.205-18.065h-72.756c-15.955 0-31.176 4.965-44.017 14.359-3.344 2.445-4.071 7.138-1.625 10.48 2.445 3.346 7.139 4.072 10.48 1.625 10.255-7.499 22.413-11.464 35.162-11.464h72.756c16.735 0 30.368 13.608 30.368 30.369v33.391c0 18.287-11.558 34.371-28.284 40.544-.065.024-.131.047-.196.071-9.764 3.552-4.461 2.585-134.265 2.585v-47.34c0-8.443 1.728-16.601 5.134-24.245 1.686-3.783-.015-8.218-3.798-9.903-3.781-1.686-8.217.015-9.903 3.798-4.269 9.578-6.433 19.79-6.433 30.351v54.84c0 1.579.49 3.042 1.323 4.25-6.443 6.791-10.372 15.975-10.372 26.091 0 19.199 14.361 35.108 32.905 37.549 4.672 20.016 15.696 38.183 31.463 51.658 5.668 4.845 11.848 8.973 18.39 12.357v11.528l-25.733 13.981h-9.83c-26.273 0-47.648 21.375-47.648 47.648v68.854c0 4.143 3.357 7.5 7.5 7.5h78.272v32.473c0 7.444 6.056 13.5 13.5 13.5h55.022c7.444 0 13.5-6.056 13.5-13.5v-32.473h23.006v48.683c0 4.143 3.357 7.5 7.5 7.5h79.124v31.44c0 7.444 6.056 13.5 13.5 13.5h55.021c7.444 0 13.5-6.056 13.5-13.5v-31.441h21.944c4.143 0 7.5-3.357 7.5-7.5s-3.357-7.5-7.5-7.5h-21.944v-33.504c0-7.444-6.056-13.5-13.5-13.5h-13.203l11.47-16.066c2.641-.15 5.146-1.052 7.283-2.645l37.952-28.287h9.522c18.002 0 32.648 14.646 32.648 32.648v61.354h-15.229c-4.143 0-7.5 3.357-7.5 7.5s3.357 7.5 7.5 7.5h22.729c4.143 0 7.5-3.357 7.5-7.5v-68.854c.003-26.273-21.372-47.648-47.646-47.648zm-325.704-47.69 17.049-9.263 25.849 17.233-1.851 1.933-11.562 12.072-19.084-14.223zm79.033 21.46-12.921-13.49 25.848-17.233 17.049 9.264-29.483 21.975zm-28.295.009 3.767-3.933 12.423 12.971-12.63 17.779-12.323-17.668zm74.06-29.962-25.732-13.98v-11.552c10.316-5.347 19.676-12.546 27.562-21.317 5.957 7.23 14.534 12.225 24.268 13.506 6.229 26.685 23.902 50.589 49.852 64.016v11.529l-18.194 9.885v-4.439c0-26.273-21.375-47.648-47.649-47.648zm66.004 64.676 17.049-9.263 25.849 17.232-13.414 14.006zm54.505 17.536c10.22 10.671 9.381 9.795 12.271 12.813l-12.615 17.67-12.193-17.394zm25.02 4.438-13.414-14.006 4.907-3.271 20.942-13.961 17.048 9.263zm4.54-49.716v5.714c-15.136 10.091-10.691 7.127-29.561 19.707l-29.561-19.706v-5.715c9.548 3.068 19.776 4.603 29.561 4.603 9.664-.001 19.919-1.505 29.561-4.603zm58.97-84.977c-3.784-.176-7.095 2.521-7.719 6.256-6.769 40.481-41.629 68.323-80.812 68.323-39.278 0-74.053-27.909-80.813-68.323-.634-3.791-4.004-6.423-7.718-6.256-13.024.543-23.788-9.97-23.788-22.848 0-12.611 10.261-22.872 22.873-22.872 1 0 4.35.448 6.988-2.656 5.085 1.695 10.88 2.688 16.567 2.688h94.997c8.692 0 17.172-2.507 24.432-7.149 6.86 4.644 14.962 7.149 23.361 7.149h13.621c12.234.563 21.797 10.57 21.797 22.841.002 13.008-10.878 23.387-23.786 22.847zm-209.469-137.323c.939 1.531 1.83 3.095 2.669 4.688v15.41c-4.349-.714-8.422-2.487-11.898-5.161 3.778-4.443 6.91-9.464 9.229-14.937zm170.103-15.117c2.758 3.236 5.962 2.636 11.373 2.636 23.563 0 42.731 19.169 42.731 42.731v46.385c-9.883 0-16.517 0-26.368 0-6.736 0-13.174-2.517-18.126-7.086-2.786-2.571-7.074-2.655-9.958-.19-5.492 4.692-12.492 7.276-19.709 7.276h-94.997c-20.568 0-37.38-16.737-37.38-37.38 0-13.714 0-55.547 0-69.58h119.545c12.667 0 24.654 5.543 32.889 15.208zm-166.742-51.618c10.972 3.403 20.173 11.125 25.403 21.409-19.749 0-19.033-.072-20.156.165-1.404.295-2.79 1.034-3.879 2.181-.038.04-.079.075-.116.115 0-13.649.293-17.431-1.252-23.87zm-154.037 154.132c-.606-3.627-3.746-6.263-7.394-6.263-.102 0-.205.002-.308.006-.309.013-.618.025-.932.025-12.611 0-22.872-10.261-22.872-22.873 0-12.272 9.563-22.278 21.798-22.841 114.929 0 111.081.811 121.428-1.865 6.697-1.735 12.941-4.635 18.495-8.482 6.469 5.688 14.507 9.217 23.128 10.113 0 5.399-.417 13.517 4.051 24.226.044.105.088.211.133.316 3.003 7.063 7.526 13.418 13.313 18.574-19.094 6.022-30.339 25.931-25.377 45.458.02.079.034.159.054.238-16.006 20.574-41.195 32.696-68.093 31.615-.197-.008-.395-.014-.592-.023-37.765-1.795-70.328-29.335-76.832-68.224zm75.823 83.181c.284.015.568.037.852.049 11.198.469 22.745-.99 33.698-4.511v5.716l-29.56 19.707-29.56-19.707v-5.715c7.764 2.495 16.172 4.037 24.57 4.461zm-107.782 123.79v-61.354c0-18.002 14.646-32.648 32.648-32.648h9.247l9.907 7.384 28.048 20.905c1.746 1.305 4.017 2.273 6.46 2.563.126.015.252.037.379.049l11.947 17.128h-14.364c-7.444 0-13.5 6.056-13.5 13.5v32.473zm85.773 45.973c0-48.951 0-27.994 0-76.945h52.021c0 6.454.001 69.307.001 76.945zm67.022-45.973v-32.473c0-7.444-6.056-13.5-13.5-13.5h-.001-12.769l12.156-17.113c.046-.003.093-.011.139-.015 2.291-.197 4.706-1.036 6.763-2.537.037-.027.076-.049.113-.076l22.026-16.418 15.926-11.87h9.521c18.003 0 32.649 14.646 32.649 32.648v8.534c-31.076 0-50.018 23.046-50.018 47.648v5.171h-23.005zm176.652 101.124h-52.021c0-7.929 0-67.303 0-76.945h52.021zm-53.522-91.945c-7.444 0-13.5 6.056-13.5 13.5v33.504h-71.624c0-6.193 0-55.179 0-61.354 0-18.002 14.646-32.648 32.649-32.648h9.247l37.952 28.287c.091.067.186.125.277.189.212.15.423.301.641.438.018.011.036.02.053.031 1.779 1.105 3.768 1.769 5.853 1.958l11.283 16.095z" fill="#4d9b94" data-original="#000000" style="" class=""/><path d="m116.803 150.56c-4.143 0-7.5 3.357-7.5 7.5v16.471c0 4.143 3.357 7.5 7.5 7.5s7.5-3.357 7.5-7.5v-16.471c0-4.143-3.358-7.5-7.5-7.5z" fill="#4d9b94" data-original="#000000" style="" class=""/><path d="m204.121 182.03c4.143 0 7.5-3.357 7.5-7.5v-16.47c0-4.143-3.357-7.5-7.5-7.5s-7.5 3.357-7.5 7.5v16.471c0 4.142 3.358 7.499 7.5 7.499z" fill="#4d9b94" data-original="#000000" style="" class=""/><path d="m160.462 228.985c14.61 0 26.496-11.886 26.496-26.496 0-4.143-3.357-7.5-7.5-7.5s-7.5 3.357-7.5 7.5c0 6.339-5.157 11.496-11.496 11.496s-11.496-5.157-11.496-11.496c0-4.143-3.357-7.5-7.5-7.5s-7.5 3.357-7.5 7.5c0 14.611 11.886 26.496 26.496 26.496z" fill="#4d9b94" data-original="#000000" style="" class=""/></g></g></svg>
