<?xml version="1.0"?>
<svg xmlns="http://www.w3.org/2000/svg" xmlns:xlink="http://www.w3.org/1999/xlink" xmlns:svgjs="http://svgjs.com/svgjs" version="1.1" width="512" height="512" x="0" y="0" viewBox="0 0 511.999 511.999" style="enable-background:new 0 0 512 512" xml:space="preserve" class=""><g><g xmlns="http://www.w3.org/2000/svg"><path d="m226.769 188.314c4.143 0 7.5-3.357 7.5-7.5v-.88c0-4.143-3.357-7.5-7.5-7.5s-7.5 3.357-7.5 7.5v.88c0 4.143 3.357 7.5 7.5 7.5z" fill="#4d9b94" data-original="#000000" style="" class=""/><path d="m284.334 188.314c4.143 0 7.5-3.357 7.5-7.5v-.88c0-4.143-3.357-7.5-7.5-7.5s-7.5 3.357-7.5 7.5v.88c0 4.143 3.358 7.5 7.5 7.5z" fill="#4d9b94" data-original="#000000" style="" class=""/><path d="m237.586 228.526c5.877 3.516 11.92 5.272 17.965 5.272 6.044 0 12.09-1.758 17.965-5.272 3.556-2.127 4.713-6.731 2.587-10.286-2.127-3.557-6.736-4.711-10.286-2.587-7.004 4.189-13.525 4.19-20.529 0-3.554-2.126-8.16-.967-10.287 2.586-2.127 3.555-.969 8.16 2.585 10.287z" fill="#4d9b94" data-original="#000000" style="" class=""/><path d="m284.334 350.953h34.864c4.143 0 7.5-3.357 7.5-7.5s-3.357-7.5-7.5-7.5h-34.864c-4.143 0-7.5 3.357-7.5 7.5s3.358 7.5 7.5 7.5z" fill="#4d9b94" data-original="#000000" style="" class=""/><path d="m506.271 260.759c-12.58-13.347-36.317-5.31-40.842 13.267l-8.035 32.995c-7.632 31.335-28.626 57.431-57.599 71.596-3.403 1.662-7.242 1.298-10.269-.978-3.028-2.275-4.446-5.861-3.795-9.592l6.343-36.33c1.911-10.949-5.128-21.234-16.025-23.417-5.712-1.141-11.427.185-15.916 3.453v-3.165c0-19.452-11.396-37.324-29.031-45.532l-11.9-5.538c11.887-13.455 19.573-30.685 21.022-49.643h.862c14.369 0 26.059-11.689 26.059-26.059v-34.881c0-48.024-30.494-89.059-73.135-104.762v-3.714c0-21.206-17.253-38.459-38.459-38.459s-38.459 17.253-38.459 38.459v3.691c-13.926 5.109-26.803 13.005-37.874 23.391-3.021 2.834-3.172 7.58-.338 10.602 2.834 3.02 7.58 3.172 10.602.338 17.967-16.855 41.431-26.139 66.069-26.139 53.262 0 96.594 43.332 96.594 96.594v34.881c0 6.098-4.961 11.059-11.059 11.059h-.587v-49.774c0-4.867-3.644-9.042-8.476-9.711-19.653-2.715-34.352-8.819-44.937-18.662-3.514-3.269-8.832-3.534-12.643-.638-23.258 17.667-53.664 24.155-92.954 19.834-2.775-.306-5.555.588-7.63 2.446-2.07 1.855-3.258 4.514-3.258 7.293v49.212h-.587c-6.098 0-11.059-4.961-11.059-11.059v-34.881c0-17.01 4.484-33.736 12.968-48.369 2.078-3.583.856-8.173-2.727-10.25-3.583-2.076-8.172-.857-10.25 2.727-9.808 16.916-14.991 36.243-14.991 55.893v34.881c0 14.369 11.689 26.059 26.059 26.059h.862c1.448 18.958 9.135 36.189 21.022 49.643l-11.9 5.538c-17.636 8.207-29.031 26.079-29.031 45.531v2.56c-4.34-2.816-9.678-3.914-15.019-2.848-10.897 2.183-17.937 12.468-16.025 23.417l6.342 36.33c.651 3.73-.767 7.316-3.795 9.592-3.026 2.275-6.867 2.639-10.269.978-14.21-6.948-26.957-17.145-36.86-29.486-2.592-3.229-7.312-3.747-10.544-1.155-3.23 2.593-3.747 7.313-1.155 10.544 11.276 14.052 25.79 25.661 41.972 33.573 8.443 4.127 18.356 3.185 25.868-2.462 7.514-5.646 11.177-14.904 9.561-24.163l-6.342-36.33c-.501-2.865 1.341-5.558 4.193-6.129 2.167-.433 4.332.488 5.522 2.348l42.711 66.718-56.525 56.524-3.101-1.711c-63.43-35.029-105.477-98.998-112.471-171.121-.23-2.373.913-3.976 1.614-4.721 3.764-3.994 13.392-1.521 15.352 6.527l8.036 32.995c1.693 6.954 4.027 13.835 6.938 20.453 1.669 3.791 6.096 5.51 9.886 3.845 3.791-1.668 5.513-6.094 3.845-9.886-2.559-5.814-4.609-11.857-6.095-17.961l-8.036-32.995c-4.443-18.246-28.148-26.735-40.841-13.268-4.163 4.417-6.216 10.415-5.63 16.457 7.449 76.809 52.119 144.953 119.531 182.446-5.01 5.905-4.742 14.789.829 20.364l29.779 29.778c1.465 1.464 3.385 2.196 5.304 2.196s3.839-.732 5.304-2.196l73.298-73.298h43.711l73.299 73.298c1.465 1.464 3.384 2.196 5.304 2.196 1.919 0 3.839-.732 5.304-2.196l29.779-29.779c5.571-5.572 5.84-14.455.832-20.36 9.555-5.315 18.879-11.402 27.722-18.112 3.3-2.504 3.945-7.208 1.441-10.508-2.501-3.298-7.206-3.944-10.508-1.441-8.462 6.42-17.388 12.234-26.532 17.283l-3.1 1.712-56.525-56.524 42.711-66.718c1.191-1.86 3.364-2.781 5.522-2.347 2.853.57 4.694 3.263 4.193 6.128l-6.343 36.33c-1.616 9.259 2.048 18.518 9.562 24.163 7.512 5.647 17.426 6.586 25.867 2.461 32.99-16.128 56.895-45.841 65.585-81.521l8.035-32.995c2.637-10.831 17.839-10.785 16.967-1.807-4.936 50.89-27.68 98.771-64.043 134.82-2.941 2.916-2.962 7.665-.046 10.606 2.917 2.942 7.666 2.964 10.606.046 38.844-38.509 63.141-89.658 68.412-144.025.587-6.04-1.465-12.038-5.628-16.455zm-274.162-222.945c.343-12.638 10.723-22.814 23.442-22.814 12.724 0 23.106 10.183 23.443 22.827-7.562-1.623-15.403-2.485-23.443-2.485-7.956 0-15.807.839-23.442 2.472zm-46.506 111.585c38.746 3.349 69.756-3.5 94.491-20.864 11.637 9.607 26.566 15.864 45.405 19.03v53.785c0 38.569-31.379 69.948-69.948 69.948s-69.948-31.379-69.948-69.948zm90.768 156.238c.274 1.138-.212 2.312-1.209 2.924l-18.205 11.16c-.867.531-1.944.532-2.812-.001l-18.203-11.158c-.997-.612-1.483-1.788-1.21-2.925l5.019-20.834c5.123.968 10.4 1.497 15.8 1.497s10.677-.528 15.8-1.497zm-90.041-28.981 17.373-8.085c6.519 5.04 13.784 9.153 21.605 12.144l-5.158 21.409c-1.801 7.479 1.396 15.205 7.953 19.226l18.203 11.158c2.853 1.749 6.049 2.623 9.247 2.623 3.196 0 6.395-.874 9.245-2.622l18.204-11.16c6.559-4.021 9.754-11.747 7.951-19.226l-5.157-21.408c7.821-2.991 15.086-7.104 21.605-12.144l17.372 8.085c12.368 5.756 20.36 18.29 20.36 31.933v24.011l-31.238 48.797c-5.878-4.237-14.142-3.73-19.428 1.554l-29.779 29.779c-1.406 1.407-2.196 3.314-2.196 5.304 0 1.22.3 2.409.854 3.471h-14.689c1.477-2.828 1.028-6.399-1.346-8.774l-29.779-29.779c-5.287-5.287-13.55-5.791-19.427-1.554l-32.136-50.199v-22.61c0-13.643 7.991-26.177 20.361-31.933zm-30.782 217.231-24.481-24.536 75.858-75.793 24.476 24.477zm200.909.006-75.854-75.853 24.537-24.481 75.793 75.858z" fill="#4d9b94" data-original="#000000" style="" class=""/></g></g></svg>
