<?xml version="1.0"?>
<svg xmlns="http://www.w3.org/2000/svg" xmlns:xlink="http://www.w3.org/1999/xlink" xmlns:svgjs="http://svgjs.com/svgjs" version="1.1" width="512" height="512" x="0" y="0" viewBox="0 0 511.949 511.949" style="enable-background:new 0 0 512 512" xml:space="preserve" class=""><g><g xmlns="http://www.w3.org/2000/svg"><path d="m435.974 51.949h-61.05c.034-.334.051-.673.051-1.016v-40.986c-.528-13.268-19.476-13.258-20 0v40.985c0 .343.017.682.051 1.016h-198.102c.034-.334.051-.673.051-1.016v-40.985c-.528-13.268-19.477-13.258-20 0v40.985c0 .343.017.682.051 1.016h-61.051c-5.523 0-10 4.477-10 10v440c0 5.523 4.477 10 10 10h280c2.652 0 5.196-1.054 7.071-2.929l79.999-80c1.875-1.875 2.929-4.419 2.929-7.071v-360c0-5.522-4.477-9.999-10-9.999zm-349.999 20h340v340h-19.999v-310c0-5.523-4.478-10-10-10h-280c-5.523 0-10 4.477-10 10v360c0 5.523 4.477 10 10 10h230v20h-260v-420zm300 340h-30c-5.522 0-10 4.477-10 10v30h-220v-340h260zm-20 20h45.857l-45.857 45.857z" fill="#4d9b94" data-original="#000000" style="" class=""/><path d="m175.975 357.016h35.538c4.847 32.55 32.984 57.6 66.862 57.6 83.689-2.57 91.779-119.905 10-134.462v-32.859l47.928-83.012c3.89-6.479-1.106-15.13-8.66-15h-98.535c-3.573 0-6.874 1.906-8.66 5-1.787 3.094-1.787 6.906 0 10l40.607 70.333h-85.079c-5.523 0-10 4.477-10 10v102.4c-.001 5.523 4.476 10 9.999 10zm149.999-10c-1.593 57.211-80.918 65.064-94.142 10h46.543c5.522 0 10-4.477 10-10v-46.543c21.461 4.607 37.599 23.725 37.599 46.543zm-94.142-10c3.914-18.236 18.306-32.628 36.543-36.543v36.543zm78.49-167.733-31.947 55.333-31.946-55.333zm-124.347 85.333h82.4v25.538c-29.286 4.361-52.501 27.576-56.862 56.862h-25.538z" fill="#4d9b94" data-original="#000000" style="" class=""/></g></g></svg>
