<?xml version="1.0"?>
<svg xmlns="http://www.w3.org/2000/svg" xmlns:xlink="http://www.w3.org/1999/xlink" xmlns:svgjs="http://svgjs.com/svgjs" version="1.1" width="512" height="512" x="0" y="0" viewBox="0 0 512 512" style="enable-background:new 0 0 512 512" xml:space="preserve" class=""><g><g xmlns="http://www.w3.org/2000/svg" id="Outline"><path d="M427.062,211.54A64.106,64.106,0,0,0,488,256a8,8,0,0,0,8-8V120a63.972,63.972,0,0,0-53.7-63.158A88.308,88.308,0,0,0,368,16H352a88.1,88.1,0,0,0-88,88v20.305A31.989,31.989,0,0,0,280,184h1.61A80.228,80.228,0,0,0,320,237.237V272H304V256a32.036,32.036,0,0,0-32-32H48a32.036,32.036,0,0,0-32,32V400a32.036,32.036,0,0,0,32,32h53.754l-12,48H16v16H496V480H479.978A39.788,39.788,0,0,0,488,456V320a48.055,48.055,0,0,0-48-48H400V237.237A80.589,80.589,0,0,0,427.062,211.54ZM456,152a16.019,16.019,0,0,1-16,16V136A16.019,16.019,0,0,1,456,152Zm24-32V239.333A48.078,48.078,0,0,1,440,192v-8a31.989,31.989,0,0,0,16-59.695V104a88.207,88.207,0,0,0-4.518-27.855A47.927,47.927,0,0,1,480,120ZM280,104a72.081,72.081,0,0,1,72-72h16a72.268,72.268,0,0,1,62.38,36.014q.063.117.129.234A72.006,72.006,0,0,1,440,104v16h-3.47L414.86,83.884a8,8,0,0,0-10.17-3.167c-.7.316-70.006,31.634-117.475,38.121-.1.01-.194.021-.292.035-2.4.326-4.716.583-6.923.768Zm-16,48a16.019,16.019,0,0,1,16-16v32A16.019,16.019,0,0,1,264,152Zm32,16V133.657c40.58-6.985,90.94-27.767,108.772-35.488L424,130.216V168a64,64,0,0,1-128,0ZM48,416a16.019,16.019,0,0,1-16-16V256a16.019,16.019,0,0,1,16-16H272a16.019,16.019,0,0,1,16,16V400a16.03,16.03,0,0,1-5.349,11.931A16.029,16.029,0,0,1,272,416H193.062l6.876-55.008A8,8,0,0,0,192,352H128a8,8,0,0,0-7.761,6.06L105.754,416Zm224.811,15.981a32.069,32.069,0,0,0,4.591-.444c.833,1.156,1.694,2.3,2.6,3.405V480H258.691ZM189.062,448l2-16h6.11l-3.825,16Zm-82.816,32,28-112h48.692l-14,112Zm78.816,0,2-16H216v16ZM232,480V456a8,8,0,0,0-8-8H209.8l3.825-16h42.505l-14.114,48Zm141.937-63.746-23.144,4.629L375.967,382.1a8.983,8.983,0,0,1,12.093-2.594,7.973,7.973,0,0,1,3.749,5.042,7.454,7.454,0,0,1-1.049,5.785ZM328,477.424l-4.76,1.059-2.658-11.059L328,456ZM344,480V438.559l30.877-6.176,29.545,14.772a7.987,7.987,0,0,0,4.461.8L472,440.938V456a24.028,24.028,0,0,1-24,24Zm111.65-88H472v32.84l-26.928,2.992A68.449,68.449,0,0,0,455.65,392ZM440,288a32.036,32.036,0,0,1,32,32v56H453.84a68.757,68.757,0,0,0-24.92-38.308l-9.84,12.616a51.774,51.774,0,0,1,6.942,76.376,7.993,7.993,0,0,0-1.8,3.464l-14.762,1.64-20.033-10.017,14.746-22.72a23.32,23.32,0,0,0,3.223-18.1,23.839,23.839,0,0,0-11.1-15.162,25.123,25.123,0,0,0-33.751,7.593l-57.258,88.208a8,8,0,0,0-1.069,6.227L307.149,480H296V432a8,8,0,0,0-2.023-5.317q-.867-.975-1.684-1.985c.346-.286.7-.554,1.04-.855A32.039,32.039,0,0,0,304,400V294.915A64.413,64.413,0,0,0,341.919,325.4a62.765,62.765,0,0,0,6.86,1.614A64.021,64.021,0,0,0,419.31,288Zm-40,0h1.524A48.328,48.328,0,0,1,360,312a47.776,47.776,0,0,1-8.418-.738,46.878,46.878,0,0,1-5.137-1.208A48.309,48.309,0,0,1,318.476,288H320a16.019,16.019,0,0,0,16-16V244.317a80.039,80.039,0,0,0,48,0V272A16.019,16.019,0,0,0,400,288Z" fill="#4d9b94" data-original="#000000" style="" class=""/><path d="M324,128a12,12,0,1,0,12,12A12.013,12.013,0,0,0,324,128Z" fill="#4d9b94" data-original="#000000" style="" class=""/><path d="M396,152a12,12,0,1,0-12-12A12.013,12.013,0,0,0,396,152Z" fill="#4d9b94" data-original="#000000" style="" class=""/><path d="M384,176H368a8,8,0,0,1-16,0H336a24,24,0,0,0,48,0Z" fill="#4d9b94" data-original="#000000" style="" class=""/><rect x="48" y="256" width="32" height="16" fill="#4d9b94" data-original="#000000" style="" class=""/><rect x="96" y="256" width="32" height="16" fill="#4d9b94" data-original="#000000" style="" class=""/><rect x="144" y="256" width="32" height="16" fill="#4d9b94" data-original="#000000" style="" class=""/><rect x="192" y="256" width="32" height="16" fill="#4d9b94" data-original="#000000" style="" class=""/><rect x="240" y="256" width="32" height="16" fill="#4d9b94" data-original="#000000" style="" class=""/></g></g></svg>
