<svg id="SvgjsSvg1001" width="288" height="288" xmlns="http://www.w3.org/2000/svg" version="1.1" xmlns:xlink="http://www.w3.org/1999/xlink" xmlns:svgjs="http://svgjs.com/svgjs"><defs id="SvgjsDefs1002"></defs><g id="SvgjsG1008" transform="matrix(0.9167,0,0,0.9167,11.995199597715441,11.995510591893975)"><svg xmlns="http://www.w3.org/2000/svg" data-name="Layer 1" viewBox="0 0 512 512" width="288" height="288"><path d="M503.23,130.22,259.52.88a7.5,7.5,0,0,0-7,0L8.77,130.22A16.46,16.46,0,0,0,0,144.79v24.63A16.5,16.5,0,0,0,24.23,184l.27-.14V474.5A37.54,37.54,0,0,0,62,512H450a37.54,37.54,0,0,0,37.5-37.5V183.85l.27.14A16.5,16.5,0,0,0,512,169.42V144.79A16.46,16.46,0,0,0,503.23,130.22ZM324.35,497H126.08V390H324.35ZM122.5,375a23.53,23.53,0,0,1-22.27-16H351.77a23.53,23.53,0,0,1-22.27,16Zm-1.41-31V285.28a1.5,1.5,0,0,1,1.5-1.5H224.41a1.5,1.5,0,0,1,1.5,1.5V344Zm124-134.71H303a.31.31,0,0,1,.31.31v29.92a28.1,28.1,0,0,1-28.07,28.07h-2.4a28.1,28.1,0,0,1-28.07-28.07V209.6A.31.31,0,0,1,245.08,209.29Zm-.31-19.13V179h54.38c1.72,0,4.16,3,4.16,5.79v9.52l-.31,0H248.94A4.15,4.15,0,0,1,244.77,190.16Zm37.15,91.91v2.83a7.38,7.38,0,0,1-7.38,7.37h-1a7.37,7.37,0,0,1-7.37-7.37v-2.83a43.09,43.09,0,0,0,6.67.52h2.4A43.32,43.32,0,0,0,281.92,282.07Zm-8.38,25.2h1a22.39,22.39,0,0,0,22.22-19.79L309,289.8a34.12,34.12,0,0,1,27.78,33.44v12.64a8.16,8.16,0,0,1-8.17,8.12H240.91V289.46l10.41-2A22.4,22.4,0,0,0,273.54,307.27ZM430.35,497H386.23l-7.8-34.83h59.72Zm-29.56-76h-7.54a7.48,7.48,0,0,1-7.46-7.47V406h7.53a7.48,7.48,0,0,1,7.47,7.47Zm71.71,53.5A22.52,22.52,0,0,1,450,497h-4.28l7.75-34.6a12.52,12.52,0,0,0-12.2-15.23H415.79V421h7.53a22.5,22.5,0,0,0,22.47-22.47v-15a7.5,7.5,0,0,0-7.5-7.5h-15a22.49,22.49,0,0,0-21.67,16.58,22.24,22.24,0,0,0-8.26-1.58h-15a7.5,7.5,0,0,0-7.5,7.5v15A22.49,22.49,0,0,0,393.25,436h7.54v11.17H375.31a12.5,12.5,0,0,0-12.2,15.23l7.74,34.6h-31.5V388.72A38.56,38.56,0,0,0,368,351.5a7.5,7.5,0,0,0-7.5-7.5H350.26a23,23,0,0,0,1.48-8.12V323.24a49.14,49.14,0,0,0-40-48.18L302,273.21a43,43,0,0,0,16.29-33.69V184.79c0-12.25-10.1-20.79-19.16-20.79H237.27a7.5,7.5,0,0,0-7.5,7.5v18.66a18.94,18.94,0,0,0,3,10.31,15.27,15.27,0,0,0-3,9.13v29.92a43,43,0,0,0,16.29,33.69l-8.85,1.68a16.47,16.47,0,0,0-12.8-6.11H122.59a16.52,16.52,0,0,0-16.5,16.5V344H91.5a7.5,7.5,0,0,0-7.5,7.5,38.58,38.58,0,0,0,27.08,36.77V497H62a22.52,22.52,0,0,1-22.5-22.5V175.89L256,61l216.5,114.9ZM415.79,406v-7.53a7.48,7.48,0,0,1,7.46-7.47h7.54v7.53a7.48,7.48,0,0,1-7.47,7.47ZM497,169.42a1.4,1.4,0,0,1-.73,1.28,1.41,1.41,0,0,1-1.47,0l-11.21-6,0,0-224-118.89a7.48,7.48,0,0,0-7,0l-224,118.89,0,0-11.21,6a1.41,1.41,0,0,1-1.47,0,1.4,1.4,0,0,1-.73-1.28V144.79a1.5,1.5,0,0,1,.8-1.32L256,16,496.2,143.47a1.5,1.5,0,0,1,.8,1.32Z" fill="#4d9b94" class="color000 svgShape"></path></svg></g></svg>