<?xml version="1.0"?>
<svg xmlns="http://www.w3.org/2000/svg" xmlns:xlink="http://www.w3.org/1999/xlink" xmlns:svgjs="http://svgjs.com/svgjs" version="1.1" width="512" height="512" x="0" y="0" viewBox="0 0 512 512" style="enable-background:new 0 0 512 512" xml:space="preserve"><g><g xmlns="http://www.w3.org/2000/svg"><g><path d="m502 435.901h-10v-254c0-27.57-22.43-50-50-50h-372c-27.57 0-50 22.43-50 50v254h-10c-5.523 0-10 4.477-10 10v22.534c0 23.967 19.499 43.466 43.466 43.466h425.067c23.967 0 43.466-19.499 43.466-43.466v-22.534c.001-5.523-4.476-10-9.999-10zm-462-254c0-16.542 13.458-30 30-30h372c16.542 0 30 13.458 30 30v254h-20v-254c0-5.523-4.477-10-10-10h-234.937c-5.523 0-10 4.477-10 10s4.477 10 10 10h38.937v112h-28.953c-.265-18.15-11.402-33.715-27.185-40.444 2.094-4.097 3.283-8.73 3.283-13.638v-7.838c0-16.586-13.494-30.081-30.081-30.081s-30.081 13.494-30.081 30.081v7.838c0 4.908 1.189 9.541 3.283 13.638-15.783 6.729-26.919 22.293-27.185 40.444h-29.081v-112h37.063c5.523 0 10-4.477 10-10s-4.477-10-10-10h-47.063c-5.523 0-10 4.477-10 10v254h-20zm319.271 199.919c0 5.559-4.522 10.081-10.081 10.081s-10.081-4.522-10.081-10.081v-7.837c0-5.559 4.522-10.081 10.081-10.081s10.081 4.522 10.081 10.081zm-19.42 30.081h18.68c13.377 0 24.3 10.707 24.651 24h-67.982c.35-13.294 11.274-24 24.651-24zm63.323 24c-.265-18.15-11.402-33.714-27.185-40.443 2.094-4.097 3.283-8.73 3.283-13.638v-7.837c0-16.587-13.494-30.081-30.081-30.081s-30.081 13.494-30.081 30.081v7.837c0 4.908 1.189 9.541 3.283 13.638-15.783 6.729-26.919 22.293-27.185 40.443h-29.208v-112h166v112zm-186.127 0c-.265-18.15-11.402-33.714-27.185-40.443 2.094-4.097 3.283-8.73 3.283-13.638v-7.837c0-16.587-13.494-30.081-30.081-30.081s-30.081 13.494-30.081 30.081v7.837c0 4.908 1.189 9.541 3.283 13.638-15.783 6.729-26.919 22.293-27.185 40.443h-29.081v-112h166v112zm-43.902-54.081c0 5.559-4.522 10.081-10.081 10.081s-10.081-4.522-10.081-10.081v-7.837c0-5.559 4.522-10.081 10.081-10.081s10.081 4.522 10.081 10.081zm-19.421 30.081h18.68c13.377 0 24.3 10.707 24.651 24h-67.982c.35-13.294 11.274-24 24.651-24zm19.421-162.082c0 5.559-4.522 10.081-10.081 10.081s-10.081-4.522-10.081-10.081v-7.838c0-5.559 4.522-10.081 10.081-10.081s10.081 4.522 10.081 10.081zm-19.421 30.081h18.68c13.377 0 24.3 10.707 24.651 24h-67.982c.35-13.293 11.274-24 24.651-24zm278.276-87.999v112h-28.826c-.265-18.15-11.402-33.715-27.185-40.444 2.094-4.097 3.283-8.73 3.283-13.638v-7.838c0-16.586-13.494-30.081-30.081-30.081s-30.081 13.494-30.081 30.081v7.838c0 4.908 1.189 9.541 3.283 13.638-15.783 6.729-26.919 22.293-27.185 40.444h-29.208v-112zm-72.729 57.918c0 5.559-4.522 10.081-10.081 10.081s-10.081-4.522-10.081-10.081v-7.838c0-5.559 4.522-10.081 10.081-10.081s10.081 4.522 10.081 10.081zm-19.42 30.081h18.68c13.377 0 24.3 10.707 24.651 24h-67.982c.35-13.293 11.274-24 24.651-24zm152.149 188.535c0 12.939-10.527 23.466-23.466 23.466h-425.068c-12.939 0-23.466-10.527-23.466-23.466v-12.534h472z" fill="#4d9b94" data-original="#000000" style=""/><path d="m287.113 76.788c2.559 0 5.119-.976 7.071-2.929 3.905-3.905 3.905-10.237 0-14.143-21.055-21.055-55.313-21.055-76.368 0-3.905 3.905-3.905 10.237 0 14.143 3.905 3.905 10.237 3.905 14.143 0 13.256-13.257 34.827-13.257 48.083 0 1.952 1.953 4.512 2.929 7.071 2.929z" fill="#4d9b94" data-original="#000000" style=""/><path d="m200.986 42.887c14.695-14.695 34.232-22.788 55.014-22.788s40.319 8.093 55.014 22.788c1.953 1.953 4.512 2.929 7.071 2.929s5.119-.977 7.071-2.929c3.905-3.905 3.906-10.237 0-14.142-18.472-18.473-43.032-28.646-69.156-28.646s-50.684 10.173-69.156 28.646c-3.905 3.905-3.905 10.237 0 14.142s10.237 3.905 14.142 0z" fill="#4d9b94" data-original="#000000" style=""/><circle cx="256" cy="97.902" r="10" fill="#4d9b94" data-original="#000000" style=""/><circle cx="162.06" cy="181.901" r="10" fill="#4d9b94" data-original="#000000" style=""/></g></g></g></svg>
