<?xml version="1.0"?>
<svg xmlns="http://www.w3.org/2000/svg" xmlns:xlink="http://www.w3.org/1999/xlink" xmlns:svgjs="http://svgjs.com/svgjs" version="1.1" width="512" height="512" x="0" y="0" viewBox="0 0 512.005 512.005" style="enable-background:new 0 0 512 512" xml:space="preserve" class=""><g><g xmlns="http://www.w3.org/2000/svg"><g><path d="m146.003 175.827c0 16.05 13.058 29.108 29.108 29.108h161.783c16.051 0 29.108-13.058 29.108-29.108v-106.717c0-16.05-13.058-29.108-29.108-29.108h-37.229v-23.055c0-9.344-7.603-16.946-16.946-16.946h-53.434c-9.344 0-16.946 7.602-16.946 16.946v23.054h-37.229c-16.051 0-29.108 13.058-29.108 29.108v106.718zm190.891 9.109h-161.783c-5.022 0-9.108-4.086-9.108-9.108v-61.13l60.022 13.25c.457 16.146 13.724 29.142 29.978 29.142s29.521-12.996 29.978-29.142l60.022-13.25v61.13c0 5.022-4.086 9.108-9.109 9.108zm-70.891-57.847c0 5.514-4.486 10-10 10s-10-4.486-10-10v-15.042h20zm-33.664-107.087h47.326v20h-47.326zm-57.228 40h161.783c5.022 0 9.108 4.086 9.108 9.108v25.106l-60 13.245v-5.413c0-5.523-4.478-10-10-10h-40c-5.522 0-10 4.477-10 10v5.413l-60-13.245v-25.106c.001-5.023 4.086-9.108 9.109-9.108z" fill="#4d9b94" data-original="#000000" style="" class=""/><path d="m104.609 175.039c1.289 0 2.6-.25 3.862-.78 1.498-.628 3-1.247 4.508-1.856 5.119-2.072 7.591-7.901 5.519-13.021-2.072-5.121-7.903-7.591-13.021-5.52-1.584.641-3.164 1.292-4.738 1.952-5.094 2.135-7.491 7.996-5.356 13.089 1.606 3.83 5.318 6.136 9.226 6.136z" fill="#4d9b94" data-original="#000000" style="" class=""/><path d="m52.433 201.696c1.772 0 3.568-.472 5.193-1.462 3.24-1.974 6.555-3.927 9.851-5.802 4.8-2.732 6.476-8.838 3.743-13.638-2.731-4.8-8.838-6.474-13.638-3.744-3.467 1.974-6.953 4.028-10.362 6.105-4.717 2.874-6.21 9.026-3.337 13.743 1.884 3.091 5.177 4.798 8.55 4.798z" fill="#4d9b94" data-original="#000000" style="" class=""/><path d="m10.006 231.567c2.206 0 4.427-.727 6.277-2.221 1.264-1.021 2.534-2.034 3.811-3.039 4.34-3.416 5.089-9.703 1.673-14.043-3.414-4.339-9.702-5.088-14.042-1.673-1.343 1.057-2.678 2.122-4.008 3.195-4.297 3.47-4.967 9.766-1.496 14.063 1.976 2.447 4.867 3.718 7.785 3.718z" fill="#4d9b94" data-original="#000000" style="" class=""/><path d="m399.026 172.402c1.508.61 3.01 1.229 4.508 1.856 1.263.53 2.573.78 3.862.78 3.908 0 7.62-2.306 9.227-6.136 2.135-5.093-.263-10.954-5.356-13.089-1.574-.66-3.154-1.311-4.738-1.952-5.121-2.071-10.949.399-13.021 5.52-2.073 5.12.399 10.949 5.518 13.021z" fill="#4d9b94" data-original="#000000" style="" class=""/><path d="m444.529 194.433c3.292 1.873 6.604 3.824 9.848 5.8 1.625.991 3.421 1.462 5.194 1.462 3.373 0 6.665-1.707 8.549-4.797 2.874-4.716 1.381-10.869-3.335-13.744-3.413-2.08-6.9-4.135-10.365-6.106-4.8-2.73-10.905-1.054-13.637 3.747-2.732 4.802-1.054 10.907 3.746 13.638z" fill="#4d9b94" data-original="#000000" style="" class=""/><path d="m491.911 226.307c1.276 1.005 2.547 2.018 3.811 3.039 1.851 1.494 4.07 2.221 6.277 2.221 2.917 0 5.81-1.271 7.785-3.717 3.471-4.297 2.801-10.593-1.496-14.063-1.33-1.074-2.665-2.139-4.008-3.195-4.34-3.416-10.627-2.667-14.042 1.673-3.416 4.339-2.667 10.626 1.673 14.042z" fill="#4d9b94" data-original="#000000" style="" class=""/><path d="m428.389 337.186c-47.223-43.041-108.444-66.744-172.387-66.744-9.687 0-19.449.547-29.017 1.627-5.488.619-9.436 5.57-8.815 11.058.62 5.489 5.582 9.436 11.058 8.816 8.826-.996 17.834-1.501 26.774-1.501 7.922 0 15.795.408 23.601 1.187l10.644 24.996c2.46 5.778 3.708 11.893 3.708 18.174 0 9.754 5.012 18.544 13.405 23.513 4.329 2.562 9.115 3.847 13.909 3.847 4.502 0 9.012-1.133 13.152-3.406l52.391-28.748c9.841 6.564 19.244 13.887 28.104 21.963 9.92 9.042 18.977 18.836 27.124 29.254h-68.436c-25.044 0-45.419 20.375-45.419 45.419s20.375 45.419 45.419 45.419h26.465c6.196 0 11.237 5.041 11.237 11.237 0 3.426-1.567 6.595-4.167 8.704h-219.955c-14.998 0-27.2-12.202-27.2-27.2s12.202-27.2 27.2-27.2h7.183c27.461 0 49.803-22.342 49.803-49.804 0-27.461-22.342-49.803-49.803-49.803h-80.385c10.427-7.877 21.487-14.917 33.088-20.964 4.897-2.553 6.798-8.593 4.244-13.49-2.552-4.897-8.591-6.799-13.49-4.244-37.144 19.364-69.326 47.895-93.066 82.506-24.253 35.358-39.295 76.583-43.501 119.218-.276 2.809.646 5.604 2.542 7.696s4.587 3.285 7.41 3.285h398.898c.01 0 .02.002.029.002.011 0 90.658-.002 90.658-.002 2.823 0 5.515-1.193 7.41-3.285s2.818-4.887 2.542-7.696c-6.203-62.899-35.452-121.083-82.357-163.834zm-103.588 4.032c-3.304 1.814-6.173.521-7.253-.118-1.08-.64-3.593-2.534-3.593-6.302 0-8.989-1.785-17.74-5.308-26.01l-5.819-13.666c22.402 4.519 43.979 12.258 64.097 22.981zm-263.55 51.897c8.679-12.653 18.598-24.407 29.523-35.12h103.594c16.434 0 29.803 13.37 29.803 29.804s-13.369 29.803-29.803 29.803h-7.183c-26.026 0-47.2 21.174-47.2 47.2 0 10.124 3.214 19.505 8.661 27.2h-126.138c5.195-35.364 18.482-69.348 38.743-98.887zm368.814 98.887c.808-2.789 1.242-5.712 1.242-8.704 0-17.224-14.013-31.237-31.237-31.237h-26.465c-14.016 0-25.419-11.403-25.419-25.419s11.403-25.419 25.419-25.419h82.465c17.233 27.484 28.683 58.336 33.43 90.78h-59.435z" fill="#4d9b94" data-original="#000000" style="" class=""/><circle cx="184.033" cy="291.134" r="10" fill="#4d9b94" data-original="#000000" style="" class=""/></g></g></g></svg>
