<?xml version="1.0"?>
<svg xmlns="http://www.w3.org/2000/svg" xmlns:xlink="http://www.w3.org/1999/xlink" xmlns:svgjs="http://svgjs.com/svgjs" version="1.1" width="512" height="512" x="0" y="0" viewBox="0 0 512 512" style="enable-background:new 0 0 512 512" xml:space="preserve"><g><g xmlns="http://www.w3.org/2000/svg"><path d="m223.271 319.254c-4.142 0-7.5 3.357-7.5 7.5v1.709c0 4.143 3.358 7.5 7.5 7.5s7.5-3.357 7.5-7.5v-1.709c0-4.143-3.358-7.5-7.5-7.5z" fill="#4d9b94" data-original="#000000" style=""/><path d="m287.22 335.963c4.143 0 7.5-3.357 7.5-7.5v-1.709c0-4.143-3.357-7.5-7.5-7.5s-7.5 3.357-7.5 7.5v1.709c0 4.142 3.358 7.5 7.5 7.5z" fill="#4d9b94" data-original="#000000" style=""/><path d="m255.245 376.557c10.062 0 19.119-5.581 23.636-14.565 1.861-3.7.37-8.209-3.331-10.069-3.701-1.861-8.21-.37-10.069 3.331-1.956 3.889-5.878 6.304-10.236 6.304s-8.28-2.416-10.236-6.305c-1.861-3.7-6.37-5.192-10.07-3.33-3.701 1.861-5.192 6.369-3.331 10.07 4.519 8.983 13.576 14.564 23.637 14.564z" fill="#4d9b94" data-original="#000000" style=""/><path d="m232.486 32.843c1.464 1.464 3.384 2.196 5.303 2.196s3.839-.732 5.303-2.197c2.929-2.929 2.929-7.678 0-10.606l-8.836-8.836c-2.929-2.928-7.678-2.929-10.606.001-2.929 2.929-2.929 7.678 0 10.606z" fill="#4d9b94" data-original="#000000" style=""/><path d="m274.211 35.039c1.919 0 3.839-.732 5.304-2.196l8.836-8.836c2.929-2.93 2.929-7.678 0-10.607-2.93-2.928-7.678-2.928-10.607 0l-8.836 8.836c-2.929 2.93-2.929 7.678 0 10.607 1.464 1.464 3.384 2.196 5.303 2.196z" fill="#4d9b94" data-original="#000000" style=""/><path d="m256 27.496c4.143 0 7.5-3.357 7.5-7.5v-12.496c0-4.143-3.357-7.5-7.5-7.5-4.142 0-7.5 3.357-7.5 7.5v12.496c0 4.143 3.358 7.5 7.5 7.5z" fill="#4d9b94" data-original="#000000" style=""/><path d="m446.59 257.317h-8.725v-4.8h12.953c4.143 0 7.5-3.357 7.5-7.5s-3.357-7.5-7.5-7.5h-1.656v-1.543c0-4.143-3.357-7.5-7.5-7.5s-7.5 3.357-7.5 7.5v1.792c-6.421 1.211-11.297 6.853-11.297 13.621v7.061c0 7.648 6.222 13.87 13.869 13.87h8.725v4.799h-12.953c-4.143 0-7.5 3.357-7.5 7.5s3.357 7.5 7.5 7.5h1.656v1.543c0 4.143 3.357 7.5 7.5 7.5s7.5-3.357 7.5-7.5v-1.792c6.421-1.211 11.297-6.853 11.297-13.621v-7.061c0-7.647-6.222-13.869-13.869-13.869z" fill="#4d9b94" data-original="#000000" style=""/><path d="m441.662 206.884c-.245 0-.487.016-.732.019-10.861-31.657-29.756-60.09-54.92-82.517-25.3-22.546-55.893-38.068-88.806-45.131-2.023-20.956-19.727-37.395-41.204-37.395s-39.182 16.439-41.204 37.395c-32.915 7.067-63.508 22.59-88.806 45.134-25.165 22.426-44.061 50.858-54.92 82.514-.245-.003-.487-.019-.732-.019-31.944 0-57.933 25.989-57.933 57.934s25.989 57.934 57.933 57.934c31.945 0 57.934-25.989 57.934-57.934 0-26.441-17.813-48.786-42.064-55.706 10.157-28.153 27.231-53.445 49.763-73.524 22.886-20.395 50.464-34.555 80.144-41.254 2.226 8.008 6.8 15.042 12.936 20.318v19.829c0 7.813 6.357 14.17 14.17 14.17h25.56c7.813 0 14.17-6.356 14.17-14.17v-19.829c6.136-5.276 10.71-12.311 12.936-20.319 29.678 6.695 57.257 20.854 80.144 41.251 22.531 20.08 39.606 45.374 49.763 73.527-24.251 6.919-42.065 29.265-42.065 55.706 0 31.944 25.989 57.934 57.934 57.934s57.934-25.989 57.934-57.934-25.991-57.933-57.935-57.933zm-328.391 57.933c0 23.674-19.26 42.934-42.934 42.934-23.673 0-42.933-19.26-42.933-42.934s19.26-42.934 42.933-42.934c23.674.001 42.934 19.261 42.934 42.934zm142.729-207.957c14.558 0 26.401 11.844 26.401 26.401s-11.844 26.402-26.401 26.402-26.401-11.844-26.401-26.401 11.843-26.402 26.401-26.402zm11.95 76.79h-23.9v-10.753c3.786 1.144 7.796 1.766 11.95 1.766s8.164-.622 11.95-1.765zm173.712 174.101c-23.674 0-42.934-19.26-42.934-42.934s19.26-42.934 42.934-42.934 42.934 19.26 42.934 42.934-19.26 42.934-42.934 42.934z" fill="#4d9b94" data-original="#000000" style=""/><path d="m62.838 235.041v22.276h-11.018c-4.142 0-7.5 3.357-7.5 7.5s3.358 7.5 7.5 7.5h18.518c4.142 0 7.5-3.357 7.5-7.5v-29.776c0-4.143-3.358-7.5-7.5-7.5s-7.5 3.357-7.5 7.5z" fill="#4d9b94" data-original="#000000" style=""/><path d="m439.365 406.753h-116.185c-6.893 0-12.5 5.607-12.5 12.5v12.262c-4.346-1.711-9.113-3.209-14.309-4.467-.123-.032-.247-.058-.371-.084-1.196-.286-2.4-.567-3.638-.829-1.3-.277-2.276-1.366-2.43-2.699l-1.534-13.54c15.04-5.875 29.582-14.936 34.769-26.255 2.027-4.428 3.452-10.282 4.284-17.521h5.949c11.987 0 21.739-9.753 21.739-21.74 0-2.537-.456-4.999-1.286-7.322 3.406-15.357 3.096-31.776-.85-47.06.356-.264.713-.525 1.062-.802 9.483-7.511 14.333-18.649 12.654-29.077-1.058-6.524-5.14-12.625-10.921-16.316-.729-.466-1.473-.887-2.226-1.26.22-.791.403-1.604.549-2.434 1.291-7.391-.487-15.377-4.752-21.36-5.741-8.065-15.551-13.494-28.365-15.699-11.399-1.967-23.246-1.37-34.431 1.637-.346-5.162-2.06-10.285-5.109-14.288-5.331-6.998-14.06-11.371-23.95-11.999-7.268-.451-14.843.945-23.848 4.426-5.532 2.144-10.937 4.811-16.065 7.927-3.54 2.15-4.666 6.764-2.515 10.304 2.15 3.54 6.764 4.665 10.304 2.515 4.376-2.659 8.984-4.933 13.689-6.756 6.905-2.669 12.461-3.771 17.487-3.444 5.465.346 10.313 2.634 12.967 6.118 2.401 3.153 2.794 9.703.749 12.516-2.018 2.774-1.895 6.564.298 9.203s5.896 3.454 8.994 1.978c11.988-5.71 25.795-7.613 38.883-5.353 6.159 1.06 14.402 3.589 18.695 9.62 1.899 2.664 2.78 6.713 2.193 10.076-.256 1.465-.897 3.444-2.502 4.555-3.012 2.085-4.076 6.041-2.518 9.357 1.558 3.313 5.28 5.018 8.813 4.03 1.853-.521 3.669.388 4.587.974 2.17 1.386 3.814 3.771 4.187 6.066.912 5.672-2.938 11.583-7.159 14.926-5.644 4.47-13.375 6.709-20.194 8.311-26.641 6.259-54.909 6.659-81.742 1.164-9.314-1.913-21.073-5.052-29.401-12.413-3.104-2.742-7.844-2.45-10.586.653-2.743 3.104-2.451 7.844.653 10.587 2.877 2.542 5.976 4.676 9.18 6.494-2.853 9.441-11.402 16.485-21.54 17.088-3.667.218-6.637 3.061-7.015 6.716-.233 2.25-.443 4.446-.634 6.595h-6.383c-1.56 0-3.091.176-4.581.494-8.626-10.887-13.248-24.922-12.472-38.438 1.032-17.874 13.144-35.726 30.856-45.478 1.238-.682 2.258-1.7 2.943-2.937 2.792-5.039 6.136-9.854 9.939-14.308 2.69-3.149 2.316-7.884-.833-10.573-3.148-2.69-7.883-2.316-10.574.833-3.985 4.667-7.543 9.677-10.595 14.917-21.095 12.408-35.426 34.435-36.711 56.683-.954 16.625 4.487 33.839 14.74 47.397-2.875 3.766-4.452 8.335-4.452 13.159 0 11.987 9.752 21.74 21.74 21.74h5.905c.833 7.212 2.274 13.037 4.33 17.523 5.187 11.317 19.728 20.376 34.767 26.252l-1.535 13.546c-.15 1.332-1.129 2.414-2.426 2.69-1.207.255-2.466.544-3.747.853-.087.02-.173.04-.259.062-11.763 2.861-26.148 8.088-35.079 17.476-5.416 5.695-11.969 18.209-6.381 60.949.488 3.735 3.67 6.528 7.437 6.528h259.265c6.893 0 12.5-5.607 12.5-12.5v-80.247c-.003-6.894-5.61-12.501-12.503-12.501zm-105.965-55.633h-5.092c.044-4.195-.042-8.691-.261-13.49h5.354c1.801 0 3.493.701 4.756 1.963 1.279 1.284 1.983 2.984 1.983 4.787-.001 3.717-3.024 6.74-6.74 6.74zm5.883-54.01c1.888 8.77 2.399 17.897 1.51 26.831-2.342-.846-4.829-1.311-7.393-1.311h-6.379c-.594-6.719-1.393-13.9-2.395-21.543 1.121-.243 2.246-.475 3.362-.737 3.612-.849 7.456-1.865 11.295-3.24zm-162.193 54.01c-3.716 0-6.74-3.023-6.74-6.74 0-1.808.701-3.504 1.973-4.776s2.965-1.974 4.767-1.974h5.343c-.227 4.81-.325 9.31-.288 13.49zm23.871 26.274c-2.349-5.124-5.659-18.862-2.493-54.039 13.004-3.037 23.625-12.671 28.028-25.159 4.642 1.496 9.183 2.562 13.307 3.409 13.513 2.768 27.358 4.148 41.208 4.148 9.647 0 19.295-.68 28.832-2.019 1.314 10.096 2.203 18.888 2.754 26.527.005.284.027.562.063.837 2.023 28.991-.814 41.237-3.13 46.296-3.435 7.497-17.361 15.526-31.505 20.408-.057.018-.113.038-.169.058-8.127 2.791-16.313 4.541-22.609 4.541-6.3 0-14.491-1.752-22.624-4.545-.049-.017-.098-.035-.148-.05-14.148-4.883-28.078-12.914-31.514-20.412zm54.284 40.006c4.894 0 11.452-.978 18.589-2.806l1.194 10.54c.55 4.79 2.943 9.02 6.487 11.939-7.319 6.034-16.494 9.374-26.271 9.374-9.776 0-18.949-3.34-26.268-9.372 3.551-2.922 5.945-7.157 6.484-11.951l1.193-10.531c7.14 1.829 13.698 2.807 18.592 2.807zm-65.332 37.46c4.62-4.856 12.783-9.049 23.406-12.095 10.693 11.923 25.696 18.683 41.926 18.683 16.228 0 31.231-6.759 41.923-18.679 5.098 1.461 9.655 3.191 13.512 5.137v49.094h-123.926c-3.489-32.212 1.467-40.36 3.159-42.14zm246.952 42.14h-106.476-4.709v-75.247h111.185z" fill="#4d9b94" data-original="#000000" style=""/><path d="m380.568 481.975c12.461 0 22.599-10.138 22.599-22.599 0-12.46-10.138-22.598-22.599-22.598s-22.599 10.138-22.599 22.598c0 12.461 10.138 22.599 22.599 22.599zm0-30.197c4.189 0 7.599 3.408 7.599 7.598s-3.409 7.599-7.599 7.599-7.599-3.409-7.599-7.599 3.41-7.598 7.599-7.598z" fill="#4d9b94" data-original="#000000" style=""/></g></g></svg>
