<?xml version="1.0"?>
<svg xmlns="http://www.w3.org/2000/svg" xmlns:xlink="http://www.w3.org/1999/xlink" xmlns:svgjs="http://svgjs.com/svgjs" version="1.1" width="512" height="512" x="0" y="0" viewBox="0 0 24 24" style="enable-background:new 0 0 512 512" xml:space="preserve"><g><g xmlns="http://www.w3.org/2000/svg"><path d="m8 14c-2.206 0-4-1.794-4-4s1.794-4 4-4 4 1.794 4 4-1.794 4-4 4zm0-7c-1.654 0-3 1.346-3 3s1.346 3 3 3 3-1.346 3-3-1.346-3-3-3z" fill="#4d9b94" data-original="#000000" style=""/></g><g xmlns="http://www.w3.org/2000/svg"><path d="m15.5 24h-15c-.276 0-.5-.224-.5-.5v-4c0-1.93 1.57-3.5 3.5-3.5h9c1.93 0 3.5 1.57 3.5 3.5v4c0 .276-.224.5-.5.5zm-14.5-1h14v-3.5c0-1.378-1.122-2.5-2.5-2.5h-9c-1.378 0-2.5 1.122-2.5 2.5z" fill="#4d9b94" data-original="#000000" style=""/></g><g xmlns="http://www.w3.org/2000/svg"><path d="m18 8c-.827 0-1.5-.673-1.5-1.5s.673-1.5 1.5-1.5 1.5.673 1.5 1.5-.673 1.5-1.5 1.5zm0-2c-.276 0-.5.224-.5.5s.224.5.5.5.5-.224.5-.5-.224-.5-.5-.5z" fill="#4d9b94" data-original="#000000" style=""/></g><g xmlns="http://www.w3.org/2000/svg"><path d="m20.5 12c-.276 0-.5-.224-.5-.5v-.5c0-.551-.449-1-1-1h-2c-.551 0-1 .449-1 1v.5c0 .276-.224.5-.5.5s-.5-.224-.5-.5v-.5c0-1.103.897-2 2-2h2c1.103 0 2 .897 2 2v.5c0 .276-.224.5-.5.5z" fill="#4d9b94" data-original="#000000" style=""/></g><g xmlns="http://www.w3.org/2000/svg"><path d="m21.5 19h-3c-.276 0-.5-.224-.5-.5s.224-.5.5-.5h3c.827 0 1.5-.673 1.5-1.5v-14c0-.827-.673-1.5-1.5-1.5h-7c-.827 0-1.5.673-1.5 1.5v2.83c0 .276-.224.5-.5.5s-.5-.224-.5-.5v-2.83c0-1.378 1.122-2.5 2.5-2.5h7c1.378 0 2.5 1.122 2.5 2.5v14c0 1.378-1.122 2.5-2.5 2.5z" fill="#4d9b94" data-original="#000000" style=""/></g><g xmlns="http://www.w3.org/2000/svg"><path d="m23.5 16h-6.54c-.276 0-.5-.224-.5-.5s.224-.5.5-.5h6.54c.276 0 .5.224.5.5s-.224.5-.5.5z" fill="#4d9b94" data-original="#000000" style=""/></g></g></svg>
