<?xml version="1.0"?>
<svg xmlns="http://www.w3.org/2000/svg" xmlns:xlink="http://www.w3.org/1999/xlink" xmlns:svgjs="http://svgjs.com/svgjs" version="1.1" width="512" height="512" x="0" y="0" viewBox="0 0 512 512" style="enable-background:new 0 0 512 512" xml:space="preserve" class=""><g><g xmlns="http://www.w3.org/2000/svg" id="XMLID_2066_"><g id="XMLID_518_"><path id="XMLID_1270_" d="m448.255 316.621v-121.909c20.179-4.866 35.221-23.06 35.221-44.712 0-25.364-20.636-46-46-46-13.559 0-25.763 5.9-34.189 15.264l-103.012-59.474c1.372-4.356 2.115-8.988 2.115-13.79 0-25.364-20.636-46-46-46s-46 20.636-46 46c0 4.803.743 9.435 2.114 13.79l-103.53 59.774c-8.435-9.535-20.748-15.564-34.45-15.564-25.364 0-46 20.636-46 46 0 21.93 15.43 40.313 36 44.892v15.362c0 5.522 4.478 10 10 10s10-4.478 10-10v-15.362c9.375-2.088 17.685-7.035 23.949-13.889l51.804 30.324c-6.339 13.584-9.888 28.72-9.888 44.673 0 15.88 3.517 30.951 9.801 44.487l-51.606 29.961c-6.277-6.916-14.63-11.908-24.06-14.008v-15.44c0-5.522-4.478-10-10-10s-10 4.478-10 10v15.441c-20.57 4.58-36 22.963-36 44.892 0 25.364 20.636 46 46 46 13.49 0 25.642-5.838 34.063-15.119l103.916 59.996c-1.372 4.355-2.114 8.987-2.114 13.79 0 25.364 20.636 46 46 46s46-20.636 46-46c0-4.803-.743-9.435-2.115-13.791l103.412-59.705c8.41 9.11 20.442 14.828 33.789 14.828 25.364 0 46-20.636 46-46 .001-21.651-15.041-39.845-35.22-44.711zm-44.564 13.535-51.103-29.669c6.285-13.536 9.801-28.608 9.801-44.487 0-15.952-3.549-31.089-9.888-44.673l51.304-30.031c6.408 6.889 14.891 11.821 24.45 13.774v121.192c-9.615 1.965-18.143 6.942-24.564 13.894zm-147.301 11.844c-19.61 0-37.697-6.611-52.18-17.703 1.95-15.37 15.099-27.297 30.99-27.297h42.379c15.892 0 29.041 11.926 30.991 27.297-14.483 11.092-32.57 17.703-52.18 17.703zm21.219-86.22c0 11.7-9.52 21.22-21.22 21.22s-21.22-9.52-21.22-21.22v-5.378c0-11.7 9.52-21.22 21.22-21.22s21.22 9.52 21.22 21.22zm47.106 52.364c-6.16-14.386-18.719-25.402-34.079-29.452 4.401-6.557 6.973-14.438 6.973-22.911v-5.378c0-22.729-18.491-41.22-41.22-41.22s-41.22 18.491-41.22 41.22v5.378c0 8.473 2.572 16.355 6.973 22.911-15.36 4.051-27.918 15.066-34.078 29.453-11.075-14.478-17.674-32.551-17.674-52.145 0-47.421 38.579-86 86-86s86 38.579 86 86c0 19.594-6.6 37.667-17.675 52.144zm112.761-184.144c14.337 0 26 11.663 26 26s-11.663 26-26 26-26-11.663-26-26 11.663-26 26-26zm-44.026 12.679c-1.279 4.219-1.974 8.69-1.974 13.321 0 4.899.777 9.619 2.203 14.05l-51.306 30.032c-17.43-24.137-44.757-40.672-75.982-43.608v-59.582c9.333-2.078 17.606-6.991 23.861-13.796zm-137.06-116.679c14.337 0 26 11.663 26 26s-11.663 26-26 26-26-11.663-26-26 11.663-26 26-26zm-181.866 156c-14.337 0-26-11.663-26-26s11.663-26 26-26 26 11.663 26 26-11.663 26-26 26zm43.927-12.33c1.347-4.32 2.074-8.912 2.074-13.67 0-4.491-.659-8.829-1.864-12.935l103.868-59.969c6.254 6.805 14.529 11.718 23.861 13.796v59.583c-31.225 2.936-58.552 19.471-75.982 43.608zm-43.927 223.663c-14.337 0-26-11.663-26-26s11.663-26 26-26 26 11.663 26 26-11.663 26-26 26zm43.973-12.492c1.315-4.273 2.027-8.809 2.027-13.508 0-4.701-.712-9.238-2.029-13.513l51.791-30.068c17.425 24.227 44.806 40.83 76.103 43.773v59.583c-9.333 2.078-17.607 6.991-23.861 13.796zm137.893 117.159c-14.337 0-26-11.663-26-26s11.663-26 26-26 26 11.663 26 26-11.663 26-26 26zm33.86-57.097c-6.254-6.805-14.528-11.718-23.861-13.796v-59.583c31.297-2.942 58.678-19.546 76.103-43.773l51.133 29.686c-1.393 4.386-2.15 9.053-2.15 13.895 0 4.839.756 9.504 2.148 13.888zm147.226-47.57c-14.337 0-26-11.663-26-26s11.663-26 26-26 26 11.663 26 26-11.663 26-26 26z" fill="#4d9b94" data-original="#000000" style="" class=""/><path id="XMLID_1286_" d="m74.189 266.13c2.63 0 5.21-1.07 7.07-2.93 1.86-1.87 2.93-4.44 2.93-7.07s-1.069-5.21-2.93-7.07c-1.86-1.87-4.44-2.93-7.07-2.93s-5.21 1.06-7.069 2.93c-1.86 1.86-2.931 4.44-2.931 7.07s1.07 5.2 2.931 7.07c1.859 1.86 4.44 2.93 7.069 2.93z" fill="#4d9b94" data-original="#000000" style="" class=""/></g></g></g></svg>
