<?xml version="1.0"?>
<svg xmlns="http://www.w3.org/2000/svg" xmlns:xlink="http://www.w3.org/1999/xlink" xmlns:svgjs="http://svgjs.com/svgjs" version="1.1" width="512" height="512" x="0" y="0" viewBox="0 0 480 480" style="enable-background:new 0 0 512 512" xml:space="preserve" class=""><g><path xmlns="http://www.w3.org/2000/svg" d="m278.789062 189.257812 101.824219-101.824218 11.3125 11.316406-101.824219 101.820312zm0 0" fill="#4d9b94" data-original="#000000" style="" class=""/><path xmlns="http://www.w3.org/2000/svg" d="m278.789062 98.746094 11.3125-11.3125 101.828126 101.816406-11.3125 11.316406zm0 0" fill="#4d9b94" data-original="#000000" style="" class=""/><path xmlns="http://www.w3.org/2000/svg" d="m303.359375 480h-176c-4.417969 0-8-3.582031-8-8v-72h-40c-22.082031-.027344-39.976563-17.917969-40-40v-48h-23.351563c-6.15625.003906-11.761718-3.523438-14.429687-9.070312-2.664063-5.542969-1.914063-12.125 1.933594-16.929688l51.847656-64.839844c1.300781-76.378906 59.183594-139.882812 135.117187-148.230468l1.761719 15.902343c-68.890625 7.59375-121 65.859375-120.878906 135.167969 0 1.816406-.617187 3.582031-1.753906 5l-53.597657 67h31.351563c4.417969 0 8 3.582031 8 8v56c0 13.253906 10.742187 24 24 24h48c4.417969 0 8 3.582031 8 8v72h160v-132.71875c0-2.277344.972656-4.445312 2.671875-5.960938 8.632812-7.722656 16.25-16.515624 22.664062-26.160156l13.328126 8.839844c-6.5 9.777344-14.105469 18.773438-22.664063 26.808594v137.191406c0 4.417969-3.582031 8-8 8zm0 0" fill="#4d9b94" data-original="#000000" style="" class=""/><path xmlns="http://www.w3.org/2000/svg" d="m327.359375 0h16v16h-16zm0 0" fill="#4d9b94" data-original="#000000" style="" class=""/><path xmlns="http://www.w3.org/2000/svg" d="m290.359375 6.980469 15.453125-4.148438 4.148438 15.460938-15.453126 4.148437zm0 0" fill="#4d9b94" data-original="#000000" style="" class=""/><path xmlns="http://www.w3.org/2000/svg" d="m256.433594 23.292969 13.855468-8 8 13.855469-13.855468 8zm0 0" fill="#4d9b94" data-original="#000000" style="" class=""/><path xmlns="http://www.w3.org/2000/svg" d="m227.871094 47.835938 11.316406-11.3125 11.3125 11.3125-11.3125 11.3125zm0 0" fill="#4d9b94" data-original="#000000" style="" class=""/><path xmlns="http://www.w3.org/2000/svg" d="m206.648438 78.929688 8-13.855469 13.859374 8-8.003906 13.855469zm0 0" fill="#4d9b94" data-original="#000000" style="" class=""/><path xmlns="http://www.w3.org/2000/svg" d="m194.25 114.480469 4.144531-15.457031 15.457031 4.144531-4.144531 15.457031zm0 0" fill="#4d9b94" data-original="#000000" style="" class=""/><path xmlns="http://www.w3.org/2000/svg" d="m191.359375 136h16v16h-16zm0 0" fill="#4d9b94" data-original="#000000" style="" class=""/><path xmlns="http://www.w3.org/2000/svg" d="m194.195312 173.539062 15.457032-4.140624 4.140625 15.457031-15.457031 4.140625zm0 0" fill="#4d9b94" data-original="#000000" style="" class=""/><path xmlns="http://www.w3.org/2000/svg" d="m206.652344 209.0625 13.855468-7.996094 8 13.855469-13.859374 8zm0 0" fill="#4d9b94" data-original="#000000" style="" class=""/><path xmlns="http://www.w3.org/2000/svg" d="m227.875 240.164062 11.3125-11.3125 11.316406 11.3125-11.316406 11.316407zm0 0" fill="#4d9b94" data-original="#000000" style="" class=""/><path xmlns="http://www.w3.org/2000/svg" d="m256.429688 264.710938 8-13.855469 13.855468 8-8 13.855469zm0 0" fill="#4d9b94" data-original="#000000" style="" class=""/><path xmlns="http://www.w3.org/2000/svg" d="m290.363281 281.023438 4.152344-15.460938 15.453125 4.148438-4.152344 15.460937zm0 0" fill="#4d9b94" data-original="#000000" style="" class=""/><path xmlns="http://www.w3.org/2000/svg" d="m327.359375 272h16v16h-16zm0 0" fill="#4d9b94" data-original="#000000" style="" class=""/><path xmlns="http://www.w3.org/2000/svg" d="m360.757812 269.710938 15.453126-4.144532 4.148437 15.460938-15.453125 4.144531zm0 0" fill="#4d9b94" data-original="#000000" style="" class=""/><path xmlns="http://www.w3.org/2000/svg" d="m392.425781 258.847656 13.855469-8 8 13.855469-13.855469 8zm0 0" fill="#4d9b94" data-original="#000000" style="" class=""/><path xmlns="http://www.w3.org/2000/svg" d="m420.210938 240.160156 11.316406-11.3125 11.3125 11.316406-11.316406 11.3125zm0 0" fill="#4d9b94" data-original="#000000" style="" class=""/><path xmlns="http://www.w3.org/2000/svg" d="m442.210938 214.933594 8-13.855469 13.855468 7.996094-8 13.859375zm0 0" fill="#4d9b94" data-original="#000000" style="" class=""/><path xmlns="http://www.w3.org/2000/svg" d="m456.925781 184.855469 4.140625-15.453125 15.457032 4.140625-4.144532 15.453125zm0 0" fill="#4d9b94" data-original="#000000" style="" class=""/><path xmlns="http://www.w3.org/2000/svg" d="m463.359375 136h16v16h-16zm0 0" fill="#4d9b94" data-original="#000000" style="" class=""/><path xmlns="http://www.w3.org/2000/svg" d="m456.925781 103.144531 15.457031-4.140625 4.140626 15.457032-15.457032 4.140624zm0 0" fill="#4d9b94" data-original="#000000" style="" class=""/><path xmlns="http://www.w3.org/2000/svg" d="m442.210938 73.074219 13.855468-8 8 13.855469-13.859375 8zm0 0" fill="#4d9b94" data-original="#000000" style="" class=""/><path xmlns="http://www.w3.org/2000/svg" d="m420.207031 47.839844 11.3125-11.316406 11.3125 11.316406-11.3125 11.3125zm0 0" fill="#4d9b94" data-original="#000000" style="" class=""/><path xmlns="http://www.w3.org/2000/svg" d="m392.425781 29.148438 7.996094-13.855469 13.859375 7.996093-8 13.859376zm0 0" fill="#4d9b94" data-original="#000000" style="" class=""/><path xmlns="http://www.w3.org/2000/svg" d="m360.753906 18.285156 4.148438-15.460937 15.453125 4.148437-4.148438 15.460938zm0 0" fill="#4d9b94" data-original="#000000" style="" class=""/></g></svg>
