<?xml version="1.0"?>
<svg xmlns="http://www.w3.org/2000/svg" xmlns:xlink="http://www.w3.org/1999/xlink" xmlns:svgjs="http://svgjs.com/svgjs" version="1.1" width="512" height="512" x="0" y="0" viewBox="0 0 512 512" style="enable-background:new 0 0 512 512" xml:space="preserve"><g><g xmlns="http://www.w3.org/2000/svg"><path d="m467 142.277h15v15h-15z" fill="#4d9b94" data-original="#000000" style=""/><path d="m467 172.278h15v15h-15z" fill="#4d9b94" data-original="#000000" style=""/><path d="m444.5 444.722h15v15h-15z" fill="#4d9b94" data-original="#000000" style=""/><path d="m325.625 112.278v-37.5c0-12.407-10.094-22.5-22.5-22.5-12.407 0-22.501 10.093-22.501 22.5v7.5h-49.249v-7.5c0-12.407-10.094-22.5-22.5-22.5s-22.5 10.093-22.5 22.5v37.5h-186.375v37.5h15v-22.5h171.375v135.701c-10.062 1.888-18.253 7.311-26.223 12.592-9.042 5.992-17.582 11.651-28.402 11.651s-19.36-5.659-28.402-11.651c-9.861-6.535-20.059-13.293-33.723-13.293s-23.861 6.758-33.723 13.293c-6.851 4.54-13.417 8.884-20.902 10.725v-121.519h-15v294.944h429.5v-15h-414.5v-143.127c11.658-1.923 20.886-8.019 29.188-13.52 8.742-5.793 16.293-10.796 25.438-10.796s16.695 5.003 25.438 10.796c10.007 6.631 21.349 14.147 36.688 14.147s26.681-7.516 36.688-14.147c8.742-5.793 16.293-10.796 25.438-10.796s16.695 5.003 25.438 10.796c10.007 6.631 21.349 14.147 36.688 14.147s26.681-7.516 36.688-14.147c8.742-5.793 16.293-10.796 25.438-10.796s16.694 5.003 25.437 10.796c10.007 6.631 21.349 14.147 36.688 14.147s26.681-7.516 36.688-14.147c8.742-5.793 16.292-10.797 25.438-10.797 9.145 0 16.695 5.003 25.438 10.796 8.301 5.501 17.529 11.597 29.188 13.52v143.127h-22.5v15h37.493v-347.442zm-116.75-45c4.136 0 7.5 3.364 7.5 7.5v22.5h79.249v-22.5c0-4.136 3.365-7.5 7.501-7.5s7.5 3.364 7.5 7.5v188.201c-5.464 1.025-10.376 3.092-15.001 5.615v-21.317h-79.249v21.316c-4.624-2.522-9.536-4.589-15-5.614v-188.201c0-4.135 3.364-7.5 7.5-7.5zm22.5 210.774v-15.775h49.249v15.776c-7.701 4.982-15.32 9.169-24.624 9.169-9.305 0-16.923-4.187-24.625-9.17zm244.723-2.481c-9.861-6.535-20.059-13.293-33.723-13.293s-23.862 6.758-33.724 13.293c-9.041 5.992-17.581 11.651-28.401 11.651s-19.361-5.66-28.402-11.651c-7.97-5.281-16.161-10.704-26.223-12.592v-135.701h171.375v159.018c-7.486-1.841-14.051-6.185-20.902-10.725z" fill="#4d9b94" data-original="#000000" style=""/><path d="m295.624 179.778h-79.249v52.499h79.249zm-15 37.498h-49.249v-22.499h49.249z" fill="#4d9b94" data-original="#000000" style=""/><path d="m295.624 112.278h-79.249v52.499h79.249zm-15 37.499h-49.249v-22.499h49.249z" fill="#4d9b94" data-original="#000000" style=""/></g></g></svg>
