<svg id="SvgjsSvg1100" width="288" height="288" xmlns="http://www.w3.org/2000/svg" version="1.1" xmlns:xlink="http://www.w3.org/1999/xlink" xmlns:svgjs="http://svgjs.com/svgjs"><defs id="SvgjsDefs1101"></defs><g id="SvgjsG1102" transform="matrix(0.9167,0,0,0.9167,11.807775635528571,11.995200000000011)"><svg xmlns="http://www.w3.org/2000/svg" data-name="Layer 1" viewBox="0 0 64 64" width="288" height="288"><path fill="#ffffff" d="M55,44.773l-3.424,2.282a13.424,13.424,0,0,0-1.17-3.01H43.594a13.424,13.424,0,0,0-1.17,3.01L39,44.773v4.363l2.965,2.471C42.513,56.753,47,60.773,47,60.773s4.487-4.02,5.035-9.166L55,49.136Z" class="colord98285 svgShape"></path><rect width="8" height="11" x="13" y="51" fill="#ffffff" class="color9ab5e6 svgShape"></rect><rect width="5" height="7" x="21" y="55" fill="#ffffff" class="color8aa1cc svgShape"></rect><rect width="5" height="7" x="8" y="55" fill="#ffffff" class="color8aa1cc svgShape"></rect><circle cx="32" cy="9" r="7" fill="#ffffff" class="colorffd37a svgShape"></circle><path fill="#ffffff" d="M43.593,44.045a15.007,15.007,0,0,0-1.684,6.546C41.909,56.214,47,60.773,47,60.773s5.091-4.559,5.091-10.182a15.007,15.007,0,0,0-1.684-6.546Z" class="colord9e1e6 svgShape"></path><circle cx="47" cy="50.591" r="2.182" fill="#ffffff" class="color7cb2f8 svgShape"></circle><path d="M12,51v3H8a1,1,0,0,0-1,1v7a1,1,0,0,0,1,1H26a1,1,0,0,0,1-1V55a1,1,0,0,0-1-1H22V51a1,1,0,0,0-1-1H13A1,1,0,0,0,12,51Zm0,10H9V56h3Zm10-5h3v5H22Zm-8-4h6v9H14Z" fill="#4d9b94" class="color000 svgShape"></path><rect width="2" height="2" x="16" y="46" fill="#4d9b94" class="color000 svgShape"></rect><path d="M16 35v9h2V35a14 14 0 0 1 28 0v1h2V35a16 16 0 0 0-32 0zM40 9a8 8 0 1 0-8 8A8.009 8.009 0 0 0 40 9zM26 9a6 6 0 1 1 6 6A6.006 6.006 0 0 1 26 9z" fill="#4d9b94" class="color000 svgShape"></path><path d="M33 14V12.949A2.5 2.5 0 0 0 32.5 8h-1a.5.5 0 0 1 0-1h1a.5.5 0 0 1 .5.5h2a2.5 2.5 0 0 0-2-2.449V4H31V5.051A2.5 2.5 0 0 0 31.5 10h1a.5.5 0 0 1 0 1h-1a.5.5 0 0 1-.5-.5H29a2.5 2.5 0 0 0 2 2.449V14zM42.723 43.555a12.594 12.594 0 0 0-.855 1.928l-2.313-1.542A1 1 0 0 0 38 44.773v4.363a1 1 0 0 0 .359.768l2.675 2.23c.761 5.248 5.1 9.2 5.3 9.384a1 1 0 0 0 1.334 0c.2-.181 4.538-4.136 5.3-9.384l2.675-2.23A1 1 0 0 0 56 49.136V44.773a1 1 0 0 0-1.555-.832l-2.313 1.542a12.594 12.594 0 0 0-.855-1.928 1 1 0 0 0-.871-.51H43.594A1 1 0 0 0 42.723 43.555zM40.97 49.476L40 48.668V46.641l1.288.858A15.913 15.913 0 0 0 40.97 49.476zM54 46.641v2.027l-.97.808a15.913 15.913 0 0 0-.318-1.977zm-4.2-1.6a14.443 14.443 0 0 1 1.293 5.546c0 3.916-2.78 7.36-4.091 8.765-1.311-1.405-4.091-4.849-4.091-8.765A14.443 14.443 0 0 1 44.2 45.045z" fill="#4d9b94" class="color000 svgShape"></path><path d="M47,53.773a3.182,3.182,0,1,0-3.182-3.182A3.186,3.186,0,0,0,47,53.773Zm0-4.364a1.182,1.182,0,1,1-1.182,1.182A1.184,1.184,0,0,1,47,49.409Z" fill="#4d9b94" class="color000 svgShape"></path><rect width="2" height="4" x="47.5" y="38" fill="#4d9b94" class="color000 svgShape"></rect><rect width="2" height="2.667" x="44.5" y="39.333" fill="#4d9b94" class="color000 svgShape"></rect></svg></g></svg>