<svg id="SvgjsSvg1142" width="288" height="288" xmlns="http://www.w3.org/2000/svg" version="1.1" xmlns:xlink="http://www.w3.org/1999/xlink" xmlns:svgjs="http://svgjs.com/svgjs"><defs id="SvgjsDefs1143"></defs><g id="SvgjsG1144" transform="matrix(0.9167,0,0,0.9167,11.995200000000011,11.995200000000011)"><svg xmlns="http://www.w3.org/2000/svg" data-name="Layer 1" viewBox="0 0 512 512" width="288" height="288"><path d="M421.49,411,394,405.76v0a66.59,66.59,0,0,0,34.36-58.22V298.69a66.77,66.77,0,0,0-15.22-42.31,42.2,42.2,0,1,0-57-62.1,68.2,68.2,0,0,0-46-32.46l-23.06-4.39a60.94,60.94,0,0,0,29.82-52.36V26.87a28.63,28.63,0,0,0-6.71-18C305.51,3.23,299,0,292.47,0H202.58a7.5,7.5,0,0,0-7.5,7.5V34.7a24.26,24.26,0,0,0,4.56,14.19A15.76,15.76,0,0,0,195.08,60v45.08a60.94,60.94,0,0,0,29.82,52.36l-23.06,4.39a68.11,68.11,0,0,0-55.32,66.85v3.47H91.18a7.5,7.5,0,0,0-7.5,7.5v30.07A26.09,26.09,0,0,0,89,285.49a16.65,16.65,0,0,0-5.3,12.17V347.5A66.59,66.59,0,0,0,118,405.72v0L90.51,411A74.52,74.52,0,0,0,30,484.14V504.5a7.5,7.5,0,0,0,15,0V484.14a59.51,59.51,0,0,1,48.32-58.4L118,421v.6a32.2,32.2,0,0,0,64.39,0V421l24.72,4.71a59.51,59.51,0,0,1,48.32,58.4V504.5a7.5,7.5,0,1,0,15,0V484.14a74.09,74.09,0,0,0-6.11-29.5,59.84,59.84,0,0,1,40.49-28.9L329.57,421v.6a32.2,32.2,0,0,0,64.39,0V421l24.72,4.71A59.51,59.51,0,0,1,467,484.14V504.5a7.5,7.5,0,0,0,15,0V484.14A74.52,74.52,0,0,0,421.49,411ZM386.42,196.45a27.23,27.23,0,1,1-27.23,27.23A27.27,27.27,0,0,1,386.42,196.45Zm0,69.46a42.07,42.07,0,0,0,13.24-2.14,51.7,51.7,0,0,1,13.65,34.82c-5,1.86-13.82,3.82-22.86-.16a29.79,29.79,0,0,1-13.27-11.94,7.5,7.5,0,0,0-11.8-1.41,52.88,52.88,0,0,1-55.16,13.2A51.34,51.34,0,0,1,352,248.07,42.22,42.22,0,0,0,386.42,265.91ZM210.08,15h82.39c4.59,0,9.45,6.1,9.45,11.87V44.19c-.28,0-.56,0-.84,0H219.53a9.46,9.46,0,0,1-9.45-9.45Zm0,90.07V60a.85.85,0,0,1,.84-.84h90.16a.85.85,0,0,1,.84.84v45.08a46,46,0,0,1-26.11,41.42,6.53,6.53,0,0,0-1.14.52,45.9,45.9,0,0,1-64.59-41.94Zm60.76,59.08v8a14.84,14.84,0,1,1-29.68,0v-8a60.76,60.76,0,0,0,29.68,0Zm-172.16,83h91.88c5.56,0,11.23,7,11.23,13.91v20c-.56,0-1.14-.08-1.72-.08H109.92a11.25,11.25,0,0,1-11.24-11.24Zm68.75,174.49a17.2,17.2,0,0,1-34.39,0v-9.84a66.57,66.57,0,0,0,34.36,0,6.92,6.92,0,0,0,0,.91Zm5-27.61a6.48,6.48,0,0,0-1.2.54A51.52,51.52,0,0,1,98.68,347.5V297.66A1.72,1.72,0,0,1,100.4,296h99.67a1.72,1.72,0,0,1,1.72,1.71V347.5A51.62,51.62,0,0,1,172.44,394Zm157.13,11.74L302,411A74.93,74.93,0,0,0,256,440.07,74.35,74.35,0,0,0,210,411l-27.53-5.25v0a66.59,66.59,0,0,0,34.36-58.22V261.05a30.91,30.91,0,0,0-7.23-19.4c-5.05-6-12-9.51-19-9.51h-29v-3.47a53.11,53.11,0,0,1,43.12-52.12l21.53-4.09a29.83,29.83,0,0,0,59.66,0l21.52,4.1a53.15,53.15,0,0,1,39.41,32.61,42.32,42.32,0,0,0-1.26,25,66.31,66.31,0,0,0-50.29,64.56v1a7.65,7.65,0,0,0,.24,1.86,7.28,7.28,0,0,0-.24,1.88V347.5a66.59,66.59,0,0,0,34.36,58.22ZM379,421.63a17.2,17.2,0,0,1-34.39,0v-9.84a66.57,66.57,0,0,0,34.36,0,6.92,6.92,0,0,0,0,.91ZM384,394a6.88,6.88,0,0,0-1.21.54,51.52,51.52,0,0,1-72.55-47.06V313.9a67.59,67.59,0,0,0,59.41-12.5,43.13,43.13,0,0,0,14.78,10.76,44.33,44.33,0,0,0,28.92,2.06V347.5A51.63,51.63,0,0,1,384,394Z" fill="#4d9b94" class="color000 svgShape"></path></svg></g></svg>