<?xml version="1.0"?>
<svg xmlns="http://www.w3.org/2000/svg" xmlns:xlink="http://www.w3.org/1999/xlink" xmlns:svgjs="http://svgjs.com/svgjs" version="1.1" width="512" height="512" x="0" y="0" viewBox="0 0 64 64" style="enable-background:new 0 0 512 512" xml:space="preserve" class=""><g><g xmlns="http://www.w3.org/2000/svg"><circle cx="16" cy="18" r="1" fill="#4d9b94" data-original="#000000" style="" class=""/><circle cx="24" cy="18" r="1" fill="#4d9b94" data-original="#000000" style="" class=""/><path d="m17 27h4c2.206 0 4-1.794 4-4h-2c0 1.103-.897 2-2 2h-4z" fill="#4d9b94" data-original="#000000" style="" class=""/><path d="m20.707 14.293c-1.101-1.101-1.707-2.565-1.707-4.122v-1.171h-2v1.171c0 2.091.814 4.057 2.293 5.536z" fill="#4d9b94" data-original="#000000" style="" class=""/><path d="m53.172 39c-1.023 0-1.984.398-2.707 1.122l-.879.878h-.586c-1.654 0-3 1.346-3 3v.479l-5.685 3.979-2.964-5.599c1.053-1.234 1.649-2.808 1.649-4.452 0-1.42-.431-2.786-1.247-3.949l-3.417-4.87c-.874-1.246-1.336-2.709-1.336-4.23 0-.795.127-1.579.379-2.33l.937-2.814c.454-1.362.684-2.78.684-4.214s-.23-2.852-.684-4.213l-.206-.617c-2.027-6.083-7.698-10.17-14.111-10.17-6.411 0-12.082 4.087-14.11 10.171l-.204.615c-.455 1.362-.685 2.78-.685 4.214s.23 2.852.684 4.213l.938 2.815c.251.751.378 1.535.378 2.33 0 1.521-.462 2.984-1.336 4.231l-3.417 4.87c-.816 1.163-1.247 2.528-1.247 3.948 0 1.78.682 3.452 1.886 4.721-.417 1.322-.691 2.706-.797 4.134l-1.166 15.738h30.077v-8.238l.644.772c1.835 2.203 4.532 3.466 7.399 3.466 2.174 0 4.218-.847 5.755-2.384l11.081-11.081c.723-.723 1.121-1.684 1.121-2.706 0-2.112-1.718-3.829-3.828-3.829zm-49.288-3.393 3.417-4.87c1.111-1.584 1.699-3.445 1.699-5.379 0-1.011-.162-2.008-.48-2.962l-.938-2.815c-.387-1.157-.582-2.362-.582-3.581s.195-2.424.582-3.582l.204-.615c1.756-5.265 6.664-8.803 12.214-8.803s10.458 3.538 12.213 8.803l.206.616c.386 1.157.581 2.362.581 3.581s-.195 2.424-.582 3.582l-.937 2.813c-.319.955-.481 1.952-.481 2.963 0 1.935.588 3.795 1.699 5.379l3.417 4.87c.578.825.884 1.793.884 2.8 0 .881-.262 1.722-.701 2.466l-1.107-2.091c-2.121-4.006-5.991-6.813-10.426-7.644l-.21-.629c2.598-1.024 4.444-3.552 4.444-6.509v-6.675c0-1.821-1.161-3.432-2.889-4.008-1.861-.621-3.111-2.356-3.111-4.317h-2c0 2.823 1.8 5.32 4.479 6.214.91.303 1.521 1.152 1.521 2.111v6.675c0 2.757-2.243 5-5 5h-4c-2.757 0-5-2.243-5-5v-9c0-1.103.897-2 2-2v-2c-2.206 0-4 1.794-4 4v9c0 2.957 1.846 5.485 4.443 6.51l-.226.679c-5.175 1.465-9.308 5.09-11.486 9.789-.473-.762-.731-1.646-.731-2.571 0-1.007.306-1.975.884-2.8zm13.116 1.393v-4.839l.397-1.192c.199.018.4.031.603.031h4c.203 0 .404-.013.603-.031l.397 1.192v4.839zm5.971 2c-.142 2.787-1.171 5.409-2.971 7.526-1.8-2.117-2.829-4.74-2.971-7.526zm-13.971 22h-5.923l.934-12.619 4.989 3.118zm20-18v18h-18v-18h-2v6.14l-4.774-2.984c.91-5.959 5.062-10.901 10.774-12.822v5.009c0 3.916 1.524 7.596 4.293 10.364l.707.707.707-.707c2.769-2.768 4.293-6.448 4.293-10.364v-5.12c3.586.852 6.685 3.208 8.425 6.494l3.167 5.983-5.592 3.495v-6.195zm25.465 1.122-11.081 11.08c-1.16 1.159-2.701 1.798-4.341 1.798-2.271 0-4.408-1.001-5.862-2.746l-2.181-2.616v-.083l6.53-4.082 1.134 2.142-2.237 1.566 1.146 1.639 10.427-7.299v-1.521c0-.551.448-1 1-1h1.414l1.465-1.465c.341-.34.811-.535 1.293-.535 1.008 0 1.828.82 1.828 1.829 0 .488-.19.947-.535 1.293z" fill="#4d9b94" data-original="#000000" style="" class=""/><path d="m54.047 21h-3v10h2v-4h1c.552 0 1 .449 1 1v3h2v-3c0-.771-.301-1.468-.78-2 .48-.532.78-1.229.78-2 0-1.654-1.346-3-3-3zm0 4h-1v-2h1c.552 0 1 .449 1 1s-.448 1-1 1z" fill="#4d9b94" data-original="#000000" style="" class=""/><path d="m47 25h-2v-4h-2v10h2v-4h2v4h2v-10h-2z" fill="#4d9b94" data-original="#000000" style="" class=""/><path d="m60 17h-20c-1.654 0-3 1.346-3 3v12c0 1.654 1.346 3 3 3h4v1.586c0 1.331 1.083 2.414 2.414 2.414.637 0 1.259-.258 1.707-.707l3.293-3.293h8.586c1.654 0 3-1.346 3-3v-12c0-1.654-1.346-3-3-3zm1 15c0 .551-.448 1-1 1h-9.414l-3.88 3.879c-.235.237-.706.045-.706-.293v-3.586h-6c-.552 0-1-.449-1-1v-12c0-.551.448-1 1-1h20c.552 0 1 .449 1 1z" fill="#4d9b94" data-original="#000000" style="" class=""/></g></g></svg>
