<?xml version="1.0"?>
<svg xmlns="http://www.w3.org/2000/svg" xmlns:xlink="http://www.w3.org/1999/xlink" xmlns:svgjs="http://svgjs.com/svgjs" version="1.1" width="512" height="512" x="0" y="0" viewBox="0 0 24 24" style="enable-background:new 0 0 512 512" xml:space="preserve"><g><g xmlns="http://www.w3.org/2000/svg"><path d="m10.25 8.5h-8.5c-.965 0-1.75-.785-1.75-1.75v-1c0-.965.785-1.75 1.75-1.75h7.5c.414 0 .75.336.75.75s-.336.75-.75.75h-7.5c-.136 0-.25.114-.25.25v1c0 .136.114.25.25.25h8.5c.414 0 .75.336.75.75s-.336.75-.75.75z" fill="#4d9b94" data-original="#000000" style=""/></g><g xmlns="http://www.w3.org/2000/svg"><path d="m19.25 19h-17.5c-.414 0-.75-.336-.75-.75s.336-.75.75-.75h17.5c.414 0 .75.336.75.75s-.336.75-.75.75z" fill="#4d9b94" data-original="#000000" style=""/></g><g xmlns="http://www.w3.org/2000/svg"><path d="m14.251 24c-.222 0-.441-.098-.59-.285l-3.161-4.005-3.161 4.004c-.257.326-.728.381-1.054.124-.325-.257-.381-.729-.124-1.054l3.75-4.75c.285-.36.893-.36 1.178 0l3.75 4.75c.257.325.201.797-.124 1.054-.138.109-.302.162-.464.162z" fill="#4d9b94" data-original="#000000" style=""/></g><g xmlns="http://www.w3.org/2000/svg"><path d="m22.25 8.02h-.5c-.965 0-1.75-.785-1.75-1.75v-4.5c0-.965.785-1.75 1.75-1.75h.5c.965 0 1.75.785 1.75 1.75v4.5c0 .965-.785 1.75-1.75 1.75zm-.5-6.5c-.136 0-.25.114-.25.25v4.5c0 .138.112.25.25.25h.5c.138 0 .25-.112.25-.25v-4.5c0-.138-.112-.25-.25-.25z" fill="#4d9b94" data-original="#000000" style=""/></g><g xmlns="http://www.w3.org/2000/svg"><path d="m17.86 12c-.943 0-1.92-1.07-1.92-2.86 0-.427.053-.803.128-1.12h-1.408c-1.467 0-2.66-1.193-2.66-2.66 0-.092 0-.247.29-1.739.124-.637.208-1.072.292-1.37l-.013-.002c.208-1.271 1.36-2.229 2.681-2.229h.51c2.761 0 4.388.695 5.112 1.108.359.206.484.664.279 1.023-.206.359-.664.484-1.023.279-.48-.273-1.864-.91-4.368-.91h-.51c-.584 0-1.111.427-1.2.971-.005.028-.011.056-.019.083-.071.31-.509 2.517-.532 2.812.001.614.522 1.134 1.161 1.134h2.5c.277 0 .531.153.662.397.13.245.115.541-.039.771s-.343.551-.343 1.452c0 .897.353 1.317.48 1.368-.042-.029.139-.259.139-.908 0-1.676 1.625-2.871 2.324-3.306.352-.22.814-.111 1.033.239.219.352.111.814-.24 1.033-.78.488-1.616 1.279-1.616 2.034 0 1.658-.854 2.4-1.7 2.4z" fill="#4d9b94" data-original="#000000" style=""/></g><g xmlns="http://www.w3.org/2000/svg"><path d="m2.75 19c-.414 0-.75-.336-.75-.75v-10.5c0-.414.336-.75.75-.75s.75.336.75.75v10.5c0 .414-.336.75-.75.75z" fill="#4d9b94" data-original="#000000" style=""/></g><g xmlns="http://www.w3.org/2000/svg"><path d="m18.25 19c-.414 0-.75-.336-.75-.75v-3.5c0-.414.336-.75.75-.75s.75.336.75.75v3.5c0 .414-.336.75-.75.75z" fill="#4d9b94" data-original="#000000" style=""/></g></g></svg>
