<?xml version="1.0"?>
<svg xmlns="http://www.w3.org/2000/svg" xmlns:xlink="http://www.w3.org/1999/xlink" xmlns:svgjs="http://svgjs.com/svgjs" version="1.1" width="512" height="512" x="0" y="0" viewBox="0 0 512 512" style="enable-background:new 0 0 512 512" xml:space="preserve" class=""><g><path xmlns="http://www.w3.org/2000/svg" d="M76.457,374H150.39a6,6,0,0,0,0-12H76.457a6,6,0,0,0,0,12Z" fill="#4d9b94" data-original="#000000" style=""/><path xmlns="http://www.w3.org/2000/svg" d="M156.39,402a6,6,0,0,0-6-6H76.457a6,6,0,0,0,0,12H150.39A6,6,0,0,0,156.39,402Z" fill="#4d9b94" data-original="#000000" style=""/><path xmlns="http://www.w3.org/2000/svg" d="M76.457,340H150.39a6,6,0,0,0,0-12H76.457a6,6,0,0,0,0,12Z" fill="#4d9b94" data-original="#000000" style=""/><path xmlns="http://www.w3.org/2000/svg" d="M361.545,362h73.933a6,6,0,1,0,0-12H361.545a6,6,0,0,0,0,12Z" fill="#4d9b94" data-original="#000000" style=""/><path xmlns="http://www.w3.org/2000/svg" d="M361.545,396h73.933a6,6,0,1,0,0-12H361.545a6,6,0,0,0,0,12Z" fill="#4d9b94" data-original="#000000" style=""/><path xmlns="http://www.w3.org/2000/svg" d="M361.545,328h73.933a6,6,0,1,0,0-12H361.545a6,6,0,0,0,0,12Z" fill="#4d9b94" data-original="#000000" style=""/><path xmlns="http://www.w3.org/2000/svg" d="M361.545,294h73.933a6,6,0,1,0,0-12H361.545a6,6,0,0,0,0,12Z" fill="#4d9b94" data-original="#000000" style=""/><path xmlns="http://www.w3.org/2000/svg" d="M205,206.239a6,6,0,0,0-6,6V438.153a6,6,0,0,0,12,0V212.239A6,6,0,0,0,205,206.239Z" fill="#4d9b94" data-original="#000000" style=""/><path xmlns="http://www.w3.org/2000/svg" d="M239,444.153a6,6,0,0,0,6-6V212.239a6,6,0,0,0-12,0V438.153A6,6,0,0,0,239,444.153Z" fill="#4d9b94" data-original="#000000" style=""/><path xmlns="http://www.w3.org/2000/svg" d="M272,444.153a6,6,0,0,0,6-6V212.239a6,6,0,0,0-12,0V438.153A6,6,0,0,0,272,444.153Z" fill="#4d9b94" data-original="#000000" style=""/><path xmlns="http://www.w3.org/2000/svg" d="M306,444.153a6,6,0,0,0,6-6V212.239a6,6,0,0,0-12,0V438.153A6,6,0,0,0,306,444.153Z" fill="#4d9b94" data-original="#000000" style=""/><path xmlns="http://www.w3.org/2000/svg" d="M481.7,458H467V241.8a6.068,6.068,0,0,0-6.268-5.8H445V206.749A5.826,5.826,0,0,0,438.959,201H405V181.494a6,6,0,0,0-12,0V201H358.092A5.871,5.871,0,0,0,352,206.749V236H342V178.292A6.31,6.31,0,0,0,335.708,172H319v-8.761A27.057,27.057,0,0,0,291.96,136H261V122.982a64.906,64.906,0,0,0,18.276,2.633,64.1,64.1,0,0,0,45.468-18.8,6,6,0,0,0,0-8.485L287.764,61.345l12.71-12.711a19.4,19.4,0,1,0-8.2-8.769L279.279,52.86,242.3,15.878a6,6,0,0,0-8.485,0,64.373,64.373,0,0,0,0,90.934A74.956,74.956,0,0,0,249,118.069V136H220.04A27.057,27.057,0,0,0,193,163.239V172H175.681A5.68,5.68,0,0,0,170,177.681V298H160V278.749A5.928,5.928,0,0,0,153.844,273H119V257.494a6,6,0,0,0-12,0V273H72.976A5.771,5.771,0,0,0,67,278.749V298H51.2a6.01,6.01,0,0,0-6.2,5.8V458H30.3a6.321,6.321,0,0,0-6.3,6.3v29.636A6.078,6.078,0,0,0,30.061,500H481.939A6.078,6.078,0,0,0,488,493.939V464.3A6.321,6.321,0,0,0,481.7,458ZM309.72,24.462a7.271,7.271,0,1,1-7.272,7.271A7.28,7.28,0,0,1,309.72,24.462ZM364,213h69v23H364ZM242.3,98.327a52.379,52.379,0,0,1-4-69.479l73.48,73.48A52.379,52.379,0,0,1,242.3,98.327ZM205,163.239A15.044,15.044,0,0,1,220.04,148h71.92A15.044,15.044,0,0,1,307,163.239V172H205ZM79,285h69v13H79ZM57,310H170V458H144V435.133A5.873,5.873,0,0,0,138.292,429H88.527C85.214,429,83,431.819,83,435.133V458H57Zm75,131v17H95V441Zm344,47H36V470H196a6,6,0,0,0,0-12H182V184H330v78a6,6,0,0,0,12,0V248H455V458H429V423.133c0-3.314-2.278-6.133-5.592-6.133H373.643c-3.314,0-5.643,2.819-5.643,6.133V458H342V302a6,6,0,0,0-12,0V458H236a6,6,0,0,0,0,12H476Zm-59-59v29H380V429Z" fill="#4d9b94" data-original="#000000" style=""/></g></svg>
