<?xml version="1.0"?>
<svg xmlns="http://www.w3.org/2000/svg" xmlns:xlink="http://www.w3.org/1999/xlink" xmlns:svgjs="http://svgjs.com/svgjs" version="1.1" width="512" height="512" x="0" y="0" viewBox="0 0 512 512" style="enable-background:new 0 0 512 512" xml:space="preserve" class=""><g><g xmlns="http://www.w3.org/2000/svg"><g id="Page-1_7_"><g id="_x30_08---Newspaper-Column"><path id="Shape_52_" d="m486.4 128h-76.8v-102.4c0-14.138-11.462-25.6-25.6-25.6h-358.4c-14.138 0-25.6 11.462-25.6 25.6v426.667c.038 32.974 26.759 59.695 59.733 59.733h392.533c32.974-.038 59.696-26.759 59.733-59.733v-298.667c.001-14.138-11.46-25.6-25.599-25.6zm-426.667 366.933c-23.552-.028-42.638-19.114-42.667-42.667v-426.666c0-4.713 3.821-8.533 8.533-8.533h358.401c4.713 0 8.533 3.821 8.533 8.533v426.667c-.022 16.056 6.44 31.441 17.92 42.667h-350.72zm435.2-42.666c0 23.564-19.103 42.667-42.667 42.667s-42.667-19.103-42.667-42.667v-307.2h76.8c4.713 0 8.533 3.82 8.533 8.533v298.667z" fill="#4d9b94" data-original="#000000" style="" class=""/><path id="Shape_51_" d="m341.333 68.267h-273.066c-14.138 0-25.6 11.462-25.6 25.6v136.533c0 14.139 11.462 25.6 25.6 25.6h273.067c14.138 0 25.6-11.461 25.6-25.6v-136.533c-.001-14.139-11.462-25.6-25.601-25.6zm8.534 162.133c0 4.713-3.821 8.533-8.533 8.533h-273.067c-4.713 0-8.533-3.821-8.533-8.533v-136.533c0-4.713 3.821-8.533 8.533-8.533h273.067c4.713 0 8.533 3.821 8.533 8.533z" fill="#4d9b94" data-original="#000000" style="" class=""/><path id="Shape_50_" d="m51.2 51.2h128c4.713 0 8.533-3.821 8.533-8.533s-3.82-8.533-8.533-8.533h-128c-4.713 0-8.533 3.821-8.533 8.533s3.82 8.533 8.533 8.533z" fill="#4d9b94" data-original="#000000" style="" class=""/><path id="Shape_49_" d="m296.166 104.9c-3.332-3.331-8.734-3.331-12.066 0l-62.234 62.234-28.1-28.1c-3.332-3.331-8.734-3.331-12.066 0l-53.7 53.7-11.034-11.034c-3.332-3.331-8.734-3.331-12.066 0l-25.6 25.6c-2.218 2.143-3.108 5.315-2.327 8.299s3.111 5.313 6.094 6.094c2.984.781 6.156-.109 8.299-2.327l19.567-19.567 11.034 11.034c3.332 3.331 8.734 3.331 12.066 0l53.7-53.7 28.1 28.1c3.332 3.331 8.734 3.331 12.066 0l62.234-62.234 28.1 28.1c3.348 3.234 8.671 3.188 11.962-.104 3.292-3.292 3.338-8.614.104-11.962z" fill="#4d9b94" data-original="#000000" style="" class=""/><path id="Shape_48_" d="m213.333 298.667h-153.6c-4.713 0-8.533 3.82-8.533 8.533s3.821 8.533 8.533 8.533h153.6c4.713 0 8.533-3.82 8.533-8.533s-3.82-8.533-8.533-8.533z" fill="#4d9b94" data-original="#000000" style="" class=""/><path id="Shape_47_" d="m59.733 349.867h85.333c4.713 0 8.533-3.821 8.533-8.533s-3.821-8.533-8.533-8.533h-85.333c-4.713 0-8.533 3.82-8.533 8.533s3.821 8.533 8.533 8.533z" fill="#4d9b94" data-original="#000000" style="" class=""/><path id="Shape_46_" d="m213.333 366.933h-153.6c-4.713 0-8.533 3.821-8.533 8.533 0 4.713 3.821 8.533 8.533 8.533h153.6c4.713 0 8.533-3.821 8.533-8.533.001-4.712-3.82-8.533-8.533-8.533z" fill="#4d9b94" data-original="#000000" style="" class=""/><path id="Shape_45_" d="m59.733 418.133h85.333c4.713 0 8.533-3.821 8.533-8.533 0-4.713-3.821-8.533-8.533-8.533h-85.333c-4.713 0-8.533 3.821-8.533 8.533 0 4.713 3.821 8.533 8.533 8.533z" fill="#4d9b94" data-original="#000000" style="" class=""/><path id="Shape_44_" d="m213.333 435.2h-153.6c-4.713 0-8.533 3.821-8.533 8.533 0 4.713 3.821 8.533 8.533 8.533h153.6c4.713 0 8.533-3.821 8.533-8.533.001-4.712-3.82-8.533-8.533-8.533z" fill="#4d9b94" data-original="#000000" style="" class=""/><path id="Shape_43_" d="m319.71 278.11c-7.002-6.755-18.095-6.755-25.096 0l-33.28 32.887c-5.143 4.959-6.745 12.551-4.045 19.166 2.734 6.733 9.288 11.125 16.555 11.093h7.757v8.533c0 9.426 7.641 17.067 17.067 17.067h17.067c9.426 0 17.067-7.641 17.067-17.067v-8.457h7.765c7.266.032 13.821-4.361 16.555-11.093 2.699-6.589 1.118-14.158-3.994-19.115zm20.83 46.157h-16.273c-4.713 0-8.533 3.82-8.533 8.533v17.067h-17.067v-17.067c0-4.713-3.821-8.533-8.533-8.533h-16.299c-.213 0-.555 0-.572-1.015l33.34-32.905c.164-.145.378-.222.597-.213.198-.012.394.045.555.162l33.519 33.493c-.094.318-.405.521-.734.478z" fill="#4d9b94" data-original="#000000" style="" class=""/><path id="Shape_42_" d="m340.54 409.6h-7.74v-8.533c0-9.426-7.641-17.067-17.067-17.067h-17.067c-9.426 0-17.067 7.641-17.067 17.067v8.533h-7.765c-7.266-.032-13.821 4.361-16.555 11.093-2.697 6.589-1.116 14.156 3.994 19.115l33.391 32.973c7.003 6.76 18.102 6.76 25.105 0l33.28-32.887c5.145-4.958 6.747-12.552 4.045-19.166-2.722-6.747-9.279-11.154-16.554-11.128zm-32.751 50.978c-.354.255-.832.255-1.186 0l-33.536-33.434c.094-.322.411-.525.742-.478h16.324c4.713 0 8.533-3.82 8.533-8.533v-17.067h17.067v17.067c0 4.713 3.821 8.533 8.533 8.533h16.299c.213 0 .555 0 .58 1.015z" fill="#4d9b94" data-original="#000000" style="" class=""/></g></g></g></g></svg>
