<?xml version="1.0"?>
<svg xmlns="http://www.w3.org/2000/svg" xmlns:xlink="http://www.w3.org/1999/xlink" xmlns:svgjs="http://svgjs.com/svgjs" version="1.1" width="512" height="512" x="0" y="0" viewBox="0 0 512.011 512.011" style="enable-background:new 0 0 512 512" xml:space="preserve" class=""><g><g xmlns="http://www.w3.org/2000/svg"><path d="m37.505 150c-4.142 0-7.5 3.358-7.5 7.5v15c0 4.142 3.358 7.5 7.5 7.5s7.5-3.358 7.5-7.5v-15c0-4.142-3.358-7.5-7.5-7.5z" fill="#4d9b94" data-original="#000000" style="" class=""/><path d="m474.505 120h-105.667c-12.254 0-23.153 5.909-30 15.026-6.847-9.117-17.746-15.026-30-15.026h-105.666c-12.254 0-23.153 5.909-30 15.026-6.847-9.117-17.746-15.026-30-15.026h-105.667c-20.678 0-37.5 16.822-37.5 37.5v122.011c0 12.407 10.093 22.5 22.5 22.5 2.629 0 5.153-.458 7.5-1.29v124.863c0 14.566 11.851 26.417 26.417 26.417s26.417-11.851 26.417-26.417v-138.573h15v138.573c0 14.566 11.851 26.417 26.417 26.417s26.417-11.851 26.417-26.417v-124.786c2.337.784 4.858 1.213 7.5 1.213 5.892 0 11.186-2.108 15.158-5.611 3.965 3.488 9.159 5.611 14.842 5.611 2.629 0 5.153-.458 7.5-1.29v124.863c0 14.566 11.851 26.417 26.417 26.417s26.417-11.851 26.417-26.417v-138.573h15v138.573c0 14.566 11.851 26.417 26.416 26.417 14.566 0 26.417-11.851 26.417-26.417v-124.786c2.337.784 4.857 1.213 7.5 1.213 5.892 0 11.186-2.108 15.158-5.611 3.965 3.488 9.159 5.611 14.842 5.611 2.629 0 5.153-.458 7.5-1.29v124.863c0 14.566 11.851 26.417 26.417 26.417 14.565 0 26.416-11.851 26.416-26.417v-138.573h15v138.573c0 14.566 11.851 26.417 26.417 26.417 14.565 0 26.416-11.851 26.416-26.417v-124.786c2.337.784 4.858 1.213 7.501 1.213 12.617 0 22.5-9.664 22.5-22v-122.511c-.002-20.678-16.824-37.5-37.502-37.5zm-316.333 167.011c-4.276 0-7.5-3.009-7.5-7v-122.511c0-4.142-3.358-7.5-7.5-7.5s-7.5 3.358-7.5 7.5v268.083c0 6.295-5.122 11.417-11.417 11.417s-11.417-5.122-11.417-11.417v-146.072c0-4.142-3.358-7.5-7.5-7.5h-30c-4.142 0-7.5 3.358-7.5 7.5v146.073c0 6.295-5.122 11.417-11.417 11.417s-11.417-5.122-11.417-11.417v-223.084c0-4.142-3.358-7.5-7.5-7.5s-7.5 3.358-7.5 7.5v77.011c0 4.136-3.364 7.5-7.5 7.5s-7.5-3.364-7.5-7.5v-122.011c0-12.407 10.093-22.5 22.5-22.5h105.667c12.407 0 22.5 10.093 22.5 22.5v122.011c0 .168.009.333.013.5-.012 3.99-3.236 7-7.512 7zm165.666 0c-4.275 0-7.5-3.009-7.5-7v-122.511c0-4.142-3.357-7.5-7.5-7.5s-7.5 3.358-7.5 7.5v268.083c0 6.295-5.122 11.417-11.417 11.417s-11.416-5.122-11.416-11.417v-146.072c0-4.142-3.357-7.5-7.5-7.5h-30c-4.142 0-7.5 3.358-7.5 7.5v146.073c0 6.295-5.122 11.417-11.417 11.417s-11.417-5.122-11.417-11.417v-268.084c0-4.142-3.358-7.5-7.5-7.5s-7.5 3.358-7.5 7.5v122.011c0 4.136-3.365 7.5-7.5 7.5-4.136 0-7.5-3.364-7.5-7.5v-122.011c0-12.407 10.093-22.5 22.5-22.5h105.667c12.406 0 22.5 10.093 22.5 22.5v122.011c0 .168.009.333.013.5-.013 3.99-3.237 7-7.513 7zm173.167-7c0 3.991-3.225 7-7.5 7s-7.5-3.009-7.5-7c-.001 0-.001-122.511-.001-122.511 0-4.142-3.357-7.5-7.5-7.5s-7.5 3.358-7.5 7.5v268.083c0 6.295-5.121 11.417-11.416 11.417s-11.417-5.122-11.417-11.417v-146.072c0-4.142-3.357-7.5-7.5-7.5h-30c-4.143 0-7.5 3.358-7.5 7.5v146.073c0 6.295-5.121 11.417-11.416 11.417s-11.417-5.122-11.417-11.417v-268.084c0-4.142-3.357-7.5-7.5-7.5s-7.5 3.358-7.5 7.5v122.011c0 4.136-3.364 7.5-7.5 7.5s-7.5-3.364-7.5-7.5v-122.011c0-12.407 10.094-22.5 22.5-22.5h105.667c12.406 0 22.5 10.093 22.5 22.5z" fill="#4d9b94" data-original="#000000" style="" class=""/><path d="m90.01 105c28.949 0 52.5-23.551 52.5-52.5s-23.552-52.5-52.5-52.5-52.5 23.551-52.5 52.5 23.551 52.5 52.5 52.5zm0-90c20.678 0 37.5 16.822 37.5 37.5s-16.822 37.5-37.5 37.5-37.5-16.822-37.5-37.5 16.822-37.5 37.5-37.5z" fill="#4d9b94" data-original="#000000" style="" class=""/><path d="m421.343 105c28.948 0 52.5-23.551 52.5-52.5s-23.551-52.5-52.5-52.5-52.5 23.551-52.5 52.5 23.552 52.5 52.5 52.5zm0-90c20.678 0 37.5 16.822 37.5 37.5s-16.822 37.5-37.5 37.5-37.5-16.822-37.5-37.5 16.823-37.5 37.5-37.5z" fill="#4d9b94" data-original="#000000" style="" class=""/><path d="m256.005 105c28.948 0 52.5-23.551 52.5-52.5s-23.551-52.5-52.5-52.5-52.5 23.551-52.5 52.5 23.552 52.5 52.5 52.5zm0-90c20.678 0 37.5 16.822 37.5 37.5s-16.822 37.5-37.5 37.5-37.5-16.822-37.5-37.5 16.823-37.5 37.5-37.5z" fill="#4d9b94" data-original="#000000" style="" class=""/><path d="m158.172 467.011h-135.667c-12.407 0-22.5 10.093-22.5 22.5s10.093 22.5 22.5 22.5h135.667c12.407 0 22.5-10.093 22.5-22.5s-10.093-22.5-22.5-22.5zm0 30h-135.667c-4.136 0-7.5-3.364-7.5-7.5s3.364-7.5 7.5-7.5h135.667c4.136 0 7.5 3.364 7.5 7.5s-3.364 7.5-7.5 7.5z" fill="#4d9b94" data-original="#000000" style="" class=""/></g></g></svg>
