<svg id="SvgjsSvg1026" width="288" height="288" xmlns="http://www.w3.org/2000/svg" version="1.1" xmlns:xlink="http://www.w3.org/1999/xlink" xmlns:svgjs="http://svgjs.com/svgjs"><defs id="SvgjsDefs1027"></defs><g id="SvgjsG1028" transform="matrix(0.9167,0,0,0.9167,11.995200000000011,11.995200000000011)"><svg xmlns="http://www.w3.org/2000/svg" width="288" height="288" viewBox="0 0 48 48"><path d="M 24 0 C 10.751089 0 -7.1054274e-015 10.751088 0 24 C 0 37.248912 10.751088 48 24 48 C 37.248912 48 48 37.248912 48 24 C 48 10.751088 37.248912 -2.0000001e-007 24 0 z M 24 1 C 36.708472 0.9999998 47 11.291528 47 24 C 47 36.708472 36.708472 47 24 47 C 11.291529 47 1 36.708472 1 24 C 1 11.291529 11.291529 1 24 1 z M 24.496094 10 C 23.669095 10 22.996094 10.673 22.996094 11.5 L 22.996094 12 C 22.996094 12.054 23.004494 12.107203 23.021484 12.158203 L 23.302734 13 L 22.037109 13 C 21.848109 13 21.674845 13.106391 21.589844 13.275391 L 20.726562 15 L 20.037109 15 L 19.496094 15 L 19.496094 14.5 C 19.496095 14.224 19.272095 14 18.996094 14 L 12.449219 14 C 12.173219 14 11.949219 14.224 11.949219 14.5 C 11.949219 14.776 12.172219 15 12.449219 15 L 14.496094 15 L 14.496094 23 L 12.449219 23 C 12.173219 23 11.949219 23.224 11.949219 23.5 C 11.949219 23.776 12.172219 24 12.449219 24 L 18.996094 24 C 19.272094 24 19.496094 23.776 19.496094 23.5 L 19.496094 23 L 20.828125 23 L 21.681641 23.853516 C 21.766641 23.938516 21.881 23.985141 22 23.994141 L 16.896484 30.800781 C 15.867484 32.173781 15.703703 33.979672 16.470703 35.513672 C 17.237703 37.047672 18.781094 38 20.496094 38 L 31.496094 38 C 33.211094 38 34.753484 37.047672 35.521484 35.513672 C 36.288484 33.979672 36.124703 32.172781 35.095703 30.800781 L 29.798828 23.738281 C 30.193828 23.468281 30.455078 23.014 30.455078 22.5 C 30.455078 22.114 30.306406 21.766 30.066406 21.5 C 30.306406 21.234 30.455078 20.886 30.455078 20.5 C 30.455078 20.114 30.306406 19.766 30.066406 19.5 C 30.306406 19.234 30.455078 18.886 30.455078 18.5 C 30.455078 18.114 30.306406 17.766 30.066406 17.5 C 30.306406 17.234 30.455078 16.886 30.455078 16.5 C 30.455078 15.733 29.875812 15.106578 29.132812 15.017578 L 29.476562 13.640625 L 29.96875 12.158203 C 29.98575 12.107203 29.996094 12.054 29.996094 12 L 29.996094 11.5 C 29.996094 10.673 29.323094 10 28.496094 10 C 28.110095 10 27.762094 10.150625 27.496094 10.390625 C 27.230095 10.150625 26.882094 10 26.496094 10 C 26.110095 10 25.762095 10.150625 25.496094 10.390625 C 25.230095 10.150625 24.882091 10 24.496094 10 z M 24.496094 11 C 24.772094 11 24.996094 11.225 24.996094 11.5 L 24.996094 12 C 24.996094 12.276 25.220095 12.5 25.496094 12.5 C 25.772094 12.5 25.996094 12.276 25.996094 12 L 25.996094 11.5 C 25.996094 11.225 26.220095 11 26.496094 11 C 26.772094 11 26.996094 11.225 26.996094 11.5 L 26.996094 12 C 26.996094 12.276 27.220095 12.5 27.496094 12.5 C 27.772094 12.5 27.996094 12.276 27.996094 12 L 27.996094 11.5 C 27.996094 11.225 28.220095 11 28.496094 11 C 28.772094 11 28.996094 11.225 28.996094 11.5 L 28.996094 11.919922 L 28.521484 13.341797 C 28.519484 13.347797 28.521578 13.354328 28.519531 13.361328 C 28.517531 13.367328 28.512719 13.373859 28.511719 13.380859 L 28.105469 15 L 24.884766 15 L 24.480469 13.378906 C 24.478469 13.371906 24.472703 13.366375 24.470703 13.359375 C 24.468703 13.353375 24.470797 13.346797 24.46875 13.341797 L 23.994141 11.919922 L 23.994141 11.5 L 23.996094 11.5 C 23.996094 11.225 24.220095 11 24.496094 11 z M 22.345703 14 L 23.605469 14 L 24.011719 15.621094 C 24.015719 15.635094 24.024297 15.647156 24.029297 15.660156 C 24.037297 15.684156 24.046594 15.706516 24.058594 15.728516 C 24.075594 15.760516 24.096141 15.788406 24.119141 15.816406 C 24.134141 15.834406 24.149026 15.852187 24.166016 15.867188 C 24.175016 15.875187 24.180453 15.886531 24.189453 15.894531 C 24.190453 15.895531 24.192359 15.895437 24.193359 15.896484 C 24.214359 15.912484 24.238719 15.921594 24.261719 15.933594 C 24.279719 15.943594 24.296406 15.955891 24.316406 15.962891 C 24.372406 15.986891 24.431141 16 24.494141 16 L 28.494141 16 L 28.953125 16 C 29.229125 16 29.453125 16.225 29.453125 16.5 C 29.453125 16.775 29.231078 17 28.955078 17 L 26.607422 17 C 26.331422 17 26.107422 17.224 26.107422 17.5 C 26.107422 17.776 26.331422 18 26.607422 18 L 28.955078 18 C 29.231078 18 29.455078 18.225 29.455078 18.5 C 29.455078 18.775 29.231078 19 28.955078 19 L 26.607422 19 C 26.331422 19 26.107422 19.224 26.107422 19.5 C 26.107422 19.776 26.331422 20 26.607422 20 L 28.955078 20 C 29.231078 20 29.455078 20.225 29.455078 20.5 C 29.455078 20.775 29.231078 21 28.955078 21 L 26.607422 21 C 26.331422 21 26.107422 21.224 26.107422 21.5 C 26.107422 21.776 26.331422 22 26.607422 22 L 28.955078 22 C 29.231078 22 29.455078 22.225 29.455078 22.5 C 29.455078 22.775 29.231078 23 28.955078 23 L 28.037109 23 L 27.257812 23 L 26.609375 23 L 24.734375 23 L 22.996094 23 L 22.244141 23 L 21.390625 22.146484 C 21.344625 22.100484 21.287562 22.063114 21.226562 22.037109 C 21.164563 22.012065 21.102109 22 21.037109 22 L 19.496094 22 L 19.496094 16 L 20.037109 16 L 21.037109 16 C 21.124109 16 21.202438 15.972594 21.273438 15.933594 C 21.292437 15.923594 21.307219 15.910438 21.324219 15.898438 C 21.380219 15.857437 21.425938 15.808048 21.460938 15.748047 C 21.466938 15.738047 21.479375 15.735609 21.484375 15.724609 L 22.345703 14 z M 15.496094 15 L 18.496094 15 L 18.496094 15.5 L 18.496094 22.5 L 18.496094 23 L 15.496094 23 L 15.496094 15 z M 16.996094 21 C 16.719952 21 16.496094 21.223858 16.496094 21.5 C 16.496094 21.776142 16.719952 22 16.996094 22 C 17.272236 22 17.496094 21.776142 17.496094 21.5 C 17.496094 21.223858 17.272236 21 16.996094 21 z M 23.246094 24 L 24.050781 24 L 23.625 25.349609 C 23.542 25.613609 23.68817 25.893564 23.951172 25.976562 C 24.001172 25.992562 24.052562 26 24.101562 26 C 24.313562 26 24.511125 25.863391 24.578125 25.650391 L 25.099609 24 L 25.496094 24 L 25.496094 25.5 C 25.496094 25.776 25.720094 26 25.996094 26 C 26.272094 26 26.496094 25.776 26.496094 25.5 L 26.496094 24 L 26.609375 24 L 26.892578 24 L 27.414062 25.650391 C 27.497062 25.913391 27.779016 26.059562 28.041016 25.976562 C 28.304016 25.893563 28.450187 25.613609 28.367188 25.349609 L 27.939453 24 L 28.035156 24 L 28.744141 24 L 34.294922 31.398438 C 35.107922 32.482436 35.231 33.853453 34.625 35.064453 C 34.019003 36.275453 32.851095 37 31.496094 37 L 20.496094 37 C 19.142095 37 17.970234 36.276453 17.365234 35.064453 C 16.759234 33.853453 16.883313 32.482438 17.695312 31.398438 L 23.246094 24 z M 23.996094 27.972656 C 23.720095 27.972656 23.496094 28.196656 23.496094 28.472656 C 23.496094 28.748656 23.720095 28.972656 23.996094 28.972656 L 24.996094 28.972656 C 25.653095 28.972656 26.205203 29.399281 26.408203 29.988281 L 23.996094 29.988281 C 23.720095 29.988281 23.496094 30.212281 23.496094 30.488281 C 23.496094 30.764281 23.720095 30.988281 23.996094 30.988281 L 26.398438 30.988281 C 26.187438 31.561281 25.641094 31.972656 24.996094 31.972656 L 23.996094 31.972656 C 23.720095 31.972656 23.496094 32.196656 23.496094 32.472656 C 23.496094 32.475656 23.497001 32.477469 23.498047 32.480469 C 23.496047 32.611469 23.542577 32.742797 23.642578 32.841797 L 26.642578 35.841797 C 26.740578 35.939797 26.868094 35.988281 26.996094 35.988281 C 27.124095 35.988281 27.251609 35.938801 27.349609 35.841797 C 27.544609 35.646797 27.544609 35.329766 27.349609 35.134766 L 25.169922 32.955078 C 26.291922 32.876078 27.215406 32.064281 27.441406 30.988281 L 27.996094 30.988281 C 28.272094 30.988281 28.496094 30.764281 28.496094 30.488281 C 28.496094 30.212281 28.272095 29.988281 27.996094 29.988281 L 27.447266 29.988281 C 27.372266 29.610281 27.208375 29.268656 26.984375 28.972656 L 27.996094 28.972656 C 28.272094 28.972656 28.496094 28.748656 28.496094 28.472656 C 28.496094 28.196656 28.272094 27.972656 27.996094 27.972656 L 24.996094 27.972656 L 23.996094 27.972656 z " fill="#4d9b94" class="color000 svgShape"></path></svg></g></svg>