<?xml version="1.0"?>
<svg xmlns="http://www.w3.org/2000/svg" xmlns:xlink="http://www.w3.org/1999/xlink" xmlns:svgjs="http://svgjs.com/svgjs" version="1.1" width="512" height="512" x="0" y="0" viewBox="0 0 64 64" style="enable-background:new 0 0 512 512" xml:space="preserve" class=""><g><g xmlns="http://www.w3.org/2000/svg"><path d="M61,2H21a1,1,0,0,0-1,1v7H17.93a8,8,0,1,0-1.37,5.57,1,1,0,0,0-1.62-1.16,3,3,0,0,0-1.68-2.13A3.43,3.43,0,0,0,13.5,11a3.5,3.5,0,0,0-7,0,3.43,3.43,0,0,0,.24,1.28,3,3,0,0,0-1.67,2.13A6,6,0,1,1,16,11a1,1,0,0,0,1,1h3V31a1,1,0,0,0,1,1h4a1,1,0,0,0,0-2H22V12H34v1a1,1,0,0,0,1,1h5v2H29a1,1,0,0,0-1,1v3H25a1,1,0,0,0-1,1v4a1,1,0,0,0,1,1h3v7a3,3,0,0,0,3,3h9v3H34a3,3,0,0,0-3,3v1H17.93a8,8,0,1,0-1.37,5.57,1,1,0,0,0-1.62-1.16,3,3,0,0,0-1.68-2.13A3.43,3.43,0,0,0,13.5,44a3.5,3.5,0,0,0-7,0,3.43,3.43,0,0,0,.24,1.28,3,3,0,0,0-1.67,2.13A6,6,0,1,1,16,44a1,1,0,0,0,1,1H31v1.07a8,8,0,1,0,5.57,1.37,1,1,0,1,0-1.14,1.64,6,6,0,0,1,1.5,8.33,3,3,0,0,0-1.67-2.13A3.43,3.43,0,0,0,35.5,54a3.5,3.5,0,0,0-7,0,3.43,3.43,0,0,0,.24,1.28,3,3,0,0,0-1.67,2.13A6,6,0,0,1,32,48a1,1,0,0,0,1-1V45h6a3,3,0,0,0,3-3V41h2a3,3,0,0,0,3-3V36h4a1,1,0,0,1,1,1v7.07a8,8,0,1,0,5.57,1.37,1,1,0,1,0-1.14,1.64,6,6,0,0,1,1.5,8.33,3,3,0,0,0-1.67-2.13A3.43,3.43,0,0,0,56.5,52a3.5,3.5,0,0,0-7,0,3.43,3.43,0,0,0,.24,1.28,3,3,0,0,0-1.67,2.13A6,6,0,0,1,53,46a1,1,0,0,0,1-1V37a3,3,0,0,0-3-3H47V33a1,1,0,0,1,1-1h3a3,3,0,0,0,3-3V26h3a1,1,0,0,0,0-2H50V22h7a1,1,0,0,0,0-2H54V17a1,1,0,0,0-1-1H42V14h5a1,1,0,0,0,0-2H36V10H47a1,1,0,0,0,0-2H35a1,1,0,0,0-1,1v1H22V4H60V30H57a1,1,0,0,0,0,2h4a1,1,0,0,0,1-1V3A1,1,0,0,0,61,2ZM8,14h.51a1,1,0,0,0,1-.69,1,1,0,0,0-.35-1.11,1.5,1.5,0,1,1,1.78,0,1,1,0,0,0-.35,1.11,1,1,0,0,0,1,.69H12a1,1,0,0,1,1,1v1.18a5.93,5.93,0,0,1-6,0V15A1,1,0,0,1,8,14ZM8,47h.51a1,1,0,0,0,1-.69,1,1,0,0,0-.35-1.11,1.5,1.5,0,1,1,1.78,0,1,1,0,0,0-.35,1.11,1,1,0,0,0,1,.69H12a1,1,0,0,1,1,1v1.18a5.93,5.93,0,0,1-6,0V48A1,1,0,0,1,8,47ZM30,57h.51a1,1,0,0,0,.95-.69,1,1,0,0,0-.35-1.11,1.5,1.5,0,1,1,1.78,0,1,1,0,0,0-.35,1.11,1,1,0,0,0,1,.69H34a1,1,0,0,1,1,1v1.19a6,6,0,0,1-6,0V58A1,1,0,0,1,30,57Zm21-2h.51a1,1,0,0,0,1-.69,1,1,0,0,0-.35-1.11,1.5,1.5,0,1,1,1.78,0,1,1,0,0,0-.35,1.11,1,1,0,0,0,1,.69H55a1,1,0,0,1,1,1v1.19a6,6,0,0,1-6,0V56A1,1,0,0,1,51,55ZM26,22h6v2H26Zm5,12a1,1,0,0,1-1-1V26h3a1,1,0,0,0,1-1V21a1,1,0,0,0-1-1H30V18H40v2H37a1,1,0,0,0-1,1v4a1,1,0,0,0,1,1h3v8Zm7-10V22h6v2Zm2,18a1,1,0,0,1-1,1H33V42a1,1,0,0,1,1-1h6Zm5-4a1,1,0,0,1-1,1H42V36h3Zm7-20v2H49a1,1,0,0,0-1,1v4a1,1,0,0,0,1,1h3v3a1,1,0,0,1-1,1H48a3,3,0,0,0-3,3v1H42V26h3a1,1,0,0,0,1-1V21a1,1,0,0,0-1-1H42V18Z" fill="#4d9b94" data-original="#000000" style="" class=""/><path d="M37,30H33a1,1,0,0,0,0,2h4a1,1,0,0,0,0-2Z" fill="#4d9b94" data-original="#000000" style="" class=""/><circle cx="10" cy="33" r="1" fill="#4d9b94" data-original="#000000" style="" class=""/><circle cx="10" cy="29" r="1" fill="#4d9b94" data-original="#000000" style="" class=""/><circle cx="10" cy="25" r="1" fill="#4d9b94" data-original="#000000" style="" class=""/><circle cx="10" cy="21" r="1" fill="#4d9b94" data-original="#000000" style="" class=""/></g></g></svg>
