<?xml version="1.0" standalone="no"?>
<!DOCTYPE svg PUBLIC "-//W3C//DTD SVG 20010904//EN"
 "http://www.w3.org/TR/2001/REC-SVG-20010904/DTD/svg10.dtd">
<svg version="1.0" xmlns="http://www.w3.org/2000/svg"
 width="400.000000pt" height="400.000000pt" viewBox="0 0 400.000000 400.000000"
 preserveAspectRatio="xMidYMid meet">
<metadata>
Created by potrace 1.11, written by Peter Selinger 2001-2013
</metadata>
<g transform="translate(0.000000,400.000000) scale(0.100000,-0.100000)"
fill="#000000" stroke="none">
<path d="M890 2040 l0 -450 85 0 85 0 2 231 3 232 28 21 c41 30 118 29 149 -2
22 -22 23 -28 26 -252 l3 -230 85 0 84 0 0 223 c-1 235 -8 292 -43 344 -63 93
-224 103 -314 20 l-23 -20 0 166 0 167 -85 0 -85 0 0 -450z"/>
<path d="M2270 2040 l0 -450 85 0 85 0 0 450 0 450 -85 0 -85 0 0 -450z"/>
<path d="M2784 2229 c-104 -14 -198 -89 -206 -164 l-3 -30 83 -3 c69 -2 82 0
82 13 0 31 46 65 89 65 54 0 90 -32 98 -86 l5 -41 -93 -6 c-148 -10 -226 -46
-260 -121 -62 -137 33 -276 191 -276 54 0 130 26 144 49 12 18 23 13 30 -14 6
-24 9 -25 92 -25 78 0 85 2 78 18 -4 9 -10 118 -14 242 -5 206 -8 229 -28 267
-47 89 -153 130 -288 112z m144 -411 c-3 -58 -5 -64 -37 -85 -72 -49 -161 -21
-161 50 0 66 44 94 148 96 l53 1 -3 -62z"/>
<path d="M1772 2202 c-29 -11 -70 -33 -90 -49 -37 -30 -102 -108 -102 -123 0
-4 30 9 68 29 64 35 71 36 167 36 91 0 106 -3 165 -31 58 -27 117 -78 165
-139 14 -19 15 -17 9 30 -3 28 -14 68 -24 91 -57 133 -221 204 -358 156z"/>
<path d="M1725 1656 l-50 -12 59 -22 c35 -14 75 -22 99 -20 l40 3 -46 33 c-25
17 -47 32 -49 31 -1 0 -25 -6 -53 -13z"/>
</g>
</svg>
