<svg id="SvgjsSvg1011" width="288" height="288" xmlns="http://www.w3.org/2000/svg" version="1.1" xmlns:xlink="http://www.w3.org/1999/xlink" xmlns:svgjs="http://svgjs.com/svgjs"><defs id="SvgjsDefs1012"></defs><g id="SvgjsG1013" transform="matrix(0.9167,0,0,0.9167,11.935581065368666,11.935582971954346)"><svg xmlns="http://www.w3.org/2000/svg" fill-rule="evenodd" stroke-linejoin="round" stroke-miterlimit="2" clip-rule="evenodd" viewBox="0 0 134 134" width="288" height="288"><path d="M27.064,93.73l-0,12.124c-0,2.31 -0.918,4.525 -2.551,6.159c-1.634,1.633 -3.849,2.551 -6.159,2.551c-1.111,-0 -2.264,-0 -3.374,-0c-2.31,-0 -4.526,-0.918 -6.159,-2.551c-1.634,-1.634 -2.551,-3.849 -2.551,-6.159c-0,-7.747 -0,-20.48 -0,-28.271l-0,0c-0,-2.337 0.928,-4.579 2.581,-6.232c1.653,-1.653 3.895,-2.581 6.232,-2.581c20.608,-0 82.559,-0 103.167,-0c2.338,-0 4.579,0.928 6.232,2.581c1.653,1.653 2.582,3.895 2.582,6.232c-0,7.8 -0,20.551 -0,28.296c-0,4.796 -3.889,8.685 -8.685,8.685c-1.127,-0 -2.298,-0 -3.424,-0c-4.797,-0 -8.685,-3.889 -8.685,-8.685l-0,-12.149l-79.206,0Zm-16.667,-16.147c0,-1.243 0.494,-2.435 1.373,-3.313c0.878,-0.879 2.07,-1.373 3.313,-1.373c20.608,0 82.559,0 103.167,0c1.243,0 2.435,0.494 3.314,1.373c0.879,0.878 1.372,2.07 1.372,3.313c0,7.8 0,20.551 0,28.296c0,2.517 -2.04,4.557 -4.557,4.557c-1.127,0 -2.298,0 -3.424,0c-2.517,0 -4.558,-2.04 -4.558,-4.557c0,-6.101 0,-14.212 0,-14.212c0,-1.14 -0.924,-2.064 -2.064,-2.064l-83.333,-0c-1.14,-0 -2.064,0.924 -2.064,2.064l0,14.187c0,1.215 -0.483,2.381 -1.342,3.24c-0.859,0.859 -2.025,1.342 -3.24,1.342l-3.374,0c-1.216,0 -2.381,-0.483 -3.241,-1.342c-0.859,-0.859 -1.342,-2.025 -1.342,-3.24l0,-28.271Z" fill="#4d9b94" class="color000 svgShape"></path><path d="M60.397 91.667c0-1.14-.924-2.064-2.064-2.064l-12.5 0c-1.139 0-2.063.924-2.063 2.064l0 4.175c0 2.202.875 4.315 2.432 5.872 1.558 1.558 3.67 2.433 5.873 2.433.006 0 .011 0 .017 0 2.202 0 4.315-.875 5.872-2.433 1.558-1.557 2.433-3.67 2.433-5.872 0-2.218 0-4.175 0-4.175zm-4.127 2.063l-8.373 0 0 2.112c0 1.108.44 2.17 1.224 2.954.783.783 1.846 1.224 2.954 1.224.006 0 .011 0 .017 0 1.108 0 2.17-.441 2.954-1.224.783-.784 1.224-1.846 1.224-2.954l0-2.112zM89.564 91.667c0-1.14-.924-2.064-2.064-2.064l-12.5 0c-1.14 0-2.064.924-2.064 2.064l0 4.175c0 2.202.875 4.315 2.433 5.872 1.557 1.558 3.67 2.433 5.873 2.433.005 0 .011 0 .016 0 2.203 0 4.316-.875 5.873-2.433 1.558-1.557 2.433-3.67 2.433-5.872 0-2.218 0-4.175 0-4.175zm-4.128 2.063l-8.372 0 0 2.112c0 1.108.44 2.17 1.223 2.954.784.783 1.847 1.224 2.955 1.224.005 0 .011 0 .016 0 1.108 0 2.171-.441 2.955-1.224.783-.784 1.223-1.846 1.223-2.954l0-2.112zM60.397 64.583c0-5.52-2.193-10.814-6.096-14.717-3.903-3.903-9.198-6.096-14.718-6.096l0 2.063c0-2.063 0-2.063 0-2.063-5.52 0-10.814 2.193-14.717 6.096-3.904 3.903-6.096 9.197-6.096 14.717 0 3.588 0 6.25 0 6.25 0 1.14.924 2.064 2.063 2.064l37.5 0c1.14 0 2.064-.924 2.064-2.064l0-6.25zm-4.127 4.187l0-4.187c0-4.425-1.758-8.669-4.888-11.799-3.129-3.129-7.373-4.887-11.799-4.887l0-2.064 0 2.064c-4.425 0-8.669 1.758-11.799 4.887-3.129 3.13-4.887 7.374-4.887 11.799l0 4.187 33.373 0zM114.564 64.583c0-5.52-2.193-10.814-6.096-14.717-3.904-3.903-9.198-6.096-14.718-6.096l0 2.063c0-2.063 0-2.063 0-2.063-5.52 0-10.814 2.193-14.718 6.096-3.903 3.903-6.096 9.197-6.096 14.717 0 3.588 0 6.25 0 6.25 0 1.14.924 2.064 2.064 2.064l37.5 0c1.14 0 2.064-.924 2.064-2.064l0-6.25zm-4.128 4.187l0-4.187c0-4.425-1.758-8.669-4.887-11.799-3.129-3.129-7.374-4.887-11.799-4.887l0-2.064 0 2.064c-4.425 0-8.67 1.758-11.799 4.887-3.129 3.13-4.887 7.374-4.887 11.799l0 4.187 33.372 0z" fill="#4d9b94" class="color000 svgShape"></path><path d="M39.583 18.77c-8.038 0-14.563 6.525-14.563 14.563 0 8.038 6.525 14.564 14.563 14.564 8.038 0 14.564-6.526 14.564-14.564 0-8.038-6.526-14.563-14.564-14.563zm0 4.127c5.76 0 10.437 4.676 10.437 10.436 0 5.76-4.677 10.437-10.437 10.437-5.76 0-10.436-4.677-10.436-10.437 0-5.76 4.676-10.436 10.436-10.436zM93.75 18.77c-8.038 0-14.564 6.525-14.564 14.563 0 8.038 6.526 14.564 14.564 14.564 8.038 0 14.564-6.526 14.564-14.564 0-8.038-6.526-14.563-14.564-14.563zm0 4.127c5.76 0 10.436 4.676 10.436 10.436 0 5.76-4.676 10.437-10.436 10.437-5.76 0-10.436-4.677-10.436-10.437 0-5.76 4.676-10.436 10.436-10.436z" fill="#4d9b94" class="color000 svgShape"></path></svg></g></svg>