<?xml version="1.0"?>
<svg xmlns="http://www.w3.org/2000/svg" xmlns:xlink="http://www.w3.org/1999/xlink" xmlns:svgjs="http://svgjs.com/svgjs" version="1.1" width="512" height="512" x="0" y="0" viewBox="0 0 378.851 378.851" style="enable-background:new 0 0 512 512" xml:space="preserve" class=""><g>
<g xmlns="http://www.w3.org/2000/svg">
	<g>
		<path d="M294.686,198.131l43.84-18.64c4.064-1.734,5.952-6.435,4.217-10.498c-0.689-1.614-1.89-2.957-3.417-3.822l-21.76-12.48    l21.36-9.04c4.064-1.734,5.952-6.435,4.217-10.498c-0.689-1.614-1.89-2.957-3.417-3.822l-22.16-12.48l21.36-9.04    c4.064-1.734,5.952-6.435,4.217-10.498c-0.689-1.614-1.89-2.957-3.417-3.822l-22.16-12.48l21.36-9.04    c4.064-1.734,5.952-6.435,4.217-10.498c-0.689-1.614-1.89-2.957-3.417-3.822l-101.04-56.64c-2.137-1.19-4.701-1.338-6.96-0.4    l-74.8,30.64c-0.905,0.036-1.798,0.225-2.64,0.56l-45.68,19.2l-93.84,38.48c-4.117,1.605-6.153,6.243-4.548,10.359    c0.645,1.655,1.823,3.049,3.348,3.961l22,12.96l-20.8,8.64c-4.099,1.649-6.086,6.308-4.437,10.407    c0.64,1.592,1.775,2.935,3.237,3.833l22,12.96l-20.96,8.64c-4.096,1.657-6.072,6.321-4.415,10.417    c0.663,1.638,1.85,3.01,3.375,3.903l22,12.96l-20.8,8.88c-4.046,1.774-5.889,6.493-4.115,10.539    c0.618,1.41,1.63,2.612,2.914,3.461l24.48,14.4v112c0,26.64,46,41.04,89.28,41.04c29.2,0,59.52-6.56,76.24-19.04    c16,11.68,44.32,19.04,76.4,19.04c43.28,0,89.28-14.4,89.28-41.04v-99.2C369.326,214.931,333.086,201.011,294.686,198.131z     M258.286,196.291v-18.48l40.48-17.2l18.8,10.56L258.286,196.291z M258.286,160.451v-18.48l40.48-17.2l18.8,10.56L258.286,160.451    z M258.286,124.611v-18.56l40.48-17.2l18.8,10.64L258.286,124.611z M234.286,16.851l83.28,46.72l-66.8,28.24l-75.84-50.64    L234.286,16.851z M110.286,67.651l76.72,51.2l-67.44,28.64l-83.84-49.28L110.286,67.651z M53.086,126.931l61.84,36.4    c2.188,1.295,4.86,1.473,7.2,0.48l73.68-31.28v18.48l-37.6,16c-21.696-3.48-43.826-3.236-65.44,0.72l-57.04-33.68L53.086,126.931z     M195.726,168.371v10.16c-3.795-1.981-7.725-3.692-11.76-5.12L195.726,168.371z M38.206,205.411v1.68l-2.48-1.44l2.56-1.04    L38.206,205.411z M35.726,169.811l17.36-7.12l17.92,10.72c-5.602,2.091-10.966,4.772-16,8L35.726,169.811z M200.686,337.811    c0,10.24-28.56,25.04-73.28,25.04c-44.72,0-73.28-14.8-73.28-25.04v-8.96c17.2,11.12,45.76,16.96,73.28,16.96    c27.52,0,56-5.84,73.28-16.96V337.811z M200.686,304.771c0,10.24-28.56,25.04-73.28,25.04c-44.72,0-73.28-14.8-73.28-25.04v-8.96    c17.2,11.12,45.76,16.96,73.28,16.96c27.52,0,56-5.84,73.28-16.96V304.771z M200.686,271.731c0,10.24-28.56,25.04-73.28,25.04    c-44.72,0-73.28-14.8-73.28-25.04v-8.96c17.2,11.12,45.76,16.96,73.28,16.96c27.52,0,56-5.84,73.28-16.96V271.731z     M200.686,238.691c0,10.24-28.56,25.04-73.28,25.04c-44.72,0-73.28-14.88-73.28-25.04v-9.28c17.2,11.12,45.76,16.96,73.28,16.96    c27.52,0,56-5.84,73.28-16.96V238.691z M127.486,230.611l-0.08,0.08c-44.72,0-73.28-14.88-73.28-25.04    c0-10.16,28.56-25.04,73.28-25.04c44.72,0,73.36,14.72,73.36,24.8C200.766,215.491,172.206,230.611,127.486,230.611z     M208.206,113.811l-80-53.44l28.88-11.84l85.04,56.72v96c-8.72,1.732-17.224,4.415-25.36,8v-3.84    c-0.063-5.135-1.805-10.108-4.96-14.16v-70.8C211.792,117.775,210.441,115.283,208.206,113.811z M353.326,337.811    c0,10.24-28.56,25.04-73.28,25.04c-31.36,0-54.56-7.28-65.76-15.12c1.547-3.08,2.368-6.473,2.4-9.92v-3.52    c20.121,8.095,41.677,12.014,63.36,11.52c27.52,0,56-5.84,73.28-16.96V337.811z M353.326,304.771c0,10.24-28.56,25.04-73.28,25.04    c-21.923,0.815-43.703-3.859-63.36-13.6v-14.8c20.121,8.095,41.677,12.014,63.36,11.52c27.52,0,56-5.84,73.28-16.96V304.771z     M353.326,271.731c0,10.24-28.56,25.04-73.28,25.04c-21.923,0.819-43.704-3.856-63.36-13.6v-15.04    c20.121,8.095,41.677,12.014,63.36,11.52c27.52,0,56-5.84,73.28-16.96V271.731z M280.046,263.731L280.046,263.731    c-21.923,0.819-43.704-3.856-63.36-13.6v-22.96c19.644-9.793,41.424-14.522,63.36-13.76c44.72,0,73.28,14.88,73.28,25.04    C353.326,248.611,324.846,263.731,280.046,263.731z" fill="#4d9b94" data-original="#000000" style="" class=""/>
	</g>
</g>
<g xmlns="http://www.w3.org/2000/svg">
</g>
<g xmlns="http://www.w3.org/2000/svg">
</g>
<g xmlns="http://www.w3.org/2000/svg">
</g>
<g xmlns="http://www.w3.org/2000/svg">
</g>
<g xmlns="http://www.w3.org/2000/svg">
</g>
<g xmlns="http://www.w3.org/2000/svg">
</g>
<g xmlns="http://www.w3.org/2000/svg">
</g>
<g xmlns="http://www.w3.org/2000/svg">
</g>
<g xmlns="http://www.w3.org/2000/svg">
</g>
<g xmlns="http://www.w3.org/2000/svg">
</g>
<g xmlns="http://www.w3.org/2000/svg">
</g>
<g xmlns="http://www.w3.org/2000/svg">
</g>
<g xmlns="http://www.w3.org/2000/svg">
</g>
<g xmlns="http://www.w3.org/2000/svg">
</g>
<g xmlns="http://www.w3.org/2000/svg">
</g>
</g></svg>
